<svg xmlns="http://www.w3.org/2000/svg" fill="none" viewBox="0 0 174 165">
  <path fill="#EB2457" d="M69.4933.3526c-.1003-.0518-.1931-.1111-.2792-.166-.1759-.1124-.3236-.2067-.4488-.1829-.1475.028-.2733.1705-.399.313-.0547.0618-.1093.1237-.1657.1762.0709.0488.1404.1036.21.1584.173.1363.3462.2726.5401.3171.0734.017.1863-.139.3216-.3259.0686-.0948.143-.1976.221-.2899Zm34.5457 5.3732c.138.1195.292.2513.466.3786-.166.1142-.312.235-.442.342v.0004l-.001.0002c-.244.2019-.429.3543-.567.3193-.265-.0671-.498-.2663-.73-.4653-.098-.0832-.195-.1663-.294-.2398.086-.0845.171-.1897.257-.2948.195-.2382.39-.4764.583-.4754.223.001.446.1926.728.4348Zm-6.4343 5.6541-.0181-.0335-.2481-.453a327.227 327.227 0 0 0-.1995-.3638c-.1534-.0562-.3066-.1228-.4598-.1894-.3773-.164-.7546-.3281-1.1352-.3367-.1619-.0038-.3305.2881-.499.5801l-.0001.0001c-.0765.1326-.153.2652-.229.3701.1495.0871.2964.1861.4434.2852.3431.2313.6863.4626 1.0616.5422.2643.0561.5704-.0861.8766-.2283.137-.0636.274-.1272.4072-.173Zm-22.6593 5.9585c1.5233.3359 3.0595.4083 4.3989-1.1135-1.6995-1.6758-3.2927-2.1964-4.506-1.4314-.4598.2902-.8641.9617-.9185 1.4978-.0328.3249.6029.9537 1.0256 1.0467v.0004Zm49.6406 5.974c-.75.5209-2.308.3049-3.321-.0739-2.672-.9986-4.538-3.0817-6.074-5.4154-.749-1.1382-.328-1.9493.97-2.1882.369-.0678.749-.0729 1.129-.078.173-.0023.346-.0047.517-.0128.025-.0776.05-.1547.076-.2319.47.1392.951.2585 1.433.3778 1.121.2779 2.241.5559 3.229 1.0846 1.044.5586 1.942 1.6699 2.528 2.7424.686 1.256.702 2.9706-.487 3.7954Zm-56.6488.2577c-1.1389-.501-2.1976-.6852-3.4612-.5298l-.0008.0011c-2.9278.3596-5.8295.0295-8.7253-.707.0556-.1485.0962-.2834.1298-.395.0561-.1869.0926-.3081.1472-.3168.9132-.1479 1.8037-.3959 2.6947-.644 1.8078-.5034 3.6176-1.0074 5.6234-.677 2.6141.4305 5.2472.7426 7.8806 1.0549 2.4007.2846 4.8015.5692 7.1883.9435 1.755.2752 3.4777.7585 5.3656 1.288l.0003.0001.0003.0001c.9032.2533 1.8443.5173 2.8449.7742-1.4058-1.3959-2.9762-2.0399-4.474-2.6542-.8982-.3683-1.7703-.726-2.5652-1.2287 5.7788.8344 11.4252 2.0631 16.7566 4.4648 8.8046 3.9655 16.6616 9.2074 22.5486 17.0481.995 1.3238 1.878 2.7331 2.76 4.1395v.0002l.002.0027c.151.2408.302.4816.454.7218.893 1.4163 1.795 2.738 3.325 3.6333.791.4634 1.503 1.4572 1.775 2.3563l.178.5923.001.0007c1.492 4.9407 2.986 9.8893 4.16 14.9104.369 1.5766.32 3.2534.271 4.9264v.0001c-.02.6639-.039 1.3272-.033 1.9834.002.2031-.127.4074-.256.6116l-.001.0004c-.059.0945-.119.189-.166.2833l-.539-.1403c-.012-.2589-.03-.518-.047-.7771-.038-.5565-.075-1.1131-.059-1.6681.192-6.3148-1.712-12.0315-4.745-17.479-7.052-12.6635-17.721-20.8768-31.132-25.8096-5.4154-1.9919-11.001-3.2017-16.7176-3.7179-3.9266-.3544-7.6159-1.4229-11.1842-2.9927Z"/>
  <path fill="#EB2457" fill-rule="evenodd" d="m153.376 109.867-.323.39v-.003c-2.126 2.569-4.839 4.379-7.586 6.211-2.071 1.38-4.161 2.774-6.033 4.516.859.59 1.527.323 2.15.073.054-.021.106-.042.159-.063.046-.018.091-.035.137-.052 4.457-1.611 8.658-3.737 12.626-6.335.54-.354 1.108-.663 1.701-.987.282-.153.569-.31.862-.476.481 1.268-.125 1.734-.674 2.156a6.043 6.043 0 0 0-.253.201c-4.504 3.833-9.633 6.652-15.209 8.427-4.409 1.404-8.3 3.494-11.863 6.38-1.038.842-2.132 1.614-3.226 2.387l-.001.001c-.873.616-1.747 1.233-2.593 1.886-.506.39-.937.879-1.407 1.41-.226.256-.46.521-.716.791 2.028 1.368 3.82.837 5.596.31.722-.214 1.441-.427 2.173-.512.237 1.847-.875 2.452-2.176 2.701-.418.081-.837.163-1.257.246l-.001.001-.006.001c-2.122.418-4.254.839-6.396.956-7.115.387-14.225.437-21.2713-1.016-3.7743-.778-7.2131-2.312-10.5103-4.218-3.4097-1.97-7.0317-3.292-10.9311-3.814-.7135-.095-1.434-.137-2.2935-.187h-.0009a94.6763 94.6763 0 0 1-1.4405-.091c.1828.315.3242.595.4485.841h.0003c.2273.45.3974.786.6592 1.018.3939.349.7833.708 1.1733 1.066 1.2547 1.155 2.5148 2.315 3.9466 3.182 6.1069 3.695 12.5405 6.714 18.9712 8.592.4071-.286.7689-.59 1.1052-.872h.0003c.6658-.559 1.232-1.035 1.852-1.122l.232-.032c2.65-.373 5.383-.757 8-.447 2.337.277 4.627.979 6.912 1.678l.009.003c.732.224 1.463.448 2.195.658.413.118.783.387 1.234.714l.002.001c.235.171.492.358.789.547-.984.648-1.618 1.065-2.53 1.665.162.001.323.002.484.004l.299.002c3.365.03 6.379.057 9.47-1.313 2.032-.9 4.323-1.224 6.606-1.547h.001c.852-.12 1.703-.241 2.54-.391.377-.068.781.019 1.311.132.286.062.61.131.985.187-.219.245-.398.481-.558.692-.299.394-.533.702-.837.814-.357.131-.715.264-1.072.398-1.809.676-3.629 1.357-5.504 1.708-2.047.383-4.144.512-6.237.64-.585.035-1.17.071-1.753.112-.541.039-1.083.08-1.625.122-2.131.165-4.266.329-6.394.281-3.281-.075-6.558-.303-9.835-.532h-.004c-.774-.054-1.548-.108-2.322-.16-1.217-.081-2.43-.211-3.8206-.36-.6836-.073-1.4099-.151-2.2004-.23.5716 1.384 1.0548 2.553 1.5122 3.661l.7042 1.704c-1.3044.73-2.3322.33-3.3095-.05-.2095-.082-.4166-.163-.6237-.231-2.7275-.902-5.4497-1.82-8.1718-2.738l-.008-.003-.0036-.001c-2.3541-.794-4.7082-1.588-7.0657-2.372-.4098-.136-.8427-.202-1.4544-.297-.3461-.053-.7493-.115-1.238-.204l1.1606 1.321c.4643.529.8396.956 1.2261 1.396-2.8741 1.221-5.3315-.634-5.0515-3.361l-9.6414-5.017-.4212.489c.107.181.2029.375.2988.568h.0002l.0003.001c.2099.423.4198.846.7458 1.139l.4663.42h.0003c1.4943 1.346 2.9973 2.699 4.6375 3.846 7.9272 5.542 16.2832 10.269 25.5894 13.117.6891.21 1.349.517 1.956 1.127-.212-.03-.4258-.055-.6396-.079h-.0011c-.4599-.052-.9197-.103-1.3613-.223-.3687-.1-.7376-.199-1.1065-.299-7.9376-2.144-15.8833-4.291-23.0154-8.598-1.2489-.754-2.3574-1.754-3.4587-2.748l-.0012-.001a89.4361 89.4361 0 0 0-.821-.735c-4.3498-3.837-7.9398-8.348-11.5287-12.858-1.5945-2.004-3.1888-4.007-4.8493-5.951-3.7798-4.425-7.1855-9.258-9.1999-14.822-1.0249-2.831-1.6792-5.811-2.3275-8.762v-.001l-.021-.095c-.6692-3.046-2.0948-5.713-3.6853-8.6876l-.0001-.0001-.0059-.011c-.2402-.4493-.4841-.9055-.7297-1.3712-.8041 1.7589-.923 3.1659-.9837 4.5999-.3174 7.479 1.5109 14.533 4.1849 21.42.1432.369.2996.733.456 1.097.2101.489.4201.978.5979 1.478 1.4074 3.964 3.1725 7.703 6.2592 10.686.7251.7 1.3556 1.541 1.871 2.411 3.4079 5.757 8.0901 10.337 13.182 14.552.4371.362.8344.772 1.2318 1.182.1835.189.3671.378.5546.563.7188.579 1.4376 1.157 2.1571 1.735-.0732.084-.1471.17-.2222.256-.3449-.253-.6897-.507-1.0346-.761-.3998-.295-.7996-.589-1.1998-.884 0 .001-.0007.002-.0007.002-.6167-.472-1.2462-.93-1.8757-1.388-1.3909-1.011-2.7818-2.022-4.0352-3.183-3.8703-3.586-7.7428-7.194-11.3055-11.078-1.2955-1.412-2.2471-3.147-3.196-4.877l-.0004-.001-.0015-.002-.0016-.003c-.3534-.644-.7063-1.288-1.0766-1.913-.2136-.361-.4218-.726-.6303-1.09l-.0002-.001c-.693-1.212-1.3885-2.429-2.2951-3.547.2621 4.42 2.2205 8.239 4.2146 12.126l.3734.729c-1.3438.548-1.8375-.258-2.1987-.916-1.1037-2.007-2.1723-4.034-3.241-6.061l-.0032-.006c-.5688-1.079-1.1376-2.158-1.7117-3.234-.5239-.982-1.0678-1.953-1.6117-2.925h-.0004c-.1689-.302-.3378-.604-.5061-.906-.0884-.158-.2044-.317-.3201-.474l-.0002-.001c-.2363-.322-.4712-.642-.4665-.961.0273-1.874-.8777-3.332-1.7796-4.785-.3123-.503-.6243-1.006-.897-1.525-1.8128-3.45-3.6883-6.867-5.5636-10.284-.3086-.562-.6172-1.124-.9255-1.687-.2324-.424-.516-.819-.8027-1.219-.1332-.186-.267-.372-.3966-.563-.8863.713-1.6199 2.375-2.2009 4.987-1.0896-2.574-1.1492-4.992-.8924-7.271 1.0918-9.6971 3.7691-18.9592 8.9104-27.2954 1.6992-2.7549 4.0808-5.1327 6.4009-7.449l.2916-.2912c2.7895-2.7871 5.2311-5.7536 6.7158-9.4397.2234-.5549.4217-1.1201.6628-1.8078.1249-.3561.2613-.7451.4187-1.1824-.3347.0901-.6304.1517-.8932.2064l-.0004.0001c-.4897.1019-.865.1801-1.1654.3746-.2908.1885-.584.3753-.8776.5623-1.3498.8598-2.7073 1.7245-3.8851 2.7838-3.319 2.9855-6.5725 6.0447-9.8258 9.1038l-.007.0065c-.9261.8708-1.8522 1.7416-2.7798 2.6107-1.6966 1.5898-2.6865 3.2633-2.0233 5.874.6431 2.5302-.3891 4.8538-1.3984 7.1259l-.0002.0003c-.2436.5485-.4859 1.0939-.703 1.6386-.7221 1.8116-1.6342 3.5466-2.5466 5.2821v.0001c-.4262.8106-.8524 1.6213-1.2593 2.4399-.1149.2314-.1994.4778-.2839.7242l-.0003.0009c-.0388.1131-.0776.2262-.1193.3379-.2123-.1189-.4242-.2382-.6364-.3571l-.8785-2.0771c-.111.4718-.2164.9142-.3169 1.3361-.2356.9889-.4444 1.8654-.6362 2.7458-.0387.1777-.0426.3716-.0464.5634-.0059.2951-.0117.5853-.1442.8037-1.7132 2.8256-1.1942 5.7076-.6544 8.7046l.068.378c.4871 2.724-.1736 5.465-.9833 8.627-.2823-.271-.5365-.486-.7574-.673-.398-.337-.6877-.583-.8391-.896-1.1875-2.452-1.9592-5.008-1.4906-7.791.0672-.399.123-.801.1788-1.202.1106-.796.2211-1.59.4194-2.363 2.7428-10.6851 5.5234-21.3579 10.5198-31.2846.8356-1.6606 1.5734-3.3712 2.3108-5.081l.0011-.0026.1664-.3856.0926-.2144c.0555-.1284.111-.2568.1667-.3851l.0581-.1336.0585-.1347c.109-.25.1492-.5301.2018-.8969v-.0001c.0286-.1992.0609-.424.1098-.6835l-2.2048.2957-1.4118.1894-2.0161.2703c-.3919-1.4544.3873-2.2352 1.0952-2.9445.1041-.1044.2067-.2072.3038-.3104 1.403-1.4912 2.6681-2.8882 2.6861-5.1976.0056-.7445.4713-1.4858.9365-2.2266.2087-.3322.4173-.6643.5843-.9965.334-.664.6703-1.3268 1.0066-1.9896l.0016-.0032.0016-.0033c.1414-.2787.2828-.5575.4241-.8364a766.0967 766.0967 0 0 0-.4929-.4962c-.2936.1553-.5925.3027-.8915.45-.6455.3181-1.291.6362-1.8826 1.0349-4.5578 3.0703-8.519 6.8162-12.1623 10.921-.7152.8059-1.4744 1.5725-2.2336 2.3391-.3463.3498-.6927.6996-1.035 1.0531l-.9788 1.5709-.4227-.2824c.4084-.4818.8163-.9633 1.2235-1.4454l-.0005-.0003-.0006-.0005c.4331-.5704.8566-1.1492 1.28-1.7279l.0178-.0234c.9335-1.2752 1.867-2.5504 2.8992-3.7394 5.9002-6.7962 13.0165-12.0669 20.8016-16.4818.9635-.5464 1.9262-1.1335 2.7726-1.842 8.8508-7.4069 19.2732-10.6621 30.5228-11.996 8.1471-.9658 15.9922.1063 23.8259 2.3057 9.5696 2.6863 18.4098 6.7109 26.0218 13.2099 1.046.8932 2.013 1.8813 2.979 2.8683.266.2716.531.5432.798.8126.222.2238.314.5771.331 1.0497-8.947-8.427-19.4411-12.994-31.6892-13.2499-8.2431-.1724-16.1279 1.4864-21.6716 4.6147 5.9998-.257 11.4733-.0329 16.1757 3.579-1.3287.1141-2.6716-.0977-4.0351-.3127-2.7387-.4318-5.5602-.8768-8.5157 1.28 1.1703.0987 2.3205.1604 3.4501.221 4.1331.2216 7.9905.4284 11.5463 2.3818-4.3721-.2547-8.664-.0151-12.9202.9467-4.3926.9927-8.3725 2.8424-12.0769 5.5147.5854-.097 1.1703-.1979 1.755-.2988 4.1619-.718 8.309-1.4335 12.5071-.7139l.16.7111c-.1905.0828-.379.1811-.5674.2793-.4054.2114-.8107.4228-1.2366.4805-12.6027 1.7109-18.4315 10.1844-21.331 21.5372-.236.9244-.2901 1.8955-.3539 3.0406v.0003c-.0329.5896-.0683 1.2253-.1324 1.9245l.9666-.7518 1.938-1.507c-.1528.511-.286.9462-.404 1.3317l-.0037.012-.001.0035-.0014.0044-.0004.0015-.0013.0041c-.2265.7398-.3972 1.2972-.5446 1.8608-.3716 1.4192-.6986 2.7457-.2597 4.3329.2408.8705.0881 1.8449-.0655 2.826-.0811.5178-.1625 1.0374-.1865 1.5446-.0592 1.2449-.0122 2.4947.3877 3.8098l.9526-2.7266 1.6386-4.6903c.0991 1.0837.1817 2.0949.2602 3.0557.1661 2.0352.3139 3.8446.5613 5.6401.2512 1.8208.6074 3.6274.9637 5.4334.1561.791.3123 1.583.4596 2.376l.657.024.4717-2.03c.1612-.694.3315-1.426.52-2.238.2733.669.5297 1.306.7769 1.921l.0092.023.0015.003c.5808 1.445 1.1107 2.763 1.6885 4.059.3701.83.8248 1.676 1.4303 2.34 8.6529 9.496 21.8703 11.007 31.6602 3.065.6913-.561 1.3983-1.102 2.2161-1.729h.0002l.0055-.004c.4161-.319.8609-.659 1.3469-1.036.0974 2.04-.9352 3.005-1.9008 3.907-.329.307-.6502.607-.9163.94-.7716.965-1.5897 1.892-2.3647 2.771-.3263.37-.645.732-.9494 1.083 7.8543-2.123 13.0078-8.037 17.7338-14.576-.188 2.399-1.406 4.31-2.611 6.201l-.002.003c-.049.078-.099.155-.148.233-.04.063-.079.125-.119.187l-.027.043c-.368.583-.749 1.158-1.132 1.735l-.006.01-.001.001c-.94 1.419-1.891 2.855-2.699 4.462.159-.087.323-.168.487-.249h.001c.354-.175.709-.35 1.015-.587 4.537-3.517 8.063-7.884 10.709-12.975l.036-.07c.645-1.241.658-1.267 2.145-2.307.563 3.953-.789 7.328-2.306 11.113-.165.414-.333.832-.501 1.257 2.241-1.484 3.131-3.307 3.983-5.052.04-.084.081-.167.122-.25.04-.082.081-.165.121-.247.649-1.307 1.193-2.667 1.742-4.039v-.001l.001-.002.001-.001v-.002l.001-.001v-.002h.001v-.002h.001v-.002l.001-.001v-.002l.001-.001.001-.002v-.001l.001-.002v-.001l.001-.001v-.001l.001-.001v-.001l.001-.001v-.001c.244-.609.488-1.22.743-1.83l.016.045c.581 1.65.593 1.684-.294 4.835-.316 1.122-.671 2.232-1.069 3.479v.001c-.193.602-.395 1.236-.608 1.918 7.101-6.895 8.968-15.57 10.846-24.2964l.194-.9003c.273 2.2302.054 4.4385-.173 6.7232-.187 1.8877-.38 3.8276-.304 5.875.266-.2508.506-.454.719-.6334.392-.3313.688-.5809.865-.8973.171-.3069.347-.6132.522-.92.749-1.3063 1.502-2.6214 1.981-4.0255 2.247-6.5857 4.476-13.2062 4.677-20.2583.175-6.1343-1.164-11.9935-3.854-17.4938-.899-1.8375-1.906-3.6214-2.914-5.4056v-.0005l-.008-.0137c-.58-1.0274-1.16-2.0548-1.719-3.0928-.123-.2294-.161-.5054-.21-.8643v-.0002c-.026-.195-.056-.4146-.105-.6644 1.499.3829 1.854 1.4299 2.192 2.4305.182.5376.36 1.0617.708 1.4624.759.8748 1.385 1.8667 2.011 2.8585v.0002l.001.001c.268.4246.536.8492.815 1.2646.263.3923.533.7806.803 1.1689v.0011c.631.9074 1.262 1.8148 1.804 2.7727.55.9715 1.02 1.9886 1.569 3.1774v.0008l.001.0008.002.004.002.0052c.262.5659.541 1.1707.856 1.8281-.051-.52-.092-.9814-.13-1.4035-.074-.8343-.135-1.5148-.231-2.1903-.229-1.6001.414-2.5918 1.814-3.2268.089.1324.177.2482.249.3441.121.161.199.2656.176.2976-1.034 1.4496-.583 2.7846-.125 4.1395.167.4939.335.9905.432 1.4963 1.247 6.4916 2.121 13.0416.35 19.5753-1.107 4.0879-2.305 8.1512-3.504 12.2203v.0022l-.004.0127-.001.0042-.004.0136c-.528 1.7886-1.055 3.5784-1.575 5.3719.082-.0591.182-.1242.292-.1961v-.0005l.001-.0005c.276-.1803.616-.4027.909-.6761 4.44-4.1489 7.574-9.2664 10.715-14.3964l.179-.2922c2.63-4.295 4.272-8.9863 5.915-13.6786.562-1.6045 1.123-3.2091 1.725-4.798.911-2.4064 1.827-4.8114 2.986-7.1462l-.068.2792v.0009c-1.226 5.0677-2.448 10.1173-3.312 15.3872l3.291-1.0056c.74-.2263 1.465-.448 2.203-.6735.804 1.873.279 3.2641-.876 4.0121-3.267 2.1155-4.687 5.4202-6.025 8.7807-.66 1.6576-1.252 3.3421-1.844 5.0267l-.016.045c-.572 1.6266-1.143 3.2532-1.777 4.855-3.09 7.8139-7.759 14.4889-14.187 19.9599-3.646 3.102-7.847 4.875-12.376 5.971-3.564.863-6.296 2.908-8.677 5.882.863-.142 1.727-.275 2.592-.409 1.892-.292 3.784-.585 5.659-.96 7.154-1.43 13.708-4.432 20.04-7.954.633-.352 1.163-.899 1.69-1.442.187-.194.374-.386.564-.57.874-.839 1.734-1.695 2.594-2.551v-.001c1.827-1.819 3.654-3.637 5.612-5.301 2.777-2.359 5.407-4.763 7.255-7.9575.348-.6021.825-1.1294 1.391-1.7552v-.0002c.288-.3186.599-.6628.928-1.0553-.225 3.125-.386 3.3193-9.243 14.0232v.001ZM4.6971 66.4963l-.0032-.0027a.0962.0962 0 0 0 .0046.0043l.0019.0017.0016.0014.003.0026a.1443.1443 0 0 0-.0079-.0073ZM113.747 148.122l-.007-.14h-1.819l.002.032.002.041.003.067h1.819Zm-5.363-.704h-1.046v.119h1.044l.002-.119Z" clip-rule="evenodd"/>
  <path fill="#EB2457" d="M23.0419 39.3297c4.4828-3.8215 9.3979-6.9254 15.1185-8.4439 3.7281-.9896 7.4911-1.8473 11.254-2.705l.0135-.0031.0565-.013.0019-.0004c1.6965-.3866 3.3929-.7732 5.086-1.1725.8979-.2117 1.7935-.433 2.6891-.6542.407-.1006.814-.2012 1.2213-.3009l.044-.3206.0073-.0535.0506-.3691c-.1569-.1127-.309-.2427-.461-.3726-.3281-.2805-.6561-.5608-1.0329-.6678-4.0012-1.136-8.033-1.4026-11.9184.3633-4.7061 2.1391-9.3636 4.3891-14.0031 6.6707-3.9366 1.9357-7.3628 4.5884-10.2958 7.861a21.037 21.037 0 0 1-.2173.2375c-.6428.6954-1.3365 1.446-1.3072 3.0181.4864-.4043.935-.7751 1.3575-1.1243.8524-.7045 1.5988-1.3215 2.3359-1.9497h-.0004ZM111.072 158.334h-.001l-.003-.001c-.555-.153-1.111-.306-1.663-.469-.013.037-.027.074-.041.112-.018.049-.037.098-.055.147-.228.022-.458.036-.689.049-.51.031-1.02.061-1.509.18-1.452.352-1.829 1.432-.74 2.407.818.732 1.809 1.283 2.786 1.826h.001c.155.087.311.174.465.26 1.7.957 3.54 1.198 5.339.434.758-.322 1.815-1.104 1.832-1.703.018-.65-.89-1.642-1.615-1.936-1.327-.539-2.717-.922-4.107-1.306Zm53.946-77.3729c-.167 2.955-1.457 5.4095-3.598 7.745v-.0003c-2.382-3.1172-2.649-7.1355-.839-9.3024.711-.851 1.509-1.7385 2.796-1.3354 1.391.4361 1.711 1.6603 1.641 2.8931Zm-29.41 48.4159c-.256.428-.485 1.206-.275 1.504.306.436 1.007.786 1.561.82 2.547.155 5.592-2.488 6.18-5.245-2.289-.514-6.333 1.027-7.466 2.921Zm-114.6949-5.679c-1.2401.139-2.0898-.6-2.5497-1.733h.0004c-.6817-1.679.1703-4.018 2.2042-5.715 1.4855 1.567 1.981 3.279 1.9284 5.189-.0302 1.092-.3414 2.12-1.5833 2.259Zm-5.3973-51.3216c.0989-.4696-.0007-1.3224-.2715-1.4542-.4712-.2293-1.3376-.2725-1.7047.0232-1.708 1.3746-3.1324 2.999-3.5554 5.5199 2.866.1503 4.9838-1.486 5.5316-4.0892v.0003ZM141.694 49.544c-.087.453-.532 1.0718-.923 1.1648-.389.0923-1.122-.2565-1.339-.6272-1.251-2.1332-1.966-4.4407-2.003-7.5524 2.177 1.6577 3.397 3.2014 4.07 5.143.202.5844.308 1.2789.195 1.8718Zm26.834 35.0142c-.553-.2012-1.693.1997-2.063.7029-1.241 1.6899-2.107 3.5997-1.93 5.9331 1.957-1.046 3.19-2.7099 4.245-4.5146.427-.7306.747-1.7574-.253-2.1214h.001Zm-27.491-59.4026c1.746.1847 3.429.3628 4.261 2.6998-2.759 1.1722-4.528.2739-5.843-2.9296.519.1173 1.053.1739 1.582.2298Zm30.879 35.8395c.497.178 1.059.7285 1.204 1.2354.418 1.4723-.655 3.095-2.627 4.0468-.708-1.5257-.286-2.8205.12-4.0637a31.43 31.43 0 0 0 .12-.373c.125-.3943.907-.9444 1.183-.8455ZM53.2565 18.8344h-.0056l.0056-.0004v.0004Zm-.0056 0c-4.9529.3643-9.9058.7282-14.8587 1.0921a146.558 146.558 0 0 1-.0899-.298l-.0687-.2278c3.4055-1.3966 6.9276-1.1034 10.451-.8101 1.525.1269 3.0503.2538 4.5663.2438ZM26.6893 137.652c-.7894-3.113-1.7819-6.17-3.9034-8.723.416 3.274 1.7805 6.146 3.9034 8.723ZM155.243 54.7139c.718-3.7001.134-7.4094-1.231-8.8726-.696 1.4934-.36 4.1565 1.231 8.8726ZM94.2553 19.688l6.3927 1.4177c-1.5755-2.9806-4.1182-3.452-6.3927-1.4177Zm39.4697 24.8057c.049-.1484.123-.3054.196-.4624.16-.3413.32-.6828.231-.9365-.55-1.5694-1.514-2.8269-3.453-3.5963.178 1.9298.953 3.2641 1.845 4.5182.142.2.454.2785.766.3569.144.0361.288.0722.415.1201ZM5.4939 104.367v.001c-.1038 1.84-.2121 3.76-.8114 5.882-1.0281-2.77-.6213-5.747.9782-8.191-.0795.761-.1228 1.528-.1668 2.308ZM141.13 37.3778c.752-2.1432.127-3.3446-2.855-5.3231.241.5238.422 1.0814.603 1.641.443 1.3723.891 2.7563 2.252 3.6821ZM105.694 154.855c.312.297.591.562.87.828-.152.129-.298.282-.444.434l-.001.001c-.324.339-.649.678-1.028.758-1.061.223-2.15-.612-1.895-1.336.13-.367.465-.661.871-1.019.203-.179.424-.373.646-.6l.981.934Zm15.535-.94-5.754-.847c2.728 1.367 6.554 1.895 8.407 1.237l-2.653-.39Zm5.575 10.708c-.697-.14-1.395-.28-2.1-.343l.123-.8 6.346.777c-.023.192-.047.385-.071.578-1.478.354-2.888.071-4.298-.212ZM31.2674 136.29c.5992 2.68 1.7385 4.319 3.3523 5.643a63.141 63.141 0 0 1-.2672-.687c-.6434-1.674-1.3031-3.39-3.0851-4.956ZM154.081 34.7941c1.108 1.5573 1.561 3.3213 1.055 5.3866-.531-1.7389-1.063-3.4778-1.595-5.2167l.54-.1699ZM94.2936 16.9444c-.2788-.1422-.5249-.2941-.7458-.4304-.4369-.2696-.7751-.4784-1.0722-.4305-.3059.0492-.5662.3836-.8265.718l-.0002.0002c-.1141.1466-.2282.2931-.3461.4156.1512.0829.3009.181.4507.2791.3519.2305.7038.4611 1.073.494.2286.0204.4787-.2018.8226-.5075.1842-.1637.3953-.3514.6445-.5385Zm36.8274 1.4381 4.689 3.126c-1.49-2.381-2.442-2.958-4.689-3.126Zm-59.9727-1.4388c-1.2217-1.0456-2.0703-.6365-3.1629.6502 1.5086.8251 2.4341.8048 3.1629-.6502Zm38.6987-.9208c-.494-1.5122-1.433-1.7371-2.894-1.4786.634 1.4114 1.396 1.9922 2.894 1.4786Zm40.032 123.1551 1.901-.999c-1.347 1.84-1.478 1.912-4.29 2.255.767-.404 1.535-.807 2.389-1.256Zm-20.99-122.3259c.183.0613.434-.08.78-.2754.185-.1047.398-.2249.643-.3378-.23-.164-.425-.3219-.599-.4624v-.0002c-.351-.2843-.614-.4975-.905-.5457-.2-.0334-.441.1833-.683.4-.108.0971-.216.1941-.321.2686.106.0997.208.2121.31.3244.24.2646.48.5293.775.6285ZM12.0582 55.5557c.2921-1.019.8277-1.7921 2.343-1.6082l-1.7915 2.0505-.3133-.2514-.1117-.0896-.1265-.1013Zm-.6846-7.2706c-.1452.1242-.2963.2431-.4474.3621-.7552.5947-1.5116 1.1903-1.5493 2.4504l2.4286-2.3643c-.1438-.1496-.288-.2987-.4319-.4482Zm.6218 76.1519.2019 1.398c-.6129-.906-.7887-2.124-.5275-3.654.1233.855.2216 1.536.3171 2.197l.0085.059Zm117.3756 14.796v.001-.001Zm0 .001c.08-.088.156-.185.231-.281.183-.232.366-.465.605-.58.112-.054.308.066.582.234.149.092.321.197.516.297-.175.138-.323.27-.455.388-.275.244-.482.428-.721.491-.132.035-.32-.145-.508-.325-.085-.082-.17-.163-.25-.224Zm16.103-6.715c-.274.094-.526.254-.778.415-.094.06-.188.12-.283.177.158.268.317.536.614 1.038.12-.14.229-.264.329-.376v-.001h.001c.254-.287.444-.503.584-.747.038-.066-.372-.538-.467-.505v-.001Zm-91.3611 21.286c-.5154-.637-1.0304-1.274-1.5458-1.911-.3491 1.321.2855 1.864 1.5458 1.911Zm43.7357 3.747c-.178.016-.3427.185-.5074.355h-.0002c-.0721.075-.1442.149-.2174.21l.0304.027c.0198.017.0394.035.0589.054.0524.049.1041.1.1557.15.1993.197.3986.393.6367.475.0939.032.256-.135.4693-.354.1135-.117.2416-.249.3816-.374-.1578-.091-.2948-.185-.4168-.269-.2393-.164-.4212-.289-.5908-.274ZM147.825 51.1367l.334 1.746-.588.1108-.281-1.7597.183-.0332.086-.0155.266-.0484ZM58.4478 12.5842c.2316-.0258.4498-.1752.7533-.383l.0001-.0001.0009-.0006c.1527-.1045.327-.2238.5354-.3495-.2081-.1075-.3842-.2167-.5342-.3097-.2713-.1683-.4573-.2836-.5926-.2401-.2425.0779-.4459.2789-.6492.4798-.0856.0846-.1712.1692-.2598.2446.0773.0619.1566.1413.2358.2207.1773.1776.3547.3552.5103.3379ZM16.9674 113.81c-.0111-.15.4094-.5.5308-.458.1854.064.3412.214.5593.424.1047.101.2238.216.3674.341-.3241.168-.5533.286-.7476.387-.1134.059-.2149.111-.3163.164-.0419-.084-.0911-.167-.1404-.25-.1189-.2-.2379-.4-.2532-.608Zm117.7976 21.576c-.263.147-.506.331-.749.515-.065.05-.131.1-.198.149l.204.226c.142.158.355.394.757.838.051-.148.104-.284.153-.411.111-.284.205-.525.224-.772.013-.18-.363-.562-.392-.545h.001Zm-69.5511 22.82 2.2123 1.497h.0004l-.1855.232-.2982.375-.0036-.003c-.65-.615-1.2995-1.228-1.9483-1.844.0456-.052.0908-.105.1359-.157l.087-.1ZM173.357 76.0602c.058-.0772.116-.1544.172-.2325v-.0003c.052.0555.119.1124.185.1693.148.126.296.252.286.3634-.02.2091-.129.4099-.26.6509-.06.1109-.125.2303-.187.3629-.036-.0303-.072-.0602-.107-.0895a5.1165 5.1165 0 0 0-.066-.0531 12.9945 12.9945 0 0 0-.179-.1426c-.196-.1549-.341-.2697-.324-.3033.128-.2575.304-.4913.48-.7252ZM0 72.4872c.1427.0694.2855.1388.4282.2086l.2783-.5638.2654-.5379c-.1387-.0676-.2774-.1355-.4164-.2031l-.2776.5481-.2775.5481H0Zm168.781-1.9822v.0003l-.288.667c-.095.2223-.191.4447-.287.667-.203-.1337-.406-.2674-.61-.401l.666-1.1825.519.2492ZM13.1868 67.8224c.0409-.0399-.0275-.1927-.1279-.4168-.0569-.1271-.124-.277-.1873-.4424a16.5247 16.5247 0 0 1-.275.3256l-.0001.0002c-.1862.2164-.3259.3787-.4246.5633-.0313.0587.0438.1746.1189.2904.0344.0531.0688.1061.093.1537.076-.0415.1547-.0801.2334-.1187.2064-.1012.4127-.2025.5693-.3553h.0003Zm114.8412-42.868c-.181.073-.347.1397-.516.1497v.0004c-.124.0074-.388-.2489-.37-.2909.066-.154.172-.2904.278-.4268.037-.0485.075-.097.111-.1462.129.1078.258.2156.743.6191-.086.03-.167.0629-.246.0947Zm-21.073-5.4082c.034-.0485.069-.0963.104-.1441.103-.1395.205-.2791.271-.4345.01-.024-.096-.0975-.232-.1914a6.3563 6.3563 0 0 1-.23-.1645c-.015.029-.03.0576-.045.0858-.018.034-.037.0675-.056.1006-.085.1528-.166.299-.193.4546-.008.0507.111.1236.231.1963v.0002c.054.033.108.0661.15.097Zm25.358-7.7135c-.037.1107-.068.2022-.098.2937-.056-.0203-.112-.0393-.167-.0583-.167-.0565-.333-.113-.479-.2027-.032-.0204.08-.4268.145-.4324.159-.0135.322.024.493.0632.067.0154.135.031.204.0439l-.098.2926Z"/>
</svg>
