<svg id="svg-promo-title-align-left" xmlns="http://www.w3.org/2000/svg" fill="none" viewBox="0 0 430 168">
  <path fill="#EE2759"
    d="M55.76 4.48098c-.2133.74666-.56 1.46667-1.04 2.15999-.48.64-1.0133 1.17334-1.6 1.60001-.5867 1.44-.88 2.80002-.88 4.08002 0 .5333-.1067 1.04-.32 1.52-.16.48-.24.96-.24 1.44 0 .2666.0267.5066.08.72.0533.16.08.3733.08.64 0 .32-.0267.64-.08.96-.0533.32-.1067.64-.16.96-.2667 2.0266-.5333 4.2666-.8 6.72-.2133 2.4533-.32 4.8-.32 7.04v.4c.0533.1066.08.24.08.4 0 .1066-.1067.2666-.32.48-.2133.16-.32.3733-.32.64 0 .2133.0533.4.16.56.1067.16.16.3466.16.56 0 .2666-.1067.6133-.32 1.04-.16.4266-.24.8533-.24 1.28 0 .5333.0533 1.04.16 1.52.16.4266.24.8533.24 1.28 0 .16-.0267.32-.08.48v.48c0 .32.0533.6666.16 1.04.16.32.24.64.24.96 0 .7466-.16 1.52-.48 2.32-.2667.7466-.4 1.52-.4 2.32 0 1.0666.1067 2.24.32 3.52.2667 1.2266.4 2.4533.4 3.68 0 2.08.0533 4.0266.16 5.84.1067 1.8133.16 3.6266.16 5.44 0 .64-.2133 1.1466-.64 1.52-.4267.3733-.96.64-1.6.8-.5867.16-1.2267.2666-1.92.32-.64.0533-1.2267.08-1.76.08-.2133 0-.5067-.08-.88-.24-.32-.16-.6667-.4-1.04-.72-.32-.2667-.6133-.5867-.88-.96-.2667-.32-.4-.6667-.4-1.04 0-.32.08-.6667.24-1.04.16-.3734.24-.7734.24-1.2 0-.2667-.0267-.56-.08-.88-.0533-.2667-.08-.5334-.08-.8 0-.2667.0267-.48.08-.64.1067-.1067.2133-.24.32-.4.16-.16.2667-.4.32-.72.1067-.2667.16-.6934.16-1.28 0-.4267-.0267-.8267-.08-1.2v-.96c0-.4267-.1867-.7734-.56-1.04-.3733-.2667-.56-.6134-.56-1.04 0-.3734.16-.8267.48-1.36.32-.5867.48-1.2267.48-1.92 0-.8.0267-1.6.08-2.4.0533-.8.08-1.6.08-2.4 0-1.2267-.08-2.48-.24-3.76-.16-1.28-.24-2.5334-.24-3.76 0-.7467.1067-1.52.32-2.32.2133-.8.32-1.6.32-2.4 0-.4267-.0267-.8534-.08-1.28v-1.36c0-1.76.1067-3.4667.32-5.12.2667-1.7067.4-3.44.4-5.2 0-1.6.1333-3.44.4-5.52.2667-2.08.5333-4.1334.8-6.16 0-.32001-.0533-.69336-.16-1.12003-.1067-.42666-.3733-.63999-.8-.63999-.2667 0-.5333.08-.8.23999-.2667.10667-.5333.16-.8.16-.5867 0-1.1467-.05333-1.68-.16-.5333-.15999-1.0667-.23999-1.6-.23999-1.3333 0-2.64.15999-3.92.47999-1.28.32-2.6133.48001-4 .48001-1.4933 0-2.9333-.08001-4.32-.24001-1.3867-.16-2.7733-.24-4.16-.24-.48 0-1.0133.02668-1.6.08002-.5333.05333-.8.31998-.8.79998-.1067 2.50663-.24 4.98663-.4 7.44003-.1067 2.4533-.2133 4.96-.32 7.52v2.16c.0533.6933.08 1.4133.08 2.16 0 4.2666-.08 8.5066-.24 12.72-.1067 4.2133-.24 8.4533-.4 12.72 0 .5866-.0267 1.28-.08 2.08 0 .8-.0533 1.6266-.16 2.48-.0533.8-.1333 1.52-.24 2.16-.1067.6933-.24 1.1733-.4 1.44-.2667.3733-.4533.8266-.56 1.36-.1067.5333-.2933 1.04-.56 1.52-.2133.5333-.56.96-1.04 1.28-.4267.3733-1.12.56-2.08.56-.2667 0-.5067-.0534-.72-.16-.16-.0534-.3733-.08-.64-.08-.2133 0-.4267.0266-.64.08-.16.0533-.3467.08-.56.08-.1067 0-.2667-.16-.48-.48-.2133-.32-.4267-.6934-.64001-1.12-.21333-.4267-.4-.8534-.56-1.28-.16-.4267-.24-.7734-.24-1.04.05333-.3734.08-.7467.08-1.12.05333-.3734.08-.7467.08-1.12 0-.6934-.10667-1.36-.32-2-.16-.64-.24-1.2534-.24-1.84 0-.2667.02667-.5334.08-.8.10667-.32.16-.6134.16-.88 0-.5867-.10667-1.2-.32-1.84-.16-.64-.24-1.28-.24-1.92 0-2.0267.05333-4.0534.16-6.08.10667-2.08.16-4.1334.16-6.16 0-.3734-.02667-.7467-.08-1.12-.05333-.3734-.08-.7467-.08-1.12 0-1.2267.10667-2.4.32-3.52.26667-1.1734.4-2.2134.4-3.12 0-.2667-.05333-.56-.16-.88-.05333-.32-.08-.6134-.08-.88 0-.6934.08-1.36.24-2 .16-.64.24-1.28.24-1.92-.05333-.2667-.08-.48-.08-.64v-.72c0-.7467.05333-1.5734.16-2.48.10667-.96.16-1.8934.16-2.8 0-.3734-.02667-.72-.08-1.04v-1.12c0-.9067.10667-1.7867.32-2.64.21331-.9067.32001-1.8134.32001-2.72 0-.2667-.0533-.5334-.16-.8-.0533-.26668-.21334-.45335-.48001-.56002-1.86667-.21333-3.22667-.34667-4.08-.40001-.85333-.10666-1.49333-.21333-1.92-.32-.37333-.16-.69333-.4-.96-.72-.21333-.32-.61333-.85333-1.2-1.6-.42667-.48-.640002-1.06666-.640002-1.76 0-.37333.026667-.66666.08-.88.053333-.21333.373332-.4.960002-.56.64-.16 1.36-.31999 2.16-.48.8-.16 1.6-.29333 2.4-.4.85333-.10666 1.52-.21333 2-.32 2.24001-.37333 4.50671-.61333 6.80001-.72 2.3467-.16 4.6667-.26666 6.96-.32C24.5067.987645 26.8.907646 29.04.800981 31.3333.694312 33.6.480979 35.84.16098h.32c.16-.053333.2933-.08.4-.08.4267 0 .8267.026667 1.2.08.4267.053332.8533.079998 1.28.079998.2667 0 .56-.026666.88-.079998.32-.10667.64-.160003.96-.160003.7467 0 1.4667.026668 2.16.080003.6933.053333 1.4133.08 2.16.08.4267 0 .8533-.026667 1.28-.08.48-.053335.9333-.080003 1.36-.080003.2133 0 .8.026668 1.76.080003.96.053333 1.9467.159998 2.96.319996 1.0133.160002 1.92.42667 2.72.800004.8533.31999 1.28.79999 1.28 1.44 0 .32-.1067.63999-.32.95999-.2133.32-.3733.61334-.48.88001ZM103.046 28.241c.533.4266.8.9066.8 1.44 0 .5333-.294 1.0133-.88 1.44-.534.4266-1.307.64-2.32.64h-.7204c-.2133-.0534-.4533-.1067-.72-.16-2.9866.9066-5.7333 2.1066-8.24 3.6-.8533.5333-1.3066 1.2266-1.36 2.08-.0533.8-.1066 1.52-.16 2.16-.1066.9066-.32 1.68-.64 2.32-.32.64-.48 1.4133-.48 2.32 0 .64-.24 1.1466-.72 1.52-.4266.3733-.64.9066-.64 1.6v.4c.0534.1066.08.2133.08.32 0 .7466-.16 1.3866-.48 1.92-.2666.48-.64 1.0666-1.12 1.76-.1066.3733-.4533 1.0133-1.04 1.92-.5333.8533-1.1733 1.7333-1.92 2.64-.7466.9066-1.5466 1.7066-2.4 2.4-.8.6933-1.52 1.04-2.16 1.04-.32 0-.8.24-1.44.72-.5866.48-1.2.88-1.84 1.2-1.2266-.2667-2.3733-.5867-3.44-.96-1.0133-.3734-1.9466-.96-2.8-1.76-.64-.7467-1.2533-1.6-1.84-2.56-.5866-1.0134-1.0933-2.0267-1.52-3.04-.3733-1.0667-.6933-2.1067-.96-3.12-.2133-1.0134-.32-1.9467-.32-2.8 0-.96.1067-1.8667.32-2.72.2134-.9067.32-1.7867.32-2.64 0-.32.08-.7467.24-1.28.2134-.5334.4267-1.0667.64-1.6.2134-.5867.4-1.1734.56-1.76.2134-.5867.32-1.0934.32-1.52 0-.3734-.1333-.8534-.4-1.44-.2133-.5867-.48-1.2267-.8-1.92-.2666-.6934-.5333-1.3867-.8-2.08-.2133-.6934-.32-1.36-.32-2 0-2.08.1867-3.7067.56-4.88.4267-1.1734 1.0134-2.0534 1.76-2.64.8-.64 1.7067-1.04 2.72-1.2 1.0667-.16 2.24-.24 3.52-.24h3.68c.48 0 1.3067.2133 2.48.64 1.1734.3733 2.4267.96 3.76 1.76 1.3334.8 2.56 1.8133 3.68 3.04 1.12 1.2266 1.8667 2.6666 2.24 4.32.1067.5333.2934 1.0933.56 1.68.32.5866.7734.88 1.36.88.2134 0 .3734-.0267.48-.08 2.08-.7467 4.1067-1.4667 6.08-2.16 1.9734-.6934 4.0804-1.0934 6.3204-1.2Zm-17.7604 11.76c-.1066-.4267-.1866-.8534-.24-1.28 0-.48-.2133-.72-.64-.72-.2133 0-.5333.0533-.96.16-1.3333.48-2.6666.96-4 1.44-1.3333.48-2.7466.72-4.24.72-.64 0-1.12.48-1.44 1.44-.32.9066-.56 1.9466-.72 3.12-.16 1.12-.2666 2.2133-.32 3.28v2c0 1.0666.2667 2.1333.8 3.2.5334 1.0133 1.2534 1.52 2.16 1.52 1.0134 0 1.9734-.5067 2.88-1.52.96-1.0667 1.8134-2.24 2.56-3.52.8-1.28 1.4667-2.48 2-3.6.5867-1.12 1.0134-1.7867 1.28-2 .32-.5334.5067-1.2267.56-2.08.1067-.8534.2134-1.5734.32-2.16Zm-16.88-11.92c.0534.32.1067.8266.16 1.52.1067.6933.3734 1.04.8 1.04.2134 0 .4-.08.56-.24.16-.2134.32-.4.48-.56.16-.2134.32-.4.48-.56.2134-.2134.4534-.32.72-.32l.96.24c.6934.16 1.44.4 2.24.72.8.32 1.5467.72 2.24 1.2.6934.4266 1.04.9066 1.04 1.44 0 .32-.16.7733-.48 1.36-.32.5333-.56.9866-.72 1.36 0 .3733.1067.6133.32.72.2667.1066.4534.16.56.16.5334 0 1.1734-.0534 1.92-.16.8-.16 1.5467-.3734 2.24-.64.7467-.2667 1.3867-.5867 1.92-.96.5334-.4267.8-.9067.8-1.44 0-1.0667-.3466-2.24-1.04-3.52-.64-1.28-1.4933-2.4534-2.56-3.52-1.0666-1.12-2.24-2.0267-3.52-2.72-1.28-.7467-2.5066-1.12-3.68-1.12-1.7066 0-3.04.64-4 1.92-.96 1.28-1.44 2.64-1.44 4.08Zm31.1369 13.84c-1.12-.1067-2.1333-.5067-3.04-1.2-.96-.7467-1.44-1.4934-1.44-2.24 0-.6934.16-1.4667.48-2.32.32-.9067.72-1.8134 1.2-2.72.4267-.96.9333-1.8667 1.52-2.72.5333-.9067 1.04-1.68 1.52-2.32.5865-.8 1.2535-1.7334 2.0005-2.8.8-1.0667 1.653-1.9467 2.559-2.64.321-.2667.587-.6134.801-1.04.213-.4267.506-.7734.88-1.04 1.6-1.2267 3.28-2.3734 5.04-3.44 1.76-1.12 3.706-1.68 5.84-1.68.8 0 1.546.1866 2.24.56.746.32 1.386.7733 1.92 1.36.533.5866.96 1.2533 1.28 2 .32.6933.48 1.3866.48 2.08 0 .9066-.16 1.76-.48 2.56-.267.8-.4 1.6533-.4 2.56v.4c.053.16.08.2933.08.4 0 .32-.107.5866-.32.8-.427.5866-.72 1.28-.88 2.08-.107.8-.16 1.52-.16 2.16 0 .2666-.08.64-.24 1.12-.16.48-.347 1.0133-.56 1.6-.214.5333-.4 1.0933-.56 1.68-.16.5866-.241 1.12-.241 1.6 0 0-.079.24-.239.72-.107.4266-.24.9333-.4 1.52-.16.5866-.347 1.1466-.56 1.68-.16.5333-.32.9066-.48 1.12-.374.4266-.587 1.1466-.64 2.16-.054 1.0133-.16 1.9466-.32 2.8-.107.5866-.294 1.12-.56 1.6-.267.4266-.4.9333-.4 1.52 0 .2133.026.48.08.8.053.32.213.48.48.48.213 0 .426-.1334.64-.4.266-.2667.506-.56.72-.88.266-.3734.506-.7467.72-1.12.213-.3734.4-.6667.56-.88.586-.8 1.2-1.5467 1.84-2.24.64-.6934 1.2-1.44 1.68-2.24.053-.16.293-.48.72-.96.426-.48.906-.96 1.44-1.44.586-.5334 1.2-.9867 1.84-1.36.64-.3734 1.226-.56 1.76-.56.32 0 .64.1066.96.32.32.16.48.5066.48 1.04 0 .5866-.48 1.4666-1.44 2.64-.96 1.12-1.974 2.2666-3.04 3.44-.48.5866-.774 1.3066-.88 2.16-.107.8-.214 1.2533-.32 1.36-.48.48-.774 1.0133-.88 1.6-.054.5866-.107 1.1733-.16 1.76-.054.5866-.214 1.0933-.48 1.52-.267.3733-.56.72-.88 1.04-.267.32-.534.64-.8.96-.214.32-.321.6933-.321 1.12 0 .48-.159.9333-.479 1.36-.32.48-.747.9066-1.28 1.28-.534.4266-1.12.7466-1.76.96-.587.2666-1.174.4-1.76.4-.374 0-.694-.1334-.96-.4-.267-.2134-.587-.32-.96-.32-.587 0-1.094-.1867-1.52-.56-.427-.32-.774-.72-1.04-1.2-.214-.48-.374-1.0134-.48-1.6-.107-.5867-.16-1.12-.16-1.6 0-1.12.026-2.2134.08-3.28.106-1.0667.16-2.1334.16-3.2 0-.5867-.054-1.2-.16-1.84-.107-.64-.16-1.2267-.16-1.76 0-.2667.08-.5067.24-.72.16-.2667.24-.5334.24-.8 0-.16-.027-.32-.08-.48v-.4c0-.6934.293-1.2534.88-1.68.586-.48.88-.9334.88-1.36 0-.16-.054-.32-.16-.48-.107-.2134-.16-.4267-.16-.64 0-.64.08-1.12.24-1.44.16-.3734.32-.6667.48-.88.16-.2134.32-.4.48-.56.16-.2134.24-.48.24-.8 0-.2667-.08-.5067-.24-.72-.107-.2667-.16-.5334-.16-.8 0-.5867.133-1.2534.4-2 .266-.8.56-1.5734.88-2.32.32-.7467.613-1.4134.88-2 .266-.64.4-1.12.4-1.44 0-.16-.054-.32-.16-.48-.107-.2134-.16-.4267-.16-.64 0-.96.08-2.0267.24-3.2.213-1.2267.373-2.3734.48-3.44 0-.2667-.054-.5067-.16-.72-.054-.2667-.214-.4-.48-.4-.427.3733-.827.72-1.2 1.04-.32.2666-.667.56-1.04.88-.374.32-.694.5866-.96.8-.48.1066-.96.3733-1.44.8-.48.4266-.987.9066-1.52 1.44-.48.5333-.96 1.0933-1.44 1.68-.48.5866-.907 1.12-1.28 1.6-.374.4266-.587.9066-.64 1.44-.054.5333-.267 1.04-.64 1.52-.64.8533-1.174 1.8133-1.6 2.88-.374 1.0666-.72 2.1333-1.04 3.2-.32 1.0133-.667 1.9733-1.04 2.88-.374.8533-.88 1.4933-1.5205 1.92Zm24.1605.08.08.24h-.16l.08-.24Zm11.066-7.28h.48c.16-.0534.294-.08.4-.08.374 0 .747-.2667 1.12-.8.374-.5334.774-1.1467 1.2-1.84.48-.7467.987-1.4667 1.52-2.16.534-.6934 1.12-1.2 1.76-1.52.374-.48.934-1.0934 1.68-1.84.747-.8 1.6-1.5734 2.56-2.32 1.014-.8 2.134-1.4667 3.36-2 1.28-.5334 2.614-.8 4-.8.534 0 1.04.08 1.52.24.48.1066.96.24 1.44.4.427.1066.694.3466.8.72.107.32.374.48.8.48.374.1066.72.3466 1.04.72.32.3733.587.8.8 1.28.267.4266.454.88.56 1.36.16.4266.24.7466.24.96 0 1.12-.16 2.4533-.48 4-.266 1.4933-.693 2.8533-1.28 4.08-.48 1.0133-1.04 1.9733-1.68 2.88-.586.8533-1.093 1.8133-1.52 2.88-.266.8-.72 1.4933-1.36 2.08-.586.5866-1.173 1.2266-1.76 1.92-.266.2666-.506.6133-.72 1.04-.213.3733-.453.7466-.72 1.12-.266.3733-.56.72-.88 1.04-.32.2666-.693.4266-1.12.48-.426 0-.693.1066-.8.32-.106.2133-.16.4533-.16.72 0 .3733-.426.8-1.28 1.28-.853.4266-1.84.8533-2.96 1.28-1.12.3733-2.24.6933-3.36.96-1.066.2666-1.866.4-2.4.4-.373 0-.746-.08-1.12-.24-.32-.2134-.666-.32-1.04-.32-.373 0-.693.2933-.96.88-.266.5333-.506 1.2-.72 2-.16.8-.293 1.6-.4 2.4-.053.8-.08 1.44-.08 1.92 0 .4266.027.8533.08 1.28.107.48.16.9333.16 1.36 0 .4266-.026.8266-.08 1.2v1.2c0 .48.134.8533.4 1.12.32.2666.534.5866.64.96.16.4266.267.88.32 1.36.054.48.08.96.08 1.44 0 .5333.027.9866.08 1.36.16.6933.347 1.28.56 1.76.214.48.32 1.0133.32 1.6v1.04c0 .3733-.106.72-.32 1.04-.16.32-.453.5866-.88.8-.426.2133-1.066.32-1.92.32-.48 0-.933-.24-1.36-.72-.426-.4267-.8-1.0134-1.12-1.76-.32-.7467-.586-1.6267-.8-2.64-.16-.96-.24-1.9734-.24-3.04 0-.4267.08-.88.24-1.36.214-.48.32-.88.32-1.2-.373-.6934-.666-1.36-.88-2-.213-.5334-.4-1.0934-.56-1.68-.16-.5334-.24-.9334-.24-1.2 0-.2667.08-.5334.24-.8.16-.2667.24-.5334.24-.8 0-.2667-.053-.5067-.16-.72-.106-.2134-.16-.4534-.16-.72 0-.16.027-.32.08-.48.107-.2134.16-.4267.16-.64 0-.2667-.026-.48-.08-.64-.053-.2134-.08-.4534-.08-.72 0-.16.054-.4.16-.72 0-.4267-.106-.8534-.32-1.28-.213-.4267-.32-.8534-.32-1.28 0-.7467.134-1.5734.4-2.48.32-.96.48-1.68.48-2.16 0-.1067-.026-.1867-.08-.24-.053-.1067-.08-.2134-.08-.32 0-.2134.054-.3734.16-.48.16-.16.24-.3467.24-.56 0-.32-.16-.6134-.48-.88-.266-.32-.4-.5867-.4-.8 0-.16.16-.3734.48-.64.32-.2667.48-.5334.48-.8 0-.2134-.08-.5067-.24-.88-.16-.3734-.24-.7467-.24-1.12 0-.64.08-1.1467.24-1.52.16-.3734.347-.6667.56-.88.214-.2134.4-.3734.56-.48.16-.16.24-.3467.24-.56 0-.2667-.106-.48-.32-.64-.213-.16-.4-.5067-.56-1.04.214-.48.427-1.0134.64-1.6.267-.64.4-1.2267.4-1.76 0-.5334-.186-1.0667-.56-1.6-.373-.5334-.56-1.2-.56-2 0-.3734.16-.88.48-1.52.374-.6934.56-1.44.56-2.24 0-.5867-.08-1.1734-.24-1.76-.106-.64-.16-1.2534-.16-1.84 0-.5867.187-1.1467.56-1.68.427-.5334.64-1.1467.64-1.84 0-.3734-.026-.72-.08-1.04-.053-.3734-.08-.72-.08-1.04 0-.4267.027-.9067.08-1.44.054-.5334.16-1.04.32-1.52s.374-.88.64-1.2c.267-.3734.614-.56 1.04-.56.374 0 .854.08 1.44.24.64.16 1.227.4266 1.76.8.534.32.987.7733 1.36 1.36.427.5333.64 1.2.64 2 0 .5333-.133 1.1466-.4 1.84-.213.6933-.48 1.4133-.8 2.16-.32.6933-.613 1.3866-.88 2.08-.213.6933-.32 1.3066-.32 1.84 0 1.2266-.16 2.32-.48 3.28-.32.9066-.533 1.8933-.64 2.96 0 .2666.08.5066.24.72.16.2133.24.4266.24.64 0 .2133-.106.4-.32.56-.16.16-.24.3733-.24.64 0 .1066.107.32.32.64-.48.2133-.826.4533-1.04.72-.213.2133-.4.48-.56.8-.106.32-.213.6933-.32 1.12-.053.3733-.213.8266-.48 1.36l.16.16c.267 0 .48-.1067.64-.32.16-.2134.294-.4534.4-.72.107-.32.187-.6134.24-.88.054-.2667.08-.48.08-.64 0-.4267-.106-.8267-.32-1.2.214-.1067.4-.16.56-.16.214-.0534.4-.1334.56-.24Zm8.08-2.96c0 .5866-.08 1.04-.24 1.36-.16.2666-.346.5333-.56.8-.16.2133-.346.4533-.56.72-.213.2133-.373.5333-.48.96-.213.6933-.533 1.3066-.96 1.84-.426.5333-.853 1.0933-1.28 1.68-.16.2133-.4.6666-.72 1.36-.266.64-.56 1.3866-.88 2.24-.266.8-.506 1.6266-.72 2.48-.213.8533-.32 1.5733-.32 2.16 0 .3733.027.8533.08 1.44.107.5333.374.8.8.8.107 0 .64-.08 1.6-.24 1.014-.2134 2.134-.5334 3.36-.96 1.227-.4267 2.427-1.0134 3.6-1.76 1.174-.8 2-1.8134 2.48-3.04.427-.5334.827-1.0667 1.2-1.6.32-.4267.667-.8534 1.04-1.28.374-.4267.694-.7734.96-1.04.214-.16.48-.7467.8-1.76.374-1.0667.72-2.2667 1.04-3.6.374-1.3334.667-2.6667.88-4 .267-1.3867.4-2.48.4-3.28 0-.64-.16-1.04-.48-1.2-.32-.16-.72-.24-1.2-.24-.906 0-1.786.2933-2.64.88-.853.5866-1.706 1.2533-2.56 2-.8.7466-1.6 1.4666-2.4 2.16-.746.64-1.493 1.0133-2.24 1.12Zm-11.52 8.16c-.213.1066-.32.32-.32.64 0 .16.027.2666.08.32.054.0533.08.1333.08.24.054-.1067.107-.1867.16-.24.054-.0534.107-.1334.16-.24 0-.16-.053-.4-.16-.72Zm1.04 24.88.24.08-.16-.32-.08.24Zm-1.12-4.08c.107-.32.16-.5067.16-.56l-.16-.16c-.106.2133-.16.4-.16.56l.16.16Zm55.752 17.84c-.48.48-.827 1.0133-1.04 1.6l-.48 1.92c-.107.6933-.24 1.36-.4 2-.16.6933-.454 1.3333-.88 1.92 0 .9066-.267 1.8933-.8 2.96-.48 1.12-1.147 2.1333-2 3.04-.8.96-1.76 1.7333-2.88 2.32-1.067.64-2.187.96-3.36.96-.96 0-1.707-.1067-2.24-.32-.534-.2134-1.014-.48-1.44-.8-.374-.2667-.72-.56-1.04-.88-.267-.32-.64-.6134-1.12-.88-1.014-.5867-1.627-1.44-1.84-2.56-.16-1.0667-.24-2.2134-.24-3.44 0-1.12.08-2.5867.24-4.4.213-1.76.96-3.76 2.24-6 .266-.4267.533-1.2.8-2.32.32-1.0667.64-1.9734.96-2.72.32-.7467.773-1.7334 1.36-2.96.64-1.1734 1.493-2.6134 2.56-4.32.213-.2667.426-.5334.64-.8.266-.2667.506-.56.72-.88.266-.3734.533-.8534.8-1.44.266-.5334.533-1.04.8-1.52.266-.5334.56-.9867.88-1.36.32-.4267.64-.6934.96-.8.693-.4267 1.2-.9334 1.52-1.52.32-.64.8-1.2267 1.44-1.76 1.066-.9067 1.893-2.1334 2.48-3.68.586-1.5467 1.013-3.0667 1.28-4.56.106-.7467.4-1.3867.88-1.92.533-.5867.8-1.1734.8-1.76v-.32c0-.1067-.054-.16-.16-.16-.107 0-.294.1066-.56.32-.214.16-.4.24-.56.24-.214 0-.32-.1067-.32-.32 0-.8534.08-1.5467.24-2.08.16-.5334.346-.9867.56-1.36.213-.4267.4-.8.56-1.12.16-.3734.24-.8.24-1.28 0-.3734-.027-.8534-.08-1.44 0-.64-.054-1.2534-.16-1.84-.054-.5867-.187-1.0667-.4-1.44-.214-.4267-.48-.64-.8-.64-.32 0-.587.1066-.8.32-.214.16-.4.3733-.56.64-.16.2133-.294.4266-.4.64-.107.16-.24.24-.4.24-.427.32-.827.6666-1.2 1.04-.32.32-.614.6666-.88 1.04-.267.3733-.454.7466-.56 1.12 0-.0534-.134.08-.4.4-.214.32-.507.6933-.88 1.12-.374.3733-.774.7733-1.2 1.2-.374.4266-.72.72-1.04.88-.054.0533-.187.24-.4.56-.214.2666-.454.6133-.72 1.04-.214.4266-.427.88-.64 1.36-.214.48-.347.9066-.4 1.28-.107.6933-.534 1.36-1.28 2-.747.5866-1.44 1.1733-2.08 1.76-1.707-.16-3.12-.6134-4.24-1.36-1.067-.7467-1.92-1.68-2.56-2.8-.64-1.12-1.094-2.3467-1.36-3.68-.214-1.3867-.32-2.7467-.32-4.08v-1.2c.053-.4267.106-.8534.16-1.28 0-.0534.026-.4267.08-1.12.053-.7467.133-1.6534.24-2.72.16-1.0667.346-2.2134.56-3.44.213-1.2267.48-2.3467.8-3.36.32-1.0667.693-1.9467 1.12-2.64.48-.6934 1.013-1.04 1.6-1.04.8 0 1.493.1866 2.08.56.586.32 1.093.72 1.52 1.2.426.48.746.9866.96 1.52.213.5333.32 1.0133.32 1.44 0 1.8666-.24 3.7866-.72 5.76-.48 1.9733-.72 3.8666-.72 5.68 0 .6933.186 1.04.56 1.04.266 0 .64-.16 1.12-.48.533-.3734 1.066-.7734 1.6-1.2.533-.48 1.04-.96 1.52-1.44s.853-.8534 1.12-1.12c.586-.6934 1.2-1.2534 1.84-1.68.693-.48 1.44-.9067 2.24-1.28.32-.16.533-.32.64-.48.106-.2134.186-.4.24-.56.053-.2134.106-.4.16-.56.053-.16.213-.2934.48-.4.266-.1067.453-.24.56-.4.16-.2134.266-.4267.32-.64.106-.2667.213-.5334.32-.8.16-.2667.373-.5067.64-.72.213-.16.506-.4267.88-.8.426-.4267.88-.8267 1.36-1.2.48-.4267 1.013-.7734 1.6-1.04.586-.32 1.2-.48 1.84-.48.48 0 1.013.1066 1.6.32.64.16 1.226.4 1.76.72.533.32.986.6933 1.36 1.12.373.3733.56.7466.56 1.12 0 .6933-.027 1.3866-.08 2.08-.054.6933-.107 1.3866-.16 2.08-.214.7466-.374 1.6-.48 2.56-.107.9066-.214 1.84-.32 2.8-.107.9066-.267 1.7866-.48 2.64-.16.8533-.4 1.6-.72 2.24-.32.5866-.534 1.28-.64 2.08-.054.8-.08 1.5733-.08 2.32 0 .5333.24.8.72.8.426 0 1.093-.2667 2-.8.906-.5867 1.76-1.0934 2.56-1.52.533-.48.96-.8534 1.28-1.12.32-.2667.613-.48.88-.64.266-.16.56-.2934.88-.4.32-.16.72-.32 1.2-.48.426-.16.853-.32 1.28-.48.426-.16.773-.4534 1.04-.88.053-.0534.32-.1867.8-.4.48-.2667 1.04-.5067 1.68-.72.64-.2667 1.253-.5067 1.84-.72.64-.2134 1.093-.32 1.36-.32.213 0 .56.0533 1.04.16.48.0533.96.1866 1.44.4.48.16.906.4 1.28.72.373.32.56.72.56 1.2 0 .3733-.107.72-.32 1.04-.214.32-.507.5066-.88.56-.64 0-1.147.0533-1.52.16-.374.0533-.72.16-1.04.32-.32.16-.667.3733-1.04.64-.32.2133-.747.4533-1.28.72-1.6.8533-3.227 1.7333-4.88 2.64-1.6.9066-3.12 1.8933-4.56 2.96-1.227.6933-2.214 1.36-2.96 2-.694.64-1.467 1.2533-2.32 1.84-.64.4266-1.2.88-1.68 1.36-.48.4266-.934.96-1.36 1.6-.427.5866-.854 1.3333-1.28 2.24-.427.9066-.88 2-1.36 3.28-.107.2666-.347.4533-.72.56-.374.1066-.56.3733-.56.8 0 .1066.026.2666.08.48.053.2133.133.3466.24.4.106 0 .24-.0534.4-.16.16-.0534.266-.1067.32-.16.213.6933.32 1.4666.32 2.32 0 .32-.027.64-.08.96 0 .32-.027.64-.08.96-.054.4266-.24.72-.56.88-.32.16-.667.2933-1.04.4-.32.16-.64.3466-.96.56-.267.2133-.4.56-.4 1.04 0 .16.026.32.08.48.053.16.08.32.08.48.213-.16.346-.3467.4-.56.053-.2134.106-.4267.16-.64.053-.16.133-.32.24-.48.16-.16.426-.24.8-.24.266 0 .48.08.64.24.16.2133.24.4533.24.72 0 .4266-.054.8-.16 1.12-.107.32-.187.6666-.24 1.04 0 .1066-.187.2666-.56.48-.374.2666-.56.64-.56 1.12v.32c.053.1066.08.24.08.4 0 .1066-.027.1866-.08.24v.32c0 .32.08.64.24.96.16.3733.24.72.24 1.04 0 0-.054.2133-.16.64-.054.48-.16.96-.32 1.44-.107.5333-.24 1.0133-.4 1.44-.16.48-.347.72-.56.72-.107 0-.187-.0267-.24-.08h-.16c-.16 0-.32.08-.48.24l-.08.16c.106-.16.293-.2667.56-.32.266 0 .506-.0267.72-.08Zm-.4-3.84c-.534.0533-.88.1333-1.04.24-.107.16-.16.48-.16.96 0 .0533.053.1333.16.24.426 0 .666-.2134.72-.64.106-.3734.266-.6667.48-.88 0-.1067-.027-.16-.08-.16-.107 0-.16.0266-.16.08v.08c.053 0 .08.0266.08.08Zm-13.92 11.76c0 .7466.133 1.36.4 1.84.266.5333.773.8 1.52.8.586 0 1.066-.2134 1.44-.64.373-.4267.826-.7467 1.36-.96.533-.2134 1.013-.56 1.44-1.04.426-.4267.826-.9334 1.2-1.52.373-.5334.72-1.0934 1.04-1.68.373-.5867.773-1.12 1.2-1.6-.107-.2134-.24-.4-.4-.56-.16-.1067-.24-.2667-.24-.48 0-.3734.053-.6934.16-.96.16-.2667.32-.5334.48-.8.213-.2134.373-.4534.48-.72.16-.2134.24-.5067.24-.88 0-.16-.027-.32-.08-.48v-.4c0-.7467.213-1.4934.64-2.24.48-.7467.72-1.6534.72-2.72 0-.2134-.027-.4267-.08-.64-.054-.16-.08-.3467-.08-.56 0-1.0667.213-2.4534.64-4.16.426-1.6534.64-3.2534.64-4.8 0-.1067-.054-.32-.16-.64-.054-.32-.24-.48-.56-.48-.16 0-.454.2666-.88.8-.427.5333-.907 1.1466-1.44 1.84-.48.7466-.96 1.4666-1.44 2.16-.48.7466-.827 1.3333-1.04 1.76-.107.2666-.267.5066-.48.72-.48.5333-.987 1.1466-1.52 1.84-.48.7466-.934 1.4933-1.36 2.24-.427.7466-.8 1.4933-1.12 2.24-.267.7466-.4 1.44-.4 2.08 0 .2133-.107.48-.32.8-.267.32-.507.88-.72 1.68-.214.8-.4 1.68-.56 2.64-.16.96-.294 1.9466-.4 2.96-.107 1.0133-.214 1.8666-.32 2.56Zm13.84-15.36c-.107.1066-.267.2133-.48.32-.16.16-.24.2933-.24.4 0 .0533.053.1066.16.16.16.1066.266.16.32.16.106-.0534.266-.1334.48-.24.213-.1067.32-.2667.32-.48-.214-.1067-.4-.2134-.56-.32Zm.32-8c-.107-.0534-.187-.1067-.24-.16 0 0-.054-.0267-.16-.08-.214 0-.32.1066-.32.32 0 .1066.08.16.24.16.106 0 .186-.0267.24-.08.053-.0534.133-.1067.24-.16Zm-2.96 16.8c-.214 0-.32.08-.32.24 0 .1066.053.16.16.16.106 0 .16-.1334.16-.4Zm-2.88 6c-.054-.0534-.08-.1067-.08-.16 0 0-.027-.0267-.08-.08-.107.1066-.16.1866-.16.24 0 .16.053.24.16.24.106 0 .16-.08.16-.24Zm7.76-27.68v-.24c0-.1067-.054-.16-.16-.16l-.08.08c-.054 0-.08.0266-.08.08 0 .16.106.24.32.24Zm-5.04 19.36c.053-.0534.08-.08.08-.08.053 0 .106-.0267.16-.08-.107-.1067-.16-.16-.16-.16-.054 0-.107.0266-.16.08l.08.24Zm2 1.36.08-.16h-.08v.16Zm22.368 9.04c-.373-.7467-.586-1.5467-.64-2.4-.106-.8-.16-1.6267-.16-2.48v-1.76c-.053-.64-.053-1.3067 0-2 .054-.6934.134-1.3334.24-1.92.054-.5867.214-1.04.48-1.36.32-.4267.534-.9067.64-1.44.107-.48.214-.9867.32-1.52.054-.5334.16-1.04.32-1.52.107-.4267.347-.7734.72-1.04.267-.2134.48-.72.64-1.52.16-.7467.347-1.5734.56-2.48.214-.9067.48-1.7334.8-2.48.32-.7467.747-1.2 1.28-1.36.427-.16.747-.4.96-.72.214-.2667.374-.6134.48-1.04.107-.48.347-.9067.72-1.28.374-.4267.774-.8 1.2-1.12.48-.3734.907-.72 1.28-1.04.427-.3734.72-.7734.88-1.2.267-.64.774-1.2 1.52-1.68.747-.48 1.254-1.12 1.52-1.92.214-.2134.667-.56 1.36-1.04.694-.48 1.414-.9867 2.16-1.52.747-.5334 1.414-1.0667 2-1.6.587-.5334.88-.9334.88-1.2-.053-.5867-.133-1.1467-.24-1.68-.106-.4267-.24-.8-.4-1.12-.106-.3734-.293-.56-.56-.56-.533.3733-.96.8-1.28 1.28-.32.48-.613.9866-.88 1.52-.213.5333-.48 1.04-.8 1.52-.266.4266-.666.7733-1.2 1.04-.266.1066-.453.2933-.56.56-.106.2133-.24.4533-.4.72-.106.2133-.266.4-.48.56-.16.16-.4.24-.72.24-.906 0-1.68-.1334-2.32-.4-.64-.32-1.173-.6934-1.6-1.12-.426-.4267-.746-.8267-.96-1.2-.213-.4267-.32-.7734-.32-1.04 0-.4267.134-1.0934.4-2 .32-.96.64-1.84.96-2.64.374-.96.907-1.7067 1.6-2.24.694-.5334 1.387-1.0134 2.08-1.44.747-.48 1.414-.9867 2-1.52.64-.5334 1.12-1.2534 1.44-2.16 0-.0534.107-.2134.32-.48.214-.32.427-.6667.64-1.04.214-.4267.4-.88.56-1.36.214-.5334.32-1.0934.32-1.68-.053-.2134-.08-.5867-.08-1.12 0-.5867.027-1.2.08-1.84.107-.64.16-1.28.16-1.92v-.4c0-.2667-.053-.56-.16-.88-.053-.32-.186-.5867-.4-.8-.16-.2667-.453-.4-.88-.4-.266.0533-.56.1066-.88.16-.32.0533-.613.08-.88.08-1.12 0-1.973.5866-2.56 1.76-.586 1.12-1.12 2.3733-1.6 3.76-.48 1.3866-.986 2.6666-1.52 3.84-.533 1.12-1.306 1.68-2.32 1.68-.426 0-.906-.0534-1.44-.16-.533-.16-1.04-.3467-1.52-.56-.48-.2667-.906-.5867-1.28-.96-.32-.3734-.48-.8-.48-1.28 0-.96.187-1.9467.56-2.96.427-1.0667.96-2.1067 1.6-3.12.64-1.0134 1.334-1.9734 2.08-2.88.8-.9067 1.574-1.7067 2.32-2.4 1.494-.2667 2.8-.5334 3.92-.8 1.12-.32 2.374-.48 3.76-.48 2.347 0 4.347.7466 6 2.24.427.4266.694.9066.8 1.44.107.48.214.7733.32.88.427.48.72.9866.88 1.52.16.48.24.9866.24 1.52 0 1.3866-.186 2.6933-.56 3.92-.32 1.2266-.666 2.5333-1.04 3.92-.106.3733-.293.6933-.56.96-.266.2133-.4.5866-.4 1.12 0 .3733.054.6133.16.72.107.1066.294.2933.56.56.534.2666 1.04.6933 1.52 1.28.48.5866.907 1.1733 1.28 1.76.374.5333.694 1.0133.96 1.44.32.4266.587.64.8.64.64 0 1.44-.2134 2.4-.64 1.014-.4267 1.867-.64 2.56-.64.267 0 .507.0266.72.08.214.0533.427.08.64.08.267 0 .534-.0267.8-.08.267-.0534.534-.08.8-.08.854 0 1.28.4533 1.28 1.36-.32.9066-.986 1.6266-2 2.16-.96.48-1.973.96-3.04 1.44-1.066.48-2.026 1.0666-2.88 1.76-.853.6933-1.28 1.68-1.28 2.96v.48c.054.1066.08.24.08.4 0 1.8666-.24 3.8133-.72 5.84-.426 2.0266-.773 4.0266-1.04 6-.106.4266-.266.8533-.48 1.28-.213.4266-.32.7733-.32 1.04v.4c.054.16.08.2933.08.4 0 .5866-.133 1.2266-.4 1.92-.266.7466-.586 1.44-.96 2.08-.32.6933-.613 1.3066-.88 1.84-.266.5333-.4.96-.4 1.28 0 .48-.213 1.0933-.64 1.84-.373.7466-.826 1.5466-1.36 2.4-.48.9066-1.013 1.84-1.6 2.8-.533.96-.96 1.8666-1.28 2.72-.32.5866-.746 1.12-1.28 1.6-.533.5333-.906 1.12-1.12 1.76-.106.2666-.426.5066-.96.72-.48.2133-.826.56-1.04 1.04-.213.4266-.533.8-.96 1.12-.426.32-.88.56-1.36.72-.48.2133-.96.3466-1.44.4-.48.1066-.826.16-1.04.16-.906 0-1.706-.1067-2.4-.32-.64-.2134-1.253-.5067-1.84-.88-.586-.32-1.2-.72-1.84-1.2-.586-.48-1.253-1.0134-2-1.6Zm5.04-4.72c0 .5866.08 1.2266.24 1.92.214.6933.72 1.04 1.52 1.04.054 0 .48-.2134 1.28-.64.854-.3734 1.76-.9334 2.72-1.68 1.014-.6934 2-1.5734 2.96-2.64.96-1.0667 1.654-2.2667 2.08-3.6.16-.5334.4-.9334.72-1.2.32-.2667.48-.6934.48-1.28 0-.1067-.026-.24-.08-.4v-.32c0-.2134.08-.5334.24-.96.214-.4267.454-.9067.72-1.44.267-.5334.507-1.0934.72-1.68.214-.5867.374-1.12.48-1.6.107-.5334.32-.96.64-1.28.32-.32.48-.6934.48-1.12 0-.1067-.026-.24-.08-.4v-.4c0-1.3334.134-2.6934.4-4.08.267-1.3867.4-2.72.4-4 0-.4267-.053-.9334-.16-1.52-.106-.64-.346-.96-.72-.96 0 0-.213.1866-.64.56-.373.32-.826.72-1.36 1.2l-1.44 1.44c-.48.4266-.826.7466-1.04.96-1.173 1.8666-2.506 3.7333-4 5.6-1.44 1.8666-2.533 3.84-3.28 5.92-.586 1.6-1.253 3.3066-2 5.12-.746 1.8133-1.12 3.4133-1.12 4.8 0 .2666-.026.48-.08.64 0 .16-.026.5333-.08 1.12v.88Zm64.276-26.8c-.427 1.5466-1.04 2.6933-1.84 3.44-.747.6933-1.787 1.2266-3.12 1.6-.693-.48-1.467-.9867-2.32-1.52-.8-.5867-1.2-1.36-1.2-2.32 0-.6934-.187-1.1467-.56-1.36-.373-.2134-.56-.6134-.56-1.2v-1.28c.053-.48.08-.9334.08-1.36-.107-.6934-.24-1.4667-.4-2.32-.107-.8534-.16-1.6-.16-2.24 0-.32.027-.64.08-.96.053-.3734.08-.72.08-1.04-.053-.4267-.133-.8267-.24-1.2-.053-.3734-.107-.7467-.16-1.12 0-.32.053-.64.16-.96.16-.3734.24-.6934.24-.96 0-.2667-.053-.5334-.16-.8-.053-.32-.08-.6134-.08-.88 0-.8534.08-1.7867.24-2.8.16-1.0134.24-2 .24-2.96 0-.2667-.027-.5067-.08-.72 0-.2667-.133-.48-.4-.64-.107 0-.213.0266-.32.08h-.32c0 .1066-.213.4266-.64.96-.373.5333-.827 1.1466-1.36 1.84-.48.64-.96 1.3066-1.44 2-.427.64-.72 1.1466-.88 1.52-.107.2666-.24.6133-.4 1.04-.16.4266-.347.8533-.56 1.28-.16.3733-.32.72-.48 1.04-.107.2666-.16.4-.16.4-.427.16-.747.4266-.96.8-.213.32-.4.6666-.56 1.04-.16.3733-.293.7466-.4 1.12-.107.32-.24.56-.4.72-.64.5333-1.253 1.36-1.84 2.48-.587 1.12-1.253 2.24-2 3.36-.747 1.12-1.6 2.1066-2.56 2.96-.96.8533-2.133 1.28-3.52 1.28-1.28 0-2.56-.4534-3.84-1.36-1.28-.9067-2-2.2934-2.16-4.16-.107-.9067-.32-1.7867-.64-2.64-.32-.9067-.48-1.7867-.48-2.64 0-1.44.053-2.9067.16-4.4.16-1.4934.373-2.9067.64-4.24 0-.0534.053-.4267.16-1.12.107-.7467.187-1.6534.24-2.72.107-1.12.187-2.3734.24-3.76.107-1.3867.16-2.8.16-4.24 0-.32-.053-.64-.16-.96-.053-.3734-.08-.72-.08-1.04 0-.2667.107-.5067.32-.72.267-.2134.533-.32.8-.32.96.1066 1.893.4 2.8.88.907.4266 1.36 1.12 1.36 2.08-.267 3.2-.56 6.32-.88 9.36-.32 2.9866-.48 6.08-.48 9.28v2c.053.7466.107 1.4666.16 2.16.107.6933.24 1.28.4 1.76.213.48.48.72.8.72.48 0 1.12-.5334 1.92-1.6.853-1.0667 1.76-2.3467 2.72-3.84 1.013-1.4934 2-3.0134 2.96-4.56.96-1.6 1.813-2.9334 2.56-4 .427-.5867.853-1.0134 1.28-1.28.48-.32.8-.8267.96-1.52.213-.7467.64-1.44 1.28-2.08.693-.6934 1.28-1.3067 1.76-1.84.32-.32.747-.8534 1.28-1.6.533-.7467 1.12-1.4934 1.76-2.24.64-.7467 1.28-1.3867 1.92-1.92.64-.5867 1.173-.88 1.6-.88.373 0 .773-.0267 1.2-.08.48-.0534.96-.08 1.44-.08 1.813 0 3.093.56 3.84 1.68.8 1.0666 1.2 2.3733 1.2 3.92 0 1.5466-.187 3.0666-.56 4.56-.373 1.4933-.56 2.8533-.56 4.08v.88c.053.2666.08.56.08.88 0 1.12-.107 2.2133-.32 3.28-.213 1.0666-.32 2.1333-.32 3.2.107 1.2266.24 2.48.4 3.76.16 1.28.24 2.48.24 3.6 0 .1066-.027.2133-.08.32v.24c0 .5333.08 1.04.24 1.52.16.48.373.9333.64 1.36Zm6.636-9.04c0-1.6.186-3.1467.56-4.64.426-1.4934.64-3.0134.64-4.56 0-.4267.106-.9867.32-1.68.213-.7467.48-1.52.8-2.32.32-.8534.666-1.7067 1.04-2.56.426-.8534.826-1.6267 1.2-2.32.426-.7467.906-1.3867 1.44-1.92.533-.5867.933-1.2534 1.2-2 .16-.5334.453-.9067.88-1.12.426-.2134.693-.6134.8-1.2.053-.2667.186-.4534.4-.56.266-.1067.533-.1867.8-.24.266-.0534.506-.1067.72-.16.266-.0534.453-.2134.56-.48.16-.3734.426-.72.8-1.04.373-.3734.773-.6934 1.2-.96.426-.32.853-.56 1.28-.72.426-.16.746-.24.96-.24 1.546.2666 2.96.6133 4.24 1.04 1.066.3733 2.053.8266 2.96 1.36.906.5333 1.36 1.2 1.36 2 0 .5333-.08 1.28-.24 2.24-.107.9066-.294 1.8133-.56 2.72-.267.8533-.614 1.6266-1.04 2.32-.427.64-.934.96-1.52.96-.587 0-1.094-.32-1.52-.96-.374-.64-.56-1.2534-.56-1.84 0-.48.026-.9334.08-1.36.053-.48.106-.9334.16-1.36 0-.3734-.187-.56-.56-.56-.8 0-1.654.32-2.56.96-.854.5866-1.707 1.36-2.56 2.32-.854.9066-1.654 1.92-2.4 3.04-.747 1.12-1.387 2.16-1.92 3.12-.374 1.6533-.854 3.28-1.44 4.88-.587 1.6-.88 3.3066-.88 5.12 0 .7466.053 1.6533.16 2.72.106 1.0666.266 2.1066.48 3.12.266.96.56 1.7866.88 2.48.373.6933.826 1.04 1.36 1.04.213 0 .773-.2667 1.68-.8.96-.5867 2-1.28 3.12-2.08s2.186-1.6 3.2-2.4c1.066-.8534 1.84-1.52 2.32-2 .693-.8 1.573-1.7067 2.64-2.72 1.12-1.0134 2.24-1.9734 3.36-2.88 1.173-.9067 2.32-1.6534 3.44-2.24 1.12-.64 2.053-.96 2.8-.96.373 0 .693.0533.96.16.266.1066.4.3466.4.72 0 .4266-.214.8533-.64 1.28-.374.3733-.827.7733-1.36 1.2-.534.3733-1.067.8-1.6 1.28-.48.4266-.827.88-1.04 1.36-.107 0-.534.3733-1.28 1.12-.694.7466-1.494 1.5733-2.4 2.48-.907.9066-1.787 1.7866-2.64 2.64-.8.8533-1.36 1.44-1.68 1.76-.32.3733-.96 1.0133-1.92 1.92-.907.9066-1.947 1.84-3.12 2.8-1.174.9066-2.374 1.7333-3.6 2.48-1.227.6933-2.32 1.04-3.28 1.04-1.6 0-2.88-.2934-3.84-.88-.907-.5867-1.627-1.3067-2.16-2.16-.534-.8534-.96-1.7867-1.28-2.8-.32-1.0134-.694-1.9734-1.12-2.88-.267-.5867-.4-1.2534-.4-2 0-.7467-.027-1.44-.08-2.08Zm50.852 1.52c-.213.0533-.427.08-.64.08-.16 0-.24.08-.24.24 0 .2666.027.5066.08.72.053.16.08.3466.08.56 0 .1066-.133.48-.4 1.12-.213.5866-.507 1.2266-.88 1.92-.32.6933-.693 1.3333-1.12 1.92-.373.5333-.72.8-1.04.8-.107 0-.24-.0267-.4-.08-.107-.1067-.24-.2134-.4-.32-.373 0-.747.32-1.12.96-.32.5866-.747 1.2533-1.28 2-.48.6933-1.093 1.3333-1.84 1.92-.747.5866-1.68.88-2.8.88-.48 0-.96-.1067-1.44-.32-.427-.16-.88-.24-1.36-.24h-.32c-.053.0533-.133.08-.24.08-.32 0-.533-.1334-.64-.4-.053-.2667-.133-.56-.24-.88-.053-.32-.187-.6134-.4-.88-.16-.2667-.453-.4-.88-.4-.213 0-.427.0266-.64.08h-.48c-.427 0-.693-.2134-.8-.64-.107-.48-.187-.9334-.24-1.36-.267-.9067-.693-2-1.28-3.28-.533-1.28-.827-2.6134-.88-4 0-.16.08-.24.24-.24.213 0 .347.16.4.48.053.32.16.48.32.48.32 0 .507-.2667.56-.8.107-.5334.16-1.0667.16-1.6 0-.5867-.107-.96-.32-1.12-.213-.16-.453-.2667-.72-.32-.267-.1067-.507-.2134-.72-.32-.213-.1067-.32-.3734-.32-.8 0-.2134.053-.56.16-1.04.107-.48.213-.96.32-1.44.107-.48.213-.9067.32-1.28.107-.4267.16-.6934.16-.8 0-1.3867.16-2.7467.48-4.08.373-1.3334.693-2.72.96-4.16.16-.8534.453-1.6267.88-2.32.427-.6934.64-1.3334.64-1.92 0-.2667.053-.64.16-1.12.107-.48.24-.9867.4-1.52.16-.5334.347-1.0667.56-1.6.213-.5334.4-.9867.56-1.36.373-1.0667.8-1.7334 1.28-2 .533-.2667 1.12-.4 1.76-.4.373 0 .853.0266 1.44.08.587.0533 1.12.1866 1.6.4.533.16.987.4533 1.36.88.373.4266.56 1.0133.56 1.76 0 .96-.107 1.92-.32 2.88-.16.9066-.347 1.8133-.56 2.72-.213.9066-.427 1.76-.64 2.56-.16.8-.24 1.52-.24 2.16 0 .4266.027.72.08.88 0 .6933-.133 1.3866-.4 2.08-.213.64-.32 1.2533-.32 1.84 0 .5866.4 1.0133 1.2 1.28.8.2133 1.653.4 2.56.56.96.16 1.84.3466 2.64.56.8.2133 1.2.5866 1.2 1.12 0 .16-.107.3466-.32.56-.16.2133-.24.3733-.24.48 0 0 .053.08.16.24.107.16.24.3733.4.64.16.2133.347.4266.56.64.213.16.4.24.56.24.32 0 .48-.1867.48-.56 0-.3734.053-.7734.16-1.2.32.5333.533.96.64 1.28.107.32.213.6133.32.88.107.2666.24.56.4.88.213.32.533.7466.96 1.28 0 .4266-.08.7466-.24.96-.16.2133-.293.4533-.4.72Zm-11.92-3.2c-.053.1066-.133.1866-.24.24-.053.0533-.08.1333-.08.24 0 .8.027 1.6533.08 2.56.053.9066.187 1.76.4 2.56.213.7466.533 1.3866.96 1.92.427.48.987.72 1.68.72.373 0 .88-.2667 1.52-.8.693-.5334 1.04-1.12 1.04-1.76 0-.1067-.027-.16-.08-.16v-.24c-.32-.5867-.613-1.2-.88-1.84-.267-.64-.587-1.2-.96-1.68-.373-.5334-.853-.96-1.44-1.28-.533-.32-1.2-.48-2-.48Zm11.84 3.2c.213.1066.4.2666.56.48.213.16.32.3733.32.64 0 .16-.16.24-.48.24-.16 0-.293-.1067-.4-.32-.053-.2134-.08-.3734-.08-.48 0-.16.053-.3467.16-.56h-.08ZM6.47999 86.241c.16-1.44.50667-2.64 1.04-3.6.53333-1.0134.8-2.08.8-3.2 0-.96.21333-1.8934.64-2.8.48-.9067.72-1.6267.72-2.16 0-.2667-.10667-.56-.32-.88-.16-.32-.24-.5334-.24-.64 0-.16.16-.3734.48-.64.53331-.5334.85331-1.04.96001-1.52.1067-.48.16-1.0934.16-1.84 0-.2667-.0267-.5334-.08-.8-.0533-.2667-.08-.5334-.08-.8 0-.9067.1867-1.6.56-2.08.3733-.48.56-1.0667.56-1.76 0-.3734.0533-.64.16-.8.1067-.2134.2133-.3734.32-.48.1067-.1067.2133-.2134.32-.32.1067-.1067.16-.2667.16-.48 0-.2667-.0267-.5067-.08-.72-.0533-.2134-.08-.4267-.08-.64 0-.0534.1333-.4.4-1.04.32-.6934.64-1.4667.96-2.32.32-.8534.6133-1.7067.88-2.56.32-.8534.48-1.4934.48-1.92 0-.1067-.0267-.2134-.08-.32-.0533-.16-.08-.2934-.08-.4 0-1.0667.24-1.8134.72-2.24.48-.48.72-.96.72-1.44 0-.16-.0267-.3467-.08-.56v-.56c.1067-.64.3733-1.12.8-1.44.4267-.3734.64-.72.64-1.04 0-.7467.1067-1.44.32-2.08.2667-.6934.5867-1.44.96-2.24.3733-.8534.8-1.8134 1.28-2.88.48-1.0667.9867-2.3734 1.52-3.92.48-1.44 1.0933-2.5867 1.84-3.44.8-.8534 1.6533-1.8934 2.56-3.12.3733 0 .8-.1067 1.28-.32.5333-.2134 1.1467-.4534 1.84-.72.6933-.2667 1.4933-.5067 2.4-.72.96-.2134 2.08-.32 3.36-.32 1.0667 0 2.0533.3466 2.96 1.04.9067.6933 1.68 1.6 2.32 2.72.64 1.0666 1.1467 2.2933 1.52 3.68.3733 1.3333.56 2.6933.56 4.08 0 1.0133-.16 1.9733-.48 2.88-.32.9066-.48 1.8666-.48 2.88v.96c.0533.32.08.6666.08 1.04 0 .6933-.1067 1.4133-.32 2.16-.16.6933-.3467 1.3866-.56 2.08-.2133.64-.4267 1.2533-.64 1.84-.16.5333-.24.96-.24 1.28 0 .7466-.1067 1.3866-.32 1.92-.16.48-.3733.9866-.64 1.52-.32.64-.5867 1.36-.8 2.16-.16.7466-.3467 1.52-.56 2.32-.2133.8-.5067 1.6-.88 2.4-.3733.7466-.9067 1.44-1.6 2.08-.32.32-.56.6933-.72 1.12-.16.3733-.32.8-.48 1.28-.1067.48-.2667 1.0133-.48 1.6-.2133.5333-.56 1.12-1.04 1.76-.2133.2133-.3733.56-.48 1.04 0 .4266-.16.96-.48 1.6-.2667.5866-.6133 1.2266-1.04 1.92-.3733.64-.7733 1.3066-1.2 2-.3733.6933-.72 1.3066-1.04 1.84-.6933 1.28-1.36 2.3733-2 3.28-.5867.9066-1.12 1.68-1.6 2.32-.48.64-.9067 1.2-1.28 1.68-.32.48-.5333.96-.64 1.44 0 .2133-.24.5333-.72.96-.48.4266-1.04.88-1.68 1.36-.5867.4266-1.2.8266-1.84 1.2-.5867.32-.9867.5066-1.2.56-.2133.0533-.5867.1333-1.12.24-.48.1066-1.0133.2666-1.6.48-.5333.2133-1.0133.48-1.44.8-.4267.2666-.64.6133-.64 1.04 0 .16.0267.3466.08.56.0533.16.08.32.08.48 0 .32-.1067.72-.32 1.2s-.32.96-.32 1.44c0 .5866.0267 1.2.08 1.84.0533.64.1067 1.3066.16 2 0 .48-.1333.88-.4 1.2-.2133.32-.32.613-.32.88 0 .213.0267.427.08.64.0533.16.1067.347.16.56 0 .213-.0267.427-.08.64-.0533.16-.08.32-.08.48 0 .32.08.533.24.64.16.053.3733.08.64.08h1.12c.4267-.053.8533-.08 1.28-.08.8 0 1.4933.213 2.08.64.5867.427 1.2.64 1.84.64 1.28 0 2.24.347 2.88 1.04.6933.693 1.44 1.493 2.24 2.4.5867.64 1.2267 1.36 1.92 2.16s1.04 1.867 1.04 3.2c0 .32-.1067.533-.32.64-.16.053-.24.133-.24.24 0 .16.1333.4.4.72.32.32.48.587.48.8 0 .32-.1333.64-.4.96-.2667.267-.4.587-.4.96 0 .267-.1067.987-.32 2.16s-.6933 2.4-1.44 3.68c-.7467 1.333-1.84 2.533-3.28 3.6-1.44 1.067-3.3867 1.6-5.84 1.6-1.5467 0-2.9333-.48-4.16-1.44-1.2267-.96-2.10668-2.053-2.64001-3.28-.16-.32-.37333-.613-.64-.88-.26667-.213-.56-.427-.88-.64-.26667-.16-.50667-.373-.72-.64-.16-.213-.24-.507-.24-.88 0-.587.21333-1.013.64-1.28.42667-.267.64-.693.64-1.28v-.4c0-.213-.02667-.427-.08-.64-.05333-.267-.16-.48-.32-.64-.10667-.213-.26667-.32-.48-.32-.26667 0-.53333.107-.8.32-.26667.16-.45333.24-.56.24-.21333 0-.32-.107-.32-.32 0-.48.26667-1.12.8-1.92.53333-.8.8-1.573.8-2.32 0-.267-.10667-.507-.32-.72-.21333-.267-.32-.533-.32-.8 0-.213.02667-.4.08-.56.05333-.213.08-.427.08-.64 0-.48-.21333-.8-.64-.96-.37333-.213-.56-.587-.56-1.12 0-.533.05333-1.093.16-1.68.16-.64.24-1.253.24-1.84 0-.427-.08-.88-.24-1.36-.10667-.533-.16-1.04-.16-1.52 0-.693.16-1.36.48-2 .37333-.64.56-1.333.56-2.08 0-.64-.05333-1.1467-.16-1.52-.05333-.4267-.34667-.96-.88-1.6l.08.08c.48-.16.77333-.3734.88-.64.16-.32.24-.6667.24-1.04 0-.2667-.02667-.5067-.08-.72v-.8c0-.5334.16-1.0134.48-1.44.32-.3734.48-.96.48-1.76 0-.8534.05333-1.6.16-2.24 0-.32-.08-.5867-.24-.8-.10667-.2134-.21333-.4534-.32-.72Zm4.88001-1.2c.1067-.32.16-.5067.16-.56 0-.0534-.0267-.1067-.08-.16 0 0-.0267.0533-.08.16 0 .1066.0533.2666.16.48-.0533-.0534-.1333-.08-.24-.08h.08c0-.0534.0267-.08.08-.08 0 .0533-.0267.1066-.08.16v.08Zm1.52 38c0-.16.0533-.347.16-.56v-.24c0-.107-.0533-.16-.16-.16 0 .053-.0267.107-.08.16v.56c.0533.053.08.133.08.24 0-.107.0533-.16.16-.16 0 .053.0267.08.08.08l.08.08c0 .053-.0267.107-.08.16v.08h-.08c-.1067 0-.16-.08-.16-.24Zm25.52-85.52c-.2133-.9067-.3467-1.6267-.4-2.16 0-.5867-.1067-1.2267-.32-1.92-.1067-.2667-.2667-.6667-.48-1.2-.16-.5867-.4533-1.1467-.88-1.68-.3733-.5867-.8533-1.0934-1.44-1.52-.5867-.4267-1.3067-.64-2.16-.64-.4267 0-.9067.2933-1.44.88-.48.5333-.96 1.2266-1.44 2.08-.48.8-.9333 1.6533-1.36 2.56-.4267.8533-.72 1.6-.88 2.24-.1067.32-.2667.7733-.48 1.36-.2133.5866-.4533 1.1733-.72 1.76-.2133.5333-.4533 1.0133-.72 1.44-.2133.4266-.4.6933-.56.8-.4267.4266-.8.96-1.12 1.6-.2667.64-.5333 1.36-.8 2.16-.2133.7466-.4267 1.52-.64 2.32-.2133.8-.4267 1.52-.64 2.16-.4267 1.3866-1.0667 3.0933-1.92 5.12-.8 2.0266-1.7867 4.7733-2.96 8.24v.32c.0533.0533.08.1333.08.24 0 1.3333-.24 2.56-.72 3.68-.4267 1.0666-.64 1.9733-.64 2.72 0 1.3333-.1333 2.64-.4 3.92-.2667 1.28-.5867 2.56-.96 3.84-.32 1.2266-.6133 2.48-.88 3.76-.2667 1.28-.4 2.56-.4 3.84 0 .32.0267.6933.08 1.12.0533.4266.32.64.8.64.48 0 1.04-.2134 1.68-.64.6933-.4267 1.36-.9334 2-1.52.6933-.5867 1.3067-1.2 1.84-1.84.5333-.6934.9333-1.2534 1.2-1.68.64-1.2267 1.3867-2.4 2.24-3.52.9067-1.12 1.68-2.32 2.32-3.6.16-.48.4-.9067.72-1.28.32-.4267.64-.8534.96-1.28.32-.4267.6133-.8534.88-1.28.32-.4267.56-.9067.72-1.44.2667-.32.56-.7467.88-1.28.3733-.5334.72-1.0934 1.04-1.68.32-.64.5867-1.2534.8-1.84.2133-.5867.3467-1.12.4-1.6 0 0 .1333-.1334.4-.4.32-.2667.64-.6667.96-1.2.3733-.5334.6933-1.1467.96-1.84.32-.6934.48-1.44.48-2.24 0-.16.16-.32.48-.48.32-.2134.48-.3734.48-.48.16-.6934.2667-1.3067.32-1.84.0533-.5334.1067-1.04.16-1.52.1067-.5334.24-1.0667.4-1.6.16-.5334.4533-1.1467.88-1.84.1067-.2667.2933-.8534.56-1.76.32-.9067.48-1.8667.48-2.88 0-.3734-.0533-.7467-.16-1.12-.0533-.3734-.08-.7467-.08-1.12 0-.3734.1067-.6934.32-.96.2133-.32.32-.72.32-1.2-.0533-.48-.1067-.96-.16-1.44 0-.48-.0267-.9067-.08-1.28Zm-19.12 84.48c0-.8-.16-1.653-.48-2.56-.2667-.96-.6667-1.867-1.2-2.72-.5333-.907-1.1733-1.707-1.92-2.4-.7467-.747-1.5467-1.333-2.4-1.76-.1067 0-.24.027-.4.08-.16 0-.24.08-.24.24.16.853.3467 1.973.56 3.36.2133 1.387.5067 2.747.88 4.08.4267 1.333.9333 2.48 1.52 3.44.64.96 1.44 1.44 2.4 1.44.6933 0 1.0667-.347 1.12-1.04.1067-.693.16-1.413.16-2.16Zm-7.84-3.12c-.1067-.053-.1867-.107-.24-.16-.0533-.107-.1333-.16-.24-.16l-.16.16c0 .16.0533.293.16.4.1067.053.2133.133.32.24.0533-.107.08-.187.08-.24 0-.053.0267-.133.08-.24Zm-1.52001 7.92c0-.48-.10667-.72-.32-.72-.16 0-.24.16-.24.48 0 .16.13333.293.4.4l.16-.16Zm-3.92-23.68c0 .107-.02667.187-.08.24v.56c.05333.107.13333.16.24.16.10667 0 .16-.053.16-.16v-.48c0-.213-.10667-.32-.32-.32Zm2.72 20.48c-.05333.053-.08.107-.08.16v.08c.05333.107.10667.16.16.16l.08-.08s.02667-.053.08-.16c0-.107-.08-.16-.24-.16ZM38.8 52.401c0-.0534-.0533-.1334-.16-.24-.16.16-.24.2933-.24.4 0 .0533.0267.1066.08.16.1067.1066.16.16.16.16.16-.0534.24-.1334.24-.24 0-.1067-.0267-.1867-.08-.24Zm60.5469 54.32c-.4267 1.387-.9334 2.773-1.52 4.16-.5867 1.387-1.12 2.773-1.6 4.16-.2667.747-.5067 1.573-.72 2.48-.2134.907-.4267 1.787-.64 2.64-.16.8-.3467 1.573-.56 2.32-.16.747-.4 1.333-.72 1.76 0 .107-.2667.907-.8 2.4-.5334 1.493-.8 3.44-.8 5.84 0 .96-.1867 1.733-.56 2.32-.3734.587-.8 1.307-1.28 2.16-.3734.64-.9334 1.013-1.68 1.12-.7467.107-1.44.16-2.08.16-.64 0-1.1467-.08-1.52-.24-.32-.107-.6134-.267-.88-.48-.2134-.213-.4267-.453-.64-.72-.2134-.267-.5334-.533-.96-.8-.48-.267-.7467-.667-.8-1.2-.0534-.48-.2134-.827-.48-1.04-.5867-.587-.9067-1.227-.96-1.92 0-.64-.0267-1.333-.08-2.08 0-.427.0266-.853.08-1.28.0533-.373.08-.773.08-1.2 0-.533-.2134-.96-.64-1.28-.4267-.32-.64-.773-.64-1.36 0-1.973.0266-3.973.08-6 .1066-2.08.24-4.133.4-6.16.0533-.96.1066-2 .16-3.12.0533-1.173.1066-2.293.16-3.36.1066-1.12.24-2.133.4-3.04.2133-.96.5333-1.707.96-2.24.2133-.213.32-.507.32-.88 0-.2667-.0267-.5334-.08-.8-.0534-.32-.08-.64-.08-.96 0-.4267.0266-.8534.08-1.28.1066-.4267.16-.8534.16-1.28 0-.2134-.0267-.4-.08-.56-.0534-.2134-.08-.4267-.08-.64 0-.48.2133-.8267.64-1.04.4266-.2667.64-.56.64-.88-.1067-.4267-.2134-.8534-.32-1.28-.1067-.4267-.2134-.8534-.32-1.28-.9067.1066-1.52.2933-1.84.56-.32.2666-.56.56-.72.88-.1067.2666-.24.5333-.4.8-.1067.2133-.4.3466-.88.4-.3734.1066-.64.4533-.8 1.04-.16.5866-.48.9866-.96 1.2-.3734.2133-.64.4266-.8.64-.16.16-.3467.3466-.56.56-.16.2133-.4.48-.72.8-.2667.2666-.72.5866-1.36.96-.2667.3733-.4267.8-.48 1.28 0 .4266-.0267.8533-.08 1.28-.0534.373-.1867.747-.4 1.12-.2134.32-.5867.533-1.12.64-.64.427-.96.773-.96 1.04s-.1067.64-.32 1.12c-.2667.64-.72 1.333-1.36 2.08-.5867.693-.9334 1.467-1.04 2.32-.0534.213-.16.427-.32.64-.1067.213-.2134.427-.32.64-.5867 1.12-1.12 2.24-1.6 3.36-.4267 1.12-.96 2.133-1.6 3.04-.5867.907-1.3334 1.653-2.24 2.24-.9067.533-2.08.8-3.52.8s-2.72-.64-3.84-1.92c-1.0667-1.28-1.6-3.28-1.6-6 0-1.333.16-2.64.48-3.92.32-1.333.5866-2.64.8-3.92.1066-.64.32-1.2.64-1.68.3733-.533.6133-1.173.72-1.92.1066-.5867.2666-1.12.48-1.6.2133-.48.4533-.9867.72-1.52.32-.5334.6666-1.12 1.04-1.76.3733-.64.8-1.4134 1.28-2.32.5333-.7467 1.0666-1.4934 1.6-2.24.5866-.8 1.04-1.6534 1.36-2.56.16-.48.48-.9067.96-1.28.5333-.4267 1.0933-.7467 1.68-.96.64-.2667 1.2533-.4534 1.84-.56.64-.16 1.2-.24 1.68-.24 1.6 0 3.2266.4533 4.88 1.36.5866.32 1.0933.8533 1.52 1.6.4266.6933.8266 1.04 1.2 1.04.32-.0534.6666-.2667 1.04-.64.3733-.3734.8-.8 1.28-1.28.48-.5334.9866-1.0134 1.52-1.44.5866-.48 1.1733-.8267 1.76-1.04.5333-.16 1.12-.5334 1.76-1.12.6933-.5867 1.36-.88 2-.88 1.1733 0 2.2666.32 3.28.96 1.0133.64 1.52 1.5733 1.52 2.8-.1067 1.4933-.1867 2.9866-.24 4.48-.0534 1.4933-.4 2.96-1.04 4.4-.2667.7466-.4534 1.6533-.56 2.72-.0534 1.0666-.1067 2.1333-.16 3.2 0 1.013-.0534 1.947-.16 2.8-.1067.853-.32 1.467-.64 1.84-.32.48-.5867 1.173-.8 2.08-.16.853-.2934 1.813-.4 2.88-.0534 1.013-.1067 2.053-.16 3.12v3.2c.0533.107.08.24.08.4 0 .587-.08 1.147-.24 1.68-.1067.533-.16 1.093-.16 1.68 0 1.333.1066 2.64.32 3.92.2133 1.28.32 2.293.32 3.04 0 .107-.0267.213-.08.32v.4s.0266.16.08.48c.1066.32.2133.667.32 1.04.1066.373.2133.72.32 1.04.16.32.2933.48.4.48.2666 0 .56-.4.88-1.2.3733-.8.72-1.467 1.04-2 .5333-.853.88-2.027 1.04-3.52.2133-1.44.5333-2.773.96-4 .16-.533.32-1.147.48-1.84.2133-.693.4-1.36.56-2 .2133-.693.4266-1.307.64-1.84.2666-.587.5333-1.013.8-1.28.2133-.107.3733-.427.48-.96.1066-.587.2133-1.227.32-1.92.16-.693.32-1.387.48-2.08.2133-.747.5066-1.36.88-1.84.7466-.907 1.36-1.92 1.84-3.04.5333-1.12 1.3066-2.133 2.32-3.04.16 0 .32.08.48.24.1066.107.2133.293.32.56.1071.267.1601.64.1601 1.12 0 .427-.053.96-.1601 1.6-.1067.64-.2934 1.413-.56 2.32Zm-26.32-15.92c-.5867-.48-1.2534-.72-2-.72-.64 0-1.2534.1866-1.84.56-1.28.9066-2.4267 2-3.44 3.28-1.0134 1.28-1.92 2.6666-2.72 4.16-.8 1.4933-1.52 3.04-2.16 4.64-.5867 1.6-1.0667 3.147-1.44 4.64-.0534.053-.08.16-.08.32 0 .107.0266.24.08.4.0533.107.1333.16.24.16.16 0 .4533-.24.88-.72.48-.48.96-1.04 1.44-1.68.5333-.693 1.04-1.387 1.52-2.08.48-.693.8533-1.253 1.12-1.68.5866-.907 1.2-1.76 1.84-2.56.64-.8 1.3333-1.5467 2.08-2.24.64-.5867 1.1733-1.2534 1.6-2 .4266-.7467 1.0133-1.3334 1.76-1.76-.0534 0 .08-.2934.4-.88.32-.5867.5866-1.0934.8-1.52 0-.0534-.0267-.08-.08-.08v-.24Zm76.3831 21.2c-.053.107-.187.427-.4.96-.16.48-.347 1.013-.56 1.6-.16.533-.347 1.04-.56 1.52-.16.48-.267.773-.32.88-.213.693-.48 1.253-.8 1.68-.267.373-.56.747-.88 1.12-.267.373-.507.8-.72 1.28-.16.48-.24 1.12-.24 1.92 0 1.067-.213 2.16-.64 3.28-.427 1.173-.72 2.293-.88 3.36-.213.427-.48.907-.8 1.44-.32.587-.72 1.12-1.2 1.6-.48.533-1.093.987-1.84 1.36-.693.373-1.547.56-2.56.56-.587 0-1.147-.133-1.68-.4-.533-.267-1.013-.613-1.44-1.04-.427-.373-.773-.8-1.04-1.28s-.4-.96-.4-1.44c0-.107.08-.453.24-1.04-.427-.747-.827-1.467-1.2-2.16-.373-.693-.56-1.387-.56-2.08 0-.32.027-.667.08-1.04.107-.32.187-.747.24-1.28.107-.587.187-1.307.24-2.16.107-.907.16-2.053.16-3.44 0-.8.213-1.547.64-2.24.427-.693.64-1.36.64-2 0-.427-.08-.827-.24-1.2-.107-.373-.16-.747-.16-1.12.213-.213.427-.4.64-.56.213-.16.427-.347.64-.56-.373-.747-.56-1.387-.56-1.92 0-.853.107-1.733.32-2.64.267-.907.533-1.76.8-2.56s.507-1.493.72-2.08c.267-.64.4-1.1467.4-1.52 0-.2667-.027-.5067-.08-.72-.053-.2667-.08-.5334-.08-.8 0-.4267.027-.8534.08-1.28.107-.4267.16-.8534.16-1.28 0-.2134-.027-.4-.08-.56-.053-.2134-.08-.4267-.08-.64v-.48c.053-.16.08-.32.08-.48 0-.2667-.053-.5067-.16-.72-.107-.2667-.16-.5334-.16-.8 0-.48.133-.9334.4-1.36h-.4c-.107-.0534-.213-.08-.32-.08-.267 0-.56.1066-.88.32-.32.16-.613.32-.88.48-.16.9066-.453 1.4933-.88 1.76-.427.2133-.933.5066-1.52.88-.16.7466-.347 1.44-.56 2.08-.213.64-.533 1.2533-.96 1.84-.747.9066-1.44 2.16-2.08 3.76-.64 1.547-1.547 3.04-2.72 4.48-.373.427-.64 1.067-.8 1.92-.107.853-.32 1.6-.64 2.24-.64 1.227-1.12 2.373-1.44 3.44-.32 1.013-.64 1.893-.96 2.64-.32.747-.693 1.333-1.12 1.76-.373.373-.96.56-1.76.56-1.173-.16-2.24-.587-3.2-1.28-.8-.587-1.547-1.493-2.24-2.72-.64-1.28-.96-3.067-.96-5.36v-1.28c0-.533-.053-1.013-.16-1.44-.053-.48-.213-.72-.48-.72s-.56.053-.88.16c-.64 1.44-1.387 2.96-2.24 4.56-.8 1.6-1.813 3.28-3.04 5.04-.373.587-.72 1.147-1.04 1.68-.32.533-.667 1.013-1.04 1.44-.32.373-.747.693-1.28.96-.48.267-1.0933.4-1.84.4-.5867 0-1.1733-.213-1.76-.64-.5333-.48-1.04-1.067-1.52-1.76-.4267-.747-.8-1.6-1.12-2.56-.2667-.96-.4-1.947-.4-2.96 0-.32.0267-.64.08-.96.0533-.32.08-.667.08-1.04 0-.533-.0267-1.04-.08-1.52s-.08-.987-.08-1.52c0-.693.0267-1.36.08-2 .1067-.693.2133-1.36.32-2 0-.48.2133-1.173.64-2.08.48-.9067.72-1.8934.72-2.96 0-.2667-.0533-.5067-.16-.72-.1067-.2134-.16-.4534-.16-.72.16-1.0667.4-2.1334.72-3.2.16-.5334.2667-1.12.32-1.76.1067-.6934.2133-1.3334.32-1.92.1067-.64.2667-1.1734.48-1.6.2667-.4267.64-.64 1.12-.64.32 0 .8.1066 1.44.32.64.16 1.28.4 1.92.72.64.32 1.173.6933 1.6 1.12.48.4266.72.88.72 1.36 0 .1066-.053.2666-.16.48-.427.9066-.72 1.8133-.88 2.72-.16.8533-.24 1.76-.24 2.72 0 .6933-.107 1.3866-.32 2.08-.16.64-.373 1.3333-.64 2.08-.213.693-.427 1.413-.64 2.16-.16.693-.24 1.44-.24 2.24 0 .587.053 1.2.16 1.84.16.64.24 1.253.24 1.84 0 .213-.053.427-.16.64-.107.213-.16.427-.16.64 0 .48.213.72.64.72.267-.107.48-.24.64-.4.213-.16.373-.347.48-.56.747-1.173 1.547-2.4 2.4-3.68.907-1.28 1.84-2.453 2.8-3.52 1.013-1.12 2.053-2.027 3.12-2.72 1.12-.6934 2.267-1.04 3.44-1.04.587 0 1.093.2133 1.52.64.48.3733.72.8533.72 1.44 0 1.227-.053 2.4-.16 3.52-.053 1.12-.08 2.267-.08 3.44 0 .053.053.133.16.24.213 0 .48-.16.8-.48.32-.32.613-.693.88-1.12.32-.427.587-.88.8-1.36.213-.48.373-.88.48-1.2.107-.427.4-.853.88-1.28.533-.427.96-.933 1.28-1.52.32-.587.56-1.0134.72-1.28.16-.32.373-.6934.64-1.12.32-.48.747-1.12 1.28-1.92.587-.8 1.44-2 2.56-3.6.267-.3734.533-.64.8-.8.267-.2134.507-.3734.72-.48.213-.16.4-.3467.56-.56.213-.2134.373-.5334.48-.96.16-.5867.48-1.04.96-1.36.533-.3734.933-.8267 1.2-1.36.107-.2134.347-.5867.72-1.12.373-.5867.88-1.1734 1.52-1.76.693-.64 1.493-1.2 2.4-1.68.907-.48 1.973-.72 3.2-.72.587 0 1.227.2133 1.92.64.747.4266 1.12.9866 1.12 1.68 0 .1066-.027.2133-.08.32v.24c0 .3733.053.72.16 1.04.16.32.24.6666.24 1.04 0 1.2266-.16 2.64-.48 4.24-.32 1.5466-.48 3.0133-.48 4.4 0 .5866-.213 1.0933-.64 1.52-.373.3733-.56.72-.56 1.04 0 .3733.16.6666.48.88.32.2133.48.4266.48.64 0 .533-.16.933-.48 1.2-.267.213-.4.533-.4.96v.56c.053.16.08.32.08.48 0 .587-.08 1.147-.24 1.68-.107.48-.187 1.013-.24 1.6-.107.373-.293.693-.56.96-.213.267-.32.587-.32.96v.16c.053 0 .08.027.08.08 0 .587-.187 1.173-.56 1.76-.373.533-.56 1.173-.56 1.92 0 1.28-.053 2.533-.16 3.76-.107 1.173-.16 2.427-.16 3.76 0 .747.053 1.467.16 2.16.16.64.533.96 1.12.96.267 0 .613-.293 1.04-.88.48-.587.96-1.307 1.44-2.16.533-.853 1.04-1.76 1.52-2.72.48-1.013.907-1.947 1.28-2.8.427-.853.747-1.547.96-2.08.267-.533.4-.773.4-.72 0-.107.027-.293.08-.56.053-.32.133-.64.24-.96.107-.32.213-.587.32-.8.16-.267.293-.4.4-.4.053 0 .16.187.32.56.213.32.4.72.56 1.2.213.427.4.827.56 1.2.16.32.267.48.32.48Zm-19.2-34.4c-1.973.16-3.867.4533-5.68.88-1.76.4266-3.413 1.0133-4.96 1.76-1.333.64-2.587 1.1466-3.76 1.52-1.173.3733-2.453.56-3.84.56-1.333 0-2.64-.24-3.92-.72-1.227-.48-2.32-1.1467-3.28-2-.96-.8534-1.733-1.8134-2.32-2.88-.587-1.12-.88-2.32-.88-3.6 0-.2667.053-.5067.16-.72.107-.2134.293-.32.56-.32.693 0 1.307.1866 1.84.56.587.3733 1.147.8 1.68 1.28.587.4266 1.147.8266 1.68 1.2.533.3733 1.12.56 1.76.56.373 0 .667-.0267.88-.08 1.333-.32 2.64-.64 3.92-.96 1.28-.3734 2.587-.6934 3.92-.96 1.333-.32 2.693-.5867 4.08-.8 1.387-.2134 2.88-.32 4.48-.32.053 0 .48.0266 1.28.08.853 0 1.787.1066 2.8.32 1.013.16 1.92.4533 2.72.88.853.3733 1.28.9333 1.28 1.68 0 .0533-.08.2133-.24.48-.107.2133-.293.48-.56.8-.267.2666-.64.5066-1.12.72-.48.2133-1.067.32-1.76.32-.267 0-.507-.08-.72-.24Zm10.08 33.68c-.107-.213-.16-.373-.16-.48h.08c.053-.053.107-.08.16-.08-.053.107-.08.293-.08.56Zm0 0c-.053-.107-.133-.16-.24-.16l-.08.08h.24l.08.08Zm37.538-19.6c-.16-.0534-.347-.08-.56-.08-.213 0-.347.1333-.4.4v.88c0 .32-.027.6133-.08.88 0 .2666-.08.4-.24.4-.213 0-.347-.1867-.4-.56-.053-.3734-.08-.6934-.08-.96-.373.2133-.56.4533-.56.72 0 .16.027.32.08.48.053.16.08.32.08.48 0 .4266-.16.8-.48 1.12-.267.2666-.4.6133-.4 1.04 0 .16.027.32.08.48.053.16.08.32.08.48 0 .48-.213.9333-.64 1.36-.693.6933-1.147 1.44-1.36 2.24-.213.747-.613 1.413-1.2 2-.107.107-.32.773-.64 2-.267 1.227-.533 2.373-.8 3.44 0 .107-.187.427-.56.96-.32.533-.72 1.093-1.2 1.68-.427.587-.88 1.12-1.36 1.6-.48.48-.88.72-1.2.72-.107 0-.267-.027-.48-.08-.16-.107-.32-.16-.48-.16-.107 0-.213.027-.32.08h-.32c-1.067 0-2.027-.32-2.88-.96-.853-.693-1.6-1.52-2.24-2.48-.64-1.013-1.173-2.08-1.6-3.2-.373-1.173-.667-2.267-.88-3.28-.16-.8-.293-1.787-.4-2.96-.107-1.2267-.24-2.3734-.4-3.44-.107-1.0667-.24-1.9734-.4-2.72-.16-.8-.373-1.2-.64-1.2-.32 0-.693.48-1.12 1.44-.373.9066-.773 2.0533-1.2 3.44-.373 1.3333-.747 2.773-1.12 4.32-.32 1.493-.587 2.827-.8 4-.267 1.227-.507 2.747-.72 4.56-.213 1.76-.48 3.467-.8 5.12-.32 1.653-.693 3.093-1.12 4.32-.373 1.173-.853 1.76-1.44 1.76-.16 0-.4-.027-.72-.08-.267-.107-.56-.24-.88-.4-.32-.16-.613-.347-.88-.56-.213-.267-.32-.56-.32-.88 0-.907.027-1.893.08-2.96.107-1.067.24-2.107.4-3.12.16-1.067.347-2.08.56-3.04.213-.96.453-1.76.72-2.4.267-.587.373-1.253.32-2 0-.8.133-1.387.4-1.76.48-.853.72-1.76.72-2.72.053-.96.32-1.867.8-2.72.107-.16.16-.3467.16-.56 0-.2134.027-.4267.08-.64.16-1.0667.533-2.16 1.12-3.28.587-1.12 1.013-2.2667 1.28-3.44.16-.8.507-1.6 1.04-2.4.533-.8.88-1.6534 1.04-2.56.107-.5334.293-1.12.56-1.76.267-.64.613-1.2267 1.04-1.76.48-.5867 1.013-1.0667 1.6-1.44.64-.4267 1.36-.64 2.16-.64 1.333 0 2.373.1866 3.12.56.747.32 1.307.7733 1.68 1.36.427.5866.693 1.3066.8 2.16.107.8533.16 1.7866.16 2.8 0 .5866-.08 1.2-.24 1.84-.107.5866-.16 1.1733-.16 1.76 0 .2666.027.5333.08.8.053.2666.08.5333.08.8 0 .4266-.107.88-.32 1.36-.16.48-.24.9333-.24 1.36 0 1.0666.133 2 .4 2.8.267.8.4 1.573.4 2.32 0 .32-.08.64-.24.96-.16.32-.24.613-.24.88s.16.56.48.88c.373.267.693.48.96.64 1.227-1.227 2.32-2.613 3.28-4.16 1.013-1.5467 1.947-3.0134 2.8-4.4.907-1.3867 1.787-2.5867 2.64-3.6.853-1.0667 1.76-1.7067 2.72-1.92 0-1.28.213-2.1334.64-2.56.427-.48.96-1.04 1.6-1.68.427-.4267.853-.9067 1.28-1.44.427-.5334.88-1.04 1.36-1.52.48-.48.987-.88 1.52-1.2.533-.32 1.147-.48 1.84-.48 1.28 0 2.4.4533 3.36 1.36 1.013.9066 1.52 2.3466 1.52 4.32 0 .8533-.16 1.7866-.48 2.8-.267 1.0133-.587 2.0533-.96 3.12-.32 1.0133-.64 2-.96 2.96-.267.96-.4 1.84-.4 2.64v.8c0 .2666.027.5333.08.8 0 .48-.16.827-.48 1.04-.32.213-.48.453-.48.72 0 .853-.187 1.573-.56 2.16-.32.587-.48 1.413-.48 2.48 0 .533.027 1.04.08 1.52.107.48.16.96.16 1.44 0 .747-.187 1.6-.56 2.56-.373.907-.56 1.813-.56 2.72 0 .8.053 1.6.16 2.4.107.8.16 1.6.16 2.4 0 .747-.027 1.627-.08 2.64 0 .96-.08 1.893-.24 2.8-.107.907-.32 1.653-.64 2.24-.32.64-.773.96-1.36.96-.533 0-1.12-.347-1.76-1.04-.64-.693-1.013-1.413-1.12-2.16 0-.8-.08-1.52-.24-2.16-.16-.693-.347-1.333-.56-1.92-.16-.64-.32-1.253-.48-1.84-.16-.587-.24-1.173-.24-1.76 0-.64.133-1.253.4-1.84.267-.64.4-1.333.4-2.08v-2.32c0-.8.133-1.6.4-2.4.427-1.333.613-2.693.56-4.08 0-1.44.133-2.853.4-4.24.267-1.3867.427-2.8.48-4.24.107-1.44.16-2.7734.16-4 0-.5867-.08-.9867-.24-1.2-.16-.2134-.48-.32-.96-.32-.267 0-.587.4-.96 1.2Zm57.874.56c.533.4266.8.9066.8 1.44 0 .5333-.293 1.0133-.88 1.44-.533.4266-1.307.64-2.32.64h-.72c-.213-.0534-.453-.1067-.72-.16-2.987.9066-5.733 2.1066-8.24 3.6-.853.5333-1.307 1.227-1.36 2.08-.053.8-.107 1.52-.16 2.16-.107.907-.32 1.68-.64 2.32-.32.64-.48 1.413-.48 2.32 0 .64-.24 1.147-.72 1.52-.427.373-.64.907-.64 1.6v.4c.053.107.08.213.08.32 0 .747-.16 1.387-.48 1.92-.267.48-.64 1.067-1.12 1.76-.107.373-.453 1.013-1.04 1.92-.533.853-1.173 1.733-1.92 2.64-.747.907-1.547 1.707-2.4 2.4-.8.693-1.52 1.04-2.16 1.04-.32 0-.8.24-1.44.72-.587.48-1.2.88-1.84 1.2-1.227-.267-2.373-.587-3.44-.96-1.013-.373-1.947-.96-2.8-1.76-.64-.747-1.253-1.6-1.84-2.56-.587-1.013-1.093-2.027-1.52-3.04-.373-1.067-.693-2.107-.96-3.12-.213-1.013-.32-1.947-.32-2.8 0-.96.107-1.867.32-2.72.213-.907.32-1.787.32-2.64 0-.32.08-.747.24-1.28.213-.533.427-1.067.64-1.6.213-.587.4-1.173.56-1.76.213-.587.32-1.093.32-1.52 0-.3734-.133-.8534-.4-1.44-.213-.5867-.48-1.2267-.8-1.92-.267-.6934-.533-1.3867-.8-2.08-.213-.6934-.32-1.36-.32-2 0-2.08.187-3.7067.56-4.88.427-1.1734 1.013-2.0534 1.76-2.64.8-.64 1.707-1.04 2.72-1.2 1.067-.16 2.24-.24 3.52-.24h3.68c.48 0 1.307.2133 2.48.64 1.173.3733 2.427.96 3.76 1.76 1.333.8 2.56 1.8133 3.68 3.04 1.12 1.2266 1.867 2.6666 2.24 4.32.107.5333.293 1.0933.56 1.68.32.5866.773.88 1.36.88.213 0 .373-.0267.48-.08 2.08-.7467 4.107-1.4667 6.08-2.16 1.973-.6934 4.08-1.0934 6.32-1.2Zm-17.76 11.76c-.107-.427-.187-.853-.24-1.28 0-.48-.213-.72-.64-.72-.213 0-.533.053-.96.16-1.333.48-2.667.96-4 1.44-1.333.48-2.747.72-4.24.72-.64 0-1.12.48-1.44 1.44-.32.907-.56 1.947-.72 3.12-.16 1.12-.267 2.213-.32 3.28v2c0 1.067.267 2.133.8 3.2.533 1.013 1.253 1.52 2.16 1.52 1.013 0 1.973-.507 2.88-1.52.96-1.067 1.813-2.24 2.56-3.52.8-1.28 1.467-2.48 2-3.6.587-1.12 1.013-1.787 1.28-2 .32-.533.507-1.227.56-2.08.107-.853.213-1.573.32-2.16Zm-16.88-11.92c.053.32.107.8266.16 1.52.107.6933.373 1.04.8 1.04.213 0 .4-.08.56-.24.16-.2134.32-.4.48-.56.16-.2134.32-.4.48-.56.213-.2134.453-.32.72-.32l.96.24c.693.16 1.44.4 2.24.72.8.32 1.547.72 2.24 1.2.693.4266 1.04.9066 1.04 1.44 0 .32-.16.7733-.48 1.36-.32.5333-.56.9866-.72 1.36 0 .3733.107.6133.32.72.267.107.453.16.56.16.533 0 1.173-.053 1.92-.16.8-.16 1.547-.3734 2.24-.64.747-.2667 1.387-.5867 1.92-.96.533-.4267.8-.9067.8-1.44 0-1.0667-.347-2.24-1.04-3.52-.64-1.28-1.493-2.4534-2.56-3.52-1.067-1.12-2.24-2.0267-3.52-2.72-1.28-.7467-2.507-1.12-3.68-1.12-1.707 0-3.04.64-4 1.92-.96 1.28-1.44 2.64-1.44 4.08Zm29.072 19.36c0-1.6.187-3.147.56-4.64.427-1.493.64-3.013.64-4.56 0-.427.107-.987.32-1.68.214-.7467.48-1.52.8-2.32.32-.8534.667-1.7067 1.04-2.56.427-.8534.827-1.6267 1.2-2.32.427-.7467.907-1.3867 1.44-1.92.534-.5867.934-1.2534 1.2-2 .16-.5334.454-.9067.88-1.12.427-.2134.694-.6134.8-1.2.054-.2667.187-.4534.4-.56.267-.1067.534-.1867.8-.24.267-.0534.507-.1067.72-.16.267-.0534.454-.2134.56-.48.16-.3734.427-.72.8-1.04.374-.3734.774-.6934 1.2-.96.427-.32.854-.56 1.28-.72.427-.16.747-.24.96-.24 1.547.2666 2.96.6133 4.24 1.04 1.067.3733 2.054.8266 2.96 1.36.907.5333 1.36 1.2 1.36 2 0 .5333-.08 1.28-.24 2.24-.106.9066-.293 1.8133-.56 2.72-.266.8533-.613 1.6266-1.04 2.32-.426.64-.933.96-1.52.96-.586 0-1.093-.32-1.52-.96-.373-.64-.56-1.2534-.56-1.84 0-.48.027-.9334.08-1.36.054-.48.107-.9334.16-1.36 0-.3734-.186-.56-.56-.56-.8 0-1.653.32-2.56.96-.853.5866-1.706 1.36-2.56 2.32-.853.9066-1.653 1.92-2.4 3.04-.746 1.12-1.386 2.16-1.92 3.12-.373 1.653-.853 3.28-1.44 4.88-.586 1.6-.88 3.307-.88 5.12 0 .747.054 1.653.16 2.72.107 1.067.267 2.107.48 3.12.267.96.56 1.787.88 2.48.374.693.827 1.04 1.36 1.04.214 0 .774-.267 1.68-.8.96-.587 2-1.28 3.12-2.08s2.187-1.6 3.2-2.4c1.067-.853 1.84-1.52 2.32-2 .694-.8 1.574-1.707 2.64-2.72 1.12-1.013 2.24-1.973 3.36-2.88 1.174-.907 2.32-1.653 3.44-2.24 1.12-.64 2.054-.96 2.8-.96.374 0 .694.053.96.16.267.107.4.347.4.72 0 .427-.213.853-.64 1.28-.373.373-.826.773-1.36 1.2-.533.373-1.066.8-1.6 1.28-.48.427-.826.88-1.04 1.36-.106 0-.533.373-1.28 1.12-.693.747-1.493 1.573-2.4 2.48-.906.907-1.786 1.787-2.64 2.64-.8.853-1.36 1.44-1.68 1.76-.32.373-.96 1.013-1.92 1.92-.906.907-1.946 1.84-3.12 2.8-1.173.907-2.373 1.733-3.6 2.48-1.226.693-2.32 1.04-3.28 1.04-1.6 0-2.88-.293-3.84-.88-.906-.587-1.626-1.307-2.16-2.16-.533-.853-.96-1.787-1.28-2.8-.32-1.013-.693-1.973-1.12-2.88-.266-.587-.4-1.253-.4-2 0-.747-.026-1.44-.08-2.08Zm77.573-16.8c.107.6933.16 1.3333.16 1.92.053.5866.08 1.2533.08 2v2.16c0 .747-.053 1.52-.16 2.32-.107.747-.32 1.467-.64 2.16-.267.64-.667 1.173-1.2 1.6-.267.16-.427.373-.48.64 0 .213-.08.453-.24.72-.107.267-.347.507-.72.72-.32.16-.88.24-1.68.24-.213 1.013-.4 1.76-.56 2.24-.16.427-.373.8-.64 1.12-.267.32-.667.693-1.2 1.12-.48.373-1.147.987-2 1.84-.053.107-.32.32-.8.64-.48.32-1.067.693-1.76 1.12-.64.373-1.333.72-2.08 1.04-.693.267-1.28.4-1.76.4-.64 0-1.36-.107-2.16-.32-.747-.267-1.52-.4-2.32-.4-.533 0-.987.053-1.36.16-.32.107-.667.373-1.04.8v-.48c-.267 0-.453.053-.56.16-.053.107-.133.213-.24.32h.24c-.16.16-.267.427-.32.8-.053.32-.107.667-.16 1.04 0 .32-.053.613-.16.88-.107.213-.293.32-.56.32.213.747.4 1.547.56 2.4.16.853.24 1.573.24 2.16v.72c-.053.053-.107.96-.16 2.72-.053 1.813-.107 4.027-.16 6.64-.053 2.613-.107 5.44-.16 8.48 0 3.093-.027 5.947-.08 8.56-.053 2.613-.107 4.8-.16 6.56 0 1.813-.027 2.747-.08 2.8l-2.32 4c-.053 0-.133.053-.24.16-.053.053-.107.08-.16.08-.8-.8-1.2-1.707-1.2-2.72.053-1.013.08-1.947.08-2.8 0-.053-.027-.693-.08-1.92v-4.72c0-1.92-.027-4.133-.08-6.64-.053-2.453-.107-4.987-.16-7.6 0-2.56-.027-5.093-.08-7.6-.053-2.453-.107-4.64-.16-6.56 0-1.92-.027-3.467-.08-4.64 0-1.173-.027-1.733-.08-1.68-.213 0-.4.107-.56.32-.107.16-.16.32-.16.48-.267-.533-.4-1.2-.4-2 0-.373.027-.72.08-1.04.053-.32.08-.64.08-.96 0-.107-.027-.187-.08-.24-.053-.053-.08-.107-.08-.16 0-.213.08-.373.24-.48.213-.16.427-.293.64-.4.267-.107.48-.24.64-.4.213-.213.32-.48.32-.8 0-.427-.133-.827-.4-1.2-.267-.427-.4-.827-.4-1.2 0-.213.053-.347.16-.4.107-.053.24-.107.4-.16.213-.053.427-.133.64-.24.267-.16.507-.453.72-.88-.267-.16-.533-.373-.8-.64l-.8-.8c-.267-.267-.507-.48-.72-.64-.16-.213-.267-.32-.32-.32-.213 0-.667.347-1.36 1.04-.64.693-1.067 1.387-1.28 2.08 0 .48-.08.88-.24 1.2-.16.267-.373.56-.64.88-.213.267-.427.587-.64.96-.213.373-.4.88-.56 1.52-.747 1.653-1.653 3.12-2.72 4.4-1.067 1.227-2.48 2.027-4.24 2.4-.427 0-.8-.053-1.12-.16-.32-.107-.693-.16-1.12-.16h-.56c-.373 0-.96-.24-1.76-.72-.8-.533-1.44-1.12-1.92-1.76-.32-.48-.56-.987-.72-1.52-.16-.533-.293-1.04-.4-1.52-.107-.48-.293-.853-.56-1.12-.213-.32-.56-.48-1.04-.48h-.24c-.053 0-.133-.16-.24-.48-.053-.32-.107-.72-.16-1.2-.053-.48-.107-.987-.16-1.52v-1.52c0-1.067.16-1.947.48-2.64.32-.747.48-1.68.48-2.8 0-.96.133-1.867.4-2.72.32-.853.64-1.627.96-2.32.373-.6934.693-1.3067.96-1.84.32-.5334.48-.96.48-1.28v-.48c0-.5867.133-1.0667.4-1.44.32-.3734.667-.6934 1.04-.96.373-.2667.693-.5067.96-.72.32-.2134.48-.4534.48-.72 0-.2667-.053-.5334-.16-.8-.107-.32-.16-.5334-.16-.64 0-.48.133-.8.4-.96.32-.16.64-.24.96-.24.053 0 .16.0533.32.16.213 0 .4-.0267.56-.08.213-.1067.453-.16.72-.16 0-.2667-.053-.4534-.16-.56-.107-.1067-.16-.2934-.16-.56 0-.2667.107-.5067.32-.72.267-.2667.747-.4 1.44-.4.267.2133.667.32 1.2.32h.56c.213-.0534.453-.08.72-.08 1.547 0 2.96.2133 4.24.64 1.333.4266 2.613.96 3.84 1.6.107 0 .24.0533.4.16.213.1066.4.16.56.16.32 0 .587-.2667.8-.8.267-.5867.48-1.2534.64-2 .16-.8.293-1.6.4-2.4.107-.8.16-1.44.16-1.92 0-.2667-.08-.56-.24-.88-.107-.32-.16-.6667-.16-1.04v-1.04c.053-.3734.107-.7734.16-1.2.107-.3734.187-.9067.24-1.6.053-.7467.187-1.44.4-2.08.267-.6934.667-1.28 1.2-1.76.533-.5334 1.333-.8 2.4-.8.693 0 1.36.0266 2 .08.64 0 1.173.24 1.6.72.48.4266.853 1.2 1.12 2.32.267 1.0666.4 2.6666.4 4.8-.16 1.12-.32 2.2133-.48 3.28-.107 1.0666-.267 2.2133-.48 3.44 0 .16.027.4533.08.88.107.3733.293.56.56.56.053 0 .16-.0534.32-.16.053 0 .293-.1067.72-.32.48-.2134 1.04-.4534 1.68-.72.64-.32 1.307-.5867 2-.8.747-.2134 1.387-.32 1.92-.32.907 0 1.76.0533 2.56.16.853.1066 1.893.4533 3.12 1.04.213.1066.587.1866 1.12.24.533.0533 1.067.24 1.6.56.533.32.987.8266 1.36 1.52.427.64.64 1.6.64 2.88 0 .5866.213.9333.64 1.04.427.0533.64.24.64.56Zm-42.08-4.8h.24l-.24-.32v.32Zm-1.84 21.84c.16.48.267 1.04.32 1.68.107.587.213 1.173.32 1.76.16.587.32 1.093.48 1.52.213.373.48.56.8.56.32 0 .72-.347 1.2-1.04.533-.693 1.04-1.52 1.52-2.48.533-.96 1.04-1.947 1.52-2.96.48-1.067.88-1.947 1.2-2.64.693-.693 1.253-1.573 1.68-2.64.48-1.067 1.093-1.84 1.84-2.32.16-.32.453-.747.88-1.28.427-.587.827-1.173 1.2-1.76.427-.5867.8-1.12 1.12-1.6.32-.5334.48-.9067.48-1.12-.32-.3734-.773-.8267-1.36-1.36-.533-.5867-1.12-1.12-1.76-1.6-.64-.5334-1.253-.96-1.84-1.28-.533-.3734-.96-.56-1.28-.56-.853 0-1.627.4-2.32 1.2-.693.8-1.387 1.5466-2.08 2.24-.107.2666-.4.6666-.88 1.2-.48.48-1.013 1.0933-1.6 1.84-.533.7466-1.013 1.627-1.44 2.64-.427.96-.64 2-.64 3.12v.48c.053.16.133.293.24.4l.4 6Zm15.76 5.44-.24.24c0 .107.027.16.08.16l.16-.08v-.32Zm1.12 6.56c.267 0 .4-.107.4-.32 0-.267-.133-.4-.4-.4-.213 0-.32.133-.32.4 0 .053.053.107.16.16.107 0 .16.053.16.16Zm2-5.04c.16 0 .32-.08.48-.24l-.24-.24c-.053 0-.107.027-.16.08-.053 0-.08.133-.08.4Zm19.2-15.04c.107-.267.16-.48.16-.64.053-.213.08-.347.08-.4-.267-.64-.453-1.6-.56-2.88-.053-1.28-.267-2.5334-.64-3.76-.373-1.28-.987-2.4-1.84-3.36-.853-.96-2.133-1.44-3.84-1.44-.107 0-.213.0266-.32.08h-.32c-.16 0-.373-.0267-.64-.08-.213-.0534-.427-.08-.64-.08-.32 0-.747.1333-1.28.4-.533.2133-1.067.5066-1.6.88-.48.32-.907.6933-1.28 1.12-.373.3733-.587.6933-.64.96-.053.2133-.24.64-.56 1.28-.267.5866-.56 1.36-.88 2.32-.32.9066-.613 2-.88 3.28-.267 1.227-.4 2.587-.4 4.08v.72c.053.213.08.453.08.72v1.6c0 .8.107 1.653.32 2.56.267.853.72 1.627 1.36 2.32.693.693 1.68 1.04 2.96 1.04.267 0 .453-.107.56-.32.16-.267.373-.4.64-.4.533 0 .88.16 1.04.48.213.267.507.4.88.4-.053 0 .24-.187.88-.56.64-.373 1.2-.72 1.68-1.04.373-.267.613-.613.72-1.04.107-.427.347-.747.72-.96.16-.16.267-.373.32-.64.053-.267.187-.667.4-1.2.267-.533.64-1.227 1.12-2.08.533-.907 1.333-2.027 2.4-3.36Zm4.08-4c-.16.3733-.267.693-.32.96v.56c0 .107.107.24.32.4v-1.92Zm10.786-3.76c.426-.7467.8-1.4934 1.12-2.24.373-.7467.693-1.52.96-2.32.16-.64.506-1.28 1.04-1.92.586-.64 1.173-1.2 1.76-1.68.586-.5334 1.093-.9334 1.52-1.2.48-.32.72-.4534.72-.4.426-.5867.933-.88 1.52-.88.64 0 1.253-.0534 1.84-.16.906 0 1.813.2666 2.72.8.906.5333 1.893.8266 2.96.88.32.2133.72.4533 1.2.72.533.2666 1.04.6133 1.52 1.04.48.4266.88.9333 1.2 1.52.373.5866.56 1.28.56 2.08 0 .7466-.214 1.5733-.64 2.48-.374.8533-.907 1.7333-1.6 2.64-.64.8533-1.387 1.68-2.24 2.48-.8.8-1.627 1.493-2.48 2.08-.48.32-.934.693-1.36 1.12-.427.427-.854.853-1.28 1.28-.427.373-.88.72-1.36 1.04-.48.267-1.067.427-1.76.48-1.387.16-2.267.747-2.64 1.76-.32.96-.48 2.773-.48 5.44 0 1.387.16 2.64.48 3.76.32 1.067 1.04 1.6 2.16 1.6.213 0 .746-.213 1.6-.64.853-.48 1.786-1.04 2.8-1.68 1.013-.693 2-1.413 2.96-2.16.96-.8 1.68-1.493 2.16-2.08.48-.16.906-.4 1.28-.72.373-.373.746-.72 1.12-1.04.373-.373.746-.667 1.12-.88.373-.267.773-.4 1.2-.4.373 0 .693.133.96.4.32.267.48.56.48.88 0 .213-.16.587-.48 1.12-.32.48-.72.987-1.2 1.52s-.987 1.013-1.52 1.44c-.48.427-.88.693-1.2.8-.534.16-.934.453-1.2.88-.267.427-.667.72-1.2.88-.16.107-.427.453-.8 1.04-.32.587-.747 1.067-1.28 1.44-.267.213-.56.533-.88.96-.32.427-.694.853-1.12 1.28-.374.427-.854.8-1.44 1.12-.534.32-1.2.48-2 .48-.374 0-.774-.027-1.2-.08-.427-.107-.854-.16-1.28-.16-.16 0-.32.027-.48.08h-.48c-.48 0-.987-.107-1.52-.32-.534-.213-1.04-.48-1.52-.8-.48-.373-.88-.747-1.2-1.12-.32-.427-.48-.827-.48-1.2 0-.213-.08-.373-.24-.48-.107-.107-.24-.187-.4-.24-.107-.107-.24-.213-.4-.32-.107-.107-.16-.32-.16-.64 0-.587-.24-1.147-.721-1.68-.479-.587-.719-1.253-.719-2 0-.16.133-.693.4-1.6.32-.907.48-1.733.48-2.48 0-.373-.214-.907-.64-1.6-.374-.693-.56-1.2-.56-1.52 0-.587.026-1.173.08-1.76.106-.587.16-1.173.16-1.76 0-.16-.027-.32-.08-.48v-.48c.32-.747.693-1.52 1.12-2.32.426-.8.64-1.5734.64-2.32 0-.1067-.027-.1867-.08-.24v-.24c0-.2667.08-.48.24-.64.213-.2134.32-.4.32-.56l-.08-.08Zm5.84 5.44s.426-.24 1.28-.72c.853-.533 1.786-1.1467 2.8-1.84 1.013-.7467 1.92-1.4934 2.72-2.24.853-.8 1.28-1.52 1.28-2.16 0-.0534-.027-.24-.08-.56-.054-.3734-.134-.7467-.24-1.12-.054-.4267-.16-.7734-.32-1.04-.16-.32-.347-.48-.56-.48-.374 0-.8.2133-1.28.64-.427.3733-.88.8533-1.36 1.44-.48.5333-.934 1.0666-1.36 1.6-.374.5333-.72.9333-1.04 1.2 0 0-.107.1866-.32.56-.214.32-.454.7466-.721 1.28-.266.48-.533.9866-.799 1.52-.214.5333-.32.933-.32 1.2 0 .16.106.4.32.72Zm-5.68-5.36c-.107 0-.16-.0267-.16-.08l.16.08Zm31.548 2.8h.48c.16-.0534.294-.08.4-.08.374 0 .747-.2667 1.12-.8.374-.5334.774-1.1467 1.2-1.84.48-.7467.987-1.4667 1.52-2.16.534-.6934 1.12-1.2 1.76-1.52.374-.48.934-1.0934 1.68-1.84.747-.8 1.6-1.5734 2.56-2.32 1.014-.8 2.134-1.4667 3.36-2 1.28-.5334 2.614-.8 4-.8.534 0 1.04.08 1.52.24.48.1066.96.24 1.44.4.427.1066.694.3466.8.72.107.32.374.48.8.48.374.1066.72.3466 1.04.72.32.3733.587.8.8 1.28.267.4266.454.88.56 1.36.16.4266.24.7466.24.96 0 1.12-.16 2.4533-.48 4-.266 1.4933-.693 2.8533-1.28 4.08-.48 1.013-1.04 1.973-1.68 2.88-.586.853-1.093 1.813-1.52 2.88-.266.8-.72 1.493-1.36 2.08-.586.587-1.173 1.227-1.76 1.92-.266.267-.506.613-.72 1.04-.213.373-.453.747-.72 1.12-.266.373-.56.72-.88 1.04-.32.267-.693.427-1.12.48-.426 0-.693.107-.8.32-.106.213-.16.453-.16.72 0 .373-.426.8-1.28 1.28-.853.427-1.84.853-2.96 1.28-1.12.373-2.24.693-3.36.96-1.066.267-1.866.4-2.4.4-.373 0-.746-.08-1.12-.24-.32-.213-.666-.32-1.04-.32-.373 0-.693.293-.96.88-.266.533-.506 1.2-.72 2-.16.8-.293 1.6-.4 2.4-.053.8-.08 1.44-.08 1.92 0 .427.027.853.08 1.28.107.48.16.933.16 1.36 0 .427-.026.827-.08 1.2v1.2c0 .48.134.853.4 1.12.32.267.534.587.64.96.16.427.267.88.32 1.36.054.48.08.96.08 1.44 0 .533.027.987.08 1.36.16.693.347 1.28.56 1.76.214.48.32 1.013.32 1.6v1.04c0 .373-.106.72-.32 1.04-.16.32-.453.587-.88.8-.426.213-1.066.32-1.92.32-.48 0-.933-.24-1.36-.72-.426-.427-.8-1.013-1.12-1.76-.32-.747-.586-1.627-.8-2.64-.16-.96-.24-1.973-.24-3.04 0-.427.08-.88.24-1.36.214-.48.32-.88.32-1.2-.373-.693-.666-1.36-.88-2-.213-.533-.4-1.093-.56-1.68-.16-.533-.24-.933-.24-1.2 0-.267.08-.533.24-.8.16-.267.24-.533.24-.8s-.053-.507-.16-.72c-.106-.213-.16-.453-.16-.72 0-.16.027-.32.08-.48.107-.213.16-.427.16-.64 0-.267-.026-.48-.08-.64-.053-.213-.08-.453-.08-.72 0-.16.054-.4.16-.72 0-.427-.106-.853-.32-1.28-.213-.427-.32-.853-.32-1.28 0-.747.134-1.573.4-2.48.32-.96.48-1.68.48-2.16 0-.107-.026-.187-.08-.24-.053-.107-.08-.213-.08-.32 0-.213.054-.373.16-.48.16-.16.24-.347.24-.56 0-.32-.16-.613-.48-.88-.266-.32-.4-.587-.4-.8 0-.16.16-.373.48-.64.32-.267.48-.533.48-.8 0-.213-.08-.507-.24-.88-.16-.373-.24-.747-.24-1.12 0-.64.08-1.147.24-1.52.16-.373.347-.667.56-.88.214-.213.4-.373.56-.48.16-.16.24-.347.24-.56 0-.267-.106-.48-.32-.64-.213-.16-.4-.507-.56-1.04.214-.48.427-1.013.64-1.6.267-.64.4-1.2267.4-1.76 0-.5334-.186-1.0667-.56-1.6-.373-.5334-.56-1.2-.56-2 0-.3734.16-.88.48-1.52.374-.6934.56-1.44.56-2.24 0-.5867-.08-1.1734-.24-1.76-.106-.64-.16-1.2534-.16-1.84 0-.5867.187-1.1467.56-1.68.427-.5334.64-1.1467.64-1.84 0-.3734-.026-.72-.08-1.04-.053-.3734-.08-.72-.08-1.04 0-.4267.027-.9067.08-1.44.054-.5334.16-1.04.32-1.52s.374-.88.64-1.2c.267-.3734.614-.56 1.04-.56.374 0 .854.08 1.44.24.64.16 1.227.4266 1.76.8.534.32.987.7733 1.36 1.36.427.5333.64 1.2.64 2 0 .5333-.133 1.1466-.4 1.84-.213.6933-.48 1.4133-.8 2.16-.32.6933-.613 1.3866-.88 2.08-.213.6933-.32 1.3066-.32 1.84 0 1.2266-.16 2.32-.48 3.28-.32.9066-.533 1.8933-.64 2.96 0 .2666.08.5066.24.72.16.2133.24.4266.24.64 0 .2133-.106.4-.32.56-.16.16-.24.3733-.24.64 0 .1066.107.32.32.64-.48.2133-.826.4533-1.04.72-.213.2133-.4.48-.56.8-.106.32-.213.693-.32 1.12-.053.373-.213.827-.48 1.36l.16.16c.267 0 .48-.107.64-.32.16-.213.294-.453.4-.72.107-.32.187-.613.24-.88.054-.267.08-.48.08-.64 0-.4267-.106-.8267-.32-1.2.214-.1067.4-.16.56-.16.214-.0534.4-.1334.56-.24Zm8.08-2.96c0 .5866-.08 1.04-.24 1.36-.16.2666-.346.5333-.56.8-.16.2133-.346.4533-.56.72-.213.2133-.373.5333-.48.96-.213.693-.533 1.307-.96 1.84-.426.533-.853 1.093-1.28 1.68-.16.213-.4.667-.72 1.36-.266.64-.56 1.387-.88 2.24-.266.8-.506 1.627-.72 2.48-.213.853-.32 1.573-.32 2.16 0 .373.027.853.08 1.44.107.533.374.8.8.8.107 0 .64-.08 1.6-.24 1.014-.213 2.134-.533 3.36-.96 1.227-.427 2.427-1.013 3.6-1.76 1.174-.8 2-1.813 2.48-3.04.427-.533.827-1.067 1.2-1.6.32-.427.667-.853 1.04-1.28.374-.427.694-.773.96-1.04.214-.16.48-.747.8-1.76.374-1.067.72-2.2667 1.04-3.6.374-1.3334.667-2.6667.88-4 .267-1.3867.4-2.48.4-3.28 0-.64-.16-1.04-.48-1.2-.32-.16-.72-.24-1.2-.24-.906 0-1.786.2933-2.64.88-.853.5866-1.706 1.2533-2.56 2-.8.7466-1.6 1.4666-2.4 2.16-.746.64-1.493 1.0133-2.24 1.12Zm-11.52 8.16c-.213.107-.32.32-.32.64 0 .16.027.267.08.32.054.053.08.133.08.24.054-.107.107-.187.16-.24.054-.053.107-.133.16-.24 0-.16-.053-.4-.16-.72Zm1.04 24.88.24.08-.16-.32-.08.24Zm-1.12-4.08c.107-.32.16-.507.16-.56l-.16-.16c-.106.213-.16.4-.16.56l.16.16Zm55.752 17.84c-.48.48-.827 1.013-1.04 1.6l-.48 1.92c-.107.693-.24 1.36-.4 2-.16.693-.454 1.333-.88 1.92 0 .907-.267 1.893-.8 2.96-.48 1.12-1.147 2.133-2 3.04-.8.96-1.76 1.733-2.88 2.32-1.067.64-2.187.96-3.36.96-.96 0-1.707-.107-2.24-.32-.534-.213-1.014-.48-1.44-.8-.374-.267-.72-.56-1.04-.88-.267-.32-.64-.613-1.12-.88-1.014-.587-1.627-1.44-1.84-2.56-.16-1.067-.24-2.213-.24-3.44 0-1.12.08-2.587.24-4.4.213-1.76.96-3.76 2.24-6 .266-.427.533-1.2.8-2.32.32-1.067.64-1.973.96-2.72.32-.747.773-1.733 1.36-2.96.64-1.173 1.493-2.613 2.56-4.32.213-.267.426-.533.64-.8.266-.267.506-.56.72-.88.266-.373.533-.853.8-1.44.266-.533.533-1.04.8-1.52.266-.533.56-.987.88-1.36.32-.427.64-.693.96-.8.693-.427 1.2-.933 1.52-1.52.32-.64.8-1.227 1.44-1.76 1.066-.907 1.893-2.133 2.48-3.68.586-1.547 1.013-3.067 1.28-4.56.106-.747.4-1.387.88-1.92.533-.587.8-1.173.8-1.76v-.32c0-.107-.054-.16-.16-.16-.107 0-.294.107-.56.32-.214.16-.4.24-.56.24-.214 0-.32-.107-.32-.32 0-.853.08-1.547.24-2.08.16-.533.346-.987.56-1.36.213-.427.4-.8.56-1.12.16-.373.24-.8.24-1.28 0-.3734-.027-.8534-.08-1.44 0-.64-.054-1.2534-.16-1.84-.054-.5867-.187-1.0667-.4-1.44-.214-.4267-.48-.64-.8-.64-.32 0-.587.1066-.8.32-.214.16-.4.3733-.56.64-.16.2133-.294.4266-.4.64-.107.16-.24.24-.4.24-.427.32-.827.6666-1.2 1.04-.32.32-.614.6666-.88 1.04-.267.3733-.454.7466-.56 1.12 0-.0534-.134.08-.4.4-.214.32-.507.693-.88 1.12-.374.373-.774.773-1.2 1.2-.374.427-.72.72-1.04.88-.054.053-.187.24-.4.56-.214.267-.454.613-.72 1.04-.214.427-.427.88-.64 1.36-.214.48-.347.907-.4 1.28-.107.693-.534 1.36-1.28 2-.747.587-1.44 1.173-2.08 1.76-1.707-.16-3.12-.613-4.24-1.36-1.067-.747-1.92-1.68-2.56-2.8-.64-1.12-1.094-2.347-1.36-3.68-.214-1.387-.32-2.747-.32-4.08v-1.2c.053-.4267.106-.8534.16-1.28 0-.0534.026-.4267.08-1.12.053-.7467.133-1.6534.24-2.72.16-1.0667.346-2.2134.56-3.44.213-1.2267.48-2.3467.8-3.36.32-1.0667.693-1.9467 1.12-2.64.48-.6934 1.013-1.04 1.6-1.04.8 0 1.493.1866 2.08.56.586.32 1.093.72 1.52 1.2.426.48.746.9866.96 1.52.213.5333.32 1.0133.32 1.44 0 1.8666-.24 3.7866-.72 5.76-.48 1.9733-.72 3.8666-.72 5.68 0 .6933.186 1.04.559 1.04.267 0 .641-.16 1.121-.48.533-.3734 1.066-.7734 1.6-1.2.533-.48 1.04-.96 1.52-1.44s.853-.8534 1.12-1.12c.586-.6934 1.2-1.2534 1.84-1.68.693-.48 1.44-.9067 2.24-1.28.32-.16.533-.32.64-.48.106-.2134.186-.4.24-.56.053-.2134.106-.4.16-.56.053-.16.213-.2934.48-.4.266-.1067.453-.24.56-.4.16-.2134.266-.4267.32-.64.106-.2667.213-.5334.32-.8.16-.2667.373-.5067.64-.72.213-.16.506-.4267.88-.8.426-.4267.88-.8267 1.36-1.2.48-.4267 1.013-.7734 1.6-1.04.586-.32 1.2-.48 1.84-.48.48 0 1.013.1066 1.6.32.64.16 1.226.4 1.76.72.533.32.986.6933 1.36 1.12.373.3733.56.7466.56 1.12 0 .6933-.027 1.3866-.08 2.08-.054.6933-.107 1.3866-.16 2.08-.214.7466-.374 1.6-.48 2.56-.107.9066-.214 1.84-.32 2.8-.107.9066-.267 1.7866-.48 2.64-.16.853-.4 1.6-.72 2.24-.32.587-.534 1.28-.64 2.08-.054.8-.08 1.573-.08 2.32 0 .533.24.8.72.8.426 0 1.093-.267 2-.8.906-.587 1.76-1.093 2.56-1.52.533-.48.96-.853 1.28-1.12.32-.267.613-.48.879-.64.267-.16.561-.293.881-.4.32-.16.72-.32 1.2-.48.426-.16.853-.32 1.28-.48.426-.16.773-.453 1.04-.88.053-.053.32-.187.799-.4.48-.2667 1.041-.5067 1.681-.72.64-.2667 1.253-.5067 1.84-.72.64-.2134 1.093-.32 1.36-.32.213 0 .56.0533 1.04.16.48.0533.96.1866 1.44.4.48.16.906.4 1.28.72.373.32.56.72.56 1.2 0 .373-.107.72-.32 1.04-.214.32-.507.507-.88.56-.64 0-1.147.053-1.52.16-.374.053-.72.16-1.04.32-.32.16-.667.373-1.04.64-.32.213-.747.453-1.28.72-1.6.853-3.227 1.733-4.88 2.64-1.6.907-3.12 1.893-4.56 2.96-1.227.693-2.214 1.36-2.96 2-.694.64-1.467 1.253-2.32 1.84-.64.427-1.2.88-1.68 1.36-.48.427-.934.96-1.36 1.6-.427.587-.854 1.333-1.28 2.24-.427.907-.88 2-1.36 3.28-.107.267-.347.453-.72.56-.374.107-.56.373-.56.8 0 .107.026.267.08.48.053.213.133.347.24.4.106 0 .24-.053.4-.16.16-.053.266-.107.32-.16.213.693.32 1.467.32 2.32 0 .32-.027.64-.08.96 0 .32-.027.64-.08.96-.054.427-.24.72-.56.88-.32.16-.667.293-1.04.4-.32.16-.64.347-.96.56-.267.213-.4.56-.4 1.04 0 .16.026.32.08.48.053.16.08.32.08.48.213-.16.346-.347.4-.56.053-.213.106-.427.16-.64.053-.16.133-.32.24-.48.16-.16.426-.24.8-.24.266 0 .48.08.64.24.16.213.24.453.24.72 0 .427-.054.8-.16 1.12-.107.32-.187.667-.24 1.04 0 .107-.187.267-.56.48-.374.267-.56.64-.56 1.12v.32c.053.107.08.24.08.4 0 .107-.027.187-.08.24v.32c0 .32.08.64.24.96.16.373.24.72.24 1.04 0 0-.054.213-.16.64-.054.48-.16.96-.32 1.44-.107.533-.24 1.013-.4 1.44-.16.48-.347.72-.56.72-.107 0-.187-.027-.24-.08h-.16c-.16 0-.32.08-.48.24l-.08.16c.106-.16.293-.267.56-.32.266 0 .506-.027.72-.08Zm-.4-3.84c-.534.053-.88.133-1.04.24-.107.16-.16.48-.16.96 0 .053.053.133.16.24.426 0 .666-.213.72-.64.106-.373.266-.667.48-.88 0-.107-.027-.16-.08-.16-.107 0-.16.027-.16.08v.08c.053 0 .08.027.08.08Zm-13.92 11.76c0 .747.133 1.36.4 1.84.266.533.773.8 1.52.8.586 0 1.066-.213 1.44-.64.373-.427.826-.747 1.36-.96.533-.213 1.013-.56 1.44-1.04.426-.427.826-.933 1.2-1.52.373-.533.72-1.093 1.04-1.68.373-.587.773-1.12 1.2-1.6-.107-.213-.24-.4-.4-.56-.16-.107-.241-.267-.241-.48 0-.373.054-.693.161-.96.16-.267.32-.533.48-.8.213-.213.373-.453.479-.72.161-.213.241-.507.241-.88 0-.16-.027-.32-.08-.48v-.4c0-.747.213-1.493.64-2.24.48-.747.72-1.653.72-2.72 0-.213-.027-.427-.08-.64-.054-.16-.08-.347-.08-.56 0-1.067.213-2.453.64-4.16.426-1.653.64-3.253.64-4.8 0-.107-.054-.32-.16-.64-.054-.32-.24-.48-.56-.48-.16 0-.454.267-.88.8-.427.533-.907 1.147-1.44 1.84-.48.747-.96 1.467-1.44 2.16-.48.747-.827 1.333-1.04 1.76-.107.267-.267.507-.48.72-.48.533-.987 1.147-1.52 1.84-.48.747-.934 1.493-1.36 2.24-.427.747-.8 1.493-1.12 2.24-.267.747-.4 1.44-.4 2.08 0 .213-.107.48-.32.8-.267.32-.507.88-.72 1.68-.214.8-.4 1.68-.561 2.64-.159.96-.293 1.947-.399 2.96-.107 1.013-.214 1.867-.32 2.56Zm13.84-15.36c-.107.107-.267.213-.48.32-.16.16-.24.293-.24.4 0 .053.053.107.16.16.16.107.266.16.32.16l.48-.24c.213-.107.32-.267.32-.48-.214-.107-.4-.213-.56-.32Zm.32-8c-.107-.053-.187-.107-.24-.16l-.16-.08c-.214 0-.32.107-.32.32 0 .107.08.16.24.16.106 0 .186-.027.24-.08.053-.053.133-.107.24-.16Zm-2.96 16.8c-.214 0-.32.08-.32.24 0 .107.053.16.16.16.106 0 .16-.133.16-.4Zm-2.88 6c-.054-.053-.08-.107-.08-.16l-.08-.08c-.107.107-.16.187-.16.24 0 .16.053.24.16.24.106 0 .16-.08.16-.24Zm7.76-27.68v-.24c0-.107-.054-.16-.16-.16l-.08.08c-.054 0-.08.027-.08.08 0 .16.106.24.32.24Zm-5.04 19.36.08-.08c.053 0 .106-.027.16-.08l-.16-.16c-.054 0-.107.027-.16.08l.08.24Zm2 1.36.08-.16h-.08v.16Z" />
</svg>
