<svg id="svg-promo-title-align-center" xmlns="http://www.w3.org/2000/svg" fill="none" viewBox="0 0 214 84">
  <path fill="#EE2759"
    d="M46.3488 2.24c-.1067.3733-.28.7333-.52 1.08-.24.32-.5067.5867-.8.8-.2934.72-.44 1.4-.44 2.04 0 .2667-.0534.52-.16.76-.08.24-.12.48-.12.72 0 .1333.0133.2533.04.36.0266.08.04.1867.04.32 0 .16-.0134.32-.04.48l-.08.48c-.1334 1.0133-.2667 2.1333-.4 3.36-.1067 1.2267-.16 2.4-.16 3.52v.2c.0266.0533.04.12.04.2 0 .0533-.0534.1333-.16.24-.1067.08-.16.1867-.16.32 0 .1067.0266.2.08.28.0533.08.08.1733.08.28 0 .1333-.0534.3067-.16.52-.08.2133-.12.4267-.12.64 0 .2667.0266.52.08.76.08.2133.12.4267.12.64 0 .08-.0134.16-.04.24v.24c0 .16.0266.3333.08.52.08.16.12.32.12.48 0 .3733-.08.76-.24 1.16-.1334.3733-.2.76-.2 1.16 0 .5333.0533 1.12.16 1.76.1333.6133.2 1.2267.2 1.84 0 1.04.0266 2.0133.08 2.92.0533.9067.08 1.8133.08 2.72 0 .32-.1067.5733-.32.76-.2134.1867-.48.32-.8.4-.2934.08-.6134.1333-.96.16-.32.0267-.6134.04-.88.04-.1067 0-.2534-.04-.44-.12-.16-.08-.3334-.2-.52-.36-.16-.1333-.3067-.2933-.44-.48-.1334-.16-.2-.3333-.2-.52 0-.16.04-.3333.12-.52.08-.1867.12-.3867.12-.6 0-.1333-.0134-.28-.04-.44a2.0325 2.0325 0 0 1-.04-.4c0-.1333.0133-.24.04-.32.0533-.0533.1066-.12.16-.2.08-.08.1333-.2.16-.36.0533-.1333.08-.3467.08-.64 0-.2133-.0134-.4133-.04-.6v-.48c0-.2133-.0934-.3867-.28-.52-.1867-.1333-.28-.3067-.28-.52 0-.1867.08-.4133.24-.68.16-.2933.24-.6133.24-.96 0-.4.0133-.8.04-1.2.0266-.4.04-.8.04-1.2 0-.6133-.04-1.24-.12-1.88-.08-.64-.12-1.2667-.12-1.88 0-.3733.0533-.76.16-1.16.1066-.4.16-.8.16-1.2 0-.2133-.0134-.4267-.04-.64v-.68c0-.88.0533-1.7333.16-2.56.1333-.8533.2-1.72.2-2.6 0-.8.0666-1.72.2-2.76.1333-1.04.2666-2.0667.4-3.08 0-.16-.0267-.3467-.08-.56-.0534-.2133-.1867-.32-.4-.32-.1334 0-.2667.04-.4.12-.1334.0533-.2667.08-.4.08-.2934 0-.5734-.0267-.84-.08-.2667-.08-.5334-.12-.8-.12-.6667 0-1.32.08-1.96.24-.64.16-1.3067.24-2 .24-.7467 0-1.4667-.04-2.16-.12a18.133 18.133 0 0 0-2.08-.12c-.24 0-.5067.0133-.8.04-.2667.0267-.4.16-.4.4a165.262 165.262 0 0 1-.2 3.72 1995.202 1995.202 0 0 0-.16 3.76v1.08c.0266.3467.04.7067.04 1.08 0 2.1333-.04 4.2533-.12 6.36a524.1204 524.1204 0 0 1-.2 6.36c0 .2933-.0134.64-.04 1.04 0 .4-.0267.8133-.08 1.24-.0267.4-.0667.76-.12 1.08-.0534.3467-.12.5867-.2.72-.1334.1867-.2267.4133-.28.68a2.6126 2.6126 0 0 1-.28.76c-.1067.2667-.28.48-.52.64-.2134.1867-.56.28-1.04.28-.1334 0-.2534-.0267-.36-.08-.08-.0267-.1867-.04-.32-.04-.1067 0-.2134.0133-.32.04-.08.0267-.1734.04-.28.04-.0534 0-.1334-.08-.24-.24-.1067-.16-.2134-.3467-.32-.56a6.6536 6.6536 0 0 1-.28-.64c-.08-.2133-.12-.3867-.12-.52.0266-.1867.04-.3733.04-.56.0266-.1867.04-.3733.04-.56 0-.3467-.0534-.68-.16-1-.08-.32-.12-.6267-.12-.92 0-.1333.0133-.2667.04-.4.0533-.16.08-.3067.08-.44 0-.2933-.0534-.6-.16-.92-.08-.32-.12-.64-.12-.96 0-1.0133.0266-2.0267.08-3.04.0533-1.04.08-2.0667.08-3.08 0-.1867-.0134-.3733-.04-.56a3.95 3.95 0 0 1-.04-.56c0-.6133.0533-1.2.16-1.76.1333-.5867.2-1.1067.2-1.56 0-.1333-.0267-.28-.08-.44-.0267-.16-.04-.3067-.04-.44 0-.3467.04-.68.12-1 .08-.32.12-.64.12-.96-.0267-.1333-.04-.24-.04-.32v-.36c0-.3733.0266-.7867.08-1.24.0533-.48.08-.9467.08-1.4 0-.1867-.0134-.36-.04-.52v-.56c0-.4533.0533-.8933.16-1.32.1066-.4533.16-.9067.16-1.36 0-.1333-.0267-.2667-.08-.4-.0267-.1333-.1067-.2267-.24-.28-.9334-.1067-1.6134-.1733-2.04-.2-.4267-.0533-.7467-.1067-.96-.16-.1867-.08-.3467-.2-.4801-.36-.1066-.16-.3066-.4267-.5999-.8-.2134-.24-.32-.5333-.32-.88 0-.1867.0133-.3333.04-.44.0266-.1067.1866-.2.48-.28.32-.08.68-.16 1.08-.24.4-.08.8-.1467 1.2-.2.4266-.0533.76-.1067 1-.16a28.8027 28.8027 0 0 1 3.4-.36 77.7179 77.7179 0 0 1 3.48-.16 138.843 138.843 0 0 0 3.44-.12c1.1466-.0533 2.28-.16 3.4-.32h.16c.08-.0267.1466-.04.2-.04.2133 0 .4133.0133.6.04.2133.0267.4266.04.64.04.1333 0 .28-.0133.44-.04.16-.0533.32-.08.48-.08.3733 0 .7333.0133 1.08.04.3466.0267.7066.04 1.0799.04.2134 0 .4267-.0133.6401-.04.24-.0267.4666-.04.68-.04.1066 0 .4.0133.88.04s.9733.08 1.48.16c.5066.08.96.2133 1.36.4.4266.16.64.4.64.72 0 .16-.0534.32-.16.48-.1067.16-.1867.3067-.24.44l.08-.04-.08.04Zm23.6428 11.88c.2666.2133.4.4533.4.72s-.1467.5067-.44.72c-.2667.2133-.6534.32-1.16.32h-.36a7.8354 7.8354 0 0 0-.36-.08c-1.4934.4533-2.8667 1.0533-4.12 1.8-.4267.2667-.6534.6133-.68 1.04-.0267.4-.0534.76-.08 1.08-.0534.4533-.16.84-.32 1.16-.16.32-.24.7067-.24 1.16 0 .32-.12.5733-.36.76-.2134.1867-.32.4533-.32.8v.2a.3559.3559 0 0 1 .04.16c0 .3733-.08.6933-.24.96-.1334.24-.32.5333-.56.88-.0534.1867-.2267.5067-.52.96-.2667.4267-.5867.8667-.96 1.32-.3734.4533-.7734.8533-1.2 1.2-.4.3467-.76.52-1.08.52-.16 0-.4.12-.72.36-.2934.24-.6.44-.92.6-.6134-.1333-1.1867-.2933-1.72-.48-.5067-.1867-.9734-.48-1.4-.88-.32-.3733-.6267-.8-.92-1.28-.2934-.5067-.5467-1.0133-.76-1.52a20.5488 20.5488 0 0 1-.48-1.56c-.1067-.5067-.16-.9733-.16-1.4 0-.48.0533-.9333.16-1.36.1066-.4533.16-.8933.16-1.32 0-.16.04-.3733.12-.64l.32-.8c.1066-.2933.2-.5867.28-.88.1066-.2933.16-.5467.16-.76 0-.1867-.0667-.4267-.2-.72-.1067-.2933-.24-.6133-.4-.96l-.4-1.04c-.1067-.3467-.16-.68-.16-1 0-1.04.0933-1.8533.28-2.44.2133-.5867.5066-1.0267.88-1.32.4-.32.8533-.52 1.36-.6.5333-.08 1.12-.12 1.76-.12h1.84c.24 0 .6533.1067 1.24.32.5866.1867 1.2133.48 1.88.88.6666.4 1.28.9067 1.84 1.52.56.6133.9333 1.3333 1.12 2.16.0533.2667.1466.5467.28.84.16.2933.3866.44.68.44.1066 0 .1866-.0133.24-.04 1.04-.3733 2.0533-.7333 3.04-1.08.9866-.3467 2.04-.5467 3.16-.6Zm-8.88 5.88a5.3703 5.3703 0 0 1-.12-.64c0-.24-.1067-.36-.32-.36-.1067 0-.2667.0267-.48.08l-2 .72c-.6667.24-1.3734.36-2.12.36-.32 0-.56.24-.72.72-.16.4533-.28.9733-.36 1.56-.08.56-.1334 1.1067-.16 1.64v1c0 .5333.1333 1.0667.4 1.6.2666.5067.6266.76 1.08.76.5066 0 .9866-.2533 1.44-.76.48-.5333.9066-1.12 1.28-1.76.4-.64.7333-1.24 1-1.8.2933-.56.5066-.8933.64-1 .16-.2667.2533-.6133.28-1.04.0533-.4267.1066-.7867.16-1.08Zm-8.44-5.96c.0266.16.0533.4133.08.76.0533.3467.1866.52.4.52.1066 0 .2-.04.28-.12.08-.1067.16-.2.24-.28.08-.1067.16-.2.24-.28.1066-.1067.2266-.16.36-.16l.48.12c.3466.08.72.2 1.12.36.4.16.7733.36 1.12.6.3466.2133.52.4533.52.72 0 .16-.08.3867-.24.68-.16.2667-.28.4933-.36.68 0 .1867.0533.3067.16.36.1333.0533.2266.08.28.08.2666 0 .5866-.0267.96-.08.4-.08.7733-.1867 1.12-.32.3733-.1333.6933-.2933.96-.48.2666-.2133.4-.4533.4-.72 0-.5333-.1734-1.12-.52-1.76-.32-.64-.7467-1.2267-1.28-1.76-.5334-.56-1.12-1.0133-1.76-1.36-.64-.3733-1.2534-.56-1.84-.56-.8534 0-1.52.32-2 .96-.48.64-.72 1.32-.72 2.04ZM68.24 20.96c-.56-.0533-1.0667-.2533-1.52-.6-.48-.3733-.72-.7467-.72-1.12 0-.3467.08-.7333.24-1.16.16-.4533.36-.9067.6-1.36a8.46 8.46 0 0 1 .76-1.36c.2667-.4533.52-.84.76-1.16.2933-.4.6267-.8667 1-1.4.4-.5333.8267-.9733 1.28-1.32.16-.1333.2933-.3067.4-.52.1067-.2133.2533-.3867.44-.52.8-.6133 1.64-1.1867 2.52-1.72.88-.56 1.8533-.84 2.92-.84.4 0 .7733.0933 1.12.28.3733.16.6933.3867.96.68.2667.2933.48.6267.64 1 .16.3467.24.6933.24 1.04 0 .4533-.08.88-.24 1.28-.1333.4-.2.8267-.2 1.28v.2c.0267.08.04.1467.04.2 0 .16-.0533.2933-.16.4-.2133.2933-.36.64-.44 1.04-.0533.4-.08.76-.08 1.08 0 .1333-.04.32-.12.56-.08.24-.1733.5067-.28.8a7.75 7.75 0 0 0-.28.84c-.08.2933-.12.56-.12.8l-.12.36c-.0533.2133-.12.4667-.2.76a7.75 7.75 0 0 1-.28.84c-.08.2667-.16.4533-.24.56-.1867.2133-.2933.5733-.32 1.08s-.08.9733-.16 1.4c-.0533.2933-.1467.56-.28.8-.1333.2133-.2.4667-.2.76 0 .1067.0133.24.04.4.0267.16.1067.24.24.24.1067 0 .2133-.0667.32-.2.1333-.1333.2533-.28.36-.44a6.605 6.605 0 0 0 .36-.56c.1067-.1867.2-.3333.28-.44.2933-.4.6-.7733.92-1.12.32-.3467.6-.72.84-1.12.0267-.08.1467-.24.36-.48s.4533-.48.72-.72c.2933-.2667.6-.4933.92-.68.32-.1867.6133-.28.88-.28.16 0 .32.0533.48.16.16.08.24.2533.24.52 0 .2933-.24.7333-.72 1.32-.48.56-.9867 1.1333-1.52 1.72-.24.2933-.3867.6533-.44 1.08-.0533.4-.1067.6267-.16.68-.24.24-.3867.5067-.44.8l-.08.88c-.0267.2933-.1067.5467-.24.76-.1333.1867-.28.36-.44.52l-.4.48c-.1067.16-.16.3467-.16.56 0 .24-.08.4667-.24.68-.16.24-.3733.4533-.64.64a2.8344 2.8344 0 0 1-.88.48c-.2933.1333-.5867.2-.88.2-.1867 0-.3467-.0667-.48-.2-.1333-.1067-.2933-.16-.48-.16-.2933 0-.5467-.0933-.76-.28-.2133-.16-.3867-.36-.52-.6-.1067-.24-.1867-.5067-.24-.8-.0533-.2933-.08-.56-.08-.8 0-.56.0133-1.1067.04-1.64a16.08 16.08 0 0 0 .08-1.6c0-.2933-.0267-.6-.08-.92-.0533-.32-.08-.6133-.08-.88 0-.1333.04-.2533.12-.36.08-.1333.12-.2667.12-.4a.754.754 0 0 0-.04-.24v-.2c0-.3467.1467-.6267.44-.84.2933-.24.44-.4667.44-.68 0-.08-.0267-.16-.08-.24-.0533-.1067-.08-.2133-.08-.32 0-.32.04-.56.12-.72.08-.1867.16-.3333.24-.44.08-.1067.16-.2.24-.28.08-.1067.12-.24.12-.4a.5852.5852 0 0 0-.12-.36c-.0533-.1333-.08-.2667-.08-.4 0-.2933.0667-.6267.2-1 .1333-.4.28-.7867.44-1.16a50.97 50.97 0 0 1 .44-1c.1333-.32.2-.56.2-.72 0-.08-.0267-.16-.08-.24-.0533-.1067-.08-.2133-.08-.32 0-.48.04-1.0133.12-1.6.1067-.6133.1867-1.1867.24-1.72 0-.1333-.0267-.2533-.08-.36-.0267-.1333-.1067-.2-.24-.2-.2133.1867-.4133.36-.6.52-.16.1333-.3333.28-.52.44-.1867.16-.3467.2933-.48.4-.24.0533-.48.1867-.72.4-.24.2133-.4933.4533-.76.72-.24.2667-.48.5467-.72.84s-.4533.56-.64.8c-.1867.2133-.2933.4533-.32.72s-.1333.52-.32.76c-.32.4267-.5867.9067-.8 1.44a37.1594 37.1594 0 0 0-.52 1.6c-.16.5067-.3333.9867-.52 1.44-.1867.4267-.44.7467-.76.96Zm12.08.04.04.12h-.08l.04-.12Zm5.5334-3.64h.24c.08-.0267.1467-.04.2-.04.1867 0 .3734-.1333.56-.4.1867-.2667.3867-.5733.6-.92.24-.3733.4934-.7333.76-1.08.2667-.3467.56-.6.88-.76.1867-.24.4667-.5467.84-.92.3734-.4.8-.7867 1.28-1.16.5067-.4 1.0667-.7333 1.68-1 .64-.2667 1.3067-.4 2-.4.2667 0 .52.04.76.12.24.0533.48.12.72.2.2134.0533.3467.1733.4.36.0534.16.1867.24.4.24.1867.0533.36.1733.52.36.16.1867.2934.4.4.64.1334.2133.2267.44.28.68.08.2133.12.3733.12.48 0 .56-.08 1.2267-.24 2-.1333.7467-.3466 1.4267-.64 2.04a9.667 9.667 0 0 1-.84 1.44c-.2933.4267-.5466.9067-.76 1.44-.1333.4-.36.7467-.68 1.04a15.698 15.698 0 0 0-.88.96c-.1333.1333-.2533.3067-.36.52a6.5557 6.5557 0 0 1-.36.56c-.1333.1867-.28.36-.44.52-.16.1333-.3466.2133-.56.24-.2133 0-.3466.0533-.4.16-.0533.1067-.08.2267-.08.36 0 .1867-.2133.4-.64.64-.4266.2133-.92.4267-1.48.64-.56.1867-1.12.3467-1.68.48-.5333.1333-.9333.2-1.2.2-.1866 0-.3733-.04-.56-.12-.16-.1067-.3333-.16-.52-.16-.1866 0-.3466.1467-.48.44-.1333.2667-.2533.6-.36 1-.08.4-.1466.8-.2 1.2-.0266.4-.04.72-.04.96 0 .2133.0134.4267.04.64.0534.24.08.4667.08.68 0 .2133-.0133.4133-.04.6v.6c0 .24.0667.4267.2.56.16.1333.2667.2933.32.48.08.2133.1334.44.16.68.0267.24.04.48.04.72 0 .2667.0134.4933.04.68.08.3467.1734.64.28.88.1067.24.16.5067.16.8v.52c0 .1867-.0533.36-.16.52-.08.16-.2266.2933-.44.4-.2133.1067-.5333.16-.96.16-.24 0-.4666-.12-.68-.36-.2133-.2133-.4-.5067-.56-.88-.16-.3733-.2933-.8133-.4-1.32-.08-.48-.12-.9867-.12-1.52 0-.2133.04-.44.12-.68.1067-.24.16-.44.16-.6-.1866-.3467-.3333-.68-.44-1a7.7717 7.7717 0 0 1-.28-.84c-.08-.2667-.12-.4667-.12-.6 0-.1333.04-.2667.12-.4.08-.1333.12-.2667.12-.4 0-.1333-.0266-.2533-.08-.36-.0533-.1067-.08-.2267-.08-.36 0-.08.0134-.16.04-.24.0534-.1067.08-.2133.08-.32 0-.1333-.0133-.24-.04-.32-.0266-.1067-.04-.2267-.04-.36 0-.08.0267-.2.08-.36 0-.2133-.0533-.4267-.16-.64-.1066-.2133-.16-.4267-.16-.64 0-.3733.0667-.7867.2-1.24.16-.48.24-.84.24-1.08 0-.0533-.0133-.0933-.04-.12a.3559.3559 0 0 1-.04-.16c0-.1067.0267-.1867.08-.24.08-.08.12-.1733.12-.28 0-.16-.08-.3067-.24-.44-.1333-.16-.2-.2933-.2-.4 0-.08.08-.1867.24-.32.16-.1333.24-.2667.24-.4 0-.1067-.04-.2533-.12-.44-.08-.1867-.12-.3733-.12-.56 0-.32.04-.5733.12-.76.08-.1867.1734-.3333.28-.44.1067-.1067.2-.1867.28-.24.08-.08.12-.1733.12-.28 0-.1333-.0533-.24-.16-.32-.1066-.08-.2-.2533-.28-.52.1067-.24.2134-.5067.32-.8.1334-.32.2-.6133.2-.88 0-.2667-.0933-.5333-.28-.8-.1866-.2667-.28-.6-.28-1 0-.1867.08-.44.24-.76.1867-.3467.28-.72.28-1.12 0-.2933-.04-.5867-.12-.88-.0533-.32-.08-.6267-.08-.92s.0934-.5733.28-.84c.2134-.2667.32-.5733.32-.92 0-.1867-.0133-.36-.04-.52-.0266-.1867-.04-.36-.04-.52 0-.2133.0134-.4533.04-.72.0267-.2667.08-.52.16-.76s.1867-.44.32-.6c.1334-.1867.3067-.28.52-.28.1867 0 .4267.04.72.12.32.08.6134.2133.88.4.2667.16.4934.3867.68.68.2134.2667.32.6.32 1 0 .2667-.0666.5733-.2.92-.1066.3467-.24.7067-.4 1.08a17.355 17.355 0 0 0-.44 1.04c-.1066.3467-.16.6533-.16.92 0 .6133-.08 1.16-.24 1.64-.16.4533-.2666.9467-.32 1.48 0 .1333.04.2533.12.36.08.1067.12.2133.12.32 0 .1067-.0533.2-.16.28-.08.08-.12.1867-.12.32 0 .0533.0534.16.16.32-.24.1067-.4133.2267-.52.36-.1066.1067-.2.24-.28.4-.0533.16-.1066.3467-.16.56-.0266.1867-.1066.4133-.24.68l.08.08c.1334 0 .24-.0533.32-.16.08-.1067.1467-.2267.2-.36.0534-.16.0934-.3067.12-.44.0267-.1333.04-.24.04-.32 0-.2133-.0533-.4133-.16-.6.1067-.0533.2-.08.28-.08.1067-.0267.2-.0667.28-.12Zm4.04-1.48c0 .2933-.04.52-.12.68a3.6351 3.6351 0 0 1-.28.4c-.08.1067-.1733.2267-.28.36-.1066.1067-.1866.2667-.24.48-.1066.3467-.2666.6533-.48.92a23.1714 23.1714 0 0 0-.64.84c-.08.1067-.2.3333-.36.68-.1333.32-.28.6933-.44 1.12a16.85 16.85 0 0 0-.36 1.24c-.1066.4267-.16.7867-.16 1.08 0 .1867.0134.4267.04.72.0534.2667.1867.4.4.4.0534 0 .32-.04.8-.12.5067-.1067 1.0667-.2667 1.68-.48.6134-.2133 1.2134-.5067 1.8-.88.5867-.4 1-.9067 1.24-1.52a15.549 15.549 0 0 0 .6-.8c.16-.2133.3334-.4267.52-.64.1867-.2133.3467-.3867.48-.52.1067-.08.24-.3733.4-.88.1867-.5333.36-1.1333.52-1.8a17.8828 17.8828 0 0 0 .44-2c.1334-.6933.2-1.24.2-1.64 0-.32-.08-.52-.24-.6-.16-.08-.36-.12-.6-.12-.4533 0-.8933.1467-1.32.44-.4266.2933-.8533.6267-1.28 1-.4.3733-.8.7333-1.2 1.08-.3733.32-.7466.5067-1.12.56Zm-5.76 4.08c-.1066.0533-.16.16-.16.32 0 .08.0134.1333.04.16.0267.0267.04.0667.04.12.0267-.0533.0534-.0933.08-.12.0267-.0267.0534-.0667.08-.12 0-.08-.0266-.2-.08-.36Zm.52 12.44.12.04-.08-.16-.04.12Zm-.56-2.04c.0534-.16.08-.2533.08-.28l-.08-.08c-.0533.1067-.08.2-.08.28l.08.08Zm27.8756 8.92c-.24.24-.413.5067-.52.8l-.24.96c-.053.3467-.12.68-.2 1-.08.3467-.227.6667-.44.96 0 .4533-.133.9467-.4 1.48-.24.56-.573 1.0667-1 1.52-.4.48-.88.8667-1.44 1.16-.533.32-1.093.48-1.68.48-.48 0-.853-.0533-1.12-.16-.267-.1067-.507-.24-.72-.4-.187-.1333-.36-.28-.52-.44-.133-.16-.32-.3067-.56-.44-.507-.2933-.813-.72-.92-1.28-.08-.5333-.12-1.1067-.12-1.72 0-.56.04-1.2933.12-2.2.107-.88.48-1.88 1.12-3 .133-.2133.267-.6.4-1.16.16-.5333.32-.9867.48-1.36.16-.3733.387-.8667.68-1.48.32-.5867.747-1.3067 1.28-2.16.107-.1333.213-.2667.32-.4.133-.1333.253-.28.36-.44.133-.1867.267-.4267.4-.72.133-.2667.267-.52.4-.76.133-.2667.28-.4933.44-.68.16-.2133.32-.3467.48-.4.347-.2133.6-.4667.76-.76.16-.32.4-.6133.72-.88.533-.4533.947-1.0667 1.24-1.84.293-.7733.507-1.5333.64-2.28.053-.3733.2-.6933.44-.96.267-.2933.4-.5867.4-.88v-.16c0-.0533-.027-.08-.08-.08-.053 0-.147.0533-.28.16-.107.08-.2.12-.28.12-.107 0-.16-.0533-.16-.16 0-.4267.04-.7733.12-1.04.08-.2667.173-.4933.28-.68.107-.2133.2-.4.28-.56.08-.1867.12-.4.12-.64 0-.1867-.013-.4267-.04-.72 0-.32-.027-.6267-.08-.92-.027-.2933-.093-.5333-.2-.72-.107-.2133-.24-.32-.4-.32-.16 0-.293.0533-.4.16-.107.08-.2.1867-.28.32-.08.1067-.147.2133-.2.32-.053.08-.12.12-.2.12a5.655 5.655 0 0 0-.6.52c-.16.16-.307.3333-.44.52-.133.1867-.227.3733-.28.56 0-.0267-.067.04-.2.2-.107.16-.253.3467-.44.56-.187.1867-.387.3867-.6.6-.187.2133-.36.36-.52.44-.027.0267-.093.12-.2.28-.107.1333-.227.3067-.36.52-.107.2133-.213.44-.32.68-.107.24-.173.4533-.2.64-.053.3467-.267.68-.64 1-.373.2933-.72.5867-1.04.88-.853-.08-1.56-.3067-2.12-.68-.533-.3733-.96-.84-1.28-1.4-.32-.56-.547-1.1733-.68-1.84-.107-.6933-.16-1.3733-.16-2.04v-.6c.027-.2133.053-.4267.08-.64 0-.0267.013-.2133.04-.56.027-.3733.067-.8267.12-1.36.08-.5333.173-1.1067.28-1.72.107-.6133.24-1.1733.4-1.68.16-.5333.347-.9733.56-1.32.24-.3467.507-.52.8-.52.4 0 .747.0933 1.04.28.293.16.547.36.76.6.213.24.373.4933.48.76.107.2667.16.5067.16.72 0 .9333-.12 1.8933-.36 2.88-.24.9867-.36 1.9333-.36 2.84 0 .3467.093.52.28.52.133 0 .32-.08.56-.24.267-.1867.533-.3867.8-.6.267-.24.52-.48.76-.72s.427-.4267.56-.56c.293-.3467.6-.6267.92-.84.347-.24.72-.4533 1.12-.64.16-.08.267-.16.32-.24.053-.1067.093-.2.12-.28.027-.1067.053-.2.08-.28.027-.08.107-.1467.24-.2.133-.0533.227-.12.28-.2.08-.1067.133-.2133.16-.32.053-.1333.107-.2667.16-.4.08-.1333.187-.2533.32-.36.107-.08.253-.2133.44-.4.213-.2133.44-.4133.68-.6.24-.2133.507-.3867.8-.52.293-.16.6-.24.92-.24.24 0 .507.0533.8.16.32.08.613.2.88.36.267.16.493.3467.68.56.187.1867.28.3733.28.56 0 .3467-.013.6933-.04 1.04-.027.3467-.053.6933-.08 1.04-.107.3733-.187.8-.24 1.28-.053.4533-.107.92-.16 1.4a10.375 10.375 0 0 1-.24 1.32c-.08.4267-.2.8-.36 1.12-.16.2933-.267.64-.32 1.04-.027.4-.04.7867-.04 1.16 0 .2667.12.4.36.4.213 0 .547-.1333 1-.4.453-.2933.88-.5467 1.28-.76.267-.24.48-.4267.64-.56.16-.1333.307-.24.44-.32.133-.08.28-.1467.44-.2.16-.08.36-.16.6-.24.213-.08.427-.16.64-.24.213-.08.387-.2267.52-.44.027-.0267.16-.0933.4-.2.24-.1333.52-.2533.84-.36.32-.1333.627-.2533.92-.36.32-.1067.547-.16.68-.16.107 0 .28.0267.52.08.24.0267.48.0933.72.2.24.08.453.2.64.36.187.16.28.36.28.6 0 .1867-.053.36-.16.52-.107.16-.253.2533-.44.28-.32 0-.573.0267-.76.08-.187.0267-.36.08-.52.16-.16.08-.333.1867-.52.32-.16.1067-.373.2267-.64.36-.8.4267-1.613.8667-2.44 1.32-.8.4533-1.56.9467-2.28 1.48-.613.3467-1.107.68-1.48 1-.347.32-.733.6267-1.16.92-.32.2133-.6.44-.84.68-.24.2133-.467.48-.68.8-.213.2933-.427.6667-.64 1.12-.213.4533-.44 1-.68 1.64-.053.1333-.173.2267-.36.28-.187.0533-.28.1867-.28.4 0 .0533.013.1333.04.24.027.1067.067.1733.12.2.053 0 .12-.0267.2-.08.08-.0267.133-.0533.16-.08.107.3467.16.7333.16 1.16 0 .16-.013.32-.04.48 0 .16-.013.32-.04.48-.027.2133-.12.36-.28.44-.16.08-.333.1467-.52.2-.16.08-.32.1733-.48.28-.133.1067-.2.28-.2.52 0 .08.013.16.04.24.027.08.04.16.04.24.107-.08.173-.1733.2-.28.027-.1067.053-.2133.08-.32.027-.08.067-.16.12-.24.08-.08.213-.12.4-.12.133 0 .24.04.32.12.08.1067.12.2267.12.36 0 .2133-.027.4-.08.56-.053.16-.093.3333-.12.52 0 .0533-.093.1333-.28.24-.187.1333-.28.32-.28.56v.16c.027.0533.04.12.04.2 0 .0533-.013.0933-.04.12v.16c0 .16.04.32.12.48.08.1867.12.36.12.52 0 0-.027.1067-.08.32-.027.24-.08.48-.16.72-.053.2667-.12.5067-.2.72-.08.24-.173.36-.28.36-.053 0-.093-.0133-.12-.04h-.08c-.08 0-.16.04-.24.12l-.04.08c.053-.08.147-.1333.28-.16.133 0 .253-.0133.36-.04Zm-.2-1.92c-.267.0267-.44.0667-.52.12-.053.08-.08.24-.08.48 0 .0267.027.0667.08.12.213 0 .333-.1067.36-.32.053-.1867.133-.3333.24-.44 0-.0533-.013-.08-.04-.08-.053 0-.08.0133-.08.04v.04c.027 0 .04.0133.04.04Zm-6.96 5.88c0 .3733.067.68.2.92.133.2667.387.4.76.4.293 0 .533-.1067.72-.32.187-.2133.413-.3733.68-.48.267-.1067.507-.28.72-.52.213-.2133.413-.4667.6-.76.187-.2667.36-.5467.52-.84.187-.2933.387-.56.6-.8-.053-.1067-.12-.2-.2-.28-.08-.0533-.12-.1333-.12-.24 0-.1867.027-.3467.08-.48l.24-.4c.107-.1067.187-.2267.24-.36.08-.1067.12-.2533.12-.44 0-.08-.013-.16-.04-.24v-.2c0-.3733.107-.7467.32-1.12.24-.3733.36-.8267.36-1.36 0-.1067-.013-.2133-.04-.32-.027-.08-.04-.1733-.04-.28 0-.5333.107-1.2267.32-2.08.213-.8267.32-1.6267.32-2.4 0-.0533-.027-.16-.08-.32-.027-.16-.12-.24-.28-.24-.08 0-.227.1333-.44.4-.213.2667-.453.5733-.72.92-.24.3733-.48.7333-.72 1.08-.24.3733-.413.6667-.52.88-.053.1333-.133.2533-.24.36-.24.2667-.493.5733-.76.92-.24.3733-.467.7467-.68 1.12-.213.3733-.4.7467-.56 1.12-.133.3733-.2.72-.2 1.04 0 .1067-.053.24-.16.4-.133.16-.253.44-.36.84-.107.4-.2.84-.28 1.32-.08.48-.147.9733-.2 1.48-.053.5067-.107.9333-.16 1.28Zm6.92-7.68c-.053.0533-.133.1067-.24.16-.08.08-.12.1467-.12.2 0 .0267.027.0533.08.08.08.0533.133.08.16.08.053-.0267.133-.0667.24-.12.107-.0533.16-.1333.16-.24a2.5827 2.5827 0 0 1-.28-.16Zm.16-4c-.053-.0267-.093-.0533-.12-.08 0 0-.027-.0133-.08-.04-.107 0-.16.0533-.16.16 0 .0533.04.08.12.08.053 0 .093-.0133.12-.04.027-.0267.067-.0533.12-.08Zm-1.48 8.4c-.107 0-.16.04-.16.12 0 .0533.027.08.08.08.053 0 .08-.0667.08-.2Zm-1.44 3c-.027-.0267-.04-.0533-.04-.08 0 0-.013-.0133-.04-.04-.053.0533-.08.0933-.08.12 0 .08.027.12.08.12.053 0 .08-.04.08-.12Zm3.88-13.84V29c0-.0533-.027-.08-.08-.08l-.04.04c-.027 0-.04.0133-.04.04 0 .08.053.12.16.12Zm-2.52 9.68c.027-.0267.04-.04.04-.04.027 0 .053-.0133.08-.04-.053-.0533-.08-.08-.08-.08-.027 0-.053.0133-.08.04l.04.12Zm1 .68.04-.08h-.04v.08ZM122.513 44c-.186-.3733-.293-.7733-.32-1.2a9.433 9.433 0 0 1-.08-1.24v-.88c-.026-.32-.026-.6533 0-1 .027-.3467.067-.6667.12-.96.027-.2933.107-.52.24-.68.16-.2133.267-.4533.32-.72.054-.24.107-.4933.16-.76.027-.2667.08-.52.16-.76.054-.2133.174-.3867.36-.52.134-.1067.24-.36.32-.76.08-.3733.174-.7867.28-1.24.107-.4533.24-.8667.4-1.24.16-.3733.374-.6.64-.68.214-.08.374-.2.48-.36.107-.1333.187-.3067.24-.52.054-.24.174-.4533.36-.64.187-.2133.387-.4.6-.56.24-.1867.454-.36.64-.52.214-.1867.36-.3867.44-.6.134-.32.387-.6.76-.84.374-.24.627-.56.76-.96.107-.1067.334-.28.68-.52.347-.24.707-.4933 1.08-.76.374-.2667.707-.5333 1-.8.294-.2667.44-.4667.44-.6a7.6267 7.6267 0 0 0-.12-.84c-.053-.2133-.12-.4-.2-.56-.053-.1867-.146-.28-.28-.28-.266.1867-.48.4-.64.64-.16.24-.306.4933-.44.76-.106.2667-.24.52-.4.76-.133.2133-.333.3867-.6.52-.133.0533-.226.1467-.28.28-.053.1067-.12.2267-.2.36-.053.1067-.133.2-.24.28-.08.08-.2.12-.36.12-.453 0-.84-.0667-1.16-.2-.32-.16-.586-.3467-.8-.56-.213-.2133-.373-.4133-.48-.6-.106-.2133-.16-.3867-.16-.52 0-.2133.067-.5467.2-1 .16-.48.32-.92.48-1.32.187-.48.454-.8533.8-1.12.347-.2667.694-.5067 1.04-.72.374-.24.707-.4933 1-.76.32-.2667.56-.6267.72-1.08 0-.0267.054-.1067.16-.24.107-.16.214-.3333.32-.52.107-.2133.2-.44.28-.68.107-.2667.16-.5467.16-.84-.026-.1067-.04-.2933-.04-.56 0-.2933.014-.6.04-.92.054-.32.08-.64.08-.96v-.2c0-.1333-.026-.28-.08-.44-.026-.16-.093-.2933-.2-.4-.08-.1333-.226-.2-.44-.2-.133.0267-.28.0533-.44.08-.16.0267-.306.04-.44.04-.56 0-.986.2933-1.28.88-.293.56-.56 1.1867-.8 1.88-.24.6933-.493 1.3333-.76 1.92-.266.56-.653.84-1.16.84-.213 0-.453-.0267-.72-.08-.266-.08-.52-.1733-.76-.28a2.8765 2.8765 0 0 1-.64-.48c-.16-.1867-.24-.4-.24-.64 0-.48.094-.9733.28-1.48.214-.5333.48-1.0533.8-1.56.32-.5067.667-.9867 1.04-1.44.4-.4533.787-.8533 1.16-1.2.747-.1333 1.4-.2667 1.96-.4.56-.16 1.187-.24 1.88-.24 1.174 0 2.174.3733 3 1.12.214.2133.347.4533.4.72.054.24.107.3867.16.44.214.24.36.4933.44.76.08.24.12.4933.12.76 0 .6933-.093 1.3467-.28 1.96-.16.6133-.333 1.2667-.52 1.96-.053.1867-.146.3467-.28.48-.133.1067-.2.2933-.2.56 0 .1867.027.3067.08.36.054.0533.147.1467.28.28.267.1333.52.3467.76.64s.454.5867.64.88c.187.2667.347.5067.48.72.16.2133.294.32.4.32.32 0 .72-.1067 1.2-.32.507-.2133.934-.32 1.28-.32.134 0 .254.0133.36.04.107.0267.214.04.32.04.134 0 .267-.0133.4-.04a2.04 2.04 0 0 1 .4-.04c.427 0 .64.2267.64.68-.16.4533-.493.8133-1 1.08-.48.24-.986.48-1.52.72-.533.24-1.013.5333-1.44.88-.426.3467-.64.84-.64 1.48v.24c.027.0533.04.12.04.2 0 .9333-.12 1.9067-.36 2.92a42.1691 42.1691 0 0 0-.52 3c-.053.2133-.133.4267-.24.64-.106.2133-.16.3867-.16.52v.2c.027.08.04.1467.04.2 0 .2933-.066.6133-.2.96-.133.3733-.293.72-.48 1.04-.16.3467-.306.6533-.44.92-.133.2667-.2.48-.2.64 0 .24-.106.5467-.32.92-.186.3733-.413.7733-.68 1.2-.24.4533-.506.92-.8 1.4-.266.48-.48.9333-.64 1.36-.16.2933-.373.56-.64.8-.266.2667-.453.56-.56.88-.053.1333-.213.2533-.48.36-.24.1067-.413.28-.52.52-.106.2133-.266.4-.48.56-.213.16-.44.28-.68.36-.24.1067-.48.1733-.72.2-.24.0533-.413.08-.52.08-.453 0-.853-.0533-1.2-.16a4.1726 4.1726 0 0 1-.92-.44c-.293-.16-.6-.36-.92-.6-.293-.24-.626-.5067-1-.8Zm2.52-2.36c0 .2933.04.6133.12.96.107.3467.36.52.76.52.027 0 .24-.1067.64-.32.427-.1867.88-.4667 1.36-.84.507-.3467 1-.7867 1.48-1.32.48-.5333.827-1.1333 1.04-1.8.08-.2667.2-.4667.36-.6.16-.1333.24-.3467.24-.64 0-.0533-.013-.12-.04-.2v-.16c0-.1067.04-.2667.12-.48.107-.2133.227-.4533.36-.72.134-.2667.254-.5467.36-.84.107-.2933.187-.56.24-.8.054-.2667.16-.48.32-.64.16-.16.24-.3467.24-.56 0-.0533-.013-.12-.04-.2v-.2c0-.6667.067-1.3467.2-2.04.134-.6933.2-1.36.2-2 0-.2133-.026-.4667-.08-.76-.053-.32-.173-.48-.36-.48 0 0-.106.0933-.32.28-.186.16-.413.36-.68.6l-.72.72c-.24.2133-.413.3733-.52.48-.586.9333-1.253 1.8667-2 2.8-.72.9333-1.266 1.92-1.64 2.96-.293.8-.626 1.6533-1 2.56-.373.9067-.56 1.7067-.56 2.4 0 .1333-.013.24-.04.32 0 .08-.013.2667-.04.56v.44Zm32.138-13.4c-.213.7733-.52 1.3467-.92 1.72-.373.3467-.893.6133-1.56.8-.346-.24-.733-.4933-1.16-.76-.4-.2933-.6-.68-.6-1.16 0-.3467-.093-.5733-.28-.68-.186-.1067-.28-.3067-.28-.6v-.64c.027-.24.04-.4667.04-.68-.053-.3467-.12-.7333-.2-1.16-.053-.4267-.08-.8-.08-1.12 0-.16.014-.32.04-.48.027-.1867.04-.36.04-.52a3.8234 3.8234 0 0 0-.12-.6c-.026-.1867-.053-.3733-.08-.56 0-.16.027-.32.08-.48.08-.1867.12-.3467.12-.48a1.057 1.057 0 0 0-.08-.4c-.026-.16-.04-.3067-.04-.44 0-.4267.04-.8933.12-1.4.08-.5067.12-1 .12-1.48 0-.1333-.013-.2533-.04-.36 0-.1333-.066-.24-.2-.32-.053 0-.106.0133-.16.04h-.16c0 .0533-.106.2133-.32.48-.186.2667-.413.5733-.68.92-.24.32-.48.6533-.72 1-.213.32-.36.5733-.44.76-.053.1333-.12.3067-.2.52-.08.2133-.173.4267-.28.64-.08.1867-.16.36-.24.52-.053.1333-.08.2-.08.2-.213.08-.373.2133-.48.4-.106.16-.2.3333-.28.52-.08.1867-.146.3733-.2.56-.053.16-.12.28-.2.36-.32.2667-.626.68-.92 1.24-.293.56-.626 1.12-1 1.68-.373.56-.8 1.0533-1.28 1.48-.48.4267-1.066.64-1.76.64-.64 0-1.28-.2267-1.92-.68-.64-.4533-1-1.1467-1.08-2.08a5.598 5.598 0 0 0-.32-1.32c-.16-.4533-.24-.8933-.24-1.32 0-.72.027-1.4533.08-2.2.08-.7467.187-1.4533.32-2.12 0-.0267.027-.2133.08-.56.054-.3733.094-.8267.12-1.36.054-.56.094-1.1867.12-1.88.054-.6933.08-1.4.08-2.12 0-.16-.026-.32-.08-.48-.026-.1867-.04-.36-.04-.52 0-.1333.054-.2533.16-.36.134-.1067.267-.16.4-.16.48.0533.947.2 1.4.44.454.2133.68.56.68 1.04-.133 1.6-.28 3.16-.44 4.68-.16 1.4933-.24 3.04-.24 4.64v1c.027.3733.054.7333.08 1.08.054.3467.12.64.2.88.107.24.24.36.4.36.24 0 .56-.2667.96-.8.427-.5333.88-1.1733 1.36-1.92.507-.7467 1-1.5067 1.48-2.28.48-.8.907-1.4667 1.28-2 .214-.2933.427-.5067.64-.64.24-.16.4-.4133.48-.76.107-.3733.32-.72.64-1.04.347-.3467.64-.6533.88-.92.16-.16.374-.4267.64-.8.267-.3733.56-.7467.88-1.12.32-.3733.64-.6933.96-.96.32-.2933.587-.44.8-.44.187 0 .387-.0133.6-.04.24-.0267.48-.04.72-.04.907 0 1.547.28 1.92.84.4.5333.6 1.1867.6 1.96 0 .7733-.093 1.5333-.28 2.28-.186.7467-.28 1.4267-.28 2.04v.44c.027.1333.04.28.04.44 0 .56-.053 1.1067-.16 1.64-.106.5333-.16 1.0667-.16 1.6.054.6133.12 1.24.2 1.88.08.64.12 1.24.12 1.8a.3508.3508 0 0 1-.04.16v.12c0 .2667.04.52.12.76.08.24.187.4667.32.68Zm3.318-4.52c0-.8.093-1.5733.28-2.32.213-.7467.32-1.5067.32-2.28 0-.2133.053-.4933.16-.84.107-.3733.24-.76.4-1.16.16-.4267.333-.8533.52-1.28.213-.4267.413-.8133.6-1.16.213-.3733.453-.6933.72-.96a2.934 2.934 0 0 0 .6-1c.08-.2667.227-.4533.44-.56.213-.1067.347-.3067.4-.6.027-.1333.093-.2267.2-.28a2.286 2.286 0 0 1 .4-.12c.133-.0267.253-.0533.36-.08.133-.0267.227-.1067.28-.24.08-.1867.213-.36.4-.52a3.407 3.407 0 0 1 .6-.48c.213-.16.427-.28.64-.36.213-.08.373-.12.48-.12.773.1333 1.48.3067 2.12.52.533.1867 1.027.4133 1.48.68.453.2667.68.6.68 1 0 .2667-.04.64-.12 1.12-.053.4533-.147.9067-.28 1.36-.133.4267-.307.8133-.52 1.16-.213.32-.467.48-.76.48s-.547-.16-.76-.48c-.187-.32-.28-.6267-.28-.92 0-.24.013-.4667.04-.68.027-.24.053-.4667.08-.68 0-.1867-.093-.28-.28-.28-.4 0-.827.16-1.28.48-.427.2933-.853.68-1.28 1.16-.427.4533-.827.96-1.2 1.52s-.693 1.08-.96 1.56c-.187.8267-.427 1.64-.72 2.44s-.44 1.6533-.44 2.56c0 .3733.027.8267.08 1.36.053.5333.133 1.0533.24 1.56.133.48.28.8933.44 1.24.187.3467.413.52.68.52.107 0 .387-.1333.84-.4.48-.2933 1-.64 1.56-1.04s1.093-.8 1.6-1.2c.533-.4267.92-.76 1.16-1 .347-.4.787-.8533 1.32-1.36.56-.5067 1.12-.9867 1.68-1.44.587-.4533 1.16-.8267 1.72-1.12.56-.32 1.027-.48 1.4-.48.187 0 .347.0267.48.08s.2.1733.2.36c0 .2133-.107.4267-.32.64-.187.1867-.413.3867-.68.6-.267.1867-.533.4-.8.64-.24.2133-.413.44-.52.68-.053 0-.267.1867-.64.56-.347.3733-.747.7867-1.2 1.24-.453.4533-.893.8933-1.32 1.32-.4.4267-.68.72-.84.88-.16.1867-.48.5067-.96.96-.453.4533-.973.92-1.56 1.4-.587.4533-1.187.8667-1.8 1.24-.613.3467-1.16.52-1.64.52-.8 0-1.44-.1467-1.92-.44-.453-.2933-.813-.6533-1.08-1.08-.267-.4267-.48-.8933-.64-1.4-.16-.5067-.347-.9867-.56-1.44-.133-.2933-.2-.6267-.2-1 0-.3733-.013-.72-.04-1.04Zm25.426.76c-.106.0267-.213.04-.32.04-.08 0-.12.04-.12.12 0 .1333.014.2533.04.36.027.08.04.1733.04.28 0 .0533-.066.24-.2.56-.106.2933-.253.6133-.44.96-.16.3467-.346.6667-.56.96-.186.2667-.36.4-.52.4-.053 0-.12-.0133-.2-.04-.053-.0533-.12-.1067-.2-.16-.186 0-.373.16-.56.48-.16.2933-.373.6267-.64 1-.24.3467-.546.6667-.92.96-.373.2933-.84.44-1.4.44-.24 0-.48-.0533-.72-.16-.213-.08-.44-.12-.68-.12h-.16c-.026.0267-.066.04-.12.04-.16 0-.266-.0667-.32-.2-.026-.1333-.066-.28-.12-.44-.026-.16-.093-.3067-.2-.44-.08-.1333-.226-.2-.44-.2-.106 0-.213.0133-.32.04h-.24c-.213 0-.346-.1067-.4-.32a7.5766 7.5766 0 0 1-.12-.68c-.133-.4533-.346-1-.64-1.64a5.7545 5.7545 0 0 1-.44-2c0-.08.04-.12.12-.12.107 0 .174.08.2.24.027.16.08.24.16.24.16 0 .254-.1333.28-.4a4.02 4.02 0 0 0 .08-.8c0-.2933-.053-.48-.16-.56a.8723.8723 0 0 0-.36-.16 4.8911 4.8911 0 0 1-.36-.16c-.106-.0533-.16-.1867-.16-.4 0-.1067.027-.28.08-.52.054-.24.107-.48.16-.72.054-.24.107-.4533.16-.64.054-.2133.08-.3467.08-.4 0-.6933.08-1.3733.24-2.04.187-.6667.347-1.36.48-2.08.08-.4267.227-.8133.44-1.16.214-.3467.32-.6667.32-.96 0-.1333.027-.32.08-.56.054-.24.12-.4933.2-.76.08-.2667.174-.5333.28-.8.107-.2667.2-.4933.28-.68.187-.5333.4-.8667.64-1 .267-.1333.56-.2.88-.2.187 0 .427.0133.72.04.294.0267.56.0933.8.2.267.08.494.2267.68.44.187.2133.28.5067.28.88 0 .48-.053.96-.16 1.44-.08.4533-.173.9067-.28 1.36-.106.4533-.213.88-.32 1.28-.08.4-.12.76-.12 1.08 0 .2133.014.36.04.44 0 .3467-.066.6933-.2 1.04-.106.32-.16.6267-.16.92s.2.5067.6.64c.4.1067.827.2 1.28.28.48.08.92.1733 1.32.28.4.1067.6.2933.6.56 0 .08-.053.1733-.16.28-.08.1067-.12.1867-.12.24 0 0 .027.04.08.12.054.08.12.1867.2.32.08.1067.174.2133.28.32.107.08.2.12.28.12.16 0 .24-.0933.24-.28 0-.1867.027-.3867.08-.6.16.2667.267.48.32.64.054.16.107.3067.16.44.054.1333.12.28.2.44.107.16.267.3733.48.64 0 .2133-.04.3733-.12.48-.08.1067-.146.2267-.2.36Zm-5.96-1.6a.2559.2559 0 0 1-.12.12c-.026.0267-.04.0667-.04.12 0 .4.014.8267.04 1.28.027.4533.094.88.2 1.28.107.3733.267.6933.48.96.214.24.494.36.84.36.187 0 .44-.1333.76-.4.347-.2667.52-.56.52-.88 0-.0533-.013-.08-.04-.08v-.12c-.16-.2933-.306-.6-.44-.92-.133-.32-.293-.6-.48-.84-.186-.2667-.426-.48-.72-.64-.266-.16-.6-.24-1-.24Zm5.92 1.6c.107.0533.2.1333.28.24.107.08.16.1867.16.32 0 .08-.08.12-.24.12-.08 0-.146-.0533-.2-.16-.026-.1067-.04-.1867-.04-.24 0-.08.027-.1733.08-.28h-.04ZM1.4158 43.12c.08-.72.2533-1.32.52-1.8.2666-.5067.4-1.04.4-1.6 0-.48.1067-.9467.32-1.4.24-.4533.36-.8133.36-1.08 0-.1333-.0534-.28-.16-.44-.08-.16-.12-.2667-.12-.32 0-.08.08-.1867.24-.32.2666-.2667.4266-.52.48-.76.0533-.24.08-.5467.08-.92 0-.1333-.0133-.2667-.04-.4a2.0347 2.0347 0 0 1-.04-.4c0-.4533.0933-.8.28-1.04.1867-.24.28-.5333.28-.88 0-.1867.0267-.32.08-.4.0533-.1067.1067-.1867.16-.24l.16-.16c.0533-.0533.08-.1333.08-.24 0-.1333-.0133-.2533-.04-.36a1.3148 1.3148 0 0 1-.04-.32c0-.0267.0667-.2.2-.52.16-.3467.32-.7333.48-1.16.16-.4267.3067-.8533.44-1.28.16-.4267.24-.7467.24-.96a.355.355 0 0 0-.04-.16c-.0267-.08-.04-.1467-.04-.2 0-.5333.12-.9067.36-1.12.24-.24.36-.48.36-.72 0-.08-.0133-.1733-.04-.28v-.28c.0533-.32.1867-.56.4-.72.2133-.1867.32-.36.32-.52 0-.3733.0533-.72.16-1.04.1333-.3467.2933-.72.48-1.12.1867-.4267.4-.9067.64-1.44s.4933-1.1867.76-1.96c.24-.72.5466-1.2933.92-1.72.4-.4267.8266-.9467 1.28-1.56.1866 0 .4-.0533.64-.16.2666-.1067.5733-.2267.92-.36.3466-.1333.7466-.2533 1.2-.36.48-.1067 1.04-.16 1.68-.16.5333 0 1.0266.1733 1.48.52.4533.3467.84.8 1.16 1.36.32.5333.5733 1.1467.76 1.84.1866.6667.28 1.3467.28 2.04 0 .5067-.08.9867-.24 1.44-.16.4533-.24.9333-.24 1.44v.48c.0266.16.04.3333.04.52 0 .3467-.0534.7067-.16 1.08-.08.3467-.1734.6933-.28 1.04-.1067.32-.2134.6267-.32.92-.08.2667-.12.48-.12.64 0 .3733-.0534.6933-.16.96-.08.24-.1867.4933-.32.76-.16.32-.2934.68-.4 1.08-.08.3733-.1734.76-.28 1.16-.1067.4-.2534.8-.44 1.2-.1867.3733-.4534.72-.8 1.04-.16.16-.28.3467-.36.56-.08.1867-.16.4-.24.64-.0534.24-.1334.5067-.24.8-.1067.2667-.28.56-.52.88-.1067.1067-.1867.28-.24.52 0 .2133-.08.48-.24.8-.1334.2933-.3067.6133-.52.96-.1867.32-.3867.6533-.6 1-.1867.3467-.36.6533-.52.92-.3467.64-.68 1.1867-1 1.64-.2934.4533-.56.84-.8 1.16-.24.32-.4534.6-.64.84-.16.24-.2667.48-.32.72 0 .1067-.12.2667-.36.48s-.52.44-.84.68c-.2934.2133-.6.4133-.92.6-.2934.16-.4933.2533-.6.28-.1067.0267-.2934.0667-.56.12-.24.0533-.5067.1333-.8.24-.2667.1067-.5067.24-.72.4-.2134.1333-.32.3067-.32.52 0 .08.0133.1733.04.28.0267.08.04.16.04.24 0 .16-.0534.36-.16.6-.1067.24-.16.48-.16.72 0 .2933.0133.6.04.92.0267.32.0533.6533.08 1 0 .24-.0667.44-.2.6-.1067.16-.16.3067-.16.44 0 .1067.0133.2133.04.32.0267.08.0533.1733.08.28 0 .1067-.0133.2133-.04.32a.755.755 0 0 0-.04.24c0 .16.04.2667.12.32.08.0267.1867.04.32.04h.56c.2133-.0267.4266-.04.64-.04.4 0 .7466.1067 1.04.32.2933.2133.6.32.92.32.64 0 1.12.1733 1.44.52.3467.3467.72.7467 1.12 1.2.2933.32.6133.68.96 1.08.3466.4.52.9333.52 1.6 0 .16-.0534.2667-.16.32-.08.0267-.12.0667-.12.12 0 .08.0666.2.2.36.16.16.24.2933.24.4 0 .16-.0667.32-.2.48-.1334.1333-.2.2933-.2.48 0 .1333-.0534.4933-.16 1.08-.1067.5867-.3467 1.2-.72 1.84-.3734.6667-.92 1.2667-1.64 1.8-.72.5333-1.6933.8-2.92.8-.7734 0-1.4667-.24-2.08-.72-.6134-.48-1.0534-1.0267-1.32-1.64a1.6878 1.6878 0 0 0-.32-.44 6.2873 6.2873 0 0 0-.44-.32c-.1334-.08-.2533-.1867-.36-.32-.08-.1067-.12-.2533-.12-.44 0-.2933.1066-.5067.32-.64.2133-.1333.32-.3467.32-.64v-.2c0-.1067-.0133-.2133-.04-.32-.0267-.1333-.08-.24-.16-.32-.0534-.1067-.1334-.16-.24-.16-.1334 0-.2667.0533-.4.16-.1334.08-.2267.12-.28.12-.1067 0-.16-.0533-.16-.16 0-.24.1333-.56.4-.96.2667-.4.4-.7867.4-1.16 0-.1333-.0534-.2533-.16-.36-.1067-.1333-.16-.2667-.16-.4 0-.1067.0133-.2.04-.28.0267-.1067.04-.2133.04-.32 0-.24-.1067-.4-.32-.48-.1867-.1067-.28-.2933-.28-.56 0-.2667.0266-.5467.08-.84.08-.32.12-.6267.12-.92 0-.2133-.04-.44-.12-.68-.0534-.2667-.08-.52-.08-.76 0-.3467.08-.68.24-1 .1867-.32.28-.6667.28-1.04 0-.32-.0267-.5733-.08-.76-.0267-.2133-.1734-.48-.44-.8l.04.04c.24-.08.3867-.1867.44-.32.08-.16.12-.3333.12-.52 0-.1333-.0133-.2533-.04-.36v-.4c0-.2667.08-.5067.24-.72.16-.1867.24-.48.24-.88 0-.4267.0267-.8.08-1.12 0-.16-.04-.2933-.12-.4a4.7804 4.7804 0 0 1-.16-.36Zm2.44-.6c.0533-.16.08-.2533.08-.28s-.0133-.0533-.04-.08l-.04.08c0 .0533.0267.1333.08.24-.0267-.0267-.0667-.04-.12-.04h.04c0-.0267.0133-.04.04-.04 0 .0267-.0133.0533-.04.08v.04Zm.76 19c0-.08.0267-.1733.08-.28v-.12c0-.0533-.0267-.08-.08-.08 0 .0267-.0133.0533-.04.08v.28c.0267.0267.04.0667.04.12 0-.0533.0267-.08.08-.08 0 .0267.0133.04.04.04l.04.04c0 .0267-.0133.0533-.04.08v.04h-.04c-.0534 0-.08-.04-.08-.12Zm12.76-42.76c-.1067-.4533-.1734-.8133-.2-1.08 0-.2933-.0534-.6133-.16-.96a910.986 910.986 0 0 1-.24-.6c-.08-.2933-.2267-.5733-.44-.84-.1867-.2933-.4267-.5467-.72-.76-.2934-.2133-.6534-.32-1.08-.32-.2134 0-.4534.1467-.72.44-.24.2667-.48.6133-.72 1.04-.24.4-.4667.8267-.68 1.28-.2134.4267-.36.8-.44 1.12-.0534.16-.1334.3867-.24.68a12.2434 12.2434 0 0 1-.36.88c-.1067.2667-.2267.5067-.36.72-.1067.2133-.2.3467-.28.4-.2134.2133-.4.48-.56.8-.1334.32-.2667.68-.4 1.08-.1067.3733-.2134.76-.32 1.16-.1067.4-.2134.76-.32 1.08-.2134.6933-.5334 1.5467-.96 2.56-.4 1.0133-.8934 2.3867-1.48 4.12v.16c.0267.0267.04.0667.04.12 0 .6667-.12 1.28-.36 1.84-.2134.5333-.32.9867-.32 1.36 0 .6667-.0667 1.32-.2 1.96-.1334.64-.2934 1.28-.48 1.92-.16.6133-.3067 1.24-.44 1.88-.1334.64-.2 1.28-.2 1.92 0 .16.0133.3467.04.56.0267.2133.16.32.4.32.24 0 .52-.1067.84-.32.3467-.2133.68-.4667 1-.76.3467-.2933.6533-.6.92-.92.2667-.3467.4666-.6267.6-.84a12.25 12.25 0 0 1 1.12-1.76c.4533-.56.84-1.16 1.16-1.8.08-.24.2-.4533.36-.64l.48-.64c.16-.2133.3066-.4267.44-.64.16-.2133.28-.4533.36-.72.1333-.16.28-.3733.44-.64a8.891 8.891 0 0 0 .52-.84c.16-.32.2933-.6267.4-.92.1066-.2933.1733-.56.2-.8l.2-.2c.16-.1333.32-.3333.48-.6.1866-.2667.3466-.5733.48-.92.16-.3467.24-.72.24-1.12 0-.08.08-.16.24-.24.16-.1067.24-.1867.24-.24.08-.3467.1333-.6533.16-.92.0266-.2667.0533-.52.08-.76.0533-.2667.12-.5333.2-.8.08-.2667.2266-.5733.44-.92.0533-.1333.1466-.4267.28-.88.16-.4533.24-.9333.24-1.44 0-.1867-.0267-.3733-.08-.56a3.95 3.95 0 0 1-.04-.56c0-.1867.0533-.3467.16-.48.1066-.16.16-.36.16-.6l-.08-.72c0-.24-.0134-.4533-.04-.64ZM7.8158 61c0-.4-.08-.8267-.24-1.28a5.1592 5.1592 0 0 0-.6-1.36c-.2667-.4533-.5867-.8533-.96-1.2-.3733-.3733-.7733-.6667-1.2-.88-.0534 0-.12.0133-.2.04-.08 0-.12.04-.12.12.08.4267.1733.9867.28 1.68.1067.6933.2533 1.3733.44 2.04.2133.6667.4667 1.24.76 1.72.32.48.72.72 1.2.72.3467 0 .5333-.1733.56-.52a7.101 7.101 0 0 0 .08-1.08Zm-3.92-1.56c-.0534-.0267-.0934-.0533-.12-.08-.0267-.0533-.0667-.08-.12-.08l-.08.08c0 .08.0267.1467.08.2.0533.0267.1066.0667.16.12.0267-.0533.04-.0933.04-.12s.0133-.0667.04-.12Zm-.76 3.96c0-.24-.0534-.36-.16-.36-.08 0-.12.08-.12.24 0 .08.0667.1467.2.2l.08-.08Zm-1.96-11.84c0 .0533-.0133.0933-.04.12v.28c.0267.0533.0667.08.12.08s.08-.0267.08-.08v-.24c0-.1067-.0534-.16-.16-.16Zm1.36 10.24c-.0267.0267-.04.0533-.04.08v.04c.0267.0533.0533.08.08.08l.04-.04.04-.08c0-.0533-.04-.08-.12-.08Zm15.04-35.6c0-.0267-.0267-.0667-.08-.12-.08.08-.12.1467-.12.2 0 .0267.0133.0533.04.08l.08.08c.08-.0267.12-.0667.12-.12s-.0134-.0933-.04-.12Zm30.2734 27.16a21.7397 21.7397 0 0 1-.76 2.08 33.2855 33.2855 0 0 0-.8 2.08c-.1333.3733-.2533.7867-.36 1.24a96.6062 96.6062 0 0 1-.32 1.32c-.08.4-.1733.7867-.28 1.16-.08.3733-.2.6667-.36.88 0 .0533-.1333.4533-.4 1.2-.2666.7467-.4 1.72-.4 2.92 0 .48-.0933.8667-.28 1.16-.1866.2933-.4.6533-.64 1.08-.1866.32-.4666.5067-.84.56-.3733.0533-.72.08-1.04.08-.32 0-.5733-.04-.76-.12a1.4157 1.4157 0 0 1-.44-.24 4.3937 4.3937 0 0 1-.32-.36c-.1066-.1333-.2666-.2667-.48-.4-.24-.1333-.3733-.3333-.4-.6-.0266-.24-.1066-.4133-.24-.52-.2933-.2933-.4533-.6133-.48-.96 0-.32-.0133-.6667-.04-1.04 0-.2133.0134-.4267.04-.64.0267-.1867.04-.3867.04-.6 0-.2667-.1066-.48-.32-.64-.2133-.16-.32-.3867-.32-.68 0-.9867.0134-1.9867.04-3 .0534-1.04.12-2.0667.2-3.08.0267-.48.0534-1 .08-1.56.0267-.5867.0534-1.1467.08-1.68.0534-.56.12-1.0667.2-1.52.1067-.48.2667-.8533.48-1.12.1067-.1067.16-.2533.16-.44 0-.1333-.0133-.2667-.04-.4-.0266-.16-.04-.32-.04-.48 0-.2133.0134-.4267.04-.64.0534-.2133.08-.4267.08-.64 0-.1067-.0133-.2-.04-.28a1.3183 1.3183 0 0 1-.04-.32c0-.24.1067-.4133.32-.52.2134-.1333.32-.28.32-.44l-.16-.64-.16-.64c-.4533.0533-.76.1467-.92.28-.16.1333-.28.28-.36.44a2.795 2.795 0 0 1-.2.4c-.0533.1067-.2.1733-.44.2-.1866.0533-.32.2267-.4.52-.08.2933-.24.4933-.48.6-.1866.1067-.32.2133-.4.32l-.28.28c-.08.1067-.2.24-.36.4-.1333.1333-.36.2933-.68.48-.1333.1867-.2133.4-.24.64 0 .2133-.0133.4267-.04.64-.0266.1867-.0933.3733-.2.56-.1066.16-.2933.2667-.56.32-.32.2133-.48.3867-.48.52 0 .1333-.0533.32-.16.56-.1333.32-.36.6667-.68 1.04-.2933.3467-.4666.7333-.52 1.16-.0266.1067-.08.2133-.16.32l-.16.32c-.2933.56-.56 1.12-.8 1.68-.2133.56-.48 1.0667-.8 1.52a3.7371 3.7371 0 0 1-1.12 1.12c-.4533.2667-1.04.4-1.76.4s-1.36-.32-1.92-.96c-.5333-.64-.8-1.64-.8-3 0-.6667.08-1.32.24-1.96.16-.6667.2934-1.32.4-1.96.0534-.32.16-.6.32-.84.1867-.2667.3067-.5867.36-.96.0534-.2933.1334-.56.24-.8.1067-.24.2267-.4933.36-.76.16-.2667.3334-.56.52-.88.1867-.32.4-.7067.64-1.16l.8-1.12c.2934-.4.52-.8267.68-1.28.08-.24.24-.4533.48-.64.2667-.2133.5467-.3733.84-.48.32-.1333.6267-.2267.92-.28.32-.08.6-.12.84-.12.8 0 1.6134.2267 2.44.68.2934.16.5467.4267.76.8.2134.3467.4134.52.6.52.16-.0267.3334-.1333.52-.32l.64-.64c.24-.2667.4934-.5067.76-.72.2934-.24.5867-.4133.88-.52.2667-.08.56-.2667.88-.56.3467-.2933.68-.44 1-.44.5867 0 1.1334.16 1.64.48.5067.32.76.7867.76 1.4a63.153 63.153 0 0 0-.12 2.24c-.0266.7467-.2 1.48-.52 2.2-.1333.3733-.2266.8267-.28 1.36l-.08 1.6c0 .5067-.0266.9733-.08 1.4-.0533.4267-.16.7333-.32.92-.16.24-.2933.5867-.4 1.04-.08.4267-.1466.9067-.2 1.44a644.1486 644.1486 0 0 0-.08 1.56v1.6c.0267.0533.04.12.04.2 0 .2933-.04.5733-.12.84-.0533.2667-.08.5467-.08.84 0 .6667.0534 1.32.16 1.96.1067.64.16 1.1467.16 1.52a.3546.3546 0 0 1-.04.16v.2l.04.24c.0534.16.1067.3333.16.52.0534.1867.1067.36.16.52.08.16.1467.24.2.24.1334 0 .28-.2.44-.6.1867-.4.36-.7333.52-1 .2667-.4267.44-1.0133.52-1.76.1067-.72.2667-1.3867.48-2 .08-.2667.16-.5733.24-.92.1067-.3467.2-.68.28-1 .1067-.3467.2134-.6533.32-.92.1334-.2933.2667-.5067.4-.64.1067-.0533.1867-.2133.24-.48.0534-.2933.1067-.6133.16-.96l.24-1.04c.1067-.3733.2534-.68.44-.92.3734-.4533.68-.96.92-1.52.2667-.56.6534-1.0667 1.16-1.52.08 0 .16.04.24.12.0534.0533.1067.1467.16.28.0534.1333.08.32.08.56 0 .2133-.0266.48-.08.8-.0533.32-.1466.7067-.28 1.16Zm-13.16-7.96c-.2933-.24-.6266-.36-1-.36-.32 0-.6266.0933-.92.28-.64.4533-1.2133 1-1.72 1.64-.5066.64-.96 1.3333-1.36 2.08-.4.7467-.76 1.52-1.08 2.32-.2933.8-.5333 1.5733-.72 2.32-.0266.0267-.04.08-.04.16 0 .0533.0134.12.04.2.0267.0533.0667.08.12.08.08 0 .2267-.12.44-.36.24-.24.48-.52.72-.84.2667-.3467.52-.6933.76-1.04s.4267-.6267.56-.84c.2934-.4533.6-.88.92-1.28.32-.4.6667-.7733 1.04-1.12.32-.2933.5867-.6267.8-1 .2134-.3733.5067-.6667.88-.88-.0266 0 .04-.1467.2-.44s.2934-.5467.4-.76c0-.0267-.0133-.04-.04-.04v-.12ZM72.8808 56c-.0267.0533-.0934.2133-.2.48-.08.24-.1734.5067-.28.8-.08.2667-.1734.52-.28.76-.08.24-.1334.3867-.16.44-.1067.3467-.24.6267-.4.84a8.0846 8.0846 0 0 1-.44.56c-.1334.1867-.2534.4-.36.64-.08.24-.12.56-.12.96 0 .5333-.1067 1.08-.32 1.64-.2134.5867-.36 1.1467-.44 1.68-.1067.2133-.24.4533-.4.72-.16.2933-.36.56-.6.8-.24.2667-.5467.4933-.92.68-.3467.1867-.7734.28-1.28.28-.2934 0-.5734-.0667-.84-.2a2.7535 2.7535 0 0 1-.72-.52c-.2134-.1867-.3867-.4-.52-.64-.1334-.24-.2-.48-.2-.72 0-.0533.04-.2267.12-.52a48.3927 48.3927 0 0 1-.6-1.08c-.1867-.3467-.28-.6933-.28-1.04 0-.16.0133-.3333.04-.52.0533-.16.0933-.3733.12-.64.0533-.2933.0933-.6533.12-1.08.0533-.4533.08-1.0267.08-1.72 0-.4.1066-.7733.32-1.12.2133-.3467.32-.68.32-1 0-.2133-.04-.4133-.12-.6a2.0275 2.0275 0 0 1-.08-.56c.1066-.1067.2133-.2.32-.28a3.01 3.01 0 0 0 .32-.28c-.1867-.3733-.28-.6933-.28-.96 0-.4267.0533-.8667.16-1.32.1333-.4533.2666-.88.4-1.28.1333-.4.2533-.7467.36-1.04.1333-.32.2-.5733.2-.76 0-.1333-.0134-.2533-.04-.36a2.0325 2.0325 0 0 1-.04-.4c0-.2133.0133-.4267.04-.64.0533-.2133.08-.4267.08-.64 0-.1067-.0134-.2-.04-.28a1.3134 1.3134 0 0 1-.04-.32v-.24c.0266-.08.04-.16.04-.24 0-.1333-.0267-.2533-.08-.36-.0534-.1333-.08-.2667-.08-.4 0-.24.0666-.4667.2-.68l-.08-.08.08.08h-.2a.3549.3549 0 0 0-.16-.04c-.1334 0-.28.0533-.44.16-.16.08-.3067.16-.44.24-.08.4533-.2267.7467-.44.88-.2134.1067-.4667.2533-.76.44-.08.3733-.1734.72-.28 1.04-.1067.32-.2667.6267-.48.92-.3734.4533-.72 1.08-1.04 1.88-.32.7733-.7734 1.52-1.36 2.24-.1867.2133-.32.5333-.4.96-.0534.4267-.16.8-.32 1.12-.32.6133-.56 1.1867-.72 1.72-.16.5067-.32.9467-.48 1.32-.16.3733-.3467.6667-.56.88-.1867.1867-.48.28-.88.28-.5867-.08-1.12-.2933-1.6-.64-.4-.2933-.7734-.7467-1.12-1.36-.32-.64-.48-1.5333-.48-2.68v-.64c0-.2667-.0267-.5067-.08-.72-.0267-.24-.1067-.36-.24-.36-.1334 0-.28.0267-.44.08-.32.72-.6934 1.48-1.12 2.28-.4.8-.9067 1.64-1.52 2.52-.1867.2933-.36.5733-.52.84-.16.2667-.3334.5067-.52.72-.16.1867-.3734.3467-.64.48-.24.1333-.5467.2-.92.2-.2934 0-.5867-.1067-.88-.32-.2667-.24-.52-.5333-.76-.88-.2134-.3733-.4-.8-.56-1.28-.1334-.48-.2-.9733-.2-1.48 0-.16.0133-.32.04-.48.0266-.16.04-.3333.04-.52 0-.2667-.0134-.52-.04-.76a6.88 6.88 0 0 1-.04-.76c0-.3467.0133-.68.04-1 .0533-.3467.1066-.68.16-1 0-.24.1066-.5867.32-1.04.24-.4533.36-.9467.36-1.48 0-.1333-.0267-.2533-.08-.36-.0534-.1067-.08-.2267-.08-.36.08-.5333.2-1.0667.36-1.6.08-.2667.1333-.56.16-.88.0533-.3467.1066-.6667.16-.96.0533-.32.1333-.5867.24-.8.1333-.2133.32-.32.56-.32.16 0 .4.0533.72.16.32.08.64.2.96.36.32.16.5866.3467.8.56.24.2133.36.44.36.68 0 .0533-.0267.1333-.08.24-.2134.4533-.36.9067-.44 1.36-.08.4267-.12.88-.12 1.36 0 .3467-.0534.6933-.16 1.04-.08.32-.1867.6667-.32 1.04a55.252 55.252 0 0 0-.32 1.08c-.08.3467-.12.72-.12 1.12 0 .2933.0266.6.08.92.08.32.12.6267.12.92 0 .1067-.0267.2133-.08.32-.0534.1067-.08.2133-.08.32 0 .24.1066.36.32.36.1333-.0533.24-.12.32-.2.1066-.08.1866-.1733.24-.28.3733-.5867.7733-1.2 1.2-1.84.4533-.64.92-1.2267 1.4-1.76.5066-.56 1.0266-1.0133 1.56-1.36.56-.3467 1.1333-.52 1.72-.52.2933 0 .5466.1067.76.32.24.1867.36.4267.36.72 0 .6133-.0267 1.2-.08 1.76-.0267.56-.04 1.1333-.04 1.72 0 .0267.0266.0667.08.12.1066 0 .24-.08.4-.24.16-.16.3066-.3467.44-.56.16-.2133.2933-.44.4-.68.1066-.24.1866-.44.24-.6.0533-.2133.2-.4267.44-.64.2666-.2133.48-.4667.64-.76.16-.2933.28-.5067.36-.64.08-.16.1866-.3467.32-.56l.64-.96c.2933-.4.72-1 1.28-1.8.1333-.1867.2666-.32.4-.4.1333-.1067.2533-.1867.36-.24.1066-.08.2-.1733.28-.28.1066-.1067.1866-.2667.24-.48.08-.2933.24-.52.48-.68.2666-.1867.4666-.4133.6-.68.0533-.1067.1733-.2933.36-.56.1866-.2933.44-.5867.76-.88.3466-.32.7466-.6 1.2-.84.4533-.24.9866-.36 1.6-.36.2933 0 .6133.1067.96.32.3733.2133.56.4933.56.84a.3559.3559 0 0 1-.04.16v.12c0 .1867.0266.36.08.52.08.16.12.3333.12.52 0 .6133-.08 1.32-.24 2.12-.16.7733-.24 1.5067-.24 2.2 0 .2933-.1067.5467-.32.76-.1867.1867-.28.36-.28.52 0 .1867.08.3333.24.44.16.1067.24.2133.24.32 0 .2667-.08.4667-.24.6-.1334.1067-.2.2667-.2.48v.28c.0266.08.04.16.04.24 0 .2933-.04.5733-.12.84-.0534.24-.0934.5067-.12.8-.0534.1867-.1467.3467-.28.48-.1067.1333-.16.2933-.16.48v.08c.0266 0 .04.0133.04.04 0 .2933-.0934.5867-.28.88-.1867.2667-.28.5867-.28.96 0 .64-.0267 1.2667-.08 1.88-.0534.5867-.08 1.2133-.08 1.88 0 .3733.0266.7333.08 1.08.08.32.2666.48.56.48.1333 0 .3066-.1467.52-.44.24-.2933.48-.6533.72-1.08.2666-.4267.52-.88.76-1.36.24-.5067.4533-.9733.64-1.4.2133-.4267.3733-.7733.48-1.04.1333-.2667.2-.3867.2-.36 0-.0533.0133-.1467.04-.28.0266-.16.0666-.32.12-.48.0533-.16.1066-.2933.16-.4.08-.1333.1466-.2.2-.2.0266 0 .08.0933.16.28.1067.16.2.36.28.6.1066.2133.2.4133.28.6.08.16.1333.24.16.24Zm-9.6-17.2c-.9867.08-1.9334.2267-2.84.44-.88.2133-1.7067.5067-2.48.88-.6667.32-1.2934.5733-1.88.76-.5867.1867-1.2267.28-1.92.28-.6667 0-1.32-.12-1.96-.36-.6134-.24-1.16-.5733-1.64-1-.48-.4267-.8667-.9067-1.16-1.44-.2934-.56-.44-1.16-.44-1.8 0-.1333.0266-.2533.08-.36.0533-.1067.1466-.16.28-.16.3466 0 .6533.0933.92.28.2933.1867.5733.4.84.64.2933.2133.5733.4133.84.6.2666.1867.56.28.88.28.1866 0 .3333-.0133.44-.04.6666-.16 1.32-.32 1.96-.48a23.3249 23.3249 0 0 1 1.96-.48 25.0798 25.0798 0 0 1 2.04-.4c.6933-.1067 1.44-.16 2.24-.16.0266 0 .24.0133.64.04.4266 0 .8933.0533 1.4.16.5066.08.96.2267 1.36.44.4266.1867.64.4667.64.84 0 .0267-.04.1067-.12.24-.0534.1067-.1467.24-.28.4-.1334.1333-.32.2533-.56.36-.24.1067-.5334.16-.88.16a.5847.5847 0 0 1-.36-.12Zm5.04 16.84c-.0534-.1067-.08-.1867-.08-.24h.04c.0266-.0267.0533-.04.08-.04-.0267.0533-.04.1467-.04.28Zm0 0c-.0267-.0533-.0667-.08-.12-.08l-.04.04h.12l.04.04Zm-2.36-10.8-.08-.08.08.08Zm21.129 1c-.08-.0267-.1733-.04-.28-.04-.1066 0-.1733.0667-.2.2v.44c0 .16-.0133.3067-.04.44 0 .1333-.04.2-.12.2-.1066 0-.1733-.0933-.2-.28-.0266-.1867-.04-.3467-.04-.48-.1866.1067-.28.2267-.28.36 0 .08.0134.16.04.24.0267.08.04.16.04.24 0 .2133-.08.4-.24.56-.1333.1333-.2.3067-.2.52 0 .08.0134.16.04.24.0267.08.04.16.04.24 0 .24-.1066.4667-.32.68-.3466.3467-.5733.72-.68 1.12-.1066.3733-.3066.7067-.6 1-.0533.0533-.16.3867-.32 1a56.9966 56.9966 0 0 1-.4 1.72c0 .0533-.0933.2133-.28.48-.16.2667-.36.5467-.6.84-.2133.2933-.44.56-.68.8-.24.24-.44.36-.6.36-.0533 0-.1333-.0133-.24-.04-.08-.0533-.16-.08-.24-.08a.3549.3549 0 0 0-.16.04h-.16c-.5333 0-1.0133-.16-1.44-.48-.4266-.3467-.8-.76-1.12-1.24a8.9722 8.9722 0 0 1-.8-1.6c-.1866-.5867-.3333-1.1333-.44-1.64-.08-.4-.1466-.8933-.2-1.48-.0533-.6133-.12-1.1867-.2-1.72-.0533-.5333-.12-.9867-.2-1.36-.08-.4-.1866-.6-.32-.6-.16 0-.3466.24-.56.72-.1866.4533-.3866 1.0267-.6 1.72-.1866.6667-.3733 1.3867-.56 2.16-.16.7467-.2933 1.4133-.4 2-.1333.6133-.2533 1.3733-.36 2.28-.1066.88-.24 1.7333-.4 2.56-.16.8267-.3466 1.5467-.56 2.16-.1866.5867-.4266.88-.72.88-.08 0-.2-.0133-.36-.04a5.8579 5.8579 0 0 1-.44-.2 2.4699 2.4699 0 0 1-.44-.28c-.1066-.1333-.16-.28-.16-.44 0-.4533.0134-.9467.04-1.48.0534-.5333.12-1.0533.2-1.56.08-.5333.1734-1.04.28-1.52.1067-.48.2267-.88.36-1.2.1334-.2933.1867-.6267.16-1 0-.4.0667-.6933.2-.88.24-.4267.36-.88.36-1.36.0267-.48.16-.9333.4-1.36.0534-.08.08-.1733.08-.28 0-.1067.0134-.2133.04-.32.08-.5333.2667-1.08.56-1.64.2934-.56.5067-1.1333.64-1.72.08-.4.2534-.8.52-1.2.2667-.4.44-.8267.52-1.28.0534-.2667.1467-.56.28-.88.1334-.32.3067-.6133.52-.88.24-.2933.5067-.5333.8-.72.32-.2133.68-.32 1.08-.32.6667 0 1.1867.0933 1.56.28.3734.16.6534.3867.84.68.2134.2933.3467.6533.4 1.08.0534.4267.08.8933.08 1.4 0 .2933-.04.6-.12.92a4.913 4.913 0 0 0-.08.88 2.04 2.04 0 0 0 .04.4c.0267.1333.04.2667.04.4 0 .2133-.0533.44-.16.68-.08.24-.12.4667-.12.68 0 .5333.0667 1 .2 1.4.1334.4.2.7867.2 1.16 0 .16-.04.32-.12.48-.08.16-.12.3067-.12.44 0 .1333.08.28.24.44.1867.1333.3467.24.48.32.6134-.6133 1.16-1.3067 1.64-2.08a91.9507 91.9507 0 0 0 1.4-2.2c.4534-.6933.8934-1.2933 1.32-1.8.4267-.5333.88-.8533 1.36-.96 0-.64.1067-1.0667.32-1.28.2134-.24.48-.52.8-.84.2134-.2133.4267-.4533.64-.72.2134-.2667.44-.52.68-.76.24-.24.4934-.44.76-.6.2667-.16.5734-.24.92-.24.64 0 1.2.2267 1.68.68.5067.4533.76 1.1733.76 2.16 0 .4267-.08.8933-.24 1.4a20.5488 20.5488 0 0 1-.48 1.56c-.16.5067-.32 1-.48 1.48-.1333.48-.2.92-.2 1.32v.4a2.04 2.04 0 0 0 .04.4c0 .24-.08.4133-.24.52-.16.1067-.24.2267-.24.36 0 .4267-.0933.7867-.28 1.08-.16.2933-.24.7067-.24 1.24 0 .2667.0134.52.04.76.0534.24.08.48.08.72 0 .3733-.0933.8-.28 1.28-.1866.4533-.28.9067-.28 1.36 0 .4.0267.8.08 1.2.0534.4.08.8.08 1.2 0 .3733-.0133.8133-.04 1.32 0 .48-.04.9467-.12 1.4-.0533.4533-.16.8267-.32 1.12-.16.32-.3866.48-.68.48-.2666 0-.56-.1733-.88-.52-.32-.3467-.5066-.7067-.56-1.08 0-.4-.04-.76-.12-1.08-.08-.3467-.1733-.6667-.28-.96-.08-.32-.16-.6267-.24-.92a3.3317 3.3317 0 0 1-.12-.88c0-.32.0667-.6267.2-.92.1334-.32.2-.6667.2-1.04v-1.16c0-.4.0667-.8.2-1.2.2134-.6667.3067-1.3467.28-2.04 0-.72.0667-1.4267.2-2.12.1334-.6933.2134-1.4.24-2.12.0534-.72.08-1.3867.08-2 0-.2933-.04-.4933-.12-.6-.08-.1067-.24-.16-.48-.16-.1333 0-.2933.2-.48.6Zm28.9372.28c.266.2133.4.4533.4.72s-.147.5067-.44.72c-.267.2133-.654.32-1.16.32h-.36a8.0172 8.0172 0 0 0-.36-.08c-1.494.4533-2.867 1.0533-4.12 1.8-.427.2667-.654.6133-.68 1.04-.027.4-.054.76-.08 1.08-.054.4533-.16.84-.32 1.16-.16.32-.24.7067-.24 1.16 0 .32-.12.5733-.36.76-.214.1867-.32.4533-.32.8v.2c.026.0533.04.1067.04.16 0 .3733-.08.6933-.24.96-.134.24-.32.5333-.56.88-.054.1867-.227.5067-.52.96-.267.4267-.587.8667-.96 1.32-.374.4533-.774.8533-1.2 1.2-.4.3467-.76.52-1.08.52-.16 0-.4.12-.72.36-.294.24-.6.44-.92.6-.614-.1333-1.187-.2933-1.72-.48-.5069-.1867-.9736-.48-1.4003-.88-.32-.3733-.6266-.8-.92-1.28-.2933-.5067-.5466-1.0133-.76-1.52a20.64 20.64 0 0 1-.48-1.56c-.1066-.5067-.16-.9733-.16-1.4 0-.48.0534-.9333.16-1.36.1067-.4533.16-.8933.16-1.32 0-.16.04-.3733.12-.64l.32-.8c.1067-.2933.2-.5867.28-.88.1067-.2933.16-.5467.16-.76 0-.1867-.0666-.4267-.2-.72-.1066-.2933-.24-.6133-.4-.96l-.4-1.04c-.1066-.3467-.16-.68-.16-1 0-1.04.0934-1.8533.28-2.44.2134-.5867.5067-1.0267.88-1.32.4-.32.8534-.52 1.36-.6.5334-.08 1.1203-.12 1.7603-.12h1.84c.24 0 .653.1067 1.24.32.586.1867 1.213.48 1.88.88.666.4 1.28.9067 1.84 1.52.56.6133.933 1.3333 1.12 2.16.053.2667.146.5467.28.84.16.2933.386.44.68.44.106 0 .186-.0133.24-.04 1.04-.3733 2.053-.7333 3.04-1.08.986-.3467 2.04-.5467 3.16-.6Zm-8.88 5.88a5.1406 5.1406 0 0 1-.12-.64c0-.24-.107-.36-.32-.36-.107 0-.267.0267-.48.08-.667.24-1.334.48-2 .72-.667.24-1.374.36-2.12.36-.32 0-.56.24-.72.72-.16.4533-.28.9733-.36 1.56-.08.56-.134 1.1067-.16 1.64v1c0 .5333.133 1.0667.4 1.6.266.5067.626.76 1.08.76.506 0 .986-.2533 1.44-.76.48-.5333.906-1.12 1.28-1.76.4-.64.733-1.24 1-1.8.293-.56.506-.8933.64-1 .16-.2667.253-.6133.28-1.04.053-.4267.106-.7867.16-1.08Zm-8.4403-5.96c.0267.16.0534.4133.08.76.0534.3467.1867.52.4.52.1067 0 .2-.04.28-.12.08-.1067.16-.2.24-.28.08-.1067.16-.2.24-.28.1063-.1067.2263-.16.3603-.16l.48.12c.346.08.72.2 1.12.36.4.16.773.36 1.12.6.346.2133.52.4533.52.72 0 .16-.08.3867-.24.68-.16.2667-.28.4933-.36.68 0 .1867.053.3067.16.36.133.0533.226.08.28.08.266 0 .586-.0267.96-.08.4-.08.773-.1867 1.12-.32.373-.1333.693-.2933.96-.48.266-.2133.4-.4533.4-.72 0-.5333-.174-1.12-.52-1.76-.32-.64-.747-1.2267-1.28-1.76-.534-.56-1.12-1.0133-1.76-1.36-.64-.3733-1.254-.56-1.84-.56-.854 0-1.5203.32-2.0003.96-.48.64-.72 1.32-.72 2.04Zm14.5363 9.68c0-.8.093-1.5733.28-2.32.213-.7467.32-1.5067.32-2.28 0-.2133.053-.4933.16-.84.107-.3733.24-.76.4-1.16.16-.4267.333-.8533.52-1.28.213-.4267.413-.8133.6-1.16.213-.3733.453-.6933.72-.96a2.934 2.934 0 0 0 .6-1c.08-.2667.227-.4533.44-.56.213-.1067.347-.3067.4-.6.027-.1333.093-.2267.2-.28a2.286 2.286 0 0 1 .4-.12c.133-.0267.253-.0533.36-.08.133-.0267.227-.1067.28-.24.08-.1867.213-.36.4-.52a3.407 3.407 0 0 1 .6-.48c.213-.16.427-.28.64-.36.213-.08.373-.12.48-.12.773.1333 1.48.3067 2.12.52.533.1867 1.027.4133 1.48.68.453.2667.68.6.68 1 0 .2667-.04.64-.12 1.12-.053.4533-.147.9067-.28 1.36-.133.4267-.307.8133-.52 1.16-.213.32-.467.48-.76.48s-.547-.16-.76-.48c-.187-.32-.28-.6267-.28-.92 0-.24.013-.4667.04-.68.027-.24.053-.4667.08-.68 0-.1867-.093-.28-.28-.28-.4 0-.827.16-1.28.48-.427.2933-.853.68-1.28 1.16-.427.4533-.827.96-1.2 1.52s-.693 1.08-.96 1.56c-.187.8267-.427 1.64-.72 2.44s-.44 1.6533-.44 2.56c0 .3733.027.8267.08 1.36.053.5333.133 1.0533.24 1.56.133.48.28.8933.44 1.24.187.3467.413.52.68.52.107 0 .387-.1333.84-.4.48-.2933 1-.64 1.56-1.04s1.093-.8 1.6-1.2c.533-.4267.92-.76 1.16-1 .347-.4.787-.8533 1.32-1.36.56-.5067 1.12-.9867 1.68-1.44.587-.4533 1.16-.8267 1.72-1.12.56-.32 1.027-.48 1.4-.48.187 0 .347.0267.48.08s.2.1733.2.36c0 .2133-.107.4267-.32.64-.187.1867-.413.3867-.68.6-.267.1867-.533.4-.8.64-.24.2133-.413.44-.52.68-.053 0-.267.1867-.64.56-.347.3733-.747.7867-1.2 1.24-.453.4533-.893.8933-1.32 1.32-.4.4267-.68.72-.84.88-.16.1867-.48.5067-.96.96-.453.4533-.973.92-1.56 1.4-.587.4533-1.187.8667-1.8 1.24-.613.3467-1.16.52-1.64.52-.8 0-1.44-.1467-1.92-.44-.453-.2933-.813-.6533-1.08-1.08-.267-.4267-.48-.8933-.64-1.4-.16-.5067-.347-.9867-.56-1.44-.133-.2933-.2-.6267-.2-1 0-.3733-.013-.72-.04-1.04Zm38.786-8.4c.054.3467.08.6667.08.96.027.2933.04.6267.04 1v1.08c0 .3733-.026.76-.08 1.16-.053.3733-.16.7333-.32 1.08-.133.32-.333.5867-.6.8-.133.08-.213.1867-.24.32 0 .1067-.04.2267-.12.36-.053.1333-.173.2533-.36.36-.16.08-.44.12-.84.12-.106.5067-.2.88-.28 1.12-.08.2133-.186.4-.32.56-.133.16-.333.3467-.6.56-.24.1867-.573.4933-1 .92-.026.0533-.16.16-.4.32-.24.16-.533.3467-.88.56-.32.1867-.666.36-1.04.52-.346.1333-.64.2-.88.2-.32 0-.68-.0533-1.08-.16-.373-.1333-.76-.2-1.16-.2-.266 0-.493.0267-.68.08-.16.0533-.333.1867-.52.4v-.24c-.133 0-.226.0267-.28.08-.026.0533-.066.1067-.12.16h.12c-.08.08-.133.2133-.16.4-.026.16-.053.3333-.08.52 0 .16-.026.3067-.08.44-.053.1067-.146.16-.28.16.107.3733.2.7733.28 1.2.08.4267.12.7867.12 1.08v.36c-.026.0267-.053.48-.08 1.36a422.218 422.218 0 0 0-.08 3.32c-.026 1.3067-.053 2.72-.08 4.24 0 1.5467-.013 2.9733-.04 4.28-.026 1.3067-.053 2.4-.08 3.28 0 .9067-.013 1.3733-.04 1.4l-1.16 2c-.026 0-.066.0267-.12.08-.026.0267-.053.04-.08.04-.4-.4-.6-.8533-.6-1.36.027-.5067.04-.9733.04-1.4 0-.0267-.013-.3467-.04-.96v-2.36c0-.96-.013-2.0667-.04-3.32-.026-1.2267-.053-2.4933-.08-3.8 0-1.28-.013-2.5467-.04-3.8a476.492 476.492 0 0 0-.08-3.28c0-.96-.013-1.7333-.04-2.32 0-.5867-.013-.8667-.04-.84-.106 0-.2.0533-.28.16-.053.08-.08.16-.08.24-.133-.2667-.2-.6-.2-1 0-.1867.014-.36.04-.52.027-.16.04-.32.04-.48 0-.0533-.013-.0933-.04-.12-.026-.0267-.04-.0533-.04-.08 0-.1067.04-.1867.12-.24.107-.08.214-.1467.32-.2.134-.0533.24-.12.32-.2.107-.1067.16-.24.16-.4 0-.2133-.066-.4133-.2-.6-.133-.2133-.2-.4133-.2-.6 0-.1067.027-.1733.08-.2.054-.0267.12-.0533.2-.08.107-.0267.214-.0667.32-.12.134-.08.254-.2267.36-.44-.133-.08-.266-.1867-.4-.32-.133-.1333-.266-.2667-.4-.4-.133-.1333-.253-.24-.36-.32-.08-.1067-.133-.16-.16-.16-.106 0-.333.1733-.68.52-.32.3467-.533.6933-.64 1.04 0 .24-.04.44-.12.6-.08.1333-.186.28-.32.44-.106.1333-.213.2933-.32.48-.106.1867-.2.44-.28.76-.373.8267-.826 1.56-1.36 2.2-.533.6133-1.24 1.0133-2.12 1.2-.213 0-.4-.0267-.56-.08-.16-.0533-.346-.08-.56-.08h-.28c-.186 0-.48-.12-.88-.36-.4-.2667-.72-.56-.96-.88a2.831 2.831 0 0 1-.36-.76c-.08-.2667-.146-.52-.2-.76-.053-.24-.146-.4267-.28-.56-.106-.16-.28-.24-.52-.24h-.12c-.026 0-.066-.08-.12-.24-.026-.16-.053-.36-.08-.6-.026-.24-.053-.4933-.08-.76v-.76c0-.5333.08-.9733.24-1.32.16-.3733.24-.84.24-1.4 0-.48.067-.9333.2-1.36.16-.4267.32-.8133.48-1.16.187-.3467.347-.6533.48-.92.16-.2667.24-.48.24-.64v-.24c0-.2933.067-.5333.2-.72.16-.1867.334-.3467.52-.48.187-.1333.347-.2533.48-.36.16-.1067.24-.2267.24-.36a1.057 1.057 0 0 0-.08-.4c-.053-.16-.08-.2667-.08-.32 0-.24.067-.4.2-.48.16-.08.32-.12.48-.12.027 0 .08.0267.16.08.107 0 .2-.0133.28-.04.107-.0533.227-.08.36-.08 0-.1333-.026-.2267-.08-.28-.053-.0533-.08-.1467-.08-.28 0-.1333.054-.2533.16-.36.134-.1333.374-.2.72-.2.134.1067.334.16.6.16h.28c.107-.0267.227-.04.36-.04.774 0 1.48.1067 2.12.32.667.2133 1.307.48 1.92.8.054 0 .12.0267.2.08.107.0533.2.08.28.08.16 0 .294-.1333.4-.4.134-.2933.24-.6267.32-1 .08-.4.147-.8.2-1.2.054-.4.08-.72.08-.96 0-.1333-.04-.28-.12-.44-.053-.16-.08-.3333-.08-.52v-.52c.027-.1867.054-.3867.08-.6.054-.1867.094-.4533.12-.8.027-.3733.094-.72.2-1.04.134-.3467.334-.64.6-.88.267-.2667.667-.4 1.2-.4.347 0 .68.0133 1 .04.32 0 .587.12.8.36.24.2133.427.6.56 1.16.134.5333.2 1.3333.2 2.4-.08.56-.16 1.1067-.24 1.64-.053.5333-.133 1.1067-.24 1.72 0 .08.014.2267.04.44.054.1867.147.28.28.28.027 0 .08-.0267.16-.08.027 0 .147-.0533.36-.16.24-.1067.52-.2267.84-.36.32-.16.654-.2933 1-.4.374-.1067.694-.16.96-.16.454 0 .88.0267 1.28.08.427.0533.947.2267 1.56.52.107.0533.294.0933.56.12.267.0267.534.12.8.28.267.16.494.4133.68.76.214.32.32.8.32 1.44 0 .2933.107.4667.32.52.214.0267.32.12.32.28Zm-21.04-2.4h.12l-.12-.16v.16Zm-.92 10.92c.08.24.134.52.16.84.054.2933.107.5867.16.88.08.2933.16.5467.24.76.107.1867.24.28.4.28.16 0 .36-.1733.6-.52.267-.3467.52-.76.76-1.24.267-.48.52-.9733.76-1.48.24-.5333.44-.9733.6-1.32.347-.3467.627-.7867.84-1.32.24-.5333.547-.92.92-1.16.08-.16.227-.3733.44-.64.214-.2933.414-.5867.6-.88.214-.2933.4-.56.56-.8.16-.2667.24-.4533.24-.56-.16-.1867-.386-.4133-.68-.68a6.237 6.237 0 0 0-.88-.8c-.32-.2667-.626-.48-.92-.64-.266-.1867-.48-.28-.64-.28-.426 0-.813.2-1.16.6-.346.4-.693.7733-1.04 1.12-.053.1333-.2.3333-.44.6-.24.24-.506.5467-.8.92-.266.3733-.506.8133-.72 1.32-.213.48-.32 1-.32 1.56v.24c.027.08.067.1467.12.2l.2 3Zm7.88 2.72-.12.12c0 .0533.014.08.04.08l.08-.04v-.16Zm.56 3.28c.134 0 .2-.0533.2-.16 0-.1333-.066-.2-.2-.2-.106 0-.16.0667-.16.2 0 .0267.027.0533.08.08.054 0 .08.0267.08.08Zm1-2.52c.08 0 .16-.04.24-.12l-.12-.12c-.026 0-.053.0133-.08.04-.026 0-.04.0667-.04.2Zm9.6-7.52c.054-.1333.08-.24.08-.32.027-.1067.04-.1733.04-.2-.133-.32-.226-.8-.28-1.44a7.4588 7.4588 0 0 0-.32-1.88c-.186-.64-.493-1.2-.92-1.68-.426-.48-1.066-.72-1.92-.72-.053 0-.106.0133-.16.04h-.16c-.08 0-.186-.0133-.32-.04a1.3073 1.3073 0 0 0-.32-.04c-.16 0-.373.0667-.64.2-.266.1067-.533.2533-.8.44-.24.16-.453.3467-.64.56-.186.1867-.293.3467-.32.48-.026.1067-.12.32-.28.64-.133.2933-.28.68-.44 1.16-.16.4533-.306 1-.44 1.64-.133.6133-.2 1.2933-.2 2.04v.36c.027.1067.04.2267.04.36v.8c0 .4.054.8267.16 1.28.134.4267.36.8133.68 1.16.347.3467.84.52 1.48.52.134 0 .227-.0533.28-.16.08-.1333.187-.2.32-.2.267 0 .44.08.52.24.107.1333.254.2.44.2-.026 0 .12-.0933.44-.28.32-.1867.6-.36.84-.52.187-.1333.307-.3067.36-.52.054-.2133.174-.3733.36-.48.08-.08.134-.1867.16-.32.027-.1333.094-.3333.2-.6.134-.2667.32-.6133.56-1.04.267-.4533.667-1.0133 1.2-1.68Zm2.04-2c-.08.1867-.133.3467-.16.48v.28c0 .0533.054.12.16.2v-.96Zm5.393-1.88c.213-.3733.4-.7467.56-1.12.187-.3733.347-.76.48-1.16.08-.32.253-.64.52-.96.293-.32.587-.6.88-.84.293-.2667.547-.4667.76-.6.24-.16.36-.2267.36-.2.213-.2933.467-.44.76-.44.32 0 .627-.0267.92-.08.453 0 .907.1333 1.36.4.453.2667.947.4133 1.48.44.16.1067.36.2267.6.36.267.1333.52.3067.76.52.24.2133.44.4667.6.76.187.2933.28.64.28 1.04 0 .3733-.107.7867-.32 1.24-.187.4267-.453.8667-.8 1.32-.32.4267-.693.84-1.12 1.24-.4.4-.813.7467-1.24 1.04-.24.16-.467.3467-.68.56-.213.2133-.427.4267-.64.64-.213.1867-.44.36-.68.52-.24.1333-.533.2133-.88.24-.693.08-1.133.3733-1.32.88-.16.48-.24 1.3867-.24 2.72 0 .6933.08 1.32.24 1.88.16.5333.52.8 1.08.8.107 0 .373-.1067.8-.32.427-.24.893-.52 1.4-.84.507-.3467 1-.7067 1.48-1.08.48-.4.84-.7467 1.08-1.04.24-.08.453-.2.64-.36a9.95 9.95 0 0 1 .56-.52c.187-.1867.373-.3333.56-.44.187-.1333.387-.2.6-.2.187 0 .347.0667.48.2.16.1333.24.28.24.44 0 .1067-.08.2933-.24.56-.16.24-.36.4933-.6.76s-.493.5067-.76.72c-.24.2133-.44.3467-.6.4-.267.08-.467.2267-.6.44-.133.2133-.333.36-.6.44-.08.0533-.213.2267-.4.52-.16.2933-.373.5333-.64.72-.133.1067-.28.2667-.44.48-.16.2133-.347.4267-.56.64-.187.2133-.427.4-.72.56-.267.16-.6.24-1 .24-.187 0-.387-.0133-.6-.04a2.6316 2.6316 0 0 0-.64-.08.754.754 0 0 0-.24.04h-.24c-.24 0-.493-.0533-.76-.16s-.52-.24-.76-.4c-.24-.1867-.44-.3733-.6-.56-.16-.2133-.24-.4133-.24-.6 0-.1067-.04-.1867-.12-.24-.053-.0533-.12-.0933-.2-.12-.053-.0533-.12-.1067-.2-.16-.053-.0533-.08-.16-.08-.32 0-.2933-.12-.5733-.36-.84-.24-.2933-.36-.6267-.36-1 0-.08.067-.3467.2-.8.16-.4533.24-.8667.24-1.24 0-.1867-.107-.4533-.32-.8-.187-.3467-.28-.6-.28-.76 0-.2933.013-.5867.04-.88.053-.2933.08-.5867.08-.88 0-.08-.013-.16-.04-.24v-.24c.16-.3733.347-.76.56-1.16.213-.4.32-.7867.32-1.16 0-.0533-.013-.0933-.04-.12v-.12c0-.1333.04-.24.12-.32.107-.1067.16-.2.16-.28l-.04-.04Zm2.92 2.72s.213-.12.64-.36c.427-.2667.893-.5733 1.4-.92.507-.3733.96-.7467 1.36-1.12.427-.4.64-.76.64-1.08 0-.0267-.013-.12-.04-.28a4.3051 4.3051 0 0 0-.12-.56c-.027-.2133-.08-.3867-.16-.52-.08-.16-.173-.24-.28-.24-.187 0-.4.1067-.64.32-.213.1867-.44.4267-.68.72-.24.2667-.467.5333-.68.8-.187.2667-.36.4667-.52.6 0 0-.053.0933-.16.28-.107.16-.227.3733-.36.64-.133.24-.267.4933-.4.76-.107.2667-.16.4667-.16.6 0 .08.053.2.16.36Zm-2.84-2.68c-.053 0-.08-.0133-.08-.04l.08.04Zm15.774 1.4h.24c.08-.0267.147-.04.2-.04.187 0 .374-.1333.56-.4.187-.2667.387-.5733.6-.92.24-.3733.494-.7333.76-1.08.267-.3467.56-.6.88-.76.187-.24.467-.5467.84-.92.374-.4.8-.7867 1.28-1.16.507-.4 1.067-.7333 1.68-1 .64-.2667 1.307-.4 2-.4.267 0 .52.04.76.12.24.0533.48.12.72.2.214.0533.347.1733.4.36.054.16.187.24.4.24.187.0533.36.1733.52.36.16.1867.294.4.4.64.134.2133.227.44.28.68.08.2133.12.3733.12.48 0 .56-.08 1.2267-.24 2-.133.7467-.346 1.4267-.64 2.04a9.667 9.667 0 0 1-.84 1.44c-.293.4267-.546.9067-.76 1.44-.133.4-.36.7467-.68 1.04-.293.2933-.586.6133-.88.96-.133.1333-.253.3067-.36.52a6.275 6.275 0 0 1-.36.56c-.133.1867-.28.36-.44.52-.16.1333-.346.2133-.56.24-.213 0-.346.0533-.4.16-.053.1067-.08.2267-.08.36 0 .1867-.213.4-.64.64-.426.2133-.92.4267-1.48.64-.56.1867-1.12.3467-1.68.48-.533.1333-.933.2-1.2.2-.186 0-.373-.04-.56-.12-.16-.1067-.333-.16-.52-.16-.186 0-.346.1467-.48.44-.133.2667-.253.6-.36 1-.08.4-.146.8-.2 1.2-.026.4-.04.72-.04.96 0 .2133.014.4267.04.64.054.24.08.4667.08.68 0 .2133-.013.4133-.04.6v.6c0 .24.067.4267.2.56.16.1333.267.2933.32.48.08.2133.134.44.16.68.027.24.04.48.04.72 0 .2667.014.4933.04.68.08.3467.174.64.28.88.107.24.16.5067.16.8v.52c0 .1867-.053.36-.16.52-.08.16-.226.2933-.44.4-.213.1067-.533.16-.96.16-.24 0-.466-.12-.68-.36-.213-.2133-.4-.5067-.56-.88-.16-.3733-.293-.8133-.4-1.32-.08-.48-.12-.9867-.12-1.52 0-.2133.04-.44.12-.68.107-.24.16-.44.16-.6-.186-.3467-.333-.68-.44-1a7.9052 7.9052 0 0 1-.28-.84c-.08-.2667-.12-.4667-.12-.6 0-.1333.04-.2667.12-.4.08-.1333.12-.2667.12-.4 0-.1333-.026-.2533-.08-.36-.053-.1067-.08-.2267-.08-.36 0-.08.014-.16.04-.24.054-.1067.08-.2133.08-.32 0-.1333-.013-.24-.04-.32-.026-.1067-.04-.2267-.04-.36 0-.08.027-.2.08-.36 0-.2133-.053-.4267-.16-.64-.106-.2133-.16-.4267-.16-.64 0-.3733.067-.7867.2-1.24.16-.48.24-.84.24-1.08 0-.0533-.013-.0933-.04-.12-.026-.0533-.04-.1067-.04-.16 0-.1067.027-.1867.08-.24.08-.08.12-.1733.12-.28 0-.16-.08-.3067-.24-.44-.133-.16-.2-.2933-.2-.4 0-.08.08-.1867.24-.32.16-.1333.24-.2667.24-.4 0-.1067-.04-.2533-.12-.44-.08-.1867-.12-.3733-.12-.56 0-.32.04-.5733.12-.76.08-.1867.174-.3333.28-.44.107-.1067.2-.1867.28-.24.08-.08.12-.1733.12-.28 0-.1333-.053-.24-.16-.32-.106-.08-.2-.2533-.28-.52.107-.24.214-.5067.32-.8.134-.32.2-.6133.2-.88 0-.2667-.093-.5333-.28-.8-.186-.2667-.28-.6-.28-1 0-.1867.08-.44.24-.76.187-.3467.28-.72.28-1.12 0-.2933-.04-.5867-.12-.88-.053-.32-.08-.6267-.08-.92s.094-.5733.28-.84c.214-.2667.32-.5733.32-.92 0-.1867-.013-.36-.04-.52-.026-.1867-.04-.36-.04-.52 0-.2133.014-.4533.04-.72.027-.2667.08-.52.16-.76s.187-.44.32-.6c.134-.1867.307-.28.52-.28.187 0 .427.04.72.12.32.08.614.2133.88.4.267.16.494.3867.68.68.214.2667.32.6.32 1 0 .2667-.066.5733-.2.92-.106.3467-.24.7067-.4 1.08-.16.3467-.306.6933-.44 1.04-.106.3467-.16.6533-.16.92 0 .6133-.08 1.16-.24 1.64-.16.4533-.266.9467-.32 1.48 0 .1333.04.2533.12.36.08.1067.12.2133.12.32 0 .1067-.053.2-.16.28-.08.08-.12.1867-.12.32 0 .0533.054.16.16.32-.24.1067-.413.2267-.52.36-.106.1067-.2.24-.28.4-.053.16-.106.3467-.16.56-.026.1867-.106.4133-.24.68l.08.08c.134 0 .24-.0533.32-.16.08-.1067.147-.2267.2-.36.054-.16.094-.3067.12-.44.027-.1333.04-.24.04-.32 0-.2133-.053-.4133-.16-.6.107-.0533.2-.08.28-.08.107-.0267.2-.0667.28-.12Zm4.04-1.48c0 .2933-.04.52-.12.68-.08.1333-.173.2667-.28.4-.08.1067-.173.2267-.28.36-.106.1067-.186.2667-.24.48-.106.3467-.266.6533-.48.92-.213.2667-.426.5467-.64.84-.08.1067-.2.3333-.36.68-.133.32-.28.6933-.44 1.12-.133.4-.253.8133-.36 1.24-.106.4267-.16.7867-.16 1.08 0 .1867.014.4267.04.72.054.2667.187.4.4.4.054 0 .32-.04.8-.12.507-.1067 1.067-.2667 1.68-.48.614-.2133 1.214-.5067 1.8-.88.587-.4 1-.9067 1.24-1.52.214-.2667.414-.5333.6-.8.16-.2133.334-.4267.52-.64.187-.2133.347-.3867.48-.52.107-.08.24-.3733.4-.88.187-.5333.36-1.1333.52-1.8.187-.6667.334-1.3333.44-2 .134-.6933.2-1.24.2-1.64 0-.32-.08-.52-.24-.6-.16-.08-.36-.12-.6-.12-.453 0-.893.1467-1.32.44-.426.2933-.853.6267-1.28 1-.4.3733-.8.7333-1.2 1.08-.373.32-.746.5067-1.12.56Zm-5.76 4.08c-.106.0533-.16.16-.16.32 0 .08.014.1333.04.16.027.0267.04.0667.04.12.027-.0533.054-.0933.08-.12.027-.0267.054-.0667.08-.12 0-.08-.026-.2-.08-.36Zm.52 12.44.12.04-.08-.16-.04.12Zm-.56-2.04c.054-.16.08-.2533.08-.28l-.08-.08c-.053.1067-.08.2-.08.28l.08.08Zm27.876 8.92c-.24.24-.413.5067-.52.8l-.24.96c-.053.3467-.12.68-.2 1-.08.3467-.227.6667-.44.96 0 .4533-.133.9467-.4 1.48-.24.56-.573 1.0667-1 1.52-.4.48-.88.8667-1.44 1.16-.533.32-1.093.48-1.68.48-.48 0-.853-.0533-1.12-.16-.267-.1067-.507-.24-.72-.4-.187-.1333-.36-.28-.52-.44-.133-.16-.32-.3067-.56-.44-.507-.2933-.813-.72-.92-1.28-.08-.5333-.12-1.1067-.12-1.72 0-.56.04-1.2933.12-2.2.107-.88.48-1.88 1.12-3 .133-.2133.267-.6.4-1.16.16-.5333.32-.9867.48-1.36.16-.3733.387-.8667.68-1.48.32-.5867.747-1.3067 1.28-2.16.107-.1333.213-.2667.32-.4.133-.1333.253-.28.36-.44.133-.1867.267-.4267.4-.72.133-.2667.267-.52.4-.76.133-.2667.28-.4933.44-.68.16-.2133.32-.3467.48-.4.347-.2133.6-.4667.76-.76.16-.32.4-.6133.72-.88.533-.4533.947-1.0667 1.24-1.84.293-.7733.507-1.5333.64-2.28.053-.3733.2-.6933.44-.96.267-.2933.4-.5867.4-.88v-.16c0-.0533-.027-.08-.08-.08-.053 0-.147.0533-.28.16-.107.08-.2.12-.28.12-.107 0-.16-.0533-.16-.16 0-.4267.04-.7733.12-1.04.08-.2667.173-.4933.28-.68.107-.2133.2-.4.28-.56.08-.1867.12-.4.12-.64 0-.1867-.013-.4267-.04-.72 0-.32-.027-.6267-.08-.92-.027-.2933-.093-.5333-.2-.72-.107-.2133-.24-.32-.4-.32-.16 0-.293.0533-.4.16-.107.08-.2.1867-.28.32-.08.1067-.147.2133-.2.32-.053.08-.12.12-.2.12a5.655 5.655 0 0 0-.6.52c-.16.16-.307.3333-.44.52-.133.1867-.227.3733-.28.56 0-.0267-.067.04-.2.2-.107.16-.253.3467-.44.56-.187.1867-.387.3867-.6.6-.187.2133-.36.36-.52.44-.027.0267-.093.12-.2.28-.107.1333-.227.3067-.36.52-.107.2133-.213.44-.32.68-.107.24-.173.4533-.2.64-.053.3467-.267.68-.64 1-.373.2933-.72.5867-1.04.88-.853-.08-1.56-.3067-2.12-.68-.533-.3733-.96-.84-1.28-1.4-.32-.56-.547-1.1733-.68-1.84-.107-.6933-.16-1.3733-.16-2.04v-.6c.027-.2133.053-.4267.08-.64 0-.0267.013-.2133.04-.56.027-.3733.067-.8267.12-1.36.08-.5333.173-1.1067.28-1.72.107-.6133.24-1.1733.4-1.68.16-.5333.347-.9733.56-1.32.24-.3467.507-.52.8-.52.4 0 .747.0933 1.04.28.293.16.547.36.76.6.213.24.373.4933.48.76.107.2667.16.5067.16.72 0 .9333-.12 1.8933-.36 2.88-.24.9867-.36 1.9333-.36 2.84 0 .3467.093.52.28.52.133 0 .32-.08.56-.24.267-.1867.533-.3867.8-.6.267-.24.52-.48.76-.72s.427-.4267.56-.56c.293-.3467.6-.6267.92-.84.347-.24.72-.4533 1.12-.64.16-.08.267-.16.32-.24.053-.1067.093-.2.12-.28.027-.1067.053-.2.08-.28.027-.08.107-.1467.24-.2.133-.0533.227-.12.28-.2.08-.1067.133-.2133.16-.32.053-.1333.107-.2667.16-.4.08-.1333.187-.2533.32-.36.107-.08.253-.2133.44-.4.213-.2133.44-.4133.68-.6.24-.2133.507-.3867.8-.52.293-.16.6-.24.92-.24.24 0 .507.0533.8.16.32.08.613.2.88.36.267.16.493.3467.68.56.187.1867.28.3733.28.56 0 .3467-.013.6933-.04 1.04-.027.3467-.053.6933-.08 1.04-.107.3733-.187.8-.24 1.28-.053.4533-.107.92-.16 1.4a10.375 10.375 0 0 1-.24 1.32c-.08.4267-.2.8-.36 1.12-.16.2933-.267.64-.32 1.04-.027.4-.04.7867-.04 1.16 0 .2667.12.4.36.4.213 0 .547-.1333 1-.4.453-.2933.88-.5467 1.28-.76.267-.24.48-.4267.64-.56.16-.1333.307-.24.44-.32.133-.08.28-.1467.44-.2.16-.08.36-.16.6-.24.213-.08.427-.16.64-.24.213-.08.387-.2267.52-.44.027-.0267.16-.0933.4-.2.24-.1333.52-.2533.84-.36.32-.1333.627-.2533.92-.36.32-.1067.547-.16.68-.16.107 0 .28.0267.52.08.24.0267.48.0933.72.2.24.08.453.2.64.36.187.16.28.36.28.6 0 .1867-.053.36-.16.52-.107.16-.253.2533-.44.28-.32 0-.573.0267-.76.08-.187.0267-.36.08-.52.16-.16.08-.333.1867-.52.32-.16.1067-.373.2267-.64.36-.8.4267-1.613.8667-2.44 1.32-.8.4533-1.56.9467-2.28 1.48-.613.3467-1.107.68-1.48 1-.347.32-.733.6267-1.16.92-.32.2133-.6.44-.84.68-.24.2133-.467.48-.68.8-.213.2933-.427.6667-.64 1.12-.213.4533-.44 1-.68 1.64-.053.1333-.173.2267-.36.28-.187.0533-.28.1867-.28.4 0 .0533.013.1333.04.24.027.1067.067.1733.12.2.053 0 .12-.0267.2-.08.08-.0267.133-.0533.16-.08.107.3467.16.7333.16 1.16 0 .16-.013.32-.04.48 0 .16-.013.32-.04.48-.027.2133-.12.36-.28.44-.16.08-.333.1467-.52.2-.16.08-.32.1733-.48.28-.133.1067-.2.28-.2.52 0 .08.013.16.04.24.027.08.04.16.04.24.107-.08.173-.1733.2-.28.027-.1067.053-.2133.08-.32.027-.08.067-.16.12-.24.08-.08.213-.12.4-.12.133 0 .24.04.32.12.08.1067.12.2267.12.36 0 .2133-.027.4-.08.56-.053.16-.093.3333-.12.52 0 .0533-.093.1333-.28.24-.187.1333-.28.32-.28.56v.16c.027.0533.04.12.04.2 0 .0533-.013.0933-.04.12v.16c0 .16.04.32.12.48.08.1867.12.36.12.52 0 0-.027.1067-.08.32-.027.24-.08.48-.16.72-.053.2667-.12.5067-.2.72-.08.24-.173.36-.28.36-.053 0-.093-.0133-.12-.04h-.08c-.08 0-.16.04-.24.12l-.04.08c.053-.08.147-.1333.28-.16.133 0 .253-.0133.36-.04Zm-.2-1.92c-.267.0267-.44.0667-.52.12-.053.08-.08.24-.08.48 0 .0267.027.0667.08.12.213 0 .333-.1067.36-.32.053-.1867.133-.3333.24-.44 0-.0533-.013-.08-.04-.08-.053 0-.08.0133-.08.04v.04c.027 0 .04.0133.04.04Zm-6.96 5.88c0 .3733.067.68.2.92.133.2667.387.4.76.4.293 0 .533-.1067.72-.32.187-.2133.413-.3733.68-.48.267-.1067.507-.28.72-.52.213-.2133.413-.4667.6-.76.187-.2667.36-.5467.52-.84.187-.2933.387-.56.6-.8-.053-.1067-.12-.2-.2-.28-.08-.0533-.12-.1333-.12-.24 0-.1867.027-.3467.08-.48l.24-.4c.107-.1067.187-.2267.24-.36.08-.1067.12-.2533.12-.44 0-.08-.013-.16-.04-.24v-.2c0-.3733.107-.7467.32-1.12.24-.3733.36-.8267.36-1.36 0-.1067-.013-.2133-.04-.32-.027-.08-.04-.1733-.04-.28 0-.5333.107-1.2267.32-2.08.213-.8267.32-1.6267.32-2.4 0-.0533-.027-.16-.08-.32-.027-.16-.12-.24-.28-.24-.08 0-.227.1333-.44.4-.213.2667-.453.5733-.72.92-.24.3733-.48.7333-.72 1.08-.24.3733-.413.6667-.52.88-.053.1333-.133.2533-.24.36-.24.2667-.493.5733-.76.92-.24.3733-.467.7467-.68 1.12-.213.3733-.4.7467-.56 1.12-.133.3733-.2.72-.2 1.04 0 .1067-.053.24-.16.4-.133.16-.253.44-.36.84-.107.4-.2.84-.28 1.32-.08.48-.147.9733-.2 1.48-.053.5067-.107.9333-.16 1.28Zm6.92-7.68c-.053.0533-.133.1067-.24.16-.08.08-.12.1467-.12.2 0 .0267.027.0533.08.08.08.0533.133.08.16.08.053-.0267.133-.0667.24-.12.107-.0533.16-.1333.16-.24a2.5827 2.5827 0 0 1-.28-.16Zm.16-4c-.053-.0267-.093-.0533-.12-.08 0 0-.027-.0133-.08-.04-.107 0-.16.0533-.16.16 0 .0533.04.08.12.08.053 0 .093-.0133.12-.04.027-.0267.067-.0533.12-.08Zm-1.48 8.4c-.107 0-.16.04-.16.12 0 .0533.027.08.08.08.053 0 .08-.0667.08-.2Zm-1.44 3c-.027-.0267-.04-.0533-.04-.08 0 0-.013-.0133-.04-.04-.053.0533-.08.0933-.08.12 0 .08.027.12.08.12.053 0 .08-.04.08-.12Zm3.88-13.84V61c0-.0533-.027-.08-.08-.08l-.04.04c-.027 0-.04.0133-.04.04 0 .08.053.12.16.12Zm-2.52 9.68c.027-.0267.04-.04.04-.04.027 0 .053-.0133.08-.04-.053-.0533-.08-.08-.08-.08-.027 0-.053.0133-.08.04l.04.12Zm1 .68.04-.08h-.04v.08Z" />
</svg>
