<svg xmlns="http://www.w3.org/2000/svg" fill="none" viewBox="0 0 20 20">
    <path fill="#EE2759" d="M0 0h20v20H0z"/>
    <path fill="#F9F3DE"
          d="M14.37 12.59h.005l-.706-.677.844-.68.852-.69.034-.078V7.568l-.148.268-.362.667-.114.21-.11.016-.523.073-2.066.289L16.5 4.858l-4.856 2.016h-.062l-1.515 1.582-.073.079-.078-.08L8.42 6.891l-.017-.007-.01-.01H8.38L3.5 4.84l2.128 2.036h-.003l.597.573.712-.417-.185.921 1.201 1.15-1.391-.195-.184.916-.26-.607-.421 1.03-.175.427v-1.91l-.153-.021-.174-.024-.047-.089-.572-1.05v2.894l.032.074 1.642 1.327.061.05-.033.032-1.162 1.11-1.612 1.544 2.2-.912 1.986-.916-.648 1.372 2.946 1.007 3.1-1.06-.538-1.319 1.746.928 2.207.92-1.903-1.82-.227-.216zm-3.141-.924q-.162.095-.32.194c0 .002-.005.004-.006.006l-.076.046-.842.303-.713-.257-.155-.096-.026-.016-.348-.214v-.514l.803.254.03.01.408.13.444-.14.01-.003.79-.251v.548"/>
    <path fill="#F9F3DE"
          d="M14.778 8.352a1.14 1.14 0 0 1-.474.62 1.16 1.16 0 0 1-.965.135l-.005-.002a1.15 1.15 0 0 1-.588-.414l.586-.31c.07.181.247.31.456.31a.483.483 0 0 0 .486-.479.5.5 0 0 0-.091-.28l.574-.303c.085.224.099.476.022.723z"/>
</svg>
