<svg xmlns="http://www.w3.org/2000/svg" fill="none" viewBox="0 0 20 20">
    <path fill="#D9272E" d="M0 0h20v20H0z"/>
    <path fill="#fff"
          d="M10 5a5 5 0 1 0-.001 9.999A5 5 0 0 0 10 5m2.595 6.768a.153.153 0 0 1-.155.155h-.654a.153.153 0 0 1-.154-.155V9.756c0-.018-.02-.026-.034-.014l-1.383 1.383a.31.31 0 0 1-.434 0L8.398 9.742c-.012-.012-.033-.002-.033.014v2.01a.153.153 0 0 1-.155.155h-.652a.153.153 0 0 1-.155-.155V8.23c0-.086.069-.155.155-.155h.447a.3.3 0 0 1 .219.092L9.945 9.89c.03.029.076.03.106.002l.002-.002 1.721-1.722a.3.3 0 0 1 .219-.092h.447c.086 0 .155.069.155.155z"/>
</svg>
