<svg xmlns="http://www.w3.org/2000/svg" fill="none" viewBox="0 0 20 20">
    <path fill="#F9F3DE" d="M0 0h20v20H0z"/>
    <path fill="#34A853"
          d="M10 7.69 7.75 3.718a.7.7 0 0 1 .246-.16c-.663.219-.968.964-.968.964l-4.111 7.254a2.1 2.1 0 0 0-.067.613h4.487z"/>
    <path fill="#FBBC05"
          d="m10 7.69 2.663 4.7h4.487a2.1 2.1 0 0 0-.067-.614l-4.11-7.254s-.306-.745-.97-.964a.7.7 0 0 1 .248.16z"/>
    <path fill="#188038"
          d="m10 7.69 2.25-3.972a.7.7 0 0 0-.246-.16 1.2 1.2 0 0 0-.317-.058H8.313q-.17.008-.317.059a.7.7 0 0 0-.246.16z"/>
    <path fill="#4285F4"
          d="m7.338 12.39-2.225 3.926s-.074-.036-.174-.11c.316.242.623.294.623.294h8.737c.482 0 .583-.184.583-.184l.004-.002-2.223-3.925z"/>
    <path fill="#1967D2"
          d="M7.338 12.39H2.851c.023.533.254.844.254.844l.169.293.019.027.367.645.824 1.435q.038.086.082.162l.034.052.01.015c.102.144.216.255.33.343.1.075.174.11.174.11z"/>
    <path fill="#EA4335"
          d="M12.663 12.39h4.487c-.022.533-.254.844-.254.844l-.169.293-.019.027-.367.645-.824 1.435a1 1 0 0 1-.082.162q-.016.027-.034.052l-.01.015a1.6 1.6 0 0 1-.33.343c-.1.075-.174.11-.174.11z"/>
</svg>
