<svg xmlns="http://www.w3.org/2000/svg" viewBox="0 0 20 20"><path d="M16.93 4.16A17.6 17.6 0 0 0 12.86 3a.06.06 0 0 0-.066.03c-.175.287-.37.661-.506.956a16.6 16.6 0 0 0-4.573 0 9 9 0 0 0-.515-.957.07.07 0 0 0-.065-.028 17.5 17.5 0 0 0-4.07 1.16.06.06 0 0 0-.028.02C.444 7.74-.266 11.21.083 14.637a.06.06 0 0 0 .026.043 17.2 17.2 0 0 0 4.994 2.318.07.07 0 0 0 .07-.02q.58-.725 1.022-1.527c.017-.031 0-.068-.035-.08a11.4 11.4 0 0 1-1.56-.684.056.056 0 0 1-.007-.097q.159-.11.31-.223a.07.07 0 0 1 .065-.008c3.273 1.372 6.817 1.372 10.051 0a.07.07 0 0 1 .066.007q.15.115.31.224a.056.056 0 0 1-.005.097q-.747.401-1.561.682c-.036.013-.052.05-.034.082.3.534.643 1.043 1.02 1.526.017.02.045.029.07.021a17.1 17.1 0 0 0 5.003-2.318.06.06 0 0 0 .026-.042c.417-3.962-.699-7.404-2.957-10.455a.05.05 0 0 0-.026-.021M6.684 12.55c-.985 0-1.797-.832-1.797-1.852s.796-1.851 1.797-1.851c1.01 0 1.814.838 1.798 1.851 0 1.02-.796 1.851-1.798 1.851m6.646 0c-.985 0-1.797-.832-1.797-1.852s.796-1.851 1.797-1.851c1.009 0 1.813.838 1.797 1.851 0 1.02-.788 1.851-1.797 1.851"/></svg>