<svg xmlns="http://www.w3.org/2000/svg" viewBox="0 0 20 20"><path fill-rule="evenodd" d="M8.822.5a.47.47 0 0 0-.47.471v1.777a7.6 7.6 0 0 0-2.086.861L5.014 2.354a.47.47 0 0 0-.666 0L2.353 4.347a.47.47 0 0 0 0 .666L3.61 6.266a7.6 7.6 0 0 0-.861 2.085H.97a.47.47 0 0 0-.471.471v2.356c0 .26.21.47.471.47h1.777c.181.735.471 1.438.861 2.086l-1.255 1.252a.47.47 0 0 0 0 .666l1.994 1.995a.47.47 0 0 0 .666 0l1.252-1.256c.648.39 1.351.68 2.085.861v1.777c0 .26.211.471.471.471h2.356c.26 0 .47-.21.47-.471v-1.777a7.6 7.6 0 0 0 2.086-.861l1.252 1.255a.47.47 0 0 0 .666 0l1.995-1.994a.47.47 0 0 0 0-.666l-1.256-1.252c.39-.648.68-1.351.861-2.085h1.777c.26 0 .471-.211.471-.471V8.822a.47.47 0 0 0-.471-.47h-1.777a7.6 7.6 0 0 0-.861-2.086l1.255-1.252a.47.47 0 0 0 0-.666l-1.994-1.995a.47.47 0 0 0-.666 0L13.734 3.61a7.6 7.6 0 0 0-2.085-.861V.97a.47.47 0 0 0-.471-.471zM6.702 10a3.298 3.298 0 1 1 6.596 0 3.298 3.298 0 0 1-6.596 0" clip-rule="evenodd"/></svg>