<svg xmlns="http://www.w3.org/2000/svg" viewBox="0 0 18 18"><path fill-rule="evenodd" d="M9 0A9.005 9.005 0 0 0 .055 10a9.005 9.005 0 0 0 10.318 7.896A9.005 9.005 0 0 0 17.945 8 9.005 9.005 0 0 0 9 0m.228 2.004q.185.309.378.693C10.21 3.907 10.829 5.673 10.97 8H7.03c.142-2.327.76-4.093 1.364-5.303q.194-.384.378-.693a7 7 0 0 1 .456 0m-2.972.554A7.01 7.01 0 0 0 2.07 8h2.956c.121-2.246.639-4.06 1.229-5.442M5.026 10H2.072a7.01 7.01 0 0 0 4.185 5.442c-.59-1.381-1.108-3.196-1.23-5.442m3.746 5.996q-.185-.309-.378-.693C7.79 14.093 7.172 12.327 7.03 10h3.94c-.142 2.327-.76 4.093-1.364 5.303q-.194.383-.378.693a7 7 0 0 1-.456 0m2.972-.554A7.01 7.01 0 0 0 15.93 10h-2.956c-.121 2.246-.639 4.06-1.229 5.442M12.974 8c-.122-2.246-.64-4.06-1.23-5.442A7.01 7.01 0 0 1 15.93 8z" clip-rule="evenodd"/></svg>