<svg xmlns="http://www.w3.org/2000/svg" viewBox="0 0 20 20"><path d="M16.723 14.182h.008l-1.087-1.093 1.3-1.099 1.31-1.113.052-.126V6.073l-.228.433-.556 1.076-.176.34-.168.026-.805.117-1.19.175-1.989.292L20 1.698l-7.47 3.254h-.096l-2.332 2.556-.11.126-.12-.128L7.567 4.98l-.027-.01-.014-.016h-.02L0 1.667l3.274 3.287h-.005l.92.926 1.093-.673-.284 1.487 1.848 1.855-2.14-.315-.283 1.48-.4-.98-.648 1.662-.269.691V8.002L2.87 7.97l-.267-.04-.072-.142-.88-1.695v4.672l.049.119 2.525 2.143.096.08-.052.052-1.124 1.128-.664.665-2.48 2.492 3.384-1.472h.002l3.055-1.48-.997 2.216 4.532 1.626 4.77-1.711-.829-2.13 2.686 1.498L20 17.477l-2.928-2.94-.35-.348zm-4.833-1.493q-.248.154-.49.314c-.002.004-.01.006-.011.01a1 1 0 0 1-.116.074l-1.296.489-1.098-.415-.238-.154q-.016-.014-.039-.026l-.536-.346v-.83l1.235.41.046.017.628.208.683-.225.016-.005 1.215-.405v.884z"/></svg>