<svg width="122" height="145" viewBox="0 0 122 145" fill="none" xmlns="http://www.w3.org/2000/svg">
<g opacity="0.1">
<path d="M39.1427 23.2116C39.7092 22.6985 40.3145 22.15 40.9169 21.603C41.2226 21.6222 41.3605 21.606 41.4818 21.6414C43.1421 22.1294 44.8159 22.2606 46.5166 21.861C46.6006 21.8419 46.6905 21.8433 46.7774 21.8404C47.9971 21.8109 49.2109 21.7033 50.4261 21.5927C51.8976 21.4585 53.3796 21.4231 54.8571 21.3052C56.7616 21.1518 58.6811 21.1607 60.5947 21.1091C61.2435 21.0914 61.9058 21.0236 62.5397 21.1179C63.716 21.2949 64.8922 21.2388 66.0565 21.1489C66.7953 21.0914 67.5295 21.0339 68.2713 21.0206C69.1838 21.0059 70.0994 21.0767 71.0015 20.8186C71.2757 20.7405 71.6038 20.826 71.9065 20.8555C72.2961 20.8938 72.6872 21.0147 73.0693 20.9897C73.9789 20.9307 74.8855 20.9779 75.792 20.9499C76.79 20.9189 77.785 20.7744 78.7515 20.683C79.1905 20.5355 79.4123 20.0519 80.0117 20.0888C80.3938 20.2421 80.8089 20.6402 81.3783 20.4957C81.4337 20.4825 81.4787 20.4323 81.5341 20.397C81.2674 20.2274 80.7879 20.4028 80.7474 19.8942C81.2509 19.6362 81.681 20.0416 82.1935 20.0136C82.5681 19.906 82.9876 19.7983 83.2963 19.4209V18.7058C82.9981 18.5274 82.7404 18.3711 82.5021 18.2296C81.6735 16.705 80.3713 15.5992 79.2909 14.3652C79.2265 14.029 79.1711 13.7371 79.1276 13.5056C78.7994 13.1252 78.5102 12.8067 78.239 12.472C77.2815 11.2866 76.2131 10.2309 74.833 9.51288C74.4494 9.31383 74.0553 9.0912 73.7541 8.79337C72.8955 7.94263 72.0818 7.04767 71.2337 6.15123C71.1124 5.2828 70.6568 4.58246 70.1159 3.88506C69.6334 3.26434 69.019 2.78368 68.523 2.18802C68.3042 1.92558 68.006 1.72653 67.9071 1.37267C67.8742 1.2562 67.7933 1.15151 67.7438 1.05715C67.4651 0.990802 67.2134 0.930351 67.0246 0.884645C66.626 0.594186 66.5151 0.08699 65.9427 0C65.6145 0.249175 65.2459 0.529312 64.9057 0.787334C64.8863 0.922979 64.8383 1.02176 64.8683 1.08811C65.0271 1.4346 65.2054 1.77371 65.3972 2.15706C65.3403 2.40771 65.2744 2.69522 65.2174 2.94144C65.3837 3.41325 65.6954 3.71256 66.0565 3.96026C66.4132 4.20501 66.7713 4.46156 67.1609 4.64586C68.0015 5.04395 68.6893 5.61602 69.3232 6.28245C70.0065 7.00049 70.7437 7.66839 71.5469 8.44393C71.6038 8.94523 71.8631 9.48781 72.434 9.80334C73.5968 10.4462 74.3146 11.5829 75.383 12.3305C75.5718 12.4632 75.7456 12.7094 75.5897 12.9969C75.5118 13.0367 75.4399 13.1001 75.3605 13.1104C73.7571 13.3021 72.1508 13.4142 70.5339 13.392C69.7053 13.3802 68.8826 13.4186 68.066 13.6162C66.4926 13.9965 64.8877 14.1071 63.2694 14.1101C62.2669 14.1116 61.2645 14.1764 60.2635 14.2354C59.6132 14.2752 58.9658 14.3637 58.3155 14.4182C57.9679 14.4477 57.6172 14.4359 57.2696 14.4684C55.7531 14.6084 54.2382 14.7647 52.7203 14.9004C51.6234 14.9977 50.597 15.3545 49.569 15.7024C49.3667 15.7717 49.2109 15.9472 49.2633 16.2716C49.6919 16.4632 50.1744 16.3777 50.6299 16.3261C52.1868 16.1536 53.7302 15.8897 55.2961 15.7629C55.942 15.7098 56.5938 15.6685 57.2411 15.6081C57.9319 15.5432 58.6212 15.4488 59.3135 15.4076C61.4443 15.2808 63.5781 15.1761 65.7089 15.0552C66.0116 15.0375 66.3113 14.9623 66.614 14.9269C67.6075 14.806 68.6009 14.607 69.5959 14.5907C72.0789 14.548 74.5558 14.3902 77.0747 14.1985C77.2875 14.3873 77.5213 14.5745 77.7325 14.7839C77.9783 15.0272 78.1926 15.3014 78.4383 15.5432C79.3958 16.4824 80.3638 17.4083 81.3168 18.3519C81.4607 18.495 81.5401 18.7014 81.6165 18.8238C81.5596 19.2499 81.3318 19.4297 81.0157 19.5138C79.9922 19.7895 78.9538 19.8293 77.9034 19.7114C77.6022 19.6774 77.2905 19.6081 76.9983 19.6539C75.3065 19.9133 73.6043 19.844 71.905 19.8573C70.8576 19.8647 69.8102 19.8411 68.7643 19.8735C68.027 19.8971 67.2913 20.0387 66.554 20.049C63.8928 20.0844 61.2315 20.0844 58.5717 20.1035C58.0922 20.1065 57.6127 20.1242 57.1347 20.1581C56.2671 20.22 55.401 20.3247 54.5319 20.366C52.4431 20.4648 50.3527 20.537 48.2639 20.6211C48.1335 20.627 47.9986 20.6211 47.8728 20.6506C46.2035 21.0501 44.4742 20.7538 42.7975 21.0649C42.6611 21.0899 42.4993 20.9867 42.3344 20.9381C43.238 19.3678 45.9397 17.1075 48.2159 15.4297C48.3313 15.4488 48.4586 15.4769 48.586 15.4872C48.7074 15.4975 48.8288 15.4901 49.0071 15.4901C49.0685 15.0935 49.127 14.722 49.1764 14.405C49.8357 13.6235 50.564 13.022 51.4001 12.5516C52.2827 12.0548 52.7982 11.3043 53.008 10.3267C53.3886 9.96994 53.7392 9.58217 54.1513 9.26813C55.2182 8.45425 56.3316 7.69788 57.3865 6.86779C57.9244 6.44463 58.4474 5.96545 58.84 5.41697C59.1666 4.95991 59.4933 4.51316 59.8754 4.1018C60.3789 3.55775 60.7745 2.94292 61.0442 2.25732C61.1536 1.9816 61.2345 1.67935 60.9213 1.36678C60.4134 1.64102 59.8874 1.9241 59.4483 2.16001C58.81 2.81612 58.2346 3.39998 57.6682 3.99417C57.2231 4.46156 56.7241 4.87586 56.4095 5.46415C56.2806 5.70596 55.9929 5.93154 55.7277 6.02443C55.2527 6.19104 54.9215 6.52425 54.5469 6.81176C54.2382 7.04767 53.9325 7.28947 53.6119 7.50768C53.513 7.57551 53.3661 7.57698 53.1878 7.62269C52.9151 7.48409 52.6139 7.33075 52.3427 7.19216C51.4016 7.41332 51.3177 7.44576 50.7917 8.09155C50.11 8.92901 49.4551 9.78564 48.7823 10.629C48.4062 11.1008 48.0511 11.5977 47.6285 12.0253C46.7055 12.9586 45.9532 13.9907 45.4752 15.2144C45.2669 15.7467 44.9043 16.1669 44.3124 16.3615C44.0127 16.161 43.7325 15.9737 43.4283 15.7717C43.2215 15.9192 43.0372 16.0312 42.8784 16.1698C42.5877 16.4264 42.3285 16.7213 42.0258 16.9645C40.9664 17.8138 40.1107 18.8385 39.363 19.9517C39.1487 20.2702 38.9404 20.6225 38.849 20.9882C38.6842 21.6502 38.4819 22.2945 38.1717 22.8754C38.4015 23.1251 38.7242 23.2362 39.1397 23.2086L39.1427 23.2116Z" fill="url(#paint0_radial_754_5328)"/>
<path d="M64.3064 130.802C65.3972 130.805 66.4986 130.768 67.573 130.91C68.6444 131.051 69.6544 130.83 70.6868 130.702C70.8501 130.681 71.0015 130.572 71.1663 130.501V129.892C70.5594 129.596 69.9495 129.593 69.3382 129.574C67.5955 129.519 65.8528 129.449 64.11 129.398C63.6335 129.384 63.151 129.391 62.6775 129.434C60.3684 129.646 58.0623 129.599 55.7546 129.4C55.452 129.373 55.1448 129.381 54.8391 129.393C53.2267 129.456 51.6159 129.53 50.0036 129.593C49.7458 129.603 49.4881 129.572 49.2708 129.564C48.5231 128.885 47.8098 128.257 47.119 127.606C46.7894 127.294 46.4297 127.094 45.9742 127.084C45.7539 127.219 45.5427 127.349 45.3538 127.464C44.6735 127.047 44.0487 126.662 43.5332 126.346C43.235 125.83 42.9923 125.426 42.766 125.012C42.6911 124.873 42.6596 124.71 42.5862 124.493C42.9084 124.436 43.1571 124.36 43.4073 124.352C46.1525 124.262 48.8977 124.176 51.6429 124.101C52.515 124.077 53.3886 124.091 54.2607 124.08C55.6977 124.064 57.1392 124.172 58.5717 123.961C60.2201 124.201 61.8833 124.008 63.5376 124.11C64.0471 124.141 64.5686 124.164 65.1455 124.045C64.9372 123.915 64.8008 123.83 64.6959 123.763C64.9087 123.367 65.153 123.368 65.4602 123.46C65.6879 123.661 65.9397 123.887 66.1659 124.089C67.0051 124.166 67.7843 124.247 68.565 124.307C71.3491 124.524 74.1467 124.222 76.9309 124.493C77.0882 124.508 77.3534 124.493 77.3474 124.17C76.766 124.13 76.2026 124.101 75.6437 124.043C75.5673 124.036 75.5058 123.89 75.386 123.748C76.1622 123.485 76.9144 123.681 77.6157 123.482C75.5703 123.452 73.5354 123.199 71.4885 123.325C71.1408 123.347 70.7842 123.362 70.444 123.308C68.971 123.075 67.4891 123.11 66.0056 123.104C65.09 123.101 64.1745 123.07 63.2604 123.03C62.5202 122.998 61.7829 122.892 61.0442 122.889C58.3829 122.88 55.7217 122.886 53.0604 122.918C51.7553 122.935 50.4501 123.042 49.1449 123.067C47.182 123.104 45.219 123.104 43.2545 123.117C42.4723 123.122 41.6901 123.117 40.8824 123.117C40.7176 122.988 40.5363 122.868 40.3835 122.719C40.0418 122.389 39.7121 122.044 39.381 121.703C38.3261 120.62 37.2802 119.527 36.2118 118.455C35.7248 117.967 35.1913 117.534 34.7972 116.949C34.538 116.564 34.1469 116.257 33.7872 115.947C33.3961 115.608 32.9481 115.539 32.4236 115.784C32.3637 116.167 32.3053 116.537 32.2483 116.897C32.5585 117.266 32.8192 117.611 33.1189 117.92C33.7228 118.544 34.2982 119.179 34.4136 120.037C34.6803 120.223 34.8841 120.387 35.1089 120.517C36.0964 121.086 36.9475 121.799 37.7027 122.653C38.5898 123.656 39.5203 124.624 40.4854 125.553C42.8514 127.833 45.0242 130.301 47.5086 132.465C47.639 132.579 47.7574 132.706 47.8773 132.831C49.3188 134.321 50.7618 135.811 52.1988 137.304C52.7757 137.904 53.441 138.379 54.2052 138.717C54.4135 138.808 54.6323 138.793 54.8151 138.525C54.8181 137.32 53.6298 136.725 53.1548 135.647C53.2537 135.305 53.3691 134.879 53.0319 134.411C52.6558 134.198 52.1823 133.971 51.7613 133.676C51.4496 133.457 51.1469 133.183 50.9401 132.871C50.6374 132.414 50.3467 131.924 50.3767 131.265C50.6314 131.19 50.8652 131.07 51.1049 131.06C52.2363 131.011 53.3736 131.051 54.4929 130.817C54.7012 130.773 54.9275 130.805 55.1463 130.805C58.2001 130.802 61.2525 130.792 64.3064 130.802Z" fill="url(#paint1_radial_754_5328)"/>
<path d="M84.3033 120.579C83.644 120.999 83.2933 121.652 83.0461 122.337C82.8303 122.936 82.4916 123.386 81.9717 123.744C81.3243 124.191 80.8044 124.754 80.3608 125.406C79.8738 126.122 79.1726 126.649 78.4878 127.174C77.9423 127.594 77.3729 127.983 76.5772 128.558C76.3704 128.626 75.8655 128.759 75.4968 129.17C74.836 129.907 74.0613 130.544 73.5294 131.395C73.375 131.642 73.1428 131.862 72.9015 132.035C71.8346 132.795 70.9221 133.718 70.041 134.666C68.8122 135.988 67.3452 137.105 66.5061 138.672C66.154 138.823 65.8662 138.928 65.598 139.066C65.2893 139.225 64.9971 139.413 64.7109 139.582C63.8828 139.724 63.155 140.147 62.5277 140.853C62.4438 141.247 62.3554 141.663 62.264 142.095C61.7215 142.44 61.4278 143.097 60.6906 143.211C60.3849 142.891 60.1421 142.499 59.787 142.297C59.2071 141.966 58.7561 141.525 58.2945 141.067C57.83 140.605 57.2606 140.305 56.5413 140.244C56.2956 140.887 56.345 141.449 56.8395 141.919C57.866 142.9 58.9059 143.867 59.9878 144.884C60.3909 145.057 60.8569 145.039 61.4413 144.815C61.729 144.535 62.0841 144.157 62.4722 143.817C62.8903 143.45 63.3398 143.116 63.8104 142.739C63.9018 142.447 63.9977 142.12 64.1086 141.798C64.134 141.724 64.2149 141.668 64.3108 141.555C64.6285 141.453 64.9971 141.335 65.4692 141.183C66.5735 140.15 67.7408 139.059 68.9066 137.966C69.3172 137.581 69.6948 137.155 70.1429 136.821C71.6758 135.672 72.9659 134.289 74.2381 132.881C74.842 132.331 75.4444 131.778 76.0498 131.23C77.3639 130.04 78.7215 128.902 79.9218 127.591C80.5302 126.927 81.1835 126.284 81.9672 125.799C82.1845 125.665 82.3523 125.454 82.5501 125.289C82.8123 125.071 83.0551 124.8 83.3563 124.66C84.3497 124.2 85.0031 123.409 85.586 122.545C85.9905 121.944 86.1209 121.294 85.8632 120.589C85.3342 120.147 84.8187 120.25 84.3003 120.58L84.3033 120.579Z" fill="url(#paint2_radial_754_5328)"/>
<path d="M85.9366 24.9765C86.7383 25.3834 87.513 25.7712 88.2802 26.1722C88.8211 26.4553 89.2931 26.8121 89.7157 27.2677C92.0923 29.8346 94.5617 32.3175 97.0417 34.7886C98.5431 36.2837 100.024 37.7994 101.506 39.3136C101.958 39.7766 102.364 40.2838 102.827 40.7349C103.257 41.1551 103.675 41.6594 104.204 41.8864C104.846 42.1622 105.162 42.7401 105.704 43.0881C106.208 43.411 106.653 43.8253 107.168 44.2352H108.267C108.118 43.5658 107.505 43.3653 107.057 43.0483C106.672 42.9981 106.334 42.9554 106.064 42.92C105.526 42.4792 105.769 41.8894 105.499 41.2539C104.673 39.9992 103.575 38.7283 102.313 37.6092C101.339 36.7437 100.43 35.8178 99.6055 34.8255C99.1365 34.2608 98.6795 33.6917 98.146 33.1889C96.5037 31.6408 95.0277 29.9585 93.784 28.0816C93.6177 27.8294 93.4319 27.5891 93.2775 27.3326C92.7261 26.4184 91.9394 25.7785 90.9804 25.2979C89.933 24.773 88.9215 24.1803 87.8921 23.6215C87.2477 23.272 86.6289 22.8681 85.8707 22.6248C85.7043 22.7383 85.4556 22.8194 85.3837 22.9772C85.2863 23.1924 85.2458 23.4932 85.3222 23.7099C85.4781 24.1493 85.7283 24.5563 85.9381 24.975L85.9366 24.9765Z" fill="url(#paint3_radial_754_5328)"/>
<path d="M101.507 104.693C101.047 105.165 100.499 105.5 99.9457 105.848C99.0271 106.429 98.1535 107.085 97.4792 107.94C96.7525 108.858 95.8998 109.653 95.0937 110.497C94.3534 111.271 93.5847 112.048 93.1307 113.038C92.852 113.647 92.4324 114.097 91.869 114.472C91.4839 114.728 91.1902 115.123 90.8695 115.467C90.8231 115.515 90.847 115.629 90.8381 115.717C90.9939 116.076 91.3266 116.172 91.7042 116.257C91.8435 116.211 92.0083 116.158 92.0668 116.139C92.6512 115.49 93.0558 114.989 93.5173 114.544C94.2965 113.793 95.1117 113.08 95.9088 112.35C96.9937 111.356 98.0771 110.359 99.1635 109.367C100.635 108.024 102.075 106.656 103.248 104.972C103.211 104.799 103.169 104.602 103.131 104.425C102.477 104.157 101.943 104.245 101.509 104.692L101.507 104.693Z" fill="url(#paint4_radial_754_5328)"/>
<path d="M26.8059 33.9232C27.0517 33.8716 27.3034 33.7757 27.5147 33.6416C27.8773 33.4115 28.183 33.0828 28.5636 32.8955C29.4013 32.4841 30.0846 31.9283 30.6375 31.1808C31.0451 30.6293 31.4976 30.1059 32.2468 29.9482C32.4386 29.9084 32.6035 29.7152 32.7668 29.5766C33.3047 29.1195 33.6569 28.5357 33.8742 27.9253C34.4151 27.4785 35.0295 27.1954 35.3531 26.6042C35.3741 26.5659 35.3007 26.4789 35.2722 26.4155C35.0429 26.4184 34.9036 26.849 34.6114 26.5511C34.8167 25.9953 35.5255 25.7859 35.6888 24.9779C34.959 25.5618 34.3177 25.9702 33.7798 26.5231C33.1789 27.1409 32.5525 27.7366 31.9172 28.3219C31.6699 28.5504 31.3702 28.7244 31.1754 28.8645C31.0091 28.8645 30.9552 28.8807 30.9252 28.8615C30.6675 28.6993 30.4202 28.5372 30.0846 28.5858C29.7579 28.633 29.5331 28.8217 29.3158 29.037C28.9173 29.4306 28.5561 29.8744 28.1096 30.2062C27.1206 30.9434 26.6681 32.0079 26.2065 33.0665C26.1196 33.2641 26.2335 33.5472 26.2575 33.817C26.4823 33.8657 26.6576 33.9541 26.8059 33.9246V33.9232Z" fill="url(#paint5_radial_754_5328)"/>
<path d="M28.6865 110.986C28.225 110.213 27.4413 109.827 26.6756 109.419C26.5961 109.066 26.5707 108.715 26.4388 108.409C26.1151 107.66 25.76 106.923 25.3854 106.197C25.0992 105.644 24.5283 105.369 24.0548 105C24.0248 104.976 23.9708 104.984 23.9289 104.976C23.7805 105.052 23.6322 105.125 23.4179 105.233C23.0897 104.976 22.7526 104.715 22.4919 104.512C21.9 104.254 21.3905 104.031 20.8525 103.797C20.5244 103.835 20.1722 103.868 20.1423 104.412C20.433 104.661 20.7881 104.904 21.0638 105.218C21.374 105.572 21.5763 106.016 21.8865 106.368C22.3105 106.852 22.7916 107.288 23.2081 107.705H23.6756C24.4818 108.503 25.2161 109.229 25.9353 109.939C26.0132 110.348 26.0837 110.722 26.1541 111.095C26.5137 111.433 26.7685 111.853 27.3259 111.978C27.4907 111.919 27.6855 111.849 27.8818 111.778C27.9612 112.381 28.4467 112.572 28.9322 112.764C29.0551 112.373 29.1795 111.983 29.3233 111.529C29.1121 111.349 28.9008 111.166 28.688 110.985L28.6865 110.986Z" fill="url(#paint6_radial_754_5328)"/>
<path d="M109.137 46.9982C109.585 47.0189 110.03 47.4391 110.633 47.1073C110.29 46.3185 109.856 45.6536 109.242 45.1036C108.923 44.819 108.598 44.5419 108.276 44.2602C108.052 44.4224 107.826 44.5846 107.564 44.7748C107.897 45.6609 108.34 46.4188 109.137 46.9997V46.9982Z" fill="url(#paint7_radial_754_5328)"/>
<path d="M108.276 44.2602C108.286 44.2529 108.297 44.244 108.307 44.2366H108.265C108.265 44.2366 108.27 44.2484 108.271 44.2558C108.273 44.2558 108.274 44.2588 108.276 44.2602Z" fill="url(#paint8_radial_754_5328)"/>
<path d="M54.1168 10.0761L54.0119 10.1085L54.1003 10.1631L54.1168 10.0761Z" fill="url(#paint9_radial_754_5328)"/>
<path d="M29.0147 112.831C28.9922 112.81 28.9682 112.791 28.9457 112.77C28.9412 112.769 28.9367 112.766 28.9322 112.764C28.9292 112.774 28.9262 112.783 28.9232 112.794C28.9547 112.805 28.9847 112.819 29.0162 112.831H29.0147Z" fill="url(#paint10_radial_754_5328)"/>
<path d="M121.802 68.7221C121.275 67.7667 118.39 64.2134 117.846 63.2668C116.12 60.2635 114.364 59.8374 112.838 56.7308C112.832 56.7175 112.826 56.7057 112.819 56.6924C109.07 50.6547 104.495 47.2503 100.583 41.3099C95.23 35.1381 88.1678 31.1395 82.4347 25.3112C80.6066 24.0638 79.1096 23.0819 79.1096 23.0819C79.1096 23.0819 78.5627 22.9713 77.6726 22.7973C74.9739 23.1217 72.2677 23.4003 69.5509 23.6082C61.9613 24.1906 54.2832 24.1803 46.671 24.108C44.5522 24.0874 42.4304 24.0166 40.322 23.8574L37.0059 29.295L36.1129 29.6666C31.1904 36.5874 24.8609 42.662 18.7877 48.4446C14.2518 52.7631 7.8774 58.8716 3.7926 63.6104C3.4045 64.0601 3.02988 64.5201 2.65827 64.9816C2.53539 65.1496 1.87157 66.0107 1.87307 66.0092C1.24522 66.8437 0.624857 67.6827 0 68.5201C0.0584399 69.0214 0.0254738 69.5788 0.0179815 70.2364C0.236756 70.5357 0.460027 70.832 0.684796 71.1254C0.755223 71.2124 0.845131 71.3245 0.96201 71.4704C1.54791 72.1781 2.1338 72.8859 2.73169 73.5847C5.10974 76.364 9.26047 77.4108 11.5336 80.2756C14.1215 83.5355 16.3182 87.0358 18.7607 90.3959C20.0988 92.236 20.448 92.6945 21.7936 94.2795C23.0508 95.7598 24.3949 97.159 25.7076 98.5907C31.0541 104.419 33.4591 111.159 38.6917 117.12C40.2591 117.05 42.1801 118.898 43.7445 118.777C47.6989 118.47 49.0445 118.966 53.008 118.777C61.7455 118.361 64.0516 118.598 72.7966 118.362C73.399 118.085 75.323 120.434 83.7429 117.12C83.7818 117.105 85.8062 117.534 85.8482 117.534C87.5085 116.07 90.8695 111.921 92.5853 110.491C97.3653 104.341 102.342 99.7245 107.321 93.5054C110.868 87.7464 117.356 75.9526 122 71.0414C121.937 70.2673 121.868 69.4918 121.802 68.7192V68.7221Z" fill="url(#paint11_radial_754_5328)"/>
</g>
<defs>
<radialGradient id="paint0_radial_754_5328" cx="0" cy="0" r="1" gradientUnits="userSpaceOnUse" gradientTransform="translate(45.5079 44.3056) rotate(49.9234) scale(93.2444 91.8708)">
<stop stop-color="#F9F3DE"/>
<stop offset="1" stop-color="#F9F3DE" stop-opacity="0.25"/>
</radialGradient>
<radialGradient id="paint1_radial_754_5328" cx="0" cy="0" r="1" gradientUnits="userSpaceOnUse" gradientTransform="translate(45.5079 44.3056) rotate(49.9234) scale(93.2444 91.8708)">
<stop stop-color="#F9F3DE"/>
<stop offset="1" stop-color="#F9F3DE" stop-opacity="0.25"/>
</radialGradient>
<radialGradient id="paint2_radial_754_5328" cx="0" cy="0" r="1" gradientUnits="userSpaceOnUse" gradientTransform="translate(45.5079 44.3056) rotate(49.9234) scale(93.2444 91.8708)">
<stop stop-color="#F9F3DE"/>
<stop offset="1" stop-color="#F9F3DE" stop-opacity="0.25"/>
</radialGradient>
<radialGradient id="paint3_radial_754_5328" cx="0" cy="0" r="1" gradientUnits="userSpaceOnUse" gradientTransform="translate(45.5079 44.3056) rotate(49.9234) scale(93.2444 91.8708)">
<stop stop-color="#F9F3DE"/>
<stop offset="1" stop-color="#F9F3DE" stop-opacity="0.25"/>
</radialGradient>
<radialGradient id="paint4_radial_754_5328" cx="0" cy="0" r="1" gradientUnits="userSpaceOnUse" gradientTransform="translate(45.5079 44.3056) rotate(49.9234) scale(93.2444 91.8708)">
<stop stop-color="#F9F3DE"/>
<stop offset="1" stop-color="#F9F3DE" stop-opacity="0.25"/>
</radialGradient>
<radialGradient id="paint5_radial_754_5328" cx="0" cy="0" r="1" gradientUnits="userSpaceOnUse" gradientTransform="translate(45.5079 44.3056) rotate(49.9234) scale(93.2444 91.8708)">
<stop stop-color="#F9F3DE"/>
<stop offset="1" stop-color="#F9F3DE" stop-opacity="0.25"/>
</radialGradient>
<radialGradient id="paint6_radial_754_5328" cx="0" cy="0" r="1" gradientUnits="userSpaceOnUse" gradientTransform="translate(45.5079 44.3056) rotate(49.9234) scale(93.2444 91.8708)">
<stop stop-color="#F9F3DE"/>
<stop offset="1" stop-color="#F9F3DE" stop-opacity="0.25"/>
</radialGradient>
<radialGradient id="paint7_radial_754_5328" cx="0" cy="0" r="1" gradientUnits="userSpaceOnUse" gradientTransform="translate(45.5079 44.3056) rotate(49.9234) scale(93.2444 91.8708)">
<stop stop-color="#F9F3DE"/>
<stop offset="1" stop-color="#F9F3DE" stop-opacity="0.25"/>
</radialGradient>
<radialGradient id="paint8_radial_754_5328" cx="0" cy="0" r="1" gradientUnits="userSpaceOnUse" gradientTransform="translate(45.5079 44.3056) rotate(49.9234) scale(93.2444 91.8708)">
<stop stop-color="#F9F3DE"/>
<stop offset="1" stop-color="#F9F3DE" stop-opacity="0.25"/>
</radialGradient>
<radialGradient id="paint9_radial_754_5328" cx="0" cy="0" r="1" gradientUnits="userSpaceOnUse" gradientTransform="translate(45.5079 44.3056) rotate(49.9234) scale(93.2444 91.8708)">
<stop stop-color="#F9F3DE"/>
<stop offset="1" stop-color="#F9F3DE" stop-opacity="0.25"/>
</radialGradient>
<radialGradient id="paint10_radial_754_5328" cx="0" cy="0" r="1" gradientUnits="userSpaceOnUse" gradientTransform="translate(45.5079 44.3056) rotate(49.9234) scale(93.2444 91.8708)">
<stop stop-color="#F9F3DE"/>
<stop offset="1" stop-color="#F9F3DE" stop-opacity="0.25"/>
</radialGradient>
<radialGradient id="paint11_radial_754_5328" cx="0" cy="0" r="1" gradientUnits="userSpaceOnUse" gradientTransform="translate(45.5079 44.3056) rotate(49.9234) scale(93.2444 91.8708)">
<stop stop-color="#F9F3DE"/>
<stop offset="1" stop-color="#F9F3DE" stop-opacity="0.25"/>
</radialGradient>
</defs>
</svg>
