<svg xmlns="http://www.w3.org/2000/svg" viewBox="0 0 32 32"><path d="M7.524 7.515A11.96 11.96 0 0 1 16.01 4a11.98 11.98 0 0 1 9.466 4.625V4h3.334v10.333H18.476V11h4.614a8.66 8.66 0 0 0-7.08-3.667 8.64 8.64 0 0 0-6.13 2.539 8.66 8.66 0 0 0-2.22 3.795H4.236a11.96 11.96 0 0 1 3.288-6.152m16.835 10.818a8.66 8.66 0 0 1-2.221 3.795 8.64 8.64 0 0 1-6.128 2.539A8.66 8.66 0 0 1 8.93 21h4.613v-3.333H3.21V28h3.333v-4.625A11.98 11.98 0 0 0 16.01 28c3.313 0 6.313-1.343 8.485-3.515a12 12 0 0 0 3.288-6.152z"/></svg>