<svg xmlns="http://www.w3.org/2000/svg" fill="none" viewBox="0 0 104 99">
  <path fill="#F9F3DE" d="m69 67-2-3 3-2 3-3V47v1l-2 3v1h-3l-8 1 18-17-19 8h-1l-6 7-6-7-20-8 9 8 2 3 3-2-1 4 5 4-6-1v4l-1-2-2 4-1 1v-7h-1v-1l-2-4v12l6 5h1-1l-4 5-7 6 9-4 8-3-3 5 12 4 12-4-2-5 7 3 9 4-8-7-1-1Zm-12-4-1 1h-1l-3 1-3-1h-1l-1-1v-2l3 1 2 1 2-1 3-1v2Z"/>
  <path fill="#F9F3DE" d="M78 14c0 8-3 14-7 19l-13 6h-1l-5 5-4-5h-1l-14-6c-4-4-5-9-6-14V0l10 8-2 5c-1 6-1 11 2 15l7 6-4-7 7-6 3 9 2-6 2 6 3-9 7 7-4 6 5-4c3-3 4-6 4-10 1-4 0-8-2-12l10-8 1 6v8Z"/>
  <path fill="#EE2759" d="m71 50-2 3h-4l-2-1 2-2 2 2 2-2v-1l2-2v3Z"/>
  <path fill="#F9F3DE" d="M53 89h-5l-5 10h4l1-2 2-5v4l3 1 1 2h4l-5-10Zm17 0v5l-5-5h-5v10h4v-6l5 6h5V89h-4Zm13 4-3-1 3-1 3 1h4c0-3-3-3-7-3h-1l-6 3c0 3 4 3 7 3h3l-3 1-3-1h-4c1 4 4 4 7 4 4 0 7-1 7-4 0-2-4-2-7-2Zm-44-4h-9v10l4-3h5c2 0 4-1 4-3 0-3-2-4-4-4Zm0 4h-5v-3l1 2h4v1ZM4 91h8l-3-2H0v7l3 3h9v-3H4v-1h8v-2H4v-2Zm100-2H92v10h8l4-3h-8v-1h8v-2h-8v-2h8v-2ZM8 92Zm15-3-3 3-3-3h-5l6 5-4 3v2h3l3-3 3 3h5l-5-5 5-5h-5Z"/>
</svg>
