<svg width="72" height="72" viewBox="0 0 72 72" fill="none" xmlns="http://www.w3.org/2000/svg">
<g clip-path="url(#clip0_16_5)">
<path d="M27.0769 14.6784H46.7245C47.2081 14.6415 47.6599 14.4236 47.9896 14.0682C48.3192 13.7129 48.5023 13.2463 48.5023 12.7619C48.5023 12.2775 48.3192 11.8109 47.9896 11.4556C47.6599 11.1002 47.2081 10.8823 46.7245 10.8454H27.0769C26.5933 10.8823 26.1415 11.1002 25.8119 11.4556C25.4822 11.8109 25.2991 12.2775 25.2991 12.7619C25.2991 13.2463 25.4822 13.7129 25.8119 14.0682C26.1415 14.4236 26.5933 14.6415 27.0769 14.6784Z" fill="url(#paint0_radial_16_5)"/>
<path d="M32.7497 9.45969H41.063C41.517 9.45969 41.9524 9.27955 42.2735 8.9589C42.5945 8.63825 42.7749 8.20336 42.7749 7.7499V5.88367C42.7749 4.32322 42.1542 2.82669 41.0495 1.72329C39.9447 0.619885 38.4463 0 36.884 0C35.3216 0 33.8232 0.619885 32.7185 1.72329C31.6137 2.82669 30.9931 4.32322 30.9931 5.88367V7.76108C30.9945 7.98848 31.0413 8.21331 31.1308 8.42242C31.2202 8.63153 31.3506 8.82071 31.5142 8.97889C31.6778 9.13707 31.8713 9.26106 32.0834 9.34362C32.2956 9.42618 32.5221 9.46564 32.7497 9.45969Z" fill="url(#paint1_radial_16_5)"/>
<path d="M30.3664 63.6922V100H37.3035V76.5324C37.3035 67.0001 37.0573 63.7258 32.828 63.7258L30.3664 63.6922Z" fill="url(#paint2_radial_16_5)"/>
<path d="M38.8252 76.4989V99.9665H42.2938V63.6922C39.1273 63.6922 38.8252 66.8213 38.8252 76.4989Z" fill="url(#paint3_radial_16_5)"/>
<path d="M44.621 45.3093H28.9343L8 49.9581V52.0814L27.8042 54.5957V61.569H44.5538V54.2158L64 52.0814V49.9581L44.621 45.3093Z" fill="url(#paint4_radial_16_5)"/>
<path d="M44.4196 42.3814V37.8443C44.4335 37.6605 44.3966 37.4763 44.3128 37.312C44.2291 37.1477 44.1017 37.0096 43.9446 36.9127C43.7876 36.8158 43.6069 36.7639 43.4223 36.7626C43.2377 36.7614 43.0563 36.8109 42.8979 36.9056L36.028 41.3756C35.831 41.5004 35.678 41.6834 35.5903 41.8992C35.5026 42.115 35.4846 42.3528 35.5389 42.5794C35.5931 42.8059 35.7169 43.0098 35.8928 43.1627C36.0688 43.3155 36.2881 43.4096 36.5203 43.4319H43.3902C43.6653 43.426 43.9271 43.3128 44.1195 43.1164C44.3119 42.92 44.4196 42.6562 44.4196 42.3814Z" fill="url(#paint5_radial_16_5)"/>
<path d="M29.7623 43.0854H29.8742C30.0573 43.0845 30.2362 43.0301 30.3888 42.929L43.8826 34.0783C44.036 33.9748 44.1613 33.8348 44.2472 33.671C44.3331 33.5071 44.377 33.3246 44.3749 33.1396V28.1556C44.3888 27.9717 44.3519 27.7876 44.2681 27.6232C44.1844 27.4589 44.057 27.3208 43.8999 27.2239C43.7429 27.127 43.5621 27.0751 43.3775 27.0739C43.1929 27.0726 43.0115 27.1221 42.8532 27.2169L29.2252 36.1569C29.0718 36.2605 28.9465 36.4004 28.8606 36.5643C28.7746 36.7281 28.7308 36.9107 28.7329 37.0956V41.9903C28.7269 42.1301 28.749 42.2697 28.7977 42.4008C28.8465 42.532 28.921 42.6521 29.0169 42.7542C29.1128 42.8562 29.2281 42.938 29.3561 42.9949C29.4841 43.0518 29.6222 43.0826 29.7623 43.0854Z" fill="url(#paint6_radial_16_5)"/>
<path d="M30.277 33.162L43.905 24.2219C44.0578 24.1241 44.1846 23.9906 44.2743 23.8329C44.3639 23.6752 44.4138 23.498 44.4196 23.3168V18.3103C44.4336 18.1265 44.3967 17.9423 44.3129 17.778C44.2291 17.6137 44.1018 17.4756 43.9447 17.3787C43.7876 17.2818 43.6069 17.2299 43.4223 17.2286C43.2377 17.2274 43.0563 17.2769 42.898 17.3716L29.27 26.3117C29.1166 26.4152 28.9913 26.5552 28.9053 26.719C28.8194 26.8829 28.7756 27.0654 28.7777 27.2504V32.2568C28.7727 32.4346 28.8151 32.6105 28.9004 32.7667C28.9857 32.9228 29.1109 33.0535 29.2634 33.1456C29.4158 33.2376 29.5899 33.2876 29.7679 33.2905C29.946 33.2933 30.1217 33.249 30.277 33.162Z" fill="url(#paint7_radial_16_5)"/>
<path d="M28.7553 17.394V22.3781C28.7414 22.5619 28.7783 22.746 28.8621 22.9104C28.9458 23.0747 29.0732 23.2128 29.2303 23.3097C29.3873 23.4066 29.568 23.4585 29.7526 23.4597C29.9372 23.461 30.1186 23.4115 30.277 23.3168L37.8742 18.3327C38.0632 18.2036 38.2081 18.0196 38.2891 17.8057C38.3702 17.5918 38.3835 17.3581 38.3274 17.1364C38.2713 16.9146 38.1484 16.7154 37.9753 16.5656C37.8022 16.4158 37.5873 16.3227 37.3595 16.2988H29.7623C29.5791 16.2998 29.4002 16.3541 29.2476 16.4553C29.0942 16.5588 28.9689 16.6988 28.883 16.8626C28.7971 17.0265 28.7532 17.209 28.7553 17.394Z" fill="url(#paint8_radial_16_5)"/>
</g>
<defs>
<radialGradient id="paint0_radial_16_5" cx="0" cy="0" r="1" gradientUnits="userSpaceOnUse" gradientTransform="translate(28.8889 30.5556) rotate(60.7512) scale(56.3966 48.0848)">
<stop stop-color="#F9F3DE"/>
<stop offset="1" stop-color="#F9F3DE" stop-opacity="0.25"/>
</radialGradient>
<radialGradient id="paint1_radial_16_5" cx="0" cy="0" r="1" gradientUnits="userSpaceOnUse" gradientTransform="translate(28.8889 30.5556) rotate(60.7512) scale(56.3966 48.0848)">
<stop stop-color="#F9F3DE"/>
<stop offset="1" stop-color="#F9F3DE" stop-opacity="0.25"/>
</radialGradient>
<radialGradient id="paint2_radial_16_5" cx="0" cy="0" r="1" gradientUnits="userSpaceOnUse" gradientTransform="translate(28.8889 30.5556) rotate(60.7512) scale(56.3966 48.0848)">
<stop stop-color="#F9F3DE"/>
<stop offset="1" stop-color="#F9F3DE" stop-opacity="0.25"/>
</radialGradient>
<radialGradient id="paint3_radial_16_5" cx="0" cy="0" r="1" gradientUnits="userSpaceOnUse" gradientTransform="translate(28.8889 30.5556) rotate(60.7512) scale(56.3966 48.0848)">
<stop stop-color="#F9F3DE"/>
<stop offset="1" stop-color="#F9F3DE" stop-opacity="0.25"/>
</radialGradient>
<radialGradient id="paint4_radial_16_5" cx="0" cy="0" r="1" gradientUnits="userSpaceOnUse" gradientTransform="translate(28.8889 30.5556) rotate(60.7512) scale(56.3966 48.0848)">
<stop stop-color="#F9F3DE"/>
<stop offset="1" stop-color="#F9F3DE" stop-opacity="0.25"/>
</radialGradient>
<radialGradient id="paint5_radial_16_5" cx="0" cy="0" r="1" gradientUnits="userSpaceOnUse" gradientTransform="translate(28.8889 30.5556) rotate(60.7512) scale(56.3966 48.0848)">
<stop stop-color="#F9F3DE"/>
<stop offset="1" stop-color="#F9F3DE" stop-opacity="0.25"/>
</radialGradient>
<radialGradient id="paint6_radial_16_5" cx="0" cy="0" r="1" gradientUnits="userSpaceOnUse" gradientTransform="translate(28.8889 30.5556) rotate(60.7512) scale(56.3966 48.0848)">
<stop stop-color="#F9F3DE"/>
<stop offset="1" stop-color="#F9F3DE" stop-opacity="0.25"/>
</radialGradient>
<radialGradient id="paint7_radial_16_5" cx="0" cy="0" r="1" gradientUnits="userSpaceOnUse" gradientTransform="translate(28.8889 30.5556) rotate(60.7512) scale(56.3966 48.0848)">
<stop stop-color="#F9F3DE"/>
<stop offset="1" stop-color="#F9F3DE" stop-opacity="0.25"/>
</radialGradient>
<radialGradient id="paint8_radial_16_5" cx="0" cy="0" r="1" gradientUnits="userSpaceOnUse" gradientTransform="translate(28.8889 30.5556) rotate(60.7512) scale(56.3966 48.0848)">
<stop stop-color="#F9F3DE"/>
<stop offset="1" stop-color="#F9F3DE" stop-opacity="0.25"/>
</radialGradient>
<clipPath id="clip0_16_5">
<rect width="72" height="72" fill="white"/>
</clipPath>
</defs>
</svg>
