<svg width="72" height="72" viewBox="0 0 72 72" fill="none" xmlns="http://www.w3.org/2000/svg">
<path d="M54.5522 28.0023C57.2467 30.4708 60.2748 32.5498 63.5482 34.1787C63.9371 34.3474 63.8441 35.4275 63.3537 36.0181C58.4384 41.8821 51.694 41.2093 44.9495 40.5366C38.5152 39.8947 32.0809 39.2529 27.2346 44.287L20.5384 20.3578C20.472 20.1147 20.3784 19.8797 20.2594 19.6575C25.1083 14.5501 31.5707 15.1947 38.0338 15.8395C44.7786 16.5124 51.5242 17.1853 56.4376 11.321C56.928 10.7304 57.393 10.9835 57.2916 11.8442C56.6505 17.0184 55.659 22.1434 54.3239 27.1839C54.2371 27.4778 54.3257 27.7954 54.5522 28.0023Z" fill="url(#paint0_radial_16_24)"/>
<path d="M27.6638 52.069L18.913 20.8168C18.7673 20.2966 18.4205 19.8554 17.9489 19.5903C17.4773 19.3253 16.9195 19.258 16.3983 19.4034L16.2817 19.4359C15.1961 19.7386 14.5619 20.8622 14.8652 21.9456L23.3002 52.069H16.0263L11.4638 56.5774C10.1922 57.8338 11.0819 60 12.8695 60H56.1042C57.8918 60 58.7815 57.8338 57.5099 56.5774L52.9474 52.069L27.6638 52.069Z" fill="url(#paint1_radial_16_24)"/>
<defs>
<radialGradient id="paint0_radial_16_24" cx="0" cy="0" r="1" gradientUnits="userSpaceOnUse" gradientTransform="translate(28.8103 25.9722) rotate(41.2929) scale(36.537 36.2316)">
<stop stop-color="#F9F3DE"/>
<stop offset="1" stop-color="#F9F3DE" stop-opacity="0.25"/>
</radialGradient>
<radialGradient id="paint1_radial_16_24" cx="0" cy="0" r="1" gradientUnits="userSpaceOnUse" gradientTransform="translate(28.8103 25.9722) rotate(41.2929) scale(36.537 36.2316)">
<stop stop-color="#F9F3DE"/>
<stop offset="1" stop-color="#F9F3DE" stop-opacity="0.25"/>
</radialGradient>
</defs>
</svg>
