<svg width="72" height="72" viewBox="0 0 72 72" fill="none" xmlns="http://www.w3.org/2000/svg">
<path d="M41.0013 15.7526C40.803 15.76 21.0645 16.3875 11.7021 9.34139C10.5961 8.50737 9 9.29541 9 10.6892V36.0009C9 36.6843 9.41238 37.3002 10.0441 37.5607C13.8748 39.1416 17.9437 40.3798 22.1382 41.2404C22.8885 41.4159 23.5867 40.7963 23.5016 40.0305L22.8303 33.9852C22.7492 33.255 21.9313 32.8774 21.3119 33.2725C18.9841 34.757 15.8911 34.0944 14.3717 31.8035C13.846 31.0107 14.0183 29.9158 14.8149 29.3958C15.6057 28.8796 16.6637 29.1125 17.1657 29.9092C17.8784 31.0404 19.5301 30.9085 20.1009 29.7567C20.3742 29.2056 20.0505 28.5212 19.4461 28.3244C16.8811 27.489 15.6269 24.5765 16.8127 22.1843C18.5274 18.7248 23.4101 18.3768 25.5694 21.6421C26.0922 22.4327 25.916 23.5266 25.1221 24.0444C24.3309 24.5604 23.2725 24.3271 22.7709 23.5293C22.2566 22.7112 21.2019 22.531 20.4453 23.0097C19.365 23.6932 19.6559 24.8434 20.4913 25.1154C22.1339 25.6504 23.2818 27.0651 23.5238 28.6864C23.5717 29.0079 23.8487 29.2344 24.1738 29.231C24.3533 29.2291 31.8249 29.6384 40.308 28.7079C40.815 28.6523 41.2207 28.2605 41.2929 27.7556L42.733 17.6774C42.8817 16.6376 42.0555 15.7171 41.0013 15.7526ZM34.3126 24.1888C33.3805 24.1888 32.6251 23.4333 32.6251 22.5013C32.6251 21.5693 33.3805 20.8139 34.3126 20.8139C35.2446 20.8139 36.0001 21.5693 36.0001 22.5013C36.0001 23.4333 35.2445 24.1888 34.3126 24.1888Z" fill="url(#paint0_radial_16_20)"/>
<path d="M60.2979 26.2158C50.7813 33.3773 27.5645 32.5545 27.0911 32.6935C26.3142 32.9154 25.783 33.6844 25.8877 34.5223C27.543 47.7687 29.2347 61.2906 29.2627 61.5214C29.3682 62.3661 30.0864 63 30.9376 63C39.8623 63 50.3564 62.5992 61.9569 57.8101C62.5876 57.5496 63 56.9336 63 56.2502V27.5637C63 26.1744 61.4096 25.3792 60.2979 26.2158ZM39.7255 39.2817C39.5636 38.364 40.1765 37.4887 41.0944 37.3269L52.7274 35.2757C53.6457 35.1141 54.5204 35.7267 54.6822 36.6446C54.8441 37.5623 54.2312 38.4376 53.3134 38.5993L41.6804 40.6505C40.7645 40.8123 39.8876 40.2009 39.7255 39.2817ZM57.9056 54.9243C52.8052 55.823 50.2542 49.5146 49.2077 44.4636L47.5027 44.7642C48.1676 50.0472 47.6825 55.2351 47.6593 55.4756C47.5751 56.3481 46.8405 57.0012 45.9816 57.0012C44.9807 57.0012 44.2048 56.1407 44.2998 55.1523C44.3051 55.0979 44.7591 50.2109 44.1739 45.3511L42.5595 45.6358C41.6435 45.7977 40.7667 45.1863 40.6046 44.2669C40.4427 43.3492 41.0556 42.4739 41.9735 42.3121C53.047 40.3597 46.7457 41.4706 53.6064 40.2611C54.5246 40.0988 55.3995 40.7121 55.5613 41.6299C55.7232 42.5477 55.1103 43.4229 54.1924 43.5847L52.5326 43.8774C53.0814 46.4511 54.7453 52.0548 57.3195 51.6007C58.2375 51.4387 59.1125 52.0518 59.2743 52.9695C59.4363 53.8873 58.8234 54.7625 57.9056 54.9243Z" fill="url(#paint1_radial_16_20)"/>
<path d="M60.2557 17.5614C59.3913 17.2129 58.4081 17.6315 58.0599 18.4958L57.5569 19.7439C54.5195 15.7264 50.3944 12.5992 45.6755 10.7875C44.8054 10.4536 43.8293 10.888 43.4953 11.758C43.1613 12.6281 43.5958 13.6041 44.4658 13.9382C48.7222 15.5723 52.4275 18.4298 55.1072 22.1041L52.5963 22.5245C51.6771 22.6784 51.0567 23.5484 51.2106 24.4675C51.3649 25.3888 52.2367 26.0068 53.1537 25.8531C58.6779 24.9281 58.5679 25.0356 59.0573 24.5947C59.4531 24.2369 59.3327 24.3668 61.1902 19.7572C61.5385 18.8927 61.1201 17.9096 60.2557 17.5614Z" fill="url(#paint2_radial_16_20)"/>
<path d="M24.2531 56.5029C21.3589 54.8411 18.8513 52.583 16.8941 49.8976L19.4037 49.4773C20.3229 49.3235 20.9433 48.4535 20.7894 47.5344C20.6355 46.6152 19.7655 45.9947 18.8463 46.1488C13.5106 47.0423 13.3339 46.953 12.8136 47.5382C12.5498 47.8348 12.6438 47.6936 10.8098 52.2448C10.3608 53.3593 11.1886 54.5633 12.3745 54.5633C13.0426 54.5633 13.6752 54.1638 13.9403 53.5061L14.4427 52.2592C16.636 55.1626 19.4016 57.609 22.5724 59.4297C22.8374 59.5818 23.1261 59.6541 23.4112 59.6541C25.1369 59.654 25.7458 57.3599 24.2531 56.5029Z" fill="url(#paint3_radial_16_20)"/>
<defs>
<radialGradient id="paint0_radial_16_20" cx="0" cy="0" r="1" gradientUnits="userSpaceOnUse" gradientTransform="translate(29.1429 25.5) rotate(45) scale(37.5777)">
<stop stop-color="#F9F3DE"/>
<stop offset="1" stop-color="#F9F3DE" stop-opacity="0.25"/>
</radialGradient>
<radialGradient id="paint1_radial_16_20" cx="0" cy="0" r="1" gradientUnits="userSpaceOnUse" gradientTransform="translate(29.1429 25.5) rotate(45) scale(37.5777)">
<stop stop-color="#F9F3DE"/>
<stop offset="1" stop-color="#F9F3DE" stop-opacity="0.25"/>
</radialGradient>
<radialGradient id="paint2_radial_16_20" cx="0" cy="0" r="1" gradientUnits="userSpaceOnUse" gradientTransform="translate(29.1429 25.5) rotate(45) scale(37.5777)">
<stop stop-color="#F9F3DE"/>
<stop offset="1" stop-color="#F9F3DE" stop-opacity="0.25"/>
</radialGradient>
<radialGradient id="paint3_radial_16_20" cx="0" cy="0" r="1" gradientUnits="userSpaceOnUse" gradientTransform="translate(29.1429 25.5) rotate(45) scale(37.5777)">
<stop stop-color="#F9F3DE"/>
<stop offset="1" stop-color="#F9F3DE" stop-opacity="0.25"/>
</radialGradient>
</defs>
</svg>
