<svg width="72" height="72" viewBox="0 0 72 72" fill="none" xmlns="http://www.w3.org/2000/svg">
<path d="M11.0019 64H14.0017C14.2669 64 14.5213 63.8946 14.7088 63.7071C14.8963 63.5196 15.0017 63.2652 15.0017 63V59H10.0019V63C10.0019 63.2652 10.1073 63.5196 10.2948 63.7071C10.4824 63.8946 10.7367 64 11.0019 64Z" fill="url(#paint0_radial_16_7)"/>
<path d="M13.4248 37.9239L14.6747 35.4239L8.57503 32.1689L8.01806 36.1879C7.97865 36.4663 8.05126 36.749 8.21996 36.9739C8.38867 37.1989 8.63971 37.3478 8.91801 37.3879L13.4248 37.9239Z" fill="url(#paint1_radial_16_7)"/>
<path d="M37.1864 25.7448L46.4209 21.6078L47.2068 18.2728C43.5895 19.4514 39.8048 20.0347 36.0005 19.9998C32.1962 20.0347 28.4114 19.4514 24.7941 18.2728L25.5801 21.6078L34.8195 25.7468C35.1919 25.9134 35.5953 25.9993 36.0032 25.999C36.4111 25.9986 36.8143 25.912 37.1864 25.7448Z" fill="url(#paint2_radial_16_7)"/>
<path d="M34.5896 51.3809L23.5542 45.4999C24.3294 48.588 24.7983 51.7449 24.9541 54.925C24.9753 55.3247 25.1159 55.7089 25.3578 56.0279C25.5997 56.3468 25.9318 56.5858 26.311 56.714L34.7365 59.525C35.5586 59.797 36.4464 59.797 37.2684 59.525L45.6939 56.714C46.0735 56.5857 46.4057 56.3464 46.6477 56.0271C46.8896 55.7077 47.0301 55.3231 47.0508 54.923C47.2071 51.7436 47.6761 48.5874 48.4508 45.4999L37.4114 51.3809C36.9771 51.6124 36.4926 51.7335 36.0005 51.7335C35.5084 51.7335 35.0238 51.6124 34.5896 51.3809Z" fill="url(#paint3_radial_16_7)"/>
<path d="M20.4834 36.7189C21.4023 38.7011 22.1818 40.7451 22.8162 42.8359L35.5305 49.6149C35.6749 49.6927 35.8364 49.7335 36.0005 49.7335C36.1645 49.7335 36.326 49.6927 36.4704 49.6149L49.1847 42.8359C49.8191 40.7451 50.5986 38.7011 51.5176 36.7189L51.1126 33.8839L45.161 33.0339L37.9854 36.5339C37.3677 36.8375 36.6887 36.9953 36.0005 36.9953C35.3123 36.9953 34.6332 36.8375 34.0156 36.5339L26.84 33.0339L20.8883 33.8839L20.4834 36.7189Z" fill="url(#paint4_radial_16_7)"/>
<path d="M15.1227 57L15.7016 52.3469C13.8547 51.7218 11.9424 51.3098 10.0019 51.1189V57H15.1227Z" fill="url(#paint5_radial_16_7)"/>
<path d="M8.56203 29.8998L16.0196 33.8789L18.6195 32.5789C16.4943 29.0184 13.6577 25.9345 10.2869 23.5198L8.07206 28.5708C7.97816 28.8141 7.97611 29.0832 8.0663 29.3278C8.15648 29.5724 8.33272 29.7758 8.56203 29.8998Z" fill="url(#paint6_radial_16_7)"/>
<path d="M61.999 51.1189C60.0584 51.3097 58.1461 51.722 56.2993 52.348L56.8783 57H61.999V51.1189Z" fill="url(#paint7_radial_16_7)"/>
<path d="M61.999 63V59H56.9993V63C56.9993 63.2652 57.1046 63.5196 57.2922 63.7071C57.4797 63.8946 57.734 64 57.9992 64H60.9991C61.2643 64 61.5186 63.8946 61.7061 63.7071C61.8937 63.5196 61.999 63.2652 61.999 63Z" fill="url(#paint8_radial_16_7)"/>
<path d="M63.1059 37.3869C63.3808 37.3428 63.6272 37.192 63.7916 36.9674C63.956 36.7427 64.0251 36.4622 63.9839 36.1869L63.4269 32.1659L57.3273 35.4209L58.5772 37.9209L63.1059 37.3869Z" fill="url(#paint9_radial_16_7)"/>
<path d="M9.88395 20.4798C9.91345 20.6239 9.97225 20.7604 10.0567 20.8808C10.1412 21.0012 10.2495 21.103 10.3749 21.1798C14.574 23.8942 18.0635 27.5731 20.5523 31.9099L25.7771 31.1639L20.5124 8.82875C20.4438 8.55032 20.2683 8.31016 20.0238 8.16038C19.7793 8.0106 19.4856 7.9633 19.2064 8.02875C18.934 8.09546 18.6987 8.2667 18.5515 8.50546C18.4042 8.74422 18.3568 9.03133 18.4195 9.30475L18.9804 11.7748C19.0353 12.0169 18.9981 12.2708 18.8761 12.4871C18.7542 12.7033 18.5561 12.8665 18.3205 12.9448C14.5117 14.2188 11.5019 17.7418 10.0519 19.7288C9.97317 19.8354 9.91753 19.9572 9.8886 20.0866C9.85967 20.2159 9.85809 20.3498 9.88395 20.4798Z" fill="url(#paint10_radial_16_7)"/>
<path d="M34.8925 34.7409C35.2372 34.9106 35.6163 34.9989 36.0005 34.9989C36.3847 34.9989 36.7637 34.9106 37.1084 34.7409L44.134 31.3099L45.8429 24.0598L38.0004 27.5728C37.3723 27.8537 36.692 27.9989 36.004 27.9989C35.316 27.9989 34.6357 27.8537 34.0076 27.5728L26.159 24.0568L27.8679 31.3079L34.8925 34.7409Z" fill="url(#paint11_radial_16_7)"/>
<path d="M61.715 23.5198C58.3449 25.9333 55.5087 29.0158 53.3835 32.5749L55.9833 33.8749L63.4559 29.8888C63.6844 29.7589 63.8573 29.5499 63.9423 29.3012C64.0272 29.0525 64.0182 28.7813 63.9169 28.5388L61.715 23.5198Z" fill="url(#paint12_radial_16_7)"/>
<path d="M53.6805 12.9478C53.4449 12.8695 53.2468 12.7063 53.1248 12.4901C53.0028 12.2738 52.9656 12.0199 53.0205 11.7778L53.5825 9.29975C53.6432 9.02802 53.5953 8.74331 53.449 8.5064C53.3028 8.26949 53.0697 8.09916 52.7995 8.03175C52.5203 7.96576 52.2264 8.01282 51.9818 8.16268C51.7371 8.31254 51.5616 8.55304 51.4936 8.83175L46.2239 31.1649L51.4486 31.9109C53.9375 27.5741 57.4269 23.8952 61.626 21.1808C61.7515 21.104 61.8598 21.0022 61.9442 20.8818C62.0287 20.7614 62.0875 20.6249 62.117 20.4808C62.1429 20.3508 62.1413 20.2169 62.1124 20.0876C62.0834 19.9582 62.0278 19.8364 61.949 19.7298C60.4991 17.7418 57.4893 14.2188 53.6805 12.9478Z" fill="url(#paint13_radial_16_7)"/>
<path d="M8.05606 48.8729C8.07703 48.8993 8.10343 48.9207 8.13345 48.9359C8.16348 48.9511 8.19643 48.9596 8.23005 48.9609C11.4534 49.0876 14.6309 49.7678 17.6235 50.9719C17.6645 50.9915 17.7098 51.0003 17.7551 50.9975C17.8004 50.9947 17.8443 50.9804 17.8825 50.9559C17.9141 50.9368 17.94 50.9095 17.9576 50.877C17.9752 50.8445 17.9838 50.8079 17.9825 50.7709L17.9985 42.4709C18.002 40.7755 18.1236 39.0824 18.3625 37.4039L18.7425 34.7449L16.7486 35.7449L14.9017 39.4469C14.8182 39.6139 14.6897 39.7542 14.5307 39.8519C14.3716 39.9497 14.1884 40.0009 14.0017 39.9999C13.9623 40 13.9229 39.9977 13.8837 39.9929L9.43998 39.4659L8.00206 48.6939C7.9977 48.7259 8.00027 48.7584 8.00959 48.7893C8.0189 48.8202 8.03475 48.8487 8.05606 48.8729Z" fill="url(#paint14_radial_16_7)"/>
<path d="M63.9449 48.8729C63.9658 48.8483 63.9811 48.8195 63.9899 48.7885C63.9987 48.7574 64.0007 48.7248 63.9959 48.6929L62.558 39.4659L58.1142 39.9929C58.0761 39.9976 58.0377 39.9999 57.9992 39.9999C57.8136 39.9998 57.6316 39.948 57.4737 39.8503C57.3158 39.7527 57.1883 39.613 57.1053 39.4469L55.2544 35.7469L53.2605 34.7469L53.6405 37.4059C53.8777 39.0848 53.9977 40.7783 53.9995 42.4739L54.0155 50.7739C54.0139 50.8112 54.0224 50.8482 54.04 50.8811C54.0576 50.914 54.0836 50.9415 54.1155 50.9609C54.1541 50.9859 54.1985 51.0004 54.2445 51.003C54.2904 51.0056 54.3362 50.9963 54.3774 50.9759C57.3678 49.7726 60.543 49.093 63.7639 48.9669C63.7991 48.9655 63.8336 48.9564 63.8649 48.9401C63.8962 48.9239 63.9235 48.9009 63.9449 48.8729Z" fill="url(#paint15_radial_16_7)"/>
<defs>
<radialGradient id="paint0_radial_16_7" cx="0" cy="0" r="1" gradientUnits="userSpaceOnUse" gradientTransform="translate(28.8889 25.1111) rotate(45) scale(38.9694)">
<stop stop-color="#F9F3DE"/>
<stop offset="1" stop-color="#F9F3DE" stop-opacity="0.25"/>
</radialGradient>
<radialGradient id="paint1_radial_16_7" cx="0" cy="0" r="1" gradientUnits="userSpaceOnUse" gradientTransform="translate(28.8889 25.1111) rotate(45) scale(38.9694)">
<stop stop-color="#F9F3DE"/>
<stop offset="1" stop-color="#F9F3DE" stop-opacity="0.25"/>
</radialGradient>
<radialGradient id="paint2_radial_16_7" cx="0" cy="0" r="1" gradientUnits="userSpaceOnUse" gradientTransform="translate(28.8889 25.1111) rotate(45) scale(38.9694)">
<stop stop-color="#F9F3DE"/>
<stop offset="1" stop-color="#F9F3DE" stop-opacity="0.25"/>
</radialGradient>
<radialGradient id="paint3_radial_16_7" cx="0" cy="0" r="1" gradientUnits="userSpaceOnUse" gradientTransform="translate(28.8889 25.1111) rotate(45) scale(38.9694)">
<stop stop-color="#F9F3DE"/>
<stop offset="1" stop-color="#F9F3DE" stop-opacity="0.25"/>
</radialGradient>
<radialGradient id="paint4_radial_16_7" cx="0" cy="0" r="1" gradientUnits="userSpaceOnUse" gradientTransform="translate(28.8889 25.1111) rotate(45) scale(38.9694)">
<stop stop-color="#F9F3DE"/>
<stop offset="1" stop-color="#F9F3DE" stop-opacity="0.25"/>
</radialGradient>
<radialGradient id="paint5_radial_16_7" cx="0" cy="0" r="1" gradientUnits="userSpaceOnUse" gradientTransform="translate(28.8889 25.1111) rotate(45) scale(38.9694)">
<stop stop-color="#F9F3DE"/>
<stop offset="1" stop-color="#F9F3DE" stop-opacity="0.25"/>
</radialGradient>
<radialGradient id="paint6_radial_16_7" cx="0" cy="0" r="1" gradientUnits="userSpaceOnUse" gradientTransform="translate(28.8889 25.1111) rotate(45) scale(38.9694)">
<stop stop-color="#F9F3DE"/>
<stop offset="1" stop-color="#F9F3DE" stop-opacity="0.25"/>
</radialGradient>
<radialGradient id="paint7_radial_16_7" cx="0" cy="0" r="1" gradientUnits="userSpaceOnUse" gradientTransform="translate(28.8889 25.1111) rotate(45) scale(38.9694)">
<stop stop-color="#F9F3DE"/>
<stop offset="1" stop-color="#F9F3DE" stop-opacity="0.25"/>
</radialGradient>
<radialGradient id="paint8_radial_16_7" cx="0" cy="0" r="1" gradientUnits="userSpaceOnUse" gradientTransform="translate(28.8889 25.1111) rotate(45) scale(38.9694)">
<stop stop-color="#F9F3DE"/>
<stop offset="1" stop-color="#F9F3DE" stop-opacity="0.25"/>
</radialGradient>
<radialGradient id="paint9_radial_16_7" cx="0" cy="0" r="1" gradientUnits="userSpaceOnUse" gradientTransform="translate(28.8889 25.1111) rotate(45) scale(38.9694)">
<stop stop-color="#F9F3DE"/>
<stop offset="1" stop-color="#F9F3DE" stop-opacity="0.25"/>
</radialGradient>
<radialGradient id="paint10_radial_16_7" cx="0" cy="0" r="1" gradientUnits="userSpaceOnUse" gradientTransform="translate(28.8889 25.1111) rotate(45) scale(38.9694)">
<stop stop-color="#F9F3DE"/>
<stop offset="1" stop-color="#F9F3DE" stop-opacity="0.25"/>
</radialGradient>
<radialGradient id="paint11_radial_16_7" cx="0" cy="0" r="1" gradientUnits="userSpaceOnUse" gradientTransform="translate(28.8889 25.1111) rotate(45) scale(38.9694)">
<stop stop-color="#F9F3DE"/>
<stop offset="1" stop-color="#F9F3DE" stop-opacity="0.25"/>
</radialGradient>
<radialGradient id="paint12_radial_16_7" cx="0" cy="0" r="1" gradientUnits="userSpaceOnUse" gradientTransform="translate(28.8889 25.1111) rotate(45) scale(38.9694)">
<stop stop-color="#F9F3DE"/>
<stop offset="1" stop-color="#F9F3DE" stop-opacity="0.25"/>
</radialGradient>
<radialGradient id="paint13_radial_16_7" cx="0" cy="0" r="1" gradientUnits="userSpaceOnUse" gradientTransform="translate(28.8889 25.1111) rotate(45) scale(38.9694)">
<stop stop-color="#F9F3DE"/>
<stop offset="1" stop-color="#F9F3DE" stop-opacity="0.25"/>
</radialGradient>
<radialGradient id="paint14_radial_16_7" cx="0" cy="0" r="1" gradientUnits="userSpaceOnUse" gradientTransform="translate(28.8889 25.1111) rotate(45) scale(38.9694)">
<stop stop-color="#F9F3DE"/>
<stop offset="1" stop-color="#F9F3DE" stop-opacity="0.25"/>
</radialGradient>
<radialGradient id="paint15_radial_16_7" cx="0" cy="0" r="1" gradientUnits="userSpaceOnUse" gradientTransform="translate(28.8889 25.1111) rotate(45) scale(38.9694)">
<stop stop-color="#F9F3DE"/>
<stop offset="1" stop-color="#F9F3DE" stop-opacity="0.25"/>
</radialGradient>
</defs>
</svg>
