<svg width="72" height="72" viewBox="0 0 72 72" fill="none" xmlns="http://www.w3.org/2000/svg">
<path d="M65.3896 44.8363L59.9076 16.7579C60.6946 16.0882 61.1102 15.0457 60.9027 13.9826C60.5927 12.3953 59.016 11.3674 57.3806 11.6867C56.2852 11.9006 55.4441 12.6657 55.0995 13.6239L9.88644 22.4513C9.20662 21.6931 8.13964 21.3006 7.04425 21.5144C5.40879 21.8336 4.33441 23.3791 4.64432 24.9664C4.8519 26.0296 5.62902 26.8392 6.61026 27.1636L12.0923 55.2419C11.3052 55.9118 10.8896 56.9543 11.0972 58.0175C11.4071 59.6048 12.9839 60.6326 14.6193 60.3134C15.7147 60.0995 16.5557 59.3344 16.9003 58.3762L62.1135 49.5487C62.7933 50.3068 63.8603 50.6995 64.9558 50.4856C66.5912 50.1663 67.6656 48.6209 67.3557 47.0336C67.148 45.9704 66.3708 45.1607 65.3896 44.8363ZM39.5371 22.6292L37.1373 26.0813L33.6152 23.7854L39.5371 22.6292ZM29.3766 33.5636L26.0574 40.1788L30.4988 39.3117L28.0213 50.2379L23.5799 51.105L22.1771 43.9201L20.6966 44.2091L20.1354 41.3352L22.5352 37.8831L19.9325 32.4241L15.2105 31.8542L17.6103 28.4022L27.9737 26.3788L29.3766 33.5636ZM43.7455 44.1844L40.7846 44.7624L36.9819 41.0296L37.6207 36.4295L35.8597 35.2815L35.2985 32.4076L38.2595 31.8295L42.7786 23.4883L47.2201 22.6211L52.1449 32.1021L46.223 33.2583L43.7455 44.1844ZM57.631 44.4569L50.2286 45.9021L49.1064 40.1541L56.5087 38.7088L57.631 44.4569Z" fill="url(#paint0_radial_16_16)"/>
<defs>
<radialGradient id="paint0_radial_16_16" cx="0" cy="0" r="1" gradientUnits="userSpaceOnUse" gradientTransform="translate(27.3831 29.8506) rotate(23.5448) scale(34.2626 32.0263)">
<stop stop-color="#F9F3DE"/>
<stop offset="1" stop-color="#F9F3DE" stop-opacity="0.25"/>
</radialGradient>
</defs>
</svg>
