<svg width="72" height="72" viewBox="0 0 72 72" fill="none" xmlns="http://www.w3.org/2000/svg">
<path d="M45.275 62.4848H44.3177L43.1322 58.6574C43.718 58.3763 44.1241 57.7716 44.1241 57.068C44.1241 56.1388 43.4161 55.3798 42.5199 55.3166L42.4481 51.9044C43.2405 51.7451 43.8379 51.0342 43.8379 50.1805C43.8379 49.3011 43.2032 48.5742 42.3753 48.4451L41.7796 20.0626H29.2208L28.6247 48.4451C27.7972 48.5746 27.1625 49.3011 27.1625 50.1805C27.1625 51.0342 27.76 51.7451 28.5519 51.9044L28.4805 55.3166C27.5834 55.3789 26.8741 56.1383 26.8741 57.0685C26.8741 57.7716 27.2806 58.3768 27.8664 58.6579L26.6818 62.4848H25.725C24.7722 62.4848 24 63.2717 24 64.2426C24 65.1687 24.7035 65.9258 25.5956 65.9936L25.5938 66H45.4066L45.4048 65.9936C46.2965 65.9258 47 65.1687 47 64.2426C47 63.2717 46.2278 62.4848 45.275 62.4848Z" fill="url(#paint0_radial_16_26)"/>
<path d="M26.875 9.51702H28.4262L29.0398 13.1883C28.4419 13.4644 28.025 14.0764 28.025 14.7887C28.025 15.5989 28.5641 16.2796 29.2958 16.4829L29.2945 16.5465H41.7055L41.7042 16.4833C42.4364 16.2801 42.975 15.5994 42.975 14.7887C42.975 14.0764 42.5586 13.4644 41.9602 13.1883L42.5738 9.51702H44.125C45.0778 9.51702 45.85 8.73012 45.85 7.7592C45.85 6.78827 45.0778 6.00137 44.125 6.00137H43.161L43.1614 6H27.8386L27.839 6.00137H26.875C25.9222 6.00137 25.15 6.78827 25.15 7.7592C25.15 8.73012 25.9222 9.51702 26.875 9.51702Z" fill="url(#paint1_radial_16_26)"/>
<defs>
<radialGradient id="paint0_radial_16_26" cx="0" cy="0" r="1" gradientUnits="userSpaceOnUse" gradientTransform="translate(45.9632 24.3333) rotate(45.5398) scale(41.3651 41.3578)">
<stop stop-color="#F9F3DE"/>
<stop offset="1" stop-color="#F9F3DE" stop-opacity="0.25"/>
</radialGradient>
<radialGradient id="paint1_radial_16_26" cx="0" cy="0" r="1" gradientUnits="userSpaceOnUse" gradientTransform="translate(45.9632 24.3333) rotate(45.5398) scale(41.3651 41.3578)">
<stop stop-color="#F9F3DE"/>
<stop offset="1" stop-color="#F9F3DE" stop-opacity="0.25"/>
</radialGradient>
</defs>
</svg>
