<svg width="72" height="72" viewBox="0 0 72 72" fill="none" xmlns="http://www.w3.org/2000/svg">
<g clip-path="url(#clip0_16_14)">
<path d="M7 56.5598C7.42399 55.182 7.84798 53.8076 8.18581 52.3458C8.94767 49.0759 9.20271 45.7222 8.94767 42.3646C8.77874 39.9551 8.35475 37.633 8.18581 35.2234C7.93076 30.922 8.35475 26.7079 9.71285 22.5779C12.8497 13.3736 19.0406 7.00483 27.6891 3.05005C32.6909 0.811896 38.0336 -0.219772 43.5455 0.0390052C51.3462 0.297765 58.3851 2.79127 64.7449 7.26413C64.8311 7.3515 64.9139 7.3515 65 7.43551C64.576 7.69427 64.2381 7.86566 63.8142 8.12442C60.5084 10.0164 57.6233 12.4259 55.0792 15.3495C54.9102 15.6083 54.7413 15.6083 54.4862 15.4369C50.1602 12.6847 45.496 11.2228 40.4081 11.3942C31.5908 11.8244 24.807 15.9545 20.5671 24.0397C18.4472 28.0824 17.7681 32.4713 18.0232 37.0319C18.1093 37.8922 18.1921 38.7525 18.2782 39.6128V40.1303C17.1752 43.6589 15.6481 46.9253 13.4454 49.8525C11.4911 52.3427 9.45786 54.5805 7 56.5598Z" fill="url(#paint0_radial_16_14)"/>
<path d="M29.4714 38.836C38.8823 34.1918 47.703 28.6002 56.0962 22.3192C58.0473 29.9745 59.9121 37.5456 61.8632 45.2048C60.7601 44.6033 59.7432 44.0018 58.7263 43.3968C58.5574 43.3094 58.5574 43.1381 58.4713 42.9667C58.2162 41.7636 57.8784 40.6445 57.6233 39.4381C57.5372 38.8365 57.1993 38.4064 56.8614 37.8888C56.1824 37.0285 55.4206 36.3396 54.4037 35.9969C53.3868 35.6541 52.3699 35.1366 51.3496 34.7064C51.0945 34.6191 50.8395 34.535 50.5877 34.535H46.1789C45.8411 34.535 45.8411 34.6224 46.01 34.8778C46.6029 35.8255 47.1958 36.7698 47.7921 37.8015C47.961 38.0602 48.2161 38.1442 48.4711 38.319C50.5911 39.3506 52.6249 40.2983 54.7448 41.33C55.0827 41.5014 55.1688 41.6728 55.2549 42.0189C56.0168 47.7822 56.8647 53.6329 57.7127 59.3961C57.7988 59.7389 57.7988 60.085 57.8816 60.4277C57.7955 60.5151 57.7127 60.4277 57.6266 60.4277C54.3208 58.5358 51.0117 56.6438 47.7884 54.7484C45.6684 53.5454 43.4623 52.3389 41.2596 51.2198C40.8356 50.961 40.6667 50.7023 40.6667 50.1881V45.5439C40.6667 44.9424 40.7528 44.9424 40.0737 45.1138C37.4437 45.7153 34.817 46.4042 32.1869 47.2645C28.626 48.3836 25.0652 49.758 21.5871 51.3072C21.925 50.8771 22.1801 50.5343 22.5213 50.1042C23.8794 48.3836 25.0652 46.4916 26.0821 44.5996C26.251 44.1695 26.3372 43.8267 26.251 43.3092C25.8271 41.071 25.4031 38.9203 25.3169 36.5982C25.148 31.8666 26.3338 27.5651 29.643 24.0361C32.018 21.5426 34.8997 20.1648 38.2092 19.5633C42.2802 18.8744 46.1789 19.4759 49.9122 21.4552C50.5051 21.798 51.098 22.1441 51.6943 22.5743C51.6082 22.6617 51.6082 22.6617 51.5254 22.6617C51.1014 23.0045 50.6774 23.522 50.1672 23.522C49.7432 23.6094 49.3193 23.0045 48.8091 22.8331C45.4172 21.0251 41.8564 20.5949 38.1229 21.2838C38.0368 21.2838 37.8678 21.3712 37.785 21.4552C41.6871 21.3679 45.1618 22.4869 48.2983 24.9838C41.849 29.2887 35.32 33.5902 29.4706 38.8363L29.4714 38.836Z" fill="url(#paint1_radial_16_14)"/>
<path d="M60.0808 76C56.775 74.3668 53.4659 72.6462 50.1603 71.097C43.0386 67.7432 35.8312 64.7322 28.1994 62.5814C23.6216 61.291 19.0404 60.3433 14.2942 60.0879C12.2604 60.0006 10.1405 60.0879 8.02053 60.1753C8.86851 59.4864 9.63034 58.9723 10.4783 58.4547C12.0054 57.507 13.5324 56.5627 15.3111 56.1326C17.4311 55.5311 19.6372 55.5311 21.8399 55.8738C28.1997 56.9055 34.1356 59.2276 39.9027 62.2387C45.8385 65.3371 51.3504 69.2084 56.607 73.3348C57.7928 74.1951 58.8958 75.1394 60.0817 75.9997L60.0808 76Z" fill="url(#paint2_radial_16_14)"/>
<path d="M22.7699 53.6323C23.7868 53.0307 24.7209 52.6845 25.6517 52.2544C29.6365 50.5338 33.7075 49.2434 37.7786 48.2117C38.2026 48.1243 38.2887 48.2117 38.2887 48.6418V51.7403C38.2887 52.2578 38.4577 52.4292 38.8817 52.6006C40.4915 53.4609 42.1047 54.2338 43.7145 55.0941C45.0726 55.783 46.4273 56.5559 47.7854 57.3322C48.0405 57.5036 48.2094 57.591 47.8716 57.8497C47.7854 57.9371 47.7854 57.9371 47.7026 58.0211C46.0928 60.4306 46.1756 60.2593 47.2786 62.7528C47.4476 63.1829 47.6165 63.5257 47.8716 64.1306C40.0708 59.0529 31.9289 55.3528 22.7699 53.6323Z" fill="url(#paint3_radial_16_14)"/>
<path d="M20.3125 35.3948C20.3125 29.8903 21.7534 25.159 25.1453 21.1122C28.6234 16.8981 33.1149 14.4886 38.5442 13.887C43.2942 13.2855 47.7855 14.2298 51.9431 16.6393C52.7911 17.1568 52.7911 17.1568 52.1982 17.9298C51.8603 18.3599 51.5191 18.79 51.1813 19.2202C51.0123 19.479 50.8434 19.479 50.5883 19.3076C48.4684 18.1045 46.1795 17.2442 43.7184 16.8981C34.5594 15.5236 25.9939 20.9408 23.6187 30.2327C23.1086 32.3834 22.9397 34.5341 23.0258 36.7723C23.0258 37.2024 22.9397 37.3738 22.5157 37.3738C22.0056 37.3738 21.4126 37.4612 20.9059 37.5452C20.4819 37.6326 20.3958 37.4578 20.3958 37.1151C20.3958 36.5135 20.3125 35.825 20.3125 35.3948Z" fill="url(#paint4_radial_16_14)"/>
</g>
<defs>
<radialGradient id="paint0_radial_16_14" cx="0" cy="0" r="1" gradientUnits="userSpaceOnUse" gradientTransform="translate(28.6349 23.2222) rotate(52.6507) scale(47.0429 45.3753)">
<stop stop-color="#F9F3DE"/>
<stop offset="1" stop-color="#F9F3DE" stop-opacity="0.25"/>
</radialGradient>
<radialGradient id="paint1_radial_16_14" cx="0" cy="0" r="1" gradientUnits="userSpaceOnUse" gradientTransform="translate(28.6349 23.2222) rotate(52.6507) scale(47.0429 45.3753)">
<stop stop-color="#F9F3DE"/>
<stop offset="1" stop-color="#F9F3DE" stop-opacity="0.25"/>
</radialGradient>
<radialGradient id="paint2_radial_16_14" cx="0" cy="0" r="1" gradientUnits="userSpaceOnUse" gradientTransform="translate(28.6349 23.2222) rotate(52.6507) scale(47.0429 45.3753)">
<stop stop-color="#F9F3DE"/>
<stop offset="1" stop-color="#F9F3DE" stop-opacity="0.25"/>
</radialGradient>
<radialGradient id="paint3_radial_16_14" cx="0" cy="0" r="1" gradientUnits="userSpaceOnUse" gradientTransform="translate(28.6349 23.2222) rotate(52.6507) scale(47.0429 45.3753)">
<stop stop-color="#F9F3DE"/>
<stop offset="1" stop-color="#F9F3DE" stop-opacity="0.25"/>
</radialGradient>
<radialGradient id="paint4_radial_16_14" cx="0" cy="0" r="1" gradientUnits="userSpaceOnUse" gradientTransform="translate(28.6349 23.2222) rotate(52.6507) scale(47.0429 45.3753)">
<stop stop-color="#F9F3DE"/>
<stop offset="1" stop-color="#F9F3DE" stop-opacity="0.25"/>
</radialGradient>
<clipPath id="clip0_16_14">
<rect width="72" height="72" fill="white"/>
</clipPath>
</defs>
</svg>
