<svg width="72" height="72" viewBox="0 0 72 72" fill="none" xmlns="http://www.w3.org/2000/svg">
<path d="M67.2573 56.985L63.8887 53.1801L55.3581 56.2943C56.429 58.377 57.8099 60.285 59.4538 61.953L66.6635 59.3236C66.8843 59.2389 67.0815 59.1025 67.2386 58.9258C67.3956 58.7491 67.508 58.5372 67.5662 58.3081C67.6243 58.0789 67.6267 57.8391 67.5729 57.6089C67.5192 57.3787 67.4109 57.1647 67.2573 56.985Z" fill="url(#paint0_radial_635_9404)"/>
<path d="M51.8078 48.1636C52.4984 50.1943 53.3118 52.1811 54.2434 54.1131C54.2434 54.1131 64.1686 50.4916 64.2886 50.4538C64.5116 50.3736 64.7114 50.2399 64.8708 50.0646C65.0301 49.8893 65.144 49.6776 65.2026 49.448C65.2612 49.2184 65.2626 48.978 65.2068 48.7478C65.1509 48.5176 65.0395 48.3045 64.8823 48.1273L61.5138 44.3224L51.8078 48.1636Z" fill="url(#paint1_radial_635_9404)"/>
<path d="M51.0444 45.8613L63.1617 41.0629C63.4322 40.9515 63.6732 40.7788 63.8657 40.5584C64.0582 40.338 64.1969 40.076 64.2708 39.7929C64.3448 39.5098 64.3521 39.2134 64.2921 38.9271C64.2321 38.6407 64.1064 38.3722 63.925 38.1426L60.9684 34.5075C60.7117 34.1944 60.3602 33.9731 59.9669 33.8769C59.5735 33.7808 59.1596 33.815 58.7874 33.9743L49.045 38.2517C49.663 41.0871 50.3416 43.6196 51.0444 45.8613Z" fill="url(#paint2_radial_635_9404)"/>
<path d="M52.4743 56.0519C49.89 50.6795 47.9734 45.0109 46.767 39.1726C39.8731 41.5961 32.3588 41.5961 25.4649 39.1726C24.8163 42.127 24.0196 45.0469 23.0778 47.9212C16.154 68.2548 10.4265 58.5725 36.1162 58.5119C42.6331 58.5141 49.1234 59.3447 55.4309 60.9837C54.3111 59.424 53.3222 57.7745 52.4743 56.0519Z" fill="url(#paint3_radial_635_9404)"/>
<path d="M8.35539 53.1801C8.33635 53.1589 4.9866 56.9872 4.97465 56.985C4.81938 57.164 4.70971 57.378 4.65502 57.6086C4.60033 57.8392 4.60222 58.0797 4.66055 58.3094C4.71888 58.5391 4.8319 58.7514 4.98999 58.9279C5.14807 59.1045 5.34652 59.2403 5.56842 59.3236L12.7782 61.953C14.422 60.285 15.803 58.377 16.8738 56.2943L8.35539 53.1801Z" fill="url(#paint4_radial_635_9404)"/>
<path d="M9.07027 41.0629C9.20373 41.1263 21.1875 45.8613 21.1875 45.8613C21.8903 43.6196 22.5689 41.0871 23.1869 38.2517L13.4325 33.9622C13.0603 33.8086 12.6486 33.7786 12.258 33.8768C11.8675 33.975 11.5189 34.196 11.2635 34.5074L8.30691 38.1426C8.12549 38.3722 7.99984 38.6407 7.93983 38.9271C7.87983 39.2135 7.88711 39.5098 7.96111 39.7929C8.0351 40.076 8.1738 40.338 8.36627 40.5584C8.55873 40.7788 8.79973 40.9515 9.07027 41.0629Z" fill="url(#paint5_radial_635_9404)"/>
<path d="M7.94337 50.4538C8.01824 50.485 17.9885 54.1131 17.9885 54.1131C18.9201 52.1811 19.7335 50.1943 20.4241 48.1636L10.7182 44.3224L7.34964 48.1273C7.19242 48.3045 7.08102 48.5176 7.02519 48.7478C6.96936 48.978 6.9708 49.2185 7.02938 49.448C7.08796 49.6776 7.20191 49.8893 7.36124 50.0646C7.52058 50.2399 7.72045 50.3736 7.94337 50.4538Z" fill="url(#paint6_radial_635_9404)"/>
<path d="M36.116 29.8908C37.2005 29.8783 38.2363 29.4388 38.9988 28.6675C39.7613 27.8962 40.1889 26.8554 40.1889 25.7709C40.1889 24.6863 39.7612 23.6455 38.9987 22.8742C38.2362 22.103 37.2003 21.6635 36.1159 21.6511C35.0314 21.6635 33.9955 22.103 33.233 22.8743C32.4706 23.6456 32.0429 24.6864 32.043 25.771C32.043 26.8555 32.4706 27.8963 33.2331 28.6676C33.9956 29.4389 35.0315 29.8784 36.116 29.8908Z" fill="url(#paint7_radial_635_9404)"/>
<path d="M42.6351 26.2193C46.4463 25.0236 49.8583 22.8089 52.5022 19.8148C55.1461 16.8206 56.9214 13.1608 57.6361 9.23083C55.3542 12.2319 52.8162 15.0294 50.0508 17.5918C47.7012 19.8275 44.994 21.6542 42.0413 22.9961C42.3853 24.0384 42.5851 25.1228 42.6351 26.2193Z" fill="url(#paint8_radial_635_9404)"/>
<path d="M30.4087 28.9698C26.3236 27.9904 22.5673 25.9555 19.5154 23.0688C17.7829 25.9333 16.4036 28.997 15.4076 32.1931L25.0287 36.4219C32.1459 39.2696 40.086 39.2696 47.2033 36.4219L56.8244 32.181C55.8261 28.9896 54.4469 25.9302 52.7166 23.0688C49.6647 25.9555 45.9083 27.9904 41.8232 28.9699C41.2461 29.9733 40.4146 30.8068 39.4126 31.3864C38.4106 31.966 37.2735 32.2712 36.116 32.2712C34.9584 32.2712 33.8213 31.966 32.8193 31.3864C31.8173 30.8068 30.9859 29.9733 30.4087 28.9698Z" fill="url(#paint9_radial_635_9404)"/>
<path d="M36.116 19.2276C37.7717 19.2247 39.3664 19.853 40.5751 20.9846C43.028 19.9657 45.2961 18.5492 47.288 16.7921C41.6536 12.1754 36.2978 12.6723 36.2372 12.6723C36.1569 12.6844 36.0752 12.6844 35.9949 12.6723C35.7646 12.6601 30.5178 12.2239 24.944 16.7921C26.9359 18.5492 29.204 19.9657 31.6569 20.9847C32.8656 19.8531 34.4602 19.2247 36.116 19.2276Z" fill="url(#paint10_radial_635_9404)"/>
<path d="M20.1939 20.3424C22.7616 23.0884 26.0034 25.1145 29.5969 26.2193C29.5083 25.1114 29.713 23.9997 30.1906 22.996C24.6592 20.8872 17.8118 13.5814 14.5959 9.23077C15.3411 13.4004 17.2866 17.262 20.1939 20.3424Z" fill="url(#paint11_radial_635_9404)"/>
<defs>
<radialGradient id="paint0_radial_635_9404" cx="0" cy="0" r="1" gradientUnits="userSpaceOnUse" gradientTransform="translate(28.114 25.3404) rotate(39.9263) scale(40.4216 39.7894)">
<stop stop-color="#F9F3DE"/>
<stop offset="1" stop-color="#F9F3DE" stop-opacity="0.25"/>
</radialGradient>
<radialGradient id="paint1_radial_635_9404" cx="0" cy="0" r="1" gradientUnits="userSpaceOnUse" gradientTransform="translate(28.114 25.3404) rotate(39.9263) scale(40.4216 39.7894)">
<stop stop-color="#F9F3DE"/>
<stop offset="1" stop-color="#F9F3DE" stop-opacity="0.25"/>
</radialGradient>
<radialGradient id="paint2_radial_635_9404" cx="0" cy="0" r="1" gradientUnits="userSpaceOnUse" gradientTransform="translate(28.114 25.3404) rotate(39.9263) scale(40.4216 39.7894)">
<stop stop-color="#F9F3DE"/>
<stop offset="1" stop-color="#F9F3DE" stop-opacity="0.25"/>
</radialGradient>
<radialGradient id="paint3_radial_635_9404" cx="0" cy="0" r="1" gradientUnits="userSpaceOnUse" gradientTransform="translate(28.114 25.3404) rotate(39.9263) scale(40.4216 39.7894)">
<stop stop-color="#F9F3DE"/>
<stop offset="1" stop-color="#F9F3DE" stop-opacity="0.25"/>
</radialGradient>
<radialGradient id="paint4_radial_635_9404" cx="0" cy="0" r="1" gradientUnits="userSpaceOnUse" gradientTransform="translate(28.114 25.3404) rotate(39.9263) scale(40.4216 39.7894)">
<stop stop-color="#F9F3DE"/>
<stop offset="1" stop-color="#F9F3DE" stop-opacity="0.25"/>
</radialGradient>
<radialGradient id="paint5_radial_635_9404" cx="0" cy="0" r="1" gradientUnits="userSpaceOnUse" gradientTransform="translate(28.114 25.3404) rotate(39.9263) scale(40.4216 39.7894)">
<stop stop-color="#F9F3DE"/>
<stop offset="1" stop-color="#F9F3DE" stop-opacity="0.25"/>
</radialGradient>
<radialGradient id="paint6_radial_635_9404" cx="0" cy="0" r="1" gradientUnits="userSpaceOnUse" gradientTransform="translate(28.114 25.3404) rotate(39.9263) scale(40.4216 39.7894)">
<stop stop-color="#F9F3DE"/>
<stop offset="1" stop-color="#F9F3DE" stop-opacity="0.25"/>
</radialGradient>
<radialGradient id="paint7_radial_635_9404" cx="0" cy="0" r="1" gradientUnits="userSpaceOnUse" gradientTransform="translate(28.114 25.3404) rotate(39.9263) scale(40.4216 39.7894)">
<stop stop-color="#F9F3DE"/>
<stop offset="1" stop-color="#F9F3DE" stop-opacity="0.25"/>
</radialGradient>
<radialGradient id="paint8_radial_635_9404" cx="0" cy="0" r="1" gradientUnits="userSpaceOnUse" gradientTransform="translate(28.114 25.3404) rotate(39.9263) scale(40.4216 39.7894)">
<stop stop-color="#F9F3DE"/>
<stop offset="1" stop-color="#F9F3DE" stop-opacity="0.25"/>
</radialGradient>
<radialGradient id="paint9_radial_635_9404" cx="0" cy="0" r="1" gradientUnits="userSpaceOnUse" gradientTransform="translate(28.114 25.3404) rotate(39.9263) scale(40.4216 39.7894)">
<stop stop-color="#F9F3DE"/>
<stop offset="1" stop-color="#F9F3DE" stop-opacity="0.25"/>
</radialGradient>
<radialGradient id="paint10_radial_635_9404" cx="0" cy="0" r="1" gradientUnits="userSpaceOnUse" gradientTransform="translate(28.114 25.3404) rotate(39.9263) scale(40.4216 39.7894)">
<stop stop-color="#F9F3DE"/>
<stop offset="1" stop-color="#F9F3DE" stop-opacity="0.25"/>
</radialGradient>
<radialGradient id="paint11_radial_635_9404" cx="0" cy="0" r="1" gradientUnits="userSpaceOnUse" gradientTransform="translate(28.114 25.3404) rotate(39.9263) scale(40.4216 39.7894)">
<stop stop-color="#F9F3DE"/>
<stop offset="1" stop-color="#F9F3DE" stop-opacity="0.25"/>
</radialGradient>
</defs>
</svg>
