<svg width="72" height="72" viewBox="0 0 72 72" fill="none" xmlns="http://www.w3.org/2000/svg">
<path d="M62.5861 60.9323C62.4775 60.8244 62.3468 60.741 62.2029 60.6879C62.059 60.6347 61.9052 60.6129 61.7521 60.6241L60.3407 60.7729L56.3312 46.8097V31.9326C56.3312 31.369 56.1059 30.8284 55.7048 30.4298C55.3038 30.0312 54.7599 29.8073 54.1927 29.8073H50.9851L50.8568 29.7011C51.5961 29.5409 52.2794 29.1887 52.837 28.6804C53.3945 28.172 53.8065 27.5258 54.0307 26.8076C54.2549 26.0894 54.2834 25.3249 54.1132 24.5921C53.9431 23.8594 53.5804 23.1846 53.0622 22.6367C52.5439 22.0888 51.8887 21.6873 51.1634 21.4732C50.438 21.2592 49.6685 21.2402 48.9334 21.4182C48.1983 21.5963 47.5238 21.9649 46.9789 22.4866C46.4339 23.0083 46.038 23.6644 45.8314 24.3878L44.5698 22.3688L42.4313 18.1182L39.2237 17.0556L44.5698 41.4964L42.4955 51.7829C42.4588 52.0081 42.4588 52.2377 42.4955 52.463L43.3081 58.9451L36.8928 50.4439C36.7924 50.3273 36.6678 50.2336 36.5275 50.1694C36.3872 50.1052 36.2346 50.0719 36.0802 50.0719C35.9257 50.0719 35.7731 50.1052 35.6329 50.1694C35.4926 50.2336 35.368 50.3273 35.2676 50.4439L28.8523 58.9451L29.6649 52.463C29.7016 52.2377 29.7016 52.0081 29.6649 51.7829L27.4623 41.4964L32.8084 17.0556L29.6007 18.1182L27.4623 22.3688L26.2006 24.3772C25.9941 23.6538 25.5982 22.9977 25.0532 22.476C24.5083 21.9543 23.8338 21.5856 23.0987 21.4076C22.3635 21.2296 21.594 21.2486 20.8687 21.4626C20.1434 21.6767 19.4881 22.0782 18.9699 22.6261C18.4517 23.174 18.089 23.8488 17.9188 24.5815C17.7487 25.3142 17.7772 26.0787 18.0014 26.797C18.2256 27.5152 18.6375 28.1614 19.1951 28.6697C19.7527 29.1781 20.436 29.5303 21.1753 29.6904L21.047 29.8073H17.8394C17.2722 29.8073 16.7283 30.0312 16.3273 30.4298C15.9262 30.8284 15.7009 31.369 15.7009 31.9326V46.8097L11.6914 60.7729L10.28 60.6241C10.1269 60.6129 9.97312 60.6347 9.82921 60.6879C9.6853 60.741 9.5546 60.8244 9.446 60.9323L5.30813 65.1829C5.15977 65.3323 5.05927 65.5221 5.01931 65.7282C4.97935 65.9343 5.00172 66.1476 5.0836 66.3412C5.1645 66.5369 5.30236 66.7042 5.47952 66.8215C5.65668 66.9389 5.86506 67.001 6.07797 67H65.9541C66.1615 66.9948 66.363 66.9298 66.5338 66.8128C66.7047 66.6958 66.8376 66.5319 66.9164 66.3412C66.9983 66.1476 67.0207 65.9343 66.9807 65.7282C66.9407 65.5221 66.8402 65.3323 66.6919 65.1829L62.5861 60.9323ZM46.7082 55.3109L49.9159 45.747L57.1224 61.1023L51.5945 61.6867L46.7082 60.4222V55.3109ZM22.1162 45.747L25.3239 55.3109V60.4222L20.4375 61.6867L14.9097 61.1129L22.1162 45.747ZM8.53717 64.8747L10.558 62.7494L20.4055 63.812C20.5225 63.8283 20.6413 63.8283 20.7583 63.812L29.0341 61.6867C29.26 61.6245 29.4592 61.49 29.6007 61.3042L32.2203 57.8506L32.9581 59.0726C33.0566 59.2254 33.1929 59.3504 33.3538 59.436C33.5148 59.5216 33.6951 59.5648 33.8776 59.5615H37.0853V57.4362H34.4871L33.5996 55.9803L36.016 52.7924L40.1967 58.3182L38.5608 60.7516L34.6902 61.6867L35.2034 63.812L39.4803 62.7494C39.7393 62.6842 39.9644 62.525 40.1111 62.3031L41.5546 60.1778L42.4313 61.2723C42.5729 61.4582 42.772 61.5926 42.998 61.6549L51.2738 63.7802C51.3908 63.7965 51.5096 63.7965 51.6266 63.7802L61.4741 62.7175L63.4949 64.8428L8.53717 64.8747Z" fill="url(#paint0_radial_16_9)"/>
<path d="M8.53717 64.8747L10.558 62.7494L20.4055 63.812C20.5225 63.8283 20.6413 63.8283 20.7583 63.812L29.0341 61.6867C29.26 61.6245 29.4592 61.49 29.6007 61.3042L32.2203 57.8506L32.9581 59.0726C33.0566 59.2254 33.1929 59.3504 33.3538 59.436C33.5148 59.5216 33.6951 59.5648 33.8776 59.5615H37.0853V57.4362H34.4871L33.5996 55.9803L36.016 52.7924L40.1967 58.3182L38.5608 60.7516L34.6902 61.6867L35.2034 63.812L39.4803 62.7494C39.7393 62.6842 39.9644 62.525 40.1111 62.3031L41.5546 60.1778L42.4313 61.2723C42.5729 61.4582 42.772 61.5926 42.998 61.6549L51.2738 63.7802C51.3908 63.7965 51.5096 63.7965 51.6266 63.7802L61.4741 62.7175L63.4949 64.8428L8.53717 64.8747Z" fill="url(#paint1_radial_16_9)"/>
<path d="M37.3347 7.83306L36 5L34.6653 7.83306L31.6944 8.28944L33.8472 10.4939L33.3392 13.6111L36 12.1386L38.6608 13.6111L38.1528 10.4939L40.3056 8.28944L37.3347 7.83306Z" fill="url(#paint2_radial_16_9)"/>
<defs>
<radialGradient id="paint0_radial_16_9" cx="0" cy="0" r="1" gradientUnits="userSpaceOnUse" gradientTransform="translate(28.127 23.9444) rotate(45) scale(43.1447)">
<stop stop-color="#F9F3DE"/>
<stop offset="1" stop-color="#F9F3DE" stop-opacity="0.25"/>
</radialGradient>
<radialGradient id="paint1_radial_16_9" cx="0" cy="0" r="1" gradientUnits="userSpaceOnUse" gradientTransform="translate(28.127 23.9444) rotate(45) scale(43.1447)">
<stop stop-color="#F9F3DE"/>
<stop offset="1" stop-color="#F9F3DE" stop-opacity="0.25"/>
</radialGradient>
<radialGradient id="paint2_radial_16_9" cx="0" cy="0" r="1" gradientUnits="userSpaceOnUse" gradientTransform="translate(28.127 23.9444) rotate(45) scale(43.1447)">
<stop stop-color="#F9F3DE"/>
<stop offset="1" stop-color="#F9F3DE" stop-opacity="0.25"/>
</radialGradient>
</defs>
</svg>
