<svg width="72" height="72" viewBox="0 0 72 72" fill="none" xmlns="http://www.w3.org/2000/svg">
<path d="M48.669 10V16.4275L50.8383 17.4649V42.7823H48.9712V21.6096H43.7877V24.5328H39.206V21.6096H33.8601V24.5328H29.2783V21.6096H24.0288V42.7823H22.1617V17.4649L24.331 16.4275V10H11V16.4275L13.1693 17.4649V61H30.3395V51.3167C30.3395 47.9143 36.5 45.1562 36.5 45.1562C36.5 45.1562 42.6605 47.9143 42.6605 51.3167V61H59.8307V17.4649L62 16.4275V10H48.669ZM31.7738 36.1995H26.546V32.3409C26.546 30.8973 27.7163 29.727 29.1599 29.727C30.6035 29.727 31.7738 30.8973 31.7738 32.3409V36.1995ZM39.1139 36.1995H33.8861V32.3409C33.8861 30.8973 35.0564 29.727 36.5 29.727C37.9436 29.727 39.1139 30.8973 39.1139 32.3409V36.1995ZM46.454 36.1995H41.2262V32.3409C41.2262 30.8973 42.3964 29.727 43.84 29.727C45.2836 29.727 46.454 30.8973 46.454 32.3409V36.1995Z" fill="url(#paint0_radial_16_18)"/>
<defs>
<radialGradient id="paint0_radial_16_18" cx="0" cy="0" r="1" gradientUnits="userSpaceOnUse" gradientTransform="translate(30.0238 25.5833) rotate(45) scale(35.49)">
<stop stop-color="#F9F3DE"/>
<stop offset="1" stop-color="#F9F3DE" stop-opacity="0.25"/>
</radialGradient>
</defs>
</svg>
