<svg  viewBox="0 0 128 128" fill="none" xmlns="http://www.w3.org/2000/svg">
<rect width="128" height="128" fill="#100E13"/>
<path d="M87.5385 103.962L84.7692 99.8077L88.9231 97.0385L93.0769 92.8846V76.2692V77.6538L90.3077 81.8077V83.1923H86.1538L75.0769 84.5769L100 61.0385L73.6923 72.1154H72.3077L64 81.8077L55.6923 72.1154L28 61.0385L40.4615 72.1154L43.2308 76.2692L47.3846 73.5L46 79.0385L52.9231 84.5769L44.6154 83.1923V88.7308L43.2308 85.9615L40.4615 91.5L39.0769 92.8846V83.1923H37.6923V81.8077L34.9231 76.2692V92.8846L43.2308 99.8077L37.6923 106.731L28 115.038L40.4615 109.5L51.5385 105.346L47.3846 112.269L64 117.808L80.6154 112.269L77.8462 105.346L87.5385 109.5L100 115.038L88.9231 105.346L87.5385 103.962ZM70.9231 98.4231L69.5385 99.8077H68.1538L64 101.192L59.8462 99.8077H58.4615L57.0769 98.4231V95.6538L61.2308 97.0385L64 98.4231L66.7692 97.0385L70.9231 95.6538V98.4231Z" fill="#F9F3DE"/>
<path d="M100 30.5769C100 41.6539 95.8462 49.9616 90.3077 56.8846L72.3077 65.1923H70.9231L64 72.1154L58.4615 65.1923H57.0769L37.6923 56.8846C32.1538 51.3462 30.7692 44.4231 29.3846 37.5V11.1923L43.2308 22.2692L40.4615 29.1923C39.0769 37.5 39.0769 44.4231 43.2308 49.9616L52.9231 58.2692L47.3846 48.5769L57.0769 40.2692L61.2308 52.7308L64 44.4231L66.7692 52.7308L70.9231 40.2692L80.6154 49.9616L75.0769 58.2692L82 52.7308C86.1538 48.5769 87.5385 44.4231 87.5385 38.8846C88.9231 33.3462 87.5385 27.8077 84.7692 22.2692L98.6154 11.1923L100 19.5V30.5769Z" fill="#F9F3DE"/>
<path d="M90.3077 80.4231L87.5385 84.5769H82L79.2308 83.1923L82 80.4231L84.7692 83.1923L87.5385 80.4231V79.0385L90.3077 76.2692V80.4231Z" fill="#EE2759"/>
</svg>
