<svg width="110" height="23" viewBox="0 0 110 23" fill="none" xmlns="http://www.w3.org/2000/svg">
<g clip-path="url(#clip0_1016_3489)">
<path fill-rule="evenodd" clip-rule="evenodd" d="M11.203 15.9288L6.8158 11.5436L11.203 22.2412L21.9006 11.5436L11.203 15.9288Z" fill="#E74011"/>
<path fill-rule="evenodd" clip-rule="evenodd" d="M11.2031 7.15833L0.505493 11.5435L11.2031 22.2412L6.81593 11.5435L11.2031 7.15833Z" fill="#F68B00"/>
<path fill-rule="evenodd" clip-rule="evenodd" d="M11.2033 0.846191L0.505615 11.5438L11.2033 7.15861L15.5885 11.5438L11.2033 0.846191Z" fill="#056AAB"/>
<path fill-rule="evenodd" clip-rule="evenodd" d="M21.9007 11.5436L11.2031 0.845947L15.5883 11.5436L11.2031 15.9288L21.9007 11.5436Z" fill="#26A2DC"/>
<path fill-rule="evenodd" clip-rule="evenodd" d="M44.0587 12.8845H49.5511C51.5932 12.8845 53.2491 11.2287 53.2491 9.18657C53.2491 7.14449 51.5932 5.48865 49.5511 5.48865H43.0149C41.573 5.48865 40.4044 6.65923 40.4044 8.10116H49.361C49.9552 8.10116 50.4583 8.56662 50.4721 9.15884C50.488 9.77285 49.9948 10.2759 49.3867 10.2759H43.6784C41.7552 10.2759 40.1984 11.8347 40.1984 13.756V17.6718H49.9611L51.3456 15.0613H42.9297V14.0155C42.9297 13.3916 43.4348 12.8865 44.0587 12.8865V12.8845Z" fill="#555E63"/>
<path fill-rule="evenodd" clip-rule="evenodd" d="M31.0972 8.10512L38.1504 8.09918V5.48865L30.9328 5.49459C27.5716 5.49459 24.8481 8.21802 24.8481 11.5792C24.8481 14.9404 27.5716 17.6639 30.9328 17.6639L38.1504 17.6698V10.274H30.3188V12.8845H35.419V15.0593L31.0972 15.0533C29.1779 15.0533 27.6231 13.4985 27.6231 11.5792C27.6231 9.65995 29.1779 8.10512 31.0972 8.10512Z" fill="#555E63"/>
<path fill-rule="evenodd" clip-rule="evenodd" d="M60.005 17.3608H59.6148C59.3771 17.3608 59.183 17.1667 59.183 16.929C59.183 16.6913 59.3771 16.4972 59.6148 16.4972H60.005C60.2426 16.4972 60.4368 16.6913 60.4368 16.929C60.4368 17.1667 60.2426 17.3608 60.005 17.3608ZM60.0188 16.1882H59.5989C59.1909 16.1882 58.8582 16.521 58.8582 16.929C58.8582 17.337 59.1909 17.6698 59.5989 17.6698H60.0188C60.4269 17.6698 60.7596 17.337 60.7596 16.929C60.7596 16.521 60.4288 16.1882 60.0188 16.1882Z" fill="#555E63"/>
<path fill-rule="evenodd" clip-rule="evenodd" d="M57.0655 16.929C57.0655 17.337 57.3982 17.6698 57.8063 17.6698H58.654V17.3608H57.8221C57.5844 17.3608 57.3923 17.1667 57.3923 16.929C57.3923 16.6913 57.5864 16.4972 57.8221 16.4972H58.654V16.1882H57.8063C57.3982 16.1882 57.0655 16.521 57.0655 16.929Z" fill="#555E63"/>
<path fill-rule="evenodd" clip-rule="evenodd" d="M62.3997 16.1882L62.0768 17.0756L61.754 16.1882H61.344L60.7953 17.6698H61.1439L61.548 16.5329L61.9085 17.5232H62.2412L62.6017 16.5329L63.0058 17.6698H63.3544L62.8057 16.1882H62.3977H62.3997Z" fill="#555E63"/>
<path fill-rule="evenodd" clip-rule="evenodd" d="M56.6834 17.2656C56.5725 17.2656 56.4814 17.3567 56.4814 17.4677C56.4814 17.5786 56.5725 17.6697 56.6834 17.6697C56.7943 17.6697 56.8854 17.5786 56.8854 17.4677C56.8854 17.3567 56.7943 17.2656 56.6834 17.2656Z" fill="#555E63"/>
<path fill-rule="evenodd" clip-rule="evenodd" d="M62.1895 6.89296C61.9835 6.50079 61.6983 6.13833 61.3517 5.87886C60.9536 5.58175 60.4742 5.41736 59.9295 5.41736C59.3849 5.41736 58.9432 5.58175 58.547 5.87886C58.2004 6.13634 57.9152 6.50079 57.7092 6.89296C55.4275 11.2386 52.0108 17.6698 52.0108 17.6698H55.1284L59.9295 8.47156L62.1855 12.7934H58.7114L59.9355 15.1326H63.4056L64.7287 17.6679H67.8463C67.8463 17.6679 64.4693 11.2366 62.1875 6.89098L62.1895 6.89296Z" fill="#555E63"/>
<path fill-rule="evenodd" clip-rule="evenodd" d="M106.165 5.49658L102.415 10.783L98.6661 5.49658H95.3365L101.015 13.3222V17.6678H103.818V13.3222L109.494 5.49658H106.165Z" fill="#555E63"/>
<path fill-rule="evenodd" clip-rule="evenodd" d="M80.6357 5.48865H72.3208V8.09918H80.5149C81.1091 8.09918 81.6122 8.56464 81.626 9.15686C81.6419 9.77087 81.1507 10.272 80.5406 10.272H75.7216C73.8004 10.272 72.2416 11.8308 72.2416 13.752V17.6659H74.971V14.0115C74.971 13.3876 75.476 12.8825 76.0999 12.8825H80.6337C82.6758 12.8825 84.3297 11.2267 84.3297 9.18459C84.3297 7.14251 82.6738 5.48865 80.6337 5.48865H80.6357Z" fill="#555E63"/>
<path fill-rule="evenodd" clip-rule="evenodd" d="M92.9042 6.89296C92.6982 6.50079 92.413 6.13833 92.0663 5.87886C91.6702 5.58175 91.1889 5.41736 90.6442 5.41736C90.0995 5.41736 89.6578 5.58175 89.2617 5.87886C88.9151 6.13634 88.6299 6.50079 88.4239 6.89296C86.1421 11.2386 82.7255 17.6698 82.7255 17.6698H85.8431L90.6442 8.47156L92.9002 12.7934H89.4261L90.6502 15.1326H94.1203L95.4434 17.6679H98.561C98.561 17.6679 95.182 11.2366 92.9002 6.89098L92.9042 6.89296Z" fill="#555E63"/>
</g>
<defs>
<clipPath id="clip0_1016_3489">
<rect width="108.989" height="21.3953" fill="white" transform="translate(0.505615 0.846191)"/>
</clipPath>
</defs>
</svg>
