<svg width="80" height="23" viewBox="0 0 80 23" fill="none" xmlns="http://www.w3.org/2000/svg">
<g clip-path="url(#clip0_1016_3480)">
<path d="M25.9826 5.32239C25.82 5.32239 25.6819 5.44637 25.6564 5.6152L23.7744 18.1521C23.7676 18.1979 23.7703 18.2447 23.7823 18.2893C23.7943 18.3339 23.8154 18.3753 23.8441 18.4105C23.8728 18.4457 23.9084 18.474 23.9485 18.4934C23.9885 18.5128 24.0322 18.5229 24.0763 18.5229H26.3082C26.4705 18.5229 26.6089 18.3986 26.6343 18.2301L27.1871 14.5485C27.2123 14.3799 27.3507 14.2557 27.5133 14.2557H29.5424C31.9134 14.2557 33.926 12.4385 34.2936 9.97623C34.6643 7.4931 32.8175 5.32778 30.2 5.32239H25.9826ZM28.1522 8.12111H29.7757C31.1123 8.12111 31.5476 8.94956 31.41 9.86572C31.2724 10.7838 30.5964 11.4601 29.3034 11.4601H27.6509L28.1522 8.12111ZM38.833 8.97333C38.2694 8.97553 37.621 9.09682 36.8929 9.41536C35.223 10.1465 34.421 11.6576 34.0804 12.7593C34.0804 12.7593 32.9964 16.1203 35.4455 17.9669C35.4455 17.9669 37.7168 19.7446 40.2737 17.8574L40.2296 18.1521C40.2228 18.1979 40.2254 18.2447 40.2374 18.2892C40.2494 18.3338 40.2705 18.3751 40.2991 18.4103C40.3277 18.4455 40.3633 18.4738 40.4033 18.4933C40.4433 18.5127 40.4869 18.5228 40.531 18.5229H42.6497C42.8123 18.5229 42.9504 18.3986 42.9759 18.2301L44.2647 9.64471C44.2716 9.59892 44.269 9.5521 44.257 9.50747C44.245 9.46284 44.224 9.42147 44.1954 9.38619C44.1667 9.35091 44.1311 9.32257 44.0911 9.30312C44.051 9.28366 44.0074 9.27355 43.9633 9.27349H41.8445C41.6819 9.27349 41.5436 9.39772 41.5184 9.5663L41.4491 10.0284C41.4491 10.0284 40.524 8.96671 38.833 8.97333ZM38.9023 11.6851C39.1456 11.6851 39.3681 11.7204 39.5678 11.7877C40.482 12.096 41.0003 13.0185 40.8503 14.0185C40.6653 15.2498 39.7041 16.1564 38.4712 16.1564C38.2282 16.1564 38.0056 16.1213 37.8057 16.0539C36.8918 15.7457 36.3702 14.8232 36.5202 13.8232C36.7052 12.5919 37.6695 11.6851 38.9023 11.6851Z" fill="#003087"/>
<path d="M56.494 5.32239C56.3314 5.32239 56.1933 5.44637 56.1679 5.6152L54.2859 18.1521C54.279 18.1979 54.2817 18.2447 54.2937 18.2893C54.3058 18.3339 54.3268 18.3753 54.3555 18.4105C54.3842 18.4457 54.4198 18.474 54.4599 18.4934C54.5 18.5128 54.5436 18.5229 54.5877 18.5229H56.8196C56.982 18.5229 57.1203 18.3986 57.1457 18.2301L57.6986 14.5485C57.7238 14.3799 57.8621 14.2557 58.0247 14.2557H60.0539C62.4248 14.2557 64.4372 12.4385 64.8046 9.97623C65.1755 7.4931 63.3289 5.32778 60.7114 5.32239H56.494ZM58.6636 8.12111H60.2871C61.6237 8.12111 62.059 8.94956 61.9214 9.86572C61.7838 10.7838 61.108 11.4601 59.8148 11.4601H58.1623L58.6636 8.12111ZM69.3442 8.97333C68.7806 8.97553 68.1321 9.09682 67.4041 9.41536C65.7342 10.1465 64.9322 11.6576 64.5916 12.7593C64.5916 12.7593 63.5081 16.1203 65.9572 17.9669C65.9572 17.9669 68.228 19.7446 70.7851 17.8574L70.741 18.1521C70.7342 18.1979 70.7369 18.2447 70.7489 18.2893C70.7609 18.3339 70.782 18.3753 70.8107 18.4105C70.8394 18.4457 70.875 18.474 70.915 18.4934C70.9551 18.5128 70.9987 18.5229 71.0429 18.5229H73.1614C73.324 18.5229 73.4621 18.3986 73.4875 18.2301L74.7768 9.64471C74.7837 9.59888 74.7811 9.55201 74.7691 9.50735C74.7571 9.46269 74.736 9.42129 74.7073 9.386C74.6786 9.35072 74.643 9.32239 74.6029 9.30296C74.5628 9.28354 74.5191 9.27348 74.4749 9.27349H72.3562C72.1936 9.27349 72.0552 9.39772 72.03 9.5663L71.9608 10.0284C71.9608 10.0284 71.0352 8.96671 69.3442 8.97333ZM69.4135 11.6851C69.6568 11.6851 69.8793 11.7204 70.079 11.7877C70.9932 12.096 71.5115 13.0185 71.3615 14.0185C71.1765 15.2498 70.2152 16.1564 68.9824 16.1564C68.7393 16.1564 68.5168 16.1213 68.3169 16.0539C67.403 15.7457 66.8814 14.8232 67.0314 13.8232C67.2163 12.5919 68.1807 11.6851 69.4135 11.6851Z" fill="#0070E0"/>
<path d="M45.27 9.27332C45.1021 9.27332 44.9826 9.44557 45.0339 9.61342L47.3568 17.1851L45.2565 20.7532C45.1545 20.9264 45.273 21.1501 45.4669 21.1501H47.9493C48.0203 21.1501 48.0901 21.1308 48.1519 21.0941C48.2137 21.0575 48.2655 21.0047 48.3022 20.9409L54.7896 9.66781C54.8893 9.49458 54.7703 9.27307 54.5776 9.27307H52.0954C52.0237 9.27314 51.9533 9.2928 51.891 9.33014C51.8288 9.36747 51.7769 9.42119 51.7404 9.486L49.1868 14.0146L47.8905 9.51957C47.8483 9.37329 47.7198 9.27307 47.5744 9.27307L45.27 9.27332Z" fill="#003087"/>
<path d="M77.1841 5.32239C77.0217 5.32239 76.8834 5.44662 76.858 5.6152L74.9755 18.1516C74.9686 18.1975 74.9712 18.2443 74.9832 18.289C74.9952 18.3337 75.0163 18.3751 75.045 18.4103C75.0737 18.4456 75.1093 18.474 75.1494 18.4934C75.1895 18.5128 75.2332 18.5229 75.2774 18.5229H77.5093C77.6716 18.5229 77.8099 18.3986 77.8354 18.2301L79.7174 5.69312C79.7242 5.64736 79.7215 5.6006 79.7095 5.55603C79.6975 5.51146 79.6765 5.47015 79.6479 5.43493C79.6192 5.39971 79.5837 5.37142 79.5437 5.35199C79.5036 5.33256 79.4601 5.32246 79.416 5.32239H77.1841Z" fill="#0070E0"/>
<path d="M7.37561 5.32239C7.23184 5.32251 7.09282 5.37649 6.98354 5.47462C6.87425 5.57276 6.80185 5.70861 6.77937 5.85778L5.7887 12.4579C5.83488 12.1496 6.08774 11.9225 6.38492 11.9225H9.28794C12.2096 11.9225 14.6888 9.68367 15.1418 6.64971C15.1755 6.4232 15.1946 6.19456 15.1989 5.96535C14.4565 5.55639 13.5843 5.32239 12.6286 5.32239H7.37561Z" fill="#001C64"/>
<path d="M15.1991 5.9657C15.1948 6.19491 15.1757 6.42356 15.142 6.65007C14.689 9.68402 12.2096 11.9229 9.28814 11.9229H6.38513C6.08818 11.9229 5.83509 12.1498 5.7889 12.4582L4.87799 18.5232L4.30742 22.328C4.29628 22.4015 4.30046 22.4767 4.31966 22.5484C4.33887 22.62 4.37266 22.6864 4.41867 22.743C4.46469 22.7996 4.52184 22.8451 4.5862 22.8762C4.65056 22.9074 4.72059 22.9235 4.79145 22.9235H7.94243C8.0862 22.9233 8.22522 22.8694 8.3345 22.7712C8.44379 22.6731 8.51617 22.5372 8.53865 22.3881L9.36861 16.8585C9.39111 16.7092 9.46357 16.5733 9.57295 16.4752C9.68233 16.377 9.82147 16.3231 9.96532 16.3231H11.8205C14.7422 16.3231 17.2213 14.0843 17.6743 11.0503C17.996 8.89699 16.9636 6.93749 15.1991 5.9657Z" fill="#0070E0"/>
<path d="M3.79608 0.923096C3.49913 0.923096 3.24605 1.14999 3.19986 1.458L0.727216 17.9279C0.680329 18.2406 0.910337 18.5233 1.21172 18.5233H4.87845L5.7889 12.4583L6.77957 5.85823C6.80205 5.70907 6.87445 5.57321 6.98374 5.47508C7.09302 5.37695 7.23204 5.32297 7.37581 5.32285H12.6288C13.5847 5.32285 14.4566 5.55709 15.1991 5.9658C15.25 3.20359 13.0801 0.923096 10.0969 0.923096H3.79608Z" fill="#003087"/>
</g>
<defs>
<clipPath id="clip0_1016_3480">
<rect width="79" height="22" fill="white" transform="translate(0.721375 0.923096)"/>
</clipPath>
</defs>
</svg>
