<svg xmlns="http://www.w3.org/2000/svg" fill="none" viewBox="0 0 1240 233"><path fill="#EE2759" d="M116.4 11.201c-.533 1.867-1.4 3.667-2.6 5.4-1.2 1.6-2.533 2.933-4 4-1.467 3.6-2.2 7-2.2 10.2 0 1.333-.267 2.6-.8 3.8-.4 1.2-.6 2.4-.6 3.6 0 .667.067 1.267.2 1.8.133.4.2.933.2 1.6 0 .8-.067 1.6-.2 2.4l-.4 2.4a754.946 754.946 0 0 0-2 16.8c-.533 6.133-.8 12-.8 17.6v1c.133.267.2.6.2 1 0 .267-.267.667-.8 1.2-.533.4-.8.933-.8 1.6 0 .533.133 1 .4 1.4.267.4.4.867.4 1.4 0 .667-.267 1.533-.8 2.6a9.058 9.058 0 0 0-.6 3.2c0 1.333.133 2.6.4 3.8.4 1.067.6 2.133.6 3.2 0 .4-.067.8-.2 1.2v1.2c0 .8.133 1.667.4 2.6.4.8.6 1.6.6 2.4 0 1.867-.4 3.8-1.2 5.8-.667 1.867-1 3.8-1 5.8 0 2.667.267 5.6.8 8.8.667 3.067 1 6.133 1 9.2 0 5.2.133 10.067.4 14.6.267 4.533.4 9.067.4 13.6 0 1.6-.533 2.867-1.6 3.8-1.067.933-2.4 1.6-4 2-1.467.4-3.067.667-4.8.8-1.6.133-3.067.2-4.4.2-.533 0-1.267-.2-2.2-.6-.8-.4-1.667-1-2.6-1.8a12.754 12.754 0 0 1-2.2-2.4c-.667-.8-1-1.667-1-2.6 0-.8.2-1.667.6-2.6.4-.933.6-1.933.6-3 0-.667-.067-1.4-.2-2.2-.133-.667-.2-1.333-.2-2s.067-1.2.2-1.6c.267-.267.533-.6.8-1 .4-.4.667-1 .8-1.8.267-.667.4-1.733.4-3.2 0-1.067-.067-2.067-.2-3v-2.4c0-1.067-.467-1.933-1.4-2.6-.933-.667-1.4-1.533-1.4-2.6 0-.933.4-2.067 1.2-3.4.8-1.467 1.2-3.067 1.2-4.8 0-2 .067-4 .2-6s.2-4 .2-6c0-3.067-.2-6.2-.6-9.4-.4-3.2-.6-6.333-.6-9.4 0-1.867.267-3.8.8-5.8s.8-4 .8-6a25.78 25.78 0 0 0-.2-3.2v-3.4c0-4.4.267-8.667.8-12.8.667-4.267 1-8.6 1-13 0-4 .333-8.6 1-13.8.667-5.2 1.333-10.333 2-15.4 0-.8-.133-1.733-.4-2.8-.267-1.067-.933-1.6-2-1.6-.667 0-1.333.2-2 .6-.667.267-1.333.4-2 .4-1.467 0-2.867-.133-4.2-.4-1.333-.4-2.667-.6-4-.6-3.333 0-6.6.4-9.8 1.2-3.2.8-6.533 1.2-10 1.2-3.733 0-7.333-.2-10.8-.6-3.467-.4-6.933-.6-10.4-.6-1.2 0-2.533.067-4 .2-1.333.133-2 .8-2 2-.267 6.267-.6 12.467-1 18.6-.267 6.133-.533 12.4-.8 18.8v5.4c.133 1.733.2 3.533.2 5.4 0 10.667-.2 21.267-.6 31.8a2615.15 2615.15 0 0 1-1 31.8c0 1.467-.067 3.2-.2 5.2 0 2-.133 4.067-.4 6.2-.133 2-.333 3.8-.6 5.4-.267 1.733-.6 2.933-1 3.6-.667.933-1.133 2.067-1.4 3.4a13.054 13.054 0 0 1-1.4 3.8 6.799 6.799 0 0 1-2.6 3.2c-1.067.933-2.8 1.4-5.2 1.4-.667 0-1.267-.133-1.8-.4-.4-.133-.933-.2-1.6-.2-.533 0-1.067.067-1.6.2-.4.133-.867.2-1.4.2-.267 0-.667-.4-1.2-1.2a26.119 26.119 0 0 1-1.6-2.8 33.31 33.31 0 0 1-1.4-3.2c-.4-1.067-.6-1.933-.6-2.6.133-.933.2-1.867.2-2.8.133-.933.2-1.867.2-2.8 0-1.733-.267-3.4-.8-5-.4-1.6-.6-3.133-.6-4.6 0-.667.067-1.333.2-2 .267-.8.4-1.533.4-2.2 0-1.467-.267-3-.8-4.6-.4-1.6-.6-3.2-.6-4.8 0-5.067.133-10.133.4-15.2.267-5.2.4-10.333.4-15.4 0-.933-.067-1.867-.2-2.8-.133-.933-.2-1.867-.2-2.8 0-3.067.267-6 .8-8.8.667-2.933 1-5.533 1-7.8 0-.667-.133-1.4-.4-2.2-.133-.8-.2-1.533-.2-2.2 0-1.733.2-3.4.6-5 .4-1.6.6-3.2.6-4.8-.133-.667-.2-1.2-.2-1.6v-1.8c0-1.867.133-3.933.4-6.2.267-2.4.4-4.733.4-7 0-.933-.067-1.8-.2-2.6v-2.8c0-2.267.267-4.467.8-6.6a29.6 29.6 0 0 0 .8-6.8 5.35 5.35 0 0 0-.4-2c-.133-.667-.533-1.133-1.2-1.4-4.667-.533-8.067-.867-10.2-1-2.133-.267-3.733-.533-4.8-.8a6.34 6.34 0 0 1-2.4-1.8c-.533-.8-1.533-2.133-3-4-1.067-1.2-1.6-2.667-1.6-4.4 0-.933.067-1.667.2-2.2.133-.533.933-1 2.4-1.4 1.6-.4 3.4-.8 5.4-1.2 2-.4 4-.733 6-1 2.133-.267 3.8-.533 5-.8 5.6-.933 11.267-1.533 17-1.8 5.867-.4 11.667-.667 17.4-.8 5.867-.133 11.6-.333 17.2-.6 5.733-.267 11.4-.8 17-1.6h.8c.4-.133.733-.2 1-.2 1.067 0 2.067.067 3 .2 1.067.133 2.133.2 3.2.2.667 0 1.4-.067 2.2-.2.8-.267 1.6-.4 2.4-.4 1.867 0 3.667.067 5.4.2 1.733.133 3.533.2 5.4.2 1.067 0 2.133-.067 3.2-.2 1.2-.133 2.333-.2 3.4-.2.533 0 2 .067 4.4.2 2.4.133 4.867.4 7.4.8 2.533.4 4.8 1.067 6.8 2 2.133.8 3.2 2 3.2 3.6 0 .8-.267 1.6-.8 2.4-.533.8-.933 1.533-1.2 2.2l.4-.2-.4.2Zm35.414 75.6h1.2c.4-.133.733-.2 1-.2.933 0 1.867-.667 2.8-2a94.379 94.379 0 0 0 3-4.6 78.364 78.364 0 0 1 3.8-5.4c1.333-1.733 2.8-3 4.4-3.8.933-1.2 2.333-2.733 4.2-4.6 1.867-2 4-3.933 6.4-5.8 2.533-2 5.333-3.667 8.4-5 3.2-1.333 6.533-2 10-2 1.333 0 2.6.2 3.8.6 1.2.267 2.4.6 3.6 1 1.067.267 1.733.867 2 1.8.267.8.933 1.2 2 1.2.933.267 1.8.867 2.6 1.8s1.467 2 2 3.2a10.792 10.792 0 0 1 1.4 3.4c.4 1.067.6 1.867.6 2.4 0 2.8-.4 6.133-1.2 10-.667 3.733-1.733 7.133-3.2 10.2a48.355 48.355 0 0 1-4.2 7.2c-1.467 2.133-2.733 4.533-3.8 7.2-.667 2-1.8 3.733-3.4 5.2a78.625 78.625 0 0 0-4.4 4.8c-.667.667-1.267 1.533-1.8 2.6a32.779 32.779 0 0 1-1.8 2.8c-.667.933-1.4 1.8-2.2 2.6a5.302 5.302 0 0 1-2.8 1.2c-1.067 0-1.733.267-2 .8-.267.533-.4 1.133-.4 1.8 0 .933-1.067 2-3.2 3.2-2.133 1.067-4.6 2.133-7.4 3.2a99.51 99.51 0 0 1-8.4 2.4c-2.667.667-4.667 1-6 1-.933 0-1.867-.2-2.8-.6a4.6 4.6 0 0 0-2.6-.8c-.933 0-1.733.733-2.4 2.2-.667 1.333-1.267 3-1.8 5-.4 2-.733 4-1 6-.133 2-.2 3.6-.2 4.8 0 1.067.067 2.133.2 3.2.267 1.2.4 2.333.4 3.4 0 1.067-.067 2.067-.2 3v3c0 1.2.333 2.133 1 2.8.8.667 1.333 1.467 1.6 2.4.4 1.067.667 2.2.8 3.4.133 1.2.2 2.4.2 3.6 0 1.333.067 2.467.2 3.4.4 1.733.867 3.2 1.4 4.4.533 1.2.8 2.533.8 4v2.6a4.6 4.6 0 0 1-.8 2.6c-.4.8-1.133 1.467-2.2 2-1.067.533-2.667.8-4.8.8-1.2 0-2.333-.6-3.4-1.8-1.067-1.067-2-2.533-2.8-4.4-.8-1.867-1.467-4.067-2-6.6-.4-2.4-.6-4.933-.6-7.6 0-1.067.2-2.2.6-3.4.533-1.2.8-2.2.8-3-.933-1.733-1.667-3.4-2.2-5-.533-1.333-1-2.733-1.4-4.2-.4-1.333-.6-2.333-.6-3 0-.667.2-1.333.6-2 .4-.667.6-1.333.6-2s-.133-1.267-.4-1.8c-.267-.533-.4-1.133-.4-1.8 0-.4.067-.8.2-1.2.267-.533.4-1.067.4-1.6 0-.667-.067-1.2-.2-1.6a7.448 7.448 0 0 1-.2-1.8c0-.4.133-1 .4-1.8 0-1.067-.267-2.133-.8-3.2-.533-1.067-.8-2.133-.8-3.2 0-1.867.333-3.933 1-6.2.8-2.4 1.2-4.2 1.2-5.4 0-.267-.067-.467-.2-.6a1.78 1.78 0 0 1-.2-.8c0-.533.133-.933.4-1.2.4-.4.6-.867.6-1.4 0-.8-.4-1.533-1.2-2.2-.667-.8-1-1.467-1-2 0-.4.4-.933 1.2-1.6.8-.667 1.2-1.333 1.2-2 0-.533-.2-1.267-.6-2.2-.4-.933-.6-1.867-.6-2.8 0-1.6.2-2.867.6-3.8.4-.933.867-1.667 1.4-2.2.533-.533 1-.933 1.4-1.2.4-.4.6-.867.6-1.4 0-.667-.267-1.2-.8-1.6-.533-.4-1-1.267-1.4-2.6a62.386 62.386 0 0 0 1.6-4c.667-1.6 1-3.067 1-4.4 0-1.333-.467-2.667-1.4-4-.933-1.333-1.4-3-1.4-5 0-.933.4-2.2 1.2-3.8.933-1.733 1.4-3.6 1.4-5.6 0-1.467-.2-2.933-.6-4.4a27.96 27.96 0 0 1-.4-4.6c0-1.467.467-2.867 1.4-4.2 1.067-1.333 1.6-2.867 1.6-4.6 0-.933-.067-1.8-.2-2.6-.133-.933-.2-1.8-.2-2.6 0-1.067.067-2.267.2-3.6.133-1.333.4-2.6.8-3.8.4-1.2.933-2.2 1.6-3 .667-.933 1.533-1.4 2.6-1.4.933 0 2.133.2 3.6.6 1.6.4 3.067 1.067 4.4 2 1.333.8 2.467 1.933 3.4 3.4 1.067 1.333 1.6 3 1.6 5 0 1.333-.333 2.867-1 4.6a54.165 54.165 0 0 1-2 5.4 86.748 86.748 0 0 0-2.2 5.2c-.533 1.733-.8 3.267-.8 4.6 0 3.067-.4 5.8-1.2 8.2-.8 2.267-1.333 4.733-1.6 7.4 0 .667.2 1.267.6 1.8.4.533.6 1.067.6 1.6 0 .533-.267 1-.8 1.4-.4.4-.6.933-.6 1.6 0 .267.267.8.8 1.6-1.2.533-2.067 1.133-2.6 1.8-.533.533-1 1.2-1.4 2-.267.8-.533 1.733-.8 2.8-.133.933-.533 2.067-1.2 3.4l.4.4a1.9 1.9 0 0 0 1.6-.8c.4-.533.733-1.133 1-1.8.267-.8.467-1.533.6-2.2.133-.667.2-1.2.2-1.6a5.952 5.952 0 0 0-.8-3c.533-.267 1-.4 1.4-.4.533-.133 1-.333 1.4-.6Zm20.2-7.4c0 1.467-.2 2.6-.6 3.4-.4.667-.867 1.333-1.4 2-.4.533-.867 1.133-1.4 1.8-.533.533-.933 1.333-1.2 2.4-.533 1.733-1.333 3.267-2.4 4.6a114.94 114.94 0 0 0-3.2 4.2c-.4.533-1 1.667-1.8 3.4-.667 1.6-1.4 3.467-2.2 5.6-.667 2-1.267 4.067-1.8 6.2-.533 2.133-.8 3.933-.8 5.4 0 .933.067 2.133.2 3.6.267 1.333.933 2 2 2 .267 0 1.6-.2 4-.6 2.533-.533 5.333-1.333 8.4-2.4s6.067-2.533 9-4.4c2.933-2 5-4.533 6.2-7.6a77.745 77.745 0 0 0 3-4 54.904 54.904 0 0 1 2.6-3.2 54.281 54.281 0 0 1 2.4-2.6c.533-.4 1.2-1.867 2-4.4.933-2.667 1.8-5.667 2.6-9a89.53 89.53 0 0 0 2.2-10c.667-3.467 1-6.2 1-8.2 0-1.6-.4-2.6-1.2-3-.8-.4-1.8-.6-3-.6-2.267 0-4.467.733-6.6 2.2a69.758 69.758 0 0 0-6.4 5c-2 1.867-4 3.667-6 5.4-1.867 1.6-3.733 2.533-5.6 2.8Zm-28.8 20.4c-.533.267-.8.8-.8 1.6 0 .4.067.667.2.8s.2.333.2.6c.133-.267.267-.467.4-.6.133-.133.267-.333.4-.6 0-.4-.133-1-.4-1.8Zm2.6 62.2.6.2-.4-.8-.2.6Zm-2.8-10.2c.267-.8.4-1.267.4-1.4l-.4-.4c-.267.533-.4 1-.4 1.4l.4.4Zm174.178-10.6c-1.066 3.867-2.6 6.733-4.6 8.6-1.866 1.733-4.466 3.067-7.8 4a147.431 147.431 0 0 0-5.8-3.8c-2-1.467-3-3.4-3-5.8 0-1.733-.466-2.867-1.4-3.4-.933-.533-1.4-1.533-1.4-3v-3.2c.134-1.2.2-2.333.2-3.4a179.67 179.67 0 0 0-1-5.8c-.266-2.133-.4-4-.4-5.6 0-.8.067-1.6.2-2.4.134-.933.2-1.8.2-2.6a19.804 19.804 0 0 0-.6-3l-.4-2.8c0-.8.134-1.6.4-2.4.4-.933.6-1.733.6-2.4 0-.667-.133-1.333-.4-2a13.5 13.5 0 0 1-.2-2.2c0-2.133.2-4.467.6-7 .4-2.533.6-5 .6-7.4 0-.667-.066-1.267-.2-1.8 0-.667-.333-1.2-1-1.6-.266 0-.533.067-.8.2h-.8c0 .267-.533 1.067-1.6 2.4a128.152 128.152 0 0 1-3.4 4.6c-1.2 1.6-2.4 3.267-3.6 5-1.066 1.6-1.8 2.867-2.2 3.8-.266.667-.6 1.533-1 2.6a33.144 33.144 0 0 1-1.4 3.2c-.4.933-.8 1.8-1.2 2.6l-.4 1c-1.066.4-1.866 1.067-2.4 2-.533.8-1 1.667-1.4 2.6-.4.933-.733 1.867-1 2.8-.266.8-.6 1.4-1 1.8-1.6 1.333-3.133 3.4-4.6 6.2a92.484 92.484 0 0 1-5 8.4c-1.866 2.8-4 5.267-6.4 7.4-2.4 2.133-5.333 3.2-8.8 3.2-3.2 0-6.4-1.133-9.6-3.4-3.2-2.267-5-5.733-5.4-10.4a28.027 28.027 0 0 0-1.6-6.6c-.8-2.267-1.2-4.467-1.2-6.6 0-3.6.134-7.267.4-11 .4-3.733.934-7.267 1.6-10.6 0-.133.134-1.067.4-2.8.267-1.867.467-4.133.6-6.8.267-2.8.467-5.933.6-9.4.267-3.467.4-7 .4-10.6 0-.8-.133-1.6-.4-2.4-.133-.933-.2-1.8-.2-2.6 0-.667.267-1.267.8-1.8.667-.533 1.334-.8 2-.8 2.4.267 4.734 1 7 2.2 2.267 1.067 3.4 2.8 3.4 5.2-.666 8-1.4 15.8-2.2 23.4-.8 7.467-1.2 15.2-1.2 23.2v5c.134 1.867.267 3.667.4 5.4.267 1.733.6 3.2 1 4.4.534 1.2 1.2 1.8 2 1.8 1.2 0 2.8-1.333 4.8-4 2.134-2.667 4.4-5.867 6.8-9.6 2.534-3.733 5-7.533 7.4-11.4 2.4-4 4.534-7.333 6.4-10 1.067-1.467 2.134-2.533 3.2-3.2 1.2-.8 2-2.067 2.4-3.8.534-1.867 1.6-3.6 3.2-5.2 1.734-1.733 3.2-3.267 4.4-4.6.8-.8 1.867-2.133 3.2-4a80.822 80.822 0 0 1 4.4-5.6c1.6-1.867 3.2-3.467 4.8-4.8 1.6-1.467 2.934-2.2 4-2.2.934 0 1.934-.067 3-.2 1.2-.133 2.4-.2 3.6-.2 4.534 0 7.734 1.4 9.6 4.2 2 2.667 3 5.933 3 9.8 0 3.867-.466 7.667-1.4 11.4-.933 3.733-1.4 7.133-1.4 10.2v2.2c.134.667.2 1.4.2 2.2 0 2.8-.266 5.533-.8 8.2a40.725 40.725 0 0 0-.8 8c.267 3.067.6 6.2 1 9.4s.6 6.2.6 9c0 .267-.066.533-.2.8v.6c0 1.333.2 2.6.6 3.8.4 1.2.934 2.333 1.6 3.4Zm16.589-22.6c0-4 .467-7.867 1.4-11.6a41.285 41.285 0 0 0 1.6-11.4c0-1.067.267-2.467.8-4.2.534-1.867 1.2-3.8 2-5.8.8-2.133 1.667-4.267 2.6-6.4a218.871 218.871 0 0 1 3-5.8c1.067-1.867 2.267-3.467 3.6-4.8a14.703 14.703 0 0 0 3-5c.4-1.333 1.134-2.267 2.2-2.8 1.067-.533 1.734-1.533 2-3 .134-.667.467-1.133 1-1.4a11.422 11.422 0 0 1 2-.6 39.014 39.014 0 0 0 1.8-.4c.667-.133 1.134-.533 1.4-1.2.4-.933 1.067-1.8 2-2.6a16.971 16.971 0 0 1 3-2.4c1.067-.8 2.134-1.4 3.2-1.8 1.067-.4 1.867-.6 2.4-.6 3.867.667 7.4 1.533 10.6 2.6 2.667.933 5.134 2.067 7.4 3.4 2.267 1.333 3.4 3 3.4 5 0 1.333-.2 3.2-.6 5.6a40.98 40.98 0 0 1-1.4 6.8c-.666 2.133-1.533 4.067-2.6 5.8-1.066 1.6-2.333 2.4-3.8 2.4-1.466 0-2.733-.8-3.8-2.4-.933-1.6-1.4-3.133-1.4-4.6 0-1.2.067-2.333.2-3.4.134-1.2.267-2.333.4-3.4 0-.933-.466-1.4-1.4-1.4-2 0-4.133.8-6.4 2.4-2.133 1.467-4.266 3.4-6.4 5.8-2.133 2.267-4.133 4.8-6 7.6-1.866 2.8-3.466 5.4-4.8 7.8a98.183 98.183 0 0 1-3.6 12.2c-1.466 4-2.2 8.267-2.2 12.8 0 1.867.134 4.133.4 6.8a73.331 73.331 0 0 0 1.2 7.8c.667 2.4 1.4 4.467 2.2 6.2.934 1.733 2.067 2.6 3.4 2.6.534 0 1.934-.667 4.2-2 2.4-1.467 5-3.2 7.8-5.2s5.467-4 8-6c2.667-2.133 4.6-3.8 5.8-5 1.734-2 3.934-4.267 6.6-6.8 2.8-2.533 5.6-4.933 8.4-7.2 2.934-2.267 5.8-4.133 8.6-5.6 2.8-1.6 5.134-2.4 7-2.4.934 0 1.734.133 2.4.4.667.267 1 .867 1 1.8 0 1.067-.533 2.133-1.6 3.2-.933.933-2.066 1.933-3.4 3-1.333.933-2.666 2-4 3.2-1.2 1.067-2.066 2.2-2.6 3.4-.266 0-1.333.933-3.2 2.8a234.302 234.302 0 0 1-6 6.2 20529.69 20529.69 0 0 1-6.6 6.6c-2 2.133-3.4 3.6-4.2 4.4-.8.933-2.4 2.533-4.8 4.8-2.266 2.267-4.866 4.6-7.8 7a98.272 98.272 0 0 1-9 6.2c-3.066 1.733-5.8 2.6-8.2 2.6-4 0-7.2-.733-9.6-2.2-2.266-1.467-4.066-3.267-5.4-5.4-1.333-2.133-2.4-4.467-3.2-7a57.671 57.671 0 0 0-2.8-7.2c-.666-1.467-1-3.133-1-5s-.066-3.6-.2-5.2Zm171.732-48c1.333 1.067 1.999 2.267 1.999 3.6 0 1.333-.733 2.533-2.199 3.6-1.334 1.067-3.267 1.6-5.8 1.6h-1.8a39.341 39.341 0 0 0-1.8-.4c-7.467 2.267-14.334 5.267-20.6 9-2.134 1.333-3.267 3.067-3.4 5.2-.134 2-.267 3.8-.4 5.4-.267 2.267-.8 4.2-1.6 5.8-.8 1.6-1.2 3.533-1.2 5.8 0 1.6-.6 2.867-1.8 3.8-1.067.933-1.6 2.267-1.6 4v1c.133.267.2.533.2.8 0 1.867-.4 3.467-1.2 4.8-.667 1.2-1.6 2.667-2.8 4.4-.267.933-1.134 2.533-2.6 4.8-1.334 2.133-2.934 4.333-4.8 6.6-1.867 2.267-3.867 4.267-6 6-2 1.733-3.8 2.6-5.4 2.6-.8 0-2 .6-3.6 1.8-1.467 1.2-3 2.2-4.6 3-3.067-.667-5.934-1.467-8.6-2.4-2.534-.933-4.867-2.4-7-4.4-1.6-1.867-3.134-4-4.6-6.4a67.33 67.33 0 0 1-3.801-7.6 102.864 102.864 0 0 1-2.399-7.8c-.534-2.533-.8-4.867-.8-7 0-2.4.266-4.667.8-6.8.533-2.267.8-4.467.8-6.6 0-.8.2-1.867.6-3.2l1.6-4c.533-1.467 1-2.933 1.4-4.4.533-1.467.8-2.733.8-3.8 0-.933-.334-2.133-1-3.6a62.898 62.898 0 0 0-2-4.8l-2-5.2c-.534-1.733-.8-3.4-.8-5 0-5.2.466-9.267 1.4-12.2 1.066-2.933 2.533-5.133 4.4-6.6 2-1.6 4.266-2.6 6.8-3 2.666-.4 5.6-.6 8.8-.6h9.2c1.2 0 3.266.533 6.2 1.6 2.933.933 6.066 2.4 9.4 4.4 3.333 2 6.4 4.533 9.2 7.6 2.8 3.067 4.666 6.667 5.6 10.8.266 1.333.733 2.733 1.4 4.2.8 1.467 1.933 2.2 3.4 2.2.533 0 .933-.067 1.2-.2 5.2-1.867 10.266-3.667 15.2-5.4 4.933-1.733 10.2-2.733 15.8-3Zm-44.4 29.4a26.855 26.855 0 0 1-.6-3.2c0-1.2-.534-1.8-1.6-1.8-.534 0-1.334.133-2.4.4l-10 3.6c-3.334 1.2-6.867 1.8-10.6 1.8-1.6 0-2.8 1.2-3.6 3.6-.8 2.267-1.4 4.867-1.8 7.8-.4 2.8-.667 5.533-.8 8.2v5c0 2.667.666 5.333 2 8 1.333 2.533 3.133 3.8 5.4 3.8 2.533 0 4.933-1.267 7.2-3.8 2.4-2.667 4.533-5.6 6.4-8.8 2-3.2 3.666-6.2 5-9 1.466-2.8 2.533-4.467 3.2-5 .8-1.333 1.266-3.067 1.4-5.2.266-2.133.533-3.933.8-5.4Zm-42.2-29.8c.133.8.266 2.067.4 3.8.266 1.733.933 2.6 2 2.6.533 0 1-.2 1.4-.6.4-.533.8-1 1.2-1.4.4-.533.8-1 1.2-1.4.533-.533 1.133-.8 1.8-.8l2.4.6c1.733.4 3.6 1 5.6 1.8 2 .8 3.866 1.8 5.6 3 1.733 1.067 2.6 2.267 2.6 3.6 0 .8-.4 1.933-1.2 3.4-.8 1.333-1.4 2.467-1.8 3.4 0 .933.266 1.533.8 1.8.666.267 1.133.4 1.4.4 1.333 0 2.933-.133 4.8-.4 2-.4 3.866-.933 5.6-1.6 1.866-.667 3.466-1.467 4.8-2.4 1.333-1.067 2-2.267 2-3.6 0-2.667-.867-5.6-2.6-8.8-1.6-3.2-3.734-6.133-6.4-8.8-2.667-2.8-5.6-5.067-8.8-6.8-3.2-1.867-6.267-2.8-9.2-2.8-4.267 0-7.6 1.6-10 4.8-2.4 3.2-3.6 6.6-3.6 10.2Zm76.481 9.4c1.066-1.867 2-3.733 2.8-5.6a44.312 44.312 0 0 0 2.4-5.8c.4-1.6 1.266-3.2 2.6-4.8 1.466-1.6 2.933-3 4.4-4.2 1.466-1.333 2.733-2.333 3.8-3 1.2-.8 1.8-1.133 1.8-1 1.066-1.467 2.333-2.2 3.8-2.2 1.6 0 3.133-.133 4.6-.4 2.266 0 4.533.667 6.8 2 2.266 1.333 4.733 2.067 7.4 2.2.8.533 1.8 1.133 3 1.8 1.333.667 2.6 1.533 3.8 2.6a14.01 14.01 0 0 1 3 3.8c.933 1.467 1.4 3.2 1.4 5.2 0 1.867-.534 3.933-1.6 6.2-.934 2.133-2.267 4.333-4 6.6-1.6 2.133-3.467 4.2-5.6 6.2-2 2-4.067 3.733-6.2 5.2a22.27 22.27 0 0 0-3.4 2.8 8776.695 8776.695 0 0 0-3.2 3.2c-1.067.933-2.2 1.8-3.4 2.6-1.2.667-2.667 1.067-4.4 1.2-3.467.4-5.667 1.867-6.6 4.4-.8 2.4-1.2 6.933-1.2 13.6 0 3.467.4 6.6 1.2 9.4.8 2.667 2.6 4 5.4 4 .533 0 1.866-.533 4-1.6 2.133-1.2 4.466-2.6 7-4.2 2.533-1.733 5-3.533 7.4-5.4 2.4-2 4.2-3.733 5.4-5.2 1.2-.4 2.266-1 3.2-1.8.933-.933 1.866-1.8 2.8-2.6.933-.933 1.866-1.667 2.8-2.2.933-.667 1.933-1 3-1 .933 0 1.733.333 2.4 1 .8.667 1.2 1.4 1.2 2.2 0 .533-.4 1.467-1.2 2.8-.8 1.2-1.8 2.467-3 3.8a32.143 32.143 0 0 1-3.8 3.6c-1.2 1.067-2.2 1.733-3 2-1.334.4-2.334 1.133-3 2.2-.667 1.067-1.667 1.8-3 2.2-.4.267-1.067 1.133-2 2.6a10.409 10.409 0 0 1-3.2 3.6c-.667.533-1.4 1.333-2.2 2.4a30.114 30.114 0 0 1-2.8 3.2c-.934 1.067-2.134 2-3.6 2.8-1.334.8-3 1.2-5 1.2a24.31 24.31 0 0 1-3-.2 13.14 13.14 0 0 0-3.2-.4c-.4 0-.8.067-1.2.2h-1.2c-1.2 0-2.467-.267-3.8-.8-1.334-.533-2.6-1.2-3.8-2-1.2-.933-2.2-1.867-3-2.8-.8-1.067-1.2-2.067-1.2-3 0-.533-.2-.933-.6-1.2a2.505 2.505 0 0 0-1-.6 6.571 6.571 0 0 0-1-.8c-.267-.267-.4-.8-.4-1.6 0-1.467-.6-2.867-1.8-4.2-1.2-1.467-1.8-3.133-1.8-5 0-.4.333-1.733 1-4 .8-2.267 1.2-4.333 1.2-6.2 0-.933-.534-2.267-1.6-4-.934-1.733-1.4-3-1.4-3.8 0-1.467.066-2.933.2-4.4.266-1.467.4-2.933.4-4.4 0-.4-.067-.8-.2-1.2v-1.2c.8-1.867 1.733-3.8 2.8-5.8 1.066-2 1.6-3.933 1.6-5.8 0-.267-.067-.467-.2-.6v-.6c0-.667.2-1.2.6-1.6.533-.533.8-1 .8-1.4l-.2-.2Zm14.6 13.6 3.2-1.8a204.7 204.7 0 0 0 7-4.6c2.533-1.867 4.8-3.733 6.8-5.6 2.133-2 3.2-3.8 3.2-5.4 0-.133-.067-.6-.2-1.4a21.197 21.197 0 0 0-.6-2.8c-.134-1.067-.4-1.933-.8-2.6-.4-.8-.867-1.2-1.4-1.2-.934 0-2 .533-3.2 1.6-1.067.933-2.2 2.133-3.4 3.6a89.926 89.926 0 0 0-3.4 4c-.934 1.333-1.8 2.333-2.6 3l-.8 1.4c-.534.8-1.134 1.867-1.8 3.2a97.513 97.513 0 0 0-2 3.8c-.534 1.333-.8 2.333-.8 3 0 .4.266 1 .8 1.8Zm-14.2-13.4c-.267 0-.4-.067-.4-.2l.4.2Zm149.472 23c.266.667.533 1.267.8 1.8l1 2a172.746 172.746 0 0 1-5.8 3.4c-2 1.067-3.8 2.333-5.4 3.8-.667 0-1.734.4-3.2 1.2-1.467.8-2.934 2-4.4 3.6-1.467 1.467-2.8 3.2-4 5.2-1.067 2-1.6 4.2-1.6 6.6v.8c.133.133.2.333.2.6 0 .667-.134 1.267-.4 1.8-1.467 2.267-2.6 4.2-3.4 5.8-.8 1.467-1.2 3.4-1.2 5.8v2.8c.133.8.2 1.6.2 2.4 0 6.133-1 12-3 17.6-.8 1.467-1.2 3-1.2 4.6 0 1.733-.534 3.333-1.6 4.8-.8 1.067-1.2 2.4-1.2 4 .133 1.733-.2 2.933-1 3.6-.8.667-1.4 1.4-1.8 2.2-.267.933-.467 1.8-.6 2.6a45.872 45.872 0 0 1-.4 2.4c0 .667-.2 1.2-.6 1.6-.8.4-1.4.867-1.8 1.4a11.345 11.345 0 0 0-.6 2 10.2 10.2 0 0 1-.2 2c0 .8-.134 1.533-.4 2.2l.4-.2c-.534.533-1.067 1.267-1.6 2.2a33.275 33.275 0 0 1-1.8 2.8c-.667 1.067-1.4 2.2-2.2 3.4 0 2.533-.267 4.067-.8 4.6-.534.667-1.734 1.333-3.6 2 0 3.6-.934 6.467-2.8 8.6-1.867 2.133-4.067 3.733-6.6 4.8-2.4 1.2-4.8 2-7.2 2.4-2.4.4-4.067.6-5 .6-1.067 0-2.534-.4-4.4-1.2-1.867-.667-3.734-1.667-5.6-3-1.734-1.333-3.334-2.933-4.8-4.8-1.334-1.867-2-3.933-2-6.2 0-3.067.2-6.267.6-9.6.4-3.2.666-6.333.8-9.4 0-1.6.333-3.333 1-5.2.666-1.733 1.333-3.6 2-5.6a62.9 62.9 0 0 0 2.2-6c.666-2 1.133-4 1.4-6 .133-1.2.533-2.467 1.2-3.8a97.802 97.802 0 0 1 2-3.8 29.421 29.421 0 0 0 2-3c.666-.8 1-1.4 1-1.8a15.02 15.02 0 0 1 2.6-6.2 142.877 142.877 0 0 1 4.2-5.2c2-2.667 4.2-5.533 6.6-8.6a382.134 382.134 0 0 1 8.4-9.8c1.066-1.067 2.2-1.8 3.4-2.2 1.333-.4 2.333-1.333 3-2.8.8-1.867 2.066-3.467 3.8-4.8a142.021 142.021 0 0 1 5.2-4.2 28.898 28.898 0 0 0 4.6-4.4c1.333-1.6 2-3.533 2-5.8 0-.667.133-1.667.4-3 .266-1.333.6-2.733 1-4.2s.733-2.867 1-4.2c.266-1.333.4-2.4.4-3.2a10.2 10.2 0 0 0-.2-2c-.134-.667-.2-1.333-.2-2 0-1.467.133-3.133.4-5 .4-2 .666-3.933.8-5.8 0-.133-.134-.267-.4-.4a1.777 1.777 0 0 0-.8-.2c-1.6.267-3 1.2-4.2 2.8-1.2 1.6-2.8 2.667-4.8 3.2-.134 0-.534.267-1.2.8-.534.4-1.2.933-2 1.6a8.725 8.725 0 0 0-1.8 2c-.534.667-.8 1.333-.8 2 0 1.067-.467 2-1.4 2.8-.8.8-2.2 1.267-4.2 1.4 0 .267-.2.933-.6 2-.4 1.067-.934 2.2-1.6 3.4a10.561 10.561 0 0 1-2.2 3.2c-.8.933-1.667 1.4-2.6 1.4-.4 0-.934.467-1.6 1.4-.667.8-1.334 1.8-2 3a22.632 22.632 0 0 0-1.8 3.6c-.534 1.2-.867 2.2-1 3-.534 2.667-2.067 4.667-4.6 6-2.4 1.333-4.8 2-7.2 2-1.6 0-3.4-.067-5.4-.2-2-.267-3.867-1.067-5.6-2.4-1.734-1.467-3.2-3.733-4.4-6.8-1.2-3.067-1.8-7.4-1.8-13 0-3.2.466-6.133 1.4-8.8 1.066-2.667 1.6-5.267 1.6-7.8 1.333-2.4 2.4-4.6 3.2-6.6.8-2 1.733-3.933 2.8-5.8 1.2-2 2.733-4 4.6-6 2-2.133 4.8-4.4 8.4-6.8 3.066-2.267 6.133-4.133 9.2-5.6 3.066-1.6 6.2-2.4 9.4-2.4 2.133 0 4.333.2 6.6.6 2.266.4 4.266 1.067 6 2 1.733.8 3.133 1.8 4.2 3 1.2 1.2 1.8 2.6 1.8 4.2 0 .933-.267 1.867-.8 2.8-.534.8-1.334 1.2-2.4 1.2-.8 0-1.667-.2-2.6-.6-.8-.533-1.734-1-2.8-1.4-.934-.533-1.867-1-2.8-1.4-.8-.533-1.6-.8-2.4-.8-1.067 0-2.2.2-3.4.6-.8.4-2.734 1.6-5.8 3.6-2.934 1.867-6.134 4.333-9.6 7.4-3.334 3.067-6.334 6.667-9 10.8-2.667 4.133-4 8.467-4 13v1c.133.4.2.8.2 1.2 0 1.333-.2 2.667-.6 4-.4 1.2-.6 2.533-.6 4 0 1.067.133 2.2.4 3.4.266 1.067.866 1.6 1.8 1.6.666 0 1.666-.6 3-1.8 1.333-1.2 2.8-2.6 4.4-4.2l4.8-5.2c1.733-1.867 3.333-3.333 4.8-4.4 1.333-.4 2.6-1 3.8-1.8 1.066-.667 2.133-1.533 3.2-2.6 1.066-1.2 1.933-2.667 2.6-4.4.533-1.067 1.2-1.8 2-2.2 1.6-.667 2.866-1.6 3.8-2.8a19.94 19.94 0 0 0 2.6-4.2c.4-.667.866-1.2 1.4-1.6a26.81 26.81 0 0 1 1.8-1c.666-.4 1.266-.8 1.8-1.2.666-.533 1.133-1.267 1.4-2.2 0-.933.8-1.667 2.4-2.2 1.6-.667 2.6-1.533 3-2.6.533-1.6 1.8-3.067 3.8-4.4 2-1.333 3.866-2 5.6-2 4.133 0 6.866.667 8.2 2 1.466 1.333 2.2 3.6 2.2 6.8 0 3.867-.6 7.733-1.8 11.6a66.187 66.187 0 0 0-2.2 11.4c-.134 1.2-.6 2.533-1.4 4-.8 1.467-1.2 2.467-1.2 3 0 1.067.466 1.667 1.4 1.8 1.066.133 1.933.2 2.6.2 1.066 0 2.466-.4 4.2-1.2 1.733-.8 3.266-1.2 4.6-1.2 1.733 0 3.2.8 4.4 2.4Zm-35.8 55.8c.266-.533.4-.933.4-1.2 0-1.333-.6-2.267-1.8-2.8-1.067-.533-1.6-1.267-1.6-2.2 0-1.067.266-2.267.8-3.6.666-1.467 1.133-2.733 1.4-3.8-.134-.267-.2-.733-.2-1.4 0-.933.133-1.8.4-2.6.4-.8.733-1.667 1-2.6 0-.933-.467-1.4-1.4-1.4-.267 0-.467.067-.6.2-2 1.6-3.8 3.4-5.4 5.4a217.613 217.613 0 0 0-4.4 5.8 83.697 83.697 0 0 1-4.2 5.4c-1.334 1.867-2.934 3.6-4.8 5.2-1.734 1.467-2.867 3.133-3.4 5-.534 2-1.534 3.933-3 5.8-1.067 1.333-2.267 3.4-3.6 6.2-1.334 2.8-2.6 5.8-3.8 9-1.2 3.2-2.267 6.4-3.2 9.6-.8 3.333-1.2 6.2-1.2 8.6-.267 1.467-.667 2.667-1.2 3.6-.534 1.067-.8 2.267-.8 3.6v2.4c.133 1.2.333 2.333.6 3.4.266 1.2.666 2.2 1.2 3 .533.933 1.2 1.4 2 1.4.933 0 1.933-.2 3-.6a6.94 6.94 0 0 0 2.8-1.4c.8-.933 1.866-2.067 3.2-3.4a59.87 59.87 0 0 0 4.4-4c1.466-1.467 2.733-2.933 3.8-4.4 1.066-1.467 1.6-2.933 1.6-4.4 0-.533.266-1.267.8-2.2.533-.933 1.066-2 1.6-3.2.666-1.2 1.266-2.4 1.8-3.6.666-1.2 1.133-2.4 1.4-3.6 0-.133.266-.533.8-1.2.666-.667 1.333-1.4 2-2.2.666-.667 1.266-1.4 1.8-2.2.533-.667.8-1.2.8-1.6 0-.533-.4-1-1.2-1.4-.8-.4-1.467-.8-2-1.2l1-2.6c.8-1.6 1.6-3.467 2.4-5.6.933-2 1.733-4 2.4-6 .666-1.867 1-3.133 1-3.8 0-.533-.067-1-.2-1.4v-.8c0-.4.066-.733.2-1 .133-.267.333-.533.6-.8.4 0 .733.2 1 .6.4.4.733.6 1 .6.133 0 .4-.2.8-.6Zm135.851-17.4c-1.066 3.867-2.6 6.733-4.6 8.6-1.866 1.733-4.466 3.067-7.8 4a147.431 147.431 0 0 0-5.8-3.8c-2-1.467-3-3.4-3-5.8 0-1.733-.466-2.867-1.4-3.4-.933-.533-1.4-1.533-1.4-3v-3.2c.134-1.2.2-2.333.2-3.4a179.67 179.67 0 0 0-1-5.8c-.266-2.133-.4-4-.4-5.6 0-.8.067-1.6.2-2.4.134-.933.2-1.8.2-2.6a19.804 19.804 0 0 0-.6-3l-.4-2.8c0-.8.134-1.6.4-2.4.4-.933.6-1.733.6-2.4 0-.667-.133-1.333-.4-2a13.5 13.5 0 0 1-.2-2.2c0-2.133.2-4.467.6-7 .4-2.533.6-5 .6-7.4 0-.667-.066-1.267-.2-1.8 0-.667-.333-1.2-1-1.6-.266 0-.533.067-.8.2h-.8c0 .267-.533 1.067-1.6 2.4a128.152 128.152 0 0 1-3.4 4.6c-1.2 1.6-2.4 3.267-3.6 5-1.066 1.6-1.8 2.867-2.2 3.8-.266.667-.6 1.533-1 2.6a33.144 33.144 0 0 1-1.4 3.2c-.4.933-.8 1.8-1.2 2.6l-.4 1c-1.066.4-1.866 1.067-2.4 2-.533.8-1 1.667-1.4 2.6-.4.933-.733 1.867-1 2.8-.266.8-.6 1.4-1 1.8-1.6 1.333-3.133 3.4-4.6 6.2a92.484 92.484 0 0 1-5 8.4c-1.866 2.8-4 5.267-6.4 7.4-2.4 2.133-5.333 3.2-8.8 3.2-3.2 0-6.4-1.133-9.6-3.4-3.2-2.267-5-5.733-5.4-10.4a28.027 28.027 0 0 0-1.6-6.6c-.8-2.267-1.2-4.467-1.2-6.6 0-3.6.134-7.267.4-11 .4-3.733.934-7.267 1.6-10.6 0-.133.134-1.067.4-2.8.267-1.867.467-4.133.6-6.8.267-2.8.467-5.933.6-9.4.267-3.467.4-7 .4-10.6 0-.8-.133-1.6-.4-2.4-.133-.933-.2-1.8-.2-2.6 0-.667.267-1.267.8-1.8.667-.533 1.334-.8 2-.8 2.4.267 4.734 1 7 2.2 2.267 1.067 3.4 2.8 3.4 5.2-.666 8-1.4 15.8-2.2 23.4-.8 7.467-1.2 15.2-1.2 23.2v5c.134 1.867.267 3.667.4 5.4.267 1.733.6 3.2 1 4.4.534 1.2 1.2 1.8 2 1.8 1.2 0 2.8-1.333 4.8-4 2.134-2.667 4.4-5.867 6.8-9.6 2.534-3.733 5-7.533 7.4-11.4 2.4-4 4.534-7.333 6.4-10 1.067-1.467 2.134-2.533 3.2-3.2 1.2-.8 2-2.067 2.4-3.8.534-1.867 1.6-3.6 3.2-5.2 1.734-1.733 3.2-3.267 4.4-4.6.8-.8 1.867-2.133 3.2-4a80.822 80.822 0 0 1 4.4-5.6c1.6-1.867 3.2-3.467 4.8-4.8 1.6-1.467 2.934-2.2 4-2.2.934 0 1.934-.067 3-.2 1.2-.133 2.4-.2 3.6-.2 4.534 0 7.734 1.4 9.6 4.2 2 2.667 3 5.933 3 9.8 0 3.867-.466 7.667-1.4 11.4-.933 3.733-1.4 7.133-1.4 10.2v2.2c.134.667.2 1.4.2 2.2 0 2.8-.266 5.533-.8 8.2a40.725 40.725 0 0 0-.8 8c.267 3.067.6 6.2 1 9.4s.6 6.2.6 9c0 .267-.066.533-.2.8v.6c0 1.333.2 2.6.6 3.8.4 1.2.934 2.333 1.6 3.4Zm99.989-7c.134.8.267 1.8.4 3 .134 1.2.334 2.4.6 3.6.4 1.067.934 2 1.6 2.8.667.8 1.534 1.2 2.6 1.2.667 0 1.4-.2 2.2-.6.934-.533 1.8-1.067 2.6-1.6.934-.667 1.8-1.2 2.6-1.6.8-.533 1.534-.8 2.2-.8.267 0 .6.2 1 .6.534.267.8.6.8 1 0 3.867-.733 6.933-2.2 9.2a244.928 244.928 0 0 1-5 7.4c-.8.267-1.6.333-2.4.2-.8-.133-1.466.2-2 1-3.466 2.667-7.133 4-11 4-1.333 0-2.933-.2-4.8-.6-1.866-.4-2.933-1.2-3.2-2.4-.133-1.2-.533-2.2-1.2-3-.666-.8-1.4-1.6-2.2-2.4a44.655 44.655 0 0 1-2-2.6c-.666-.8-1.066-1.867-1.2-3.2-.266-1.733-1-3.267-2.2-4.6-1.2-1.467-1.8-3-1.8-4.6 0-.533.2-1.133.6-1.8-.8-2.933-1.2-5.4-1.2-7.4 0-2.133-.2-4.067-.6-5.8 0-.933.334-1.8 1-2.6.667-.8 1-1.6 1-2.4 0-.667-.6-1.067-1.8-1.2-1.066-.133-1.6-.6-1.6-1.4 0-.533.067-1.067.2-1.6.267-.667.4-1.2.4-1.6 0-1.333-.266-2.667-.8-4a11.208 11.208 0 0 1-.8-4.2c0-2.933-.6-4.8-1.8-5.6-1.066-.933-2.533-1.4-4.4-1.4-2.266 0-4.666.2-7.2.6-2.4.267-4.733.533-7 .8-3.466.667-6.533 1.267-9.2 1.8-2.266.533-4.333 1.133-6.2 1.8-1.866.667-2.8 1.267-2.8 1.8v2.8c.134.8.2 1.667.2 2.6 0 1.333-.133 2.667-.4 4a21.425 21.425 0 0 0-.4 4.2c0 .667.067 1.4.2 2.2.267.8.4 1.533.4 2.2 0 .667-.333 1.333-1 2-.533.667-1.266 1.333-2.2 2-.8.667-1.666 1.2-2.6 1.6-.933.4-1.8.6-2.6.6-2 0-3.533-.933-4.6-2.8-1.066-2-1.866-4.467-2.4-7.4-.4-3.067-.666-6.333-.8-9.8-.133-3.467-.266-6.8-.4-10 0-1.467.134-3 .4-4.6.4-1.733.6-3.333.6-4.8 0-.667-.133-1.333-.4-2-.266-.8-.4-1.6-.4-2.4.134-2.667.4-5.4.8-8.2.4-2.8.734-5.533 1-8.2.134-.667.6-1.2 1.4-1.6a9.229 9.229 0 0 1 2.6-1.2 29.823 29.823 0 0 1 3-.6c1.067-.133 1.867-.2 2.4-.2 1.6 0 3.134.533 4.6 1.6 1.467.933 2.2 2.333 2.2 4.2 0 3.067-.2 6.067-.6 9-.266 2.8-.4 5.6-.4 8.4 0 1.067.334 2.133 1 3.2.667.933 1.534 1.4 2.6 1.4.8 0 2.267-.067 4.4-.2 2.134-.133 4.534-.333 7.2-.6 2.667-.267 5.467-.533 8.4-.8 2.934-.4 5.6-.8 8-1.2 2.4-.533 4.334-1.067 5.8-1.6 1.6-.667 2.4-1.333 2.4-2s-.066-1.333-.2-2c-.133-.8-.2-1.533-.2-2.2 0-1.067.267-2.133.8-3.2.534-1.067.8-2.133.8-3.2 0-.667-.133-1.2-.4-1.6a7.453 7.453 0 0 1-.2-1.8c0-2.267.4-4.467 1.2-6.6.934-2.267 1.4-4.533 1.4-6.8 0-1.467-.066-2.867-.2-4.2a48.698 48.698 0 0 1-.2-4.4c0-1.467.2-2.733.6-3.8.534-1.067 1.867-1.6 4-1.6 3.6 0 6.4.6 8.4 1.8 2.134 1.2 3.734 2.8 4.8 4.8 1.067 2 1.734 4.267 2 6.8.4 2.4.6 4.867.6 7.4 0 3.733.134 7.333.4 10.8.4 3.467.6 6.933.6 10.4 0 2.133-.333 4.2-1 6.2-.533 2-.8 4.067-.8 6.2 0 1.067-.466 1.933-1.4 2.6-.933.533-1.4 1.533-1.4 3 0 .267.134.533.4.8.4.133.8.333 1.2.6.534.133.934.467 1.2 1 .4.4.6 1 .6 1.8 0 .267-.133.6-.4 1-.266.267-.4.667-.4 1.2 0 3.6.4 6.667 1.2 9.2.8 2.4 1.2 4.333 1.2 5.8 0 .533-.133 1.067-.4 1.6a7.448 7.448 0 0 0-.2 1.8c0 .667.267 1.267.8 1.8l1.6 1.2Zm-5.6-41v-.4c-.133 0-.266.067-.4.2.134.133.267.2.4.2.267 0 .4-.2.4-.6l-.4-.2-.4.4.4.4Zm60.353-9.4c-1.466 0-3 .133-4.6.4-1.466.133-2.733.2-3.8.2-.4 0-.8-.067-1.2-.2-.266-.133-.6-.2-1-.2-.533 0-1.066.067-1.6.2a6.57 6.57 0 0 1-1.6.2 22.4 22.4 0 0 1-7.8-1.4c-2.4-1.067-4.666-2.467-6.8-4.2-2-1.867-3.733-4.067-5.2-6.6-1.333-2.533-2.2-5.333-2.6-8.4.4-1.867.8-3.467 1.2-4.8a26.863 26.863 0 0 0 1.2-4.4c.267-1.2.8-2.133 1.6-2.8.8-.667 1.667-1.267 2.6-1.8.934-.533 1.867-1 2.8-1.4a8.714 8.714 0 0 0 2.4-2c.134-.133.667-.267 1.6-.4.934-.267 2-.533 3.2-.8 1.334-.267 2.6-.467 3.8-.6 1.2-.267 2.134-.4 2.8-.4 1.467 0 2.934.133 4.4.4 1.6.133 3.2.333 4.8.6.667.667 1.467 1 2.4 1h1c.4-.133.8-.2 1.2-.2.934 0 1.667.267 2.2.8.534.4 1 .933 1.4 1.6.4.533.734 1.067 1 1.6.4.4.934.667 1.6.8 2.267 0 3.667 1 4.2 3 .534 1.867.8 3.667.8 5.4 0 1.067-.066 2-.2 2.8v2.4c0 1.6.8 2.6 2.4 3 1.6.4 3 .6 4.2.6.667 0 1.334-.067 2-.2.8-.267 1.534-.4 2.2-.4.667 0 1.267.067 1.8.2h2c1.067 0 2.067-.067 3-.2.934-.267 1.934-.4 3-.4 2.134 0 4.134.467 6 1.4 1.867.933 3.2 1.4 4 1.4.134 0 .467-.133 1-.4 2 .4 3.667 1.2 5 2.4 1.334 1.2 2.467 2.667 3.4 4.4 0 1.2.4 2.267 1.2 3.2.934.8 1.4 1.8 1.4 3-.266 4.667-1 9.133-2.2 13.4-1.066 4.267-1.6 8.4-1.6 12.4 0 3.733.067 7.467.2 11.2.134 3.733.2 7.467.2 11.2 0 1.733-.333 3.4-1 5-.533 1.467-.8 3.067-.8 4.8 0 1.067.067 2.2.2 3.4.267 1.2.4 2.333.4 3.4 0 2-.533 3.733-1.6 5.2a14.1 14.1 0 0 0-.8 3.2c0 1.067-.333 2.133-1 3.2l-1.8 2.4a19.634 19.634 0 0 1-2.8 3 29.904 29.904 0 0 1-3.2 2.8c-1.066.8-2 1.2-2.8 1.2-.4 0-1.066-.467-2-1.4-.8-.8-1.666-1.8-2.6-3-.8-1.2-1.533-2.533-2.2-4-.666-1.333-1-2.533-1-3.6 0-.533.067-.933.2-1.2 0-.533-.4-1.933-1.2-4.2-.8-2.133-1.2-4-1.2-5.6 0-.4.067-.8.2-1.2.267-.533.4-1 .4-1.4 0-1.467-.133-2.867-.4-4.2a48.697 48.697 0 0 1-.2-4.4c0-5.333.4-10.6 1.2-15.8.8-5.333 1.734-10.6 2.8-15.8.667-3.467 1.134-7 1.4-10.6a57.146 57.146 0 0 1 1.8-10.8c0-1.2-.466-1.933-1.4-2.2-.8-.267-1.933-.4-3.4-.4-.8 0-1.333.067-1.6.2-.933.4-2.466.667-4.6.8-2.133 0-4.266.333-6.4 1-2.133.667-4 1.933-5.6 3.8-1.6 1.733-2.4 4.467-2.4 8.2 0 .933-.2 1.8-.6 2.6-.266.8-.6 1.867-1 3.2-.4 1.333-.866 3.067-1.4 5.2-.4 2.133-.666 4.867-.8 8.2-.133 1.2-.266 2.467-.4 3.8-.133 1.2-.6 2.333-1.4 3.4-.133.133-.2.333-.2.6-.266 3.867-1.133 7.533-2.6 11-1.333 3.333-2.2 6.933-2.6 10.8 0 .267-.066.467-.2.6 0 .267-.466.933-1.4 2-.8 1.067-1.866 2.267-3.2 3.6a17.406 17.406 0 0 1-4.2 3.4c-1.466 1.067-2.933 1.6-4.4 1.6-1.6 0-3-.4-4.2-1.2-1.066-.8-2.066-1.8-3-3-.8-1.2-1.6-2.467-2.4-3.8a22.68 22.68 0 0 0-2.4-3.8c-2.133-2.667-3.666-6.2-4.6-10.6-.933-4.4-1.4-8.467-1.4-12.2 0-1.867.667-3.067 2-3.6 1.467-.667 3-1 4.6-1 .934 0 1.934.067 3 .2 1.2.133 2.267.4 3.2.8a5.503 5.503 0 0 1 2.6 2c.8.8 1.2 1.933 1.2 3.4 0 .8-.133 1.6-.4 2.4-.266.8-.4 1.533-.4 2.2 0 .533.067 1.267.2 2.2.134.8.334 1.6.6 2.4.4.8.8 1.467 1.2 2 .4.533.8.8 1.2.8.267 0 .534-.267.8-.8 2.534-6 4.934-12 7.2-18a198.92 198.92 0 0 0 6.2-18.4c.267-1.333.734-2.667 1.4-4 .8-1.333 1.2-2.533 1.2-3.6 0-.8-.333-1.867-1-3.2Zm-11.2-13.2c1.067.267 1.934.4 2.6.4 2.267 0 4.534-.267 6.8-.8 2.4-.533 3.6-1.733 3.6-3.6 0-.8-.266-1.933-.8-3.4-.533-1.467-1.333-2.933-2.4-4.4a13.902 13.902 0 0 0-3.6-3.8c-1.466-1.067-3.066-1.6-4.8-1.6-1.2 0-2.6.2-4.2.6-1.6.4-3.133 1.067-4.6 2-1.333.8-2.466 1.867-3.4 3.2-.933 1.333-1.4 2.933-1.4 4.8 0 2.133.8 3.8 2.4 5 1.734 1.2 3.734 1.8 6 1.8h1.8c.667-.133 1.334-.2 2-.2Zm173.441 66.2c-1.33 7.067-5.4 11.4-12.2 13-1.73-.8-3.67-2.067-5.8-3.8-2.13-1.733-3.2-3.733-3.2-6v-.8c.13-.267.2-.533.2-.8 0-.533-.13-.933-.4-1.2-.27-.267-.6-.6-1-1s-.73-.8-1-1.2c-.27-.533-.4-1.267-.4-2.2v-1.4c.13-.533.2-1.067.2-1.6-.27-2.8-.6-5.467-1-8a79.36 79.36 0 0 1-.4-8v-1.2c.13-.533.2-1 .2-1.4 0-.933-.2-1.867-.6-2.8-.27-.933-.4-1.933-.4-3 0-.667.13-1.4.4-2.2.4-.933.6-1.8.6-2.6s-.13-1.6-.4-2.4c-.13-.933-.2-1.8-.2-2.6 0-2.667.27-5.333.8-8 .53-2.8.8-5.533.8-8.2 0-.933-.53-1.4-1.6-1.4-.67 0-1.2.267-1.6.8-.4.533-.73 1.133-1 1.8s-.6 1.4-1 2.2c-.4.667-.93 1.2-1.6 1.6-1.2.667-2.13 1.667-2.8 3-.53 1.2-1.33 2.267-2.4 3.2-.13 0-.47.467-1 1.4-.4.8-.87 1.8-1.4 3-.53 1.067-1 2.133-1.4 3.2-.4 1.067-.67 1.867-.8 2.4-.67 1.067-1.47 2-2.4 2.8-.8.667-1.33 1.4-1.6 2.2-.4 2.533-1.33 4.533-2.8 6-1.47 1.467-2.67 3.333-3.6 5.6-.8 1.733-1.87 3.8-3.2 6.2a38.912 38.912 0 0 1-4.8 6.8c-1.87 2.133-3.933 4-6.2 5.6-2.267 1.467-4.733 2.2-7.4 2.2-4 0-7.133-1.133-9.4-3.4-2.267-2.4-4-5.333-5.2-8.8-1.2-3.6-2-7.533-2.4-11.8-.267-4.267-.4-8.333-.4-12.2 0-1.467.067-2.8.2-4 .133-1.333.333-2.533.6-3.6.667-2.4 1-4.867 1-7.4 0-2.533.133-5 .4-7.4.4-3.067.667-6.333.8-9.8.267-3.6.4-7.067.4-10.4v-2.2c0-.8-.067-1.6-.2-2.4 0-.533.267-1.067.8-1.6.533-.533 1.133-.8 1.8-.8 2.267.267 4.6.933 7 2 2.4 1.067 3.6 2.8 3.6 5.2 0 1.467-.067 3-.2 4.6 0 1.6-.133 3.067-.4 4.4-1.2 5.067-1.867 10.067-2 15 0 4.933-.133 9.933-.4 15 0 1.467-.133 2.933-.4 4.4a24.52 24.52 0 0 0-.4 4.4c0 1.2.067 2.667.2 4.4.133 1.733.333 3.467.6 5.2.267 1.6.6 3 1 4.2.533 1.2 1.133 1.8 1.8 1.8.8 0 1.4-.2 1.8-.6.4-.4.933-.8 1.6-1.2 4-5.333 7.667-10.8 11-16.4 3.47-5.733 7.2-11.267 11.2-16.6a8.786 8.786 0 0 1 3-3.6c1.33-.933 2.27-2.267 2.8-4 .67-2.133 1.8-3.667 3.4-4.6 1.6-1.067 2.73-2.4 3.4-4 .4-1.2 1.07-2.067 2-2.6.93-.667 1.73-1.467 2.4-2.4 2.13-3.467 4.67-6.467 7.6-9 3.07-2.667 6.73-4 11-4 3.2 0 5.67.533 7.4 1.6 1.73.933 3 2.2 3.8 3.8.8 1.467 1.27 3.2 1.4 5.2.27 1.867.4 3.733.4 5.6 0 3.867-.47 7.533-1.4 11-.93 3.467-1.4 6.867-1.4 10.2 0 3.333-.27 6.667-.8 10-.53 3.2-.8 6.4-.8 9.6 0 .533.07.933.2 1.2.53 2 .8 4.133.8 6.4.13 2.133.2 4.333.2 6.6.13 2.133.33 4.2.6 6.2.27 2 .93 3.867 2 5.6Zm-47.8-102.8c-5.73-1.067-9.93-3-12.6-5.8-2.533-2.8-4.333-6.267-5.4-10.4 0-.667.067-1.4.2-2.2.133-.933.733-1.4 1.8-1.4 1.067 0 2.27.6 3.6 1.8 1.33 1.067 2.4 1.8 3.2 2.2 3.47 2.667 7.13 4 11 4 1.87 0 4.27-.467 7.2-1.4 3.07-1.067 5.47-2.533 7.2-4.4.93-.8 2-1.6 3.2-2.4 1.33-.933 2.53-1.4 3.6-1.4 1.33 0 2.4.4 3.2 1.2.8.8 1.2 1.733 1.2 2.8 0 1.6-.67 3.133-2 4.6-1.2 1.333-2.73 2.6-4.6 3.8-1.73 1.2-3.6 2.333-5.6 3.4-2 1.067-3.67 2-5 2.8-1.6 1.067-3.27 1.667-5 1.8a23.86 23.86 0 0 0-5.2 1Zm64.4 84.6c0-4 .47-7.867 1.4-11.6a41.172 41.172 0 0 0 1.6-11.4c0-1.067.27-2.467.8-4.2.53-1.867 1.2-3.8 2-5.8.8-2.133 1.67-4.267 2.6-6.4 1.07-2.133 2.07-4.067 3-5.8 1.07-1.867 2.27-3.467 3.6-4.8a14.831 14.831 0 0 0 3-5c.4-1.333 1.13-2.267 2.2-2.8 1.07-.533 1.73-1.533 2-3 .13-.667.47-1.133 1-1.4.67-.267 1.33-.467 2-.6.67-.133 1.27-.267 1.8-.4.67-.133 1.13-.533 1.4-1.2.4-.933 1.07-1.8 2-2.6.93-.933 1.93-1.733 3-2.4 1.07-.8 2.13-1.4 3.2-1.8 1.07-.4 1.87-.6 2.4-.6 3.87.667 7.4 1.533 10.6 2.6 2.67.933 5.13 2.067 7.4 3.4 2.27 1.333 3.4 3 3.4 5 0 1.333-.2 3.2-.6 5.6a41.082 41.082 0 0 1-1.4 6.8c-.67 2.133-1.53 4.067-2.6 5.8-1.07 1.6-2.33 2.4-3.8 2.4-1.47 0-2.73-.8-3.8-2.4-.93-1.6-1.4-3.133-1.4-4.6 0-1.2.07-2.333.2-3.4.13-1.2.27-2.333.4-3.4 0-.933-.47-1.4-1.4-1.4-2 0-4.13.8-6.4 2.4-2.13 1.467-4.27 3.4-6.4 5.8-2.13 2.267-4.13 4.8-6 7.6s-3.47 5.4-4.8 7.8c-.93 4.133-2.13 8.2-3.6 12.2-1.47 4-2.2 8.267-2.2 12.8 0 1.867.13 4.133.4 6.8s.67 5.267 1.2 7.8c.67 2.4 1.4 4.467 2.2 6.2.93 1.733 2.07 2.6 3.4 2.6.53 0 1.93-.667 4.2-2 2.4-1.467 5-3.2 7.8-5.2s5.47-4 8-6c2.67-2.133 4.6-3.8 5.8-5 1.73-2 3.93-4.267 6.6-6.8 2.8-2.533 5.6-4.933 8.4-7.2 2.93-2.267 5.8-4.133 8.6-5.6 2.8-1.6 5.13-2.4 7-2.4.93 0 1.73.133 2.4.4.67.267 1 .867 1 1.8 0 1.067-.53 2.133-1.6 3.2-.93.933-2.07 1.933-3.4 3-1.33.933-2.67 2-4 3.2-1.2 1.067-2.07 2.2-2.6 3.4-.27 0-1.33.933-3.2 2.8a225.1 225.1 0 0 1-6 6.2c-2.27 2.267-4.47 4.467-6.6 6.6-2 2.133-3.4 3.6-4.2 4.4-.8.933-2.4 2.533-4.8 4.8-2.27 2.267-4.87 4.6-7.8 7a97.456 97.456 0 0 1-9 6.2c-3.07 1.733-5.8 2.6-8.2 2.6-4 0-7.2-.733-9.6-2.2-2.27-1.467-4.07-3.267-5.4-5.4a30.574 30.574 0 0 1-3.2-7 57.21 57.21 0 0 0-2.8-7.2c-.67-1.467-1-3.133-1-5s-.07-3.6-.2-5.2Zm105.73-34.8c-1.47 0-3 .133-4.6.4-1.47.133-2.73.2-3.8.2-.4 0-.8-.067-1.2-.2-.27-.133-.6-.2-1-.2-.53 0-1.07.067-1.6.2s-1.07.2-1.6.2c-2.67 0-5.27-.467-7.8-1.4a30.161 30.161 0 0 1-6.8-4.2c-2-1.867-3.73-4.067-5.2-6.6-1.33-2.533-2.2-5.333-2.6-8.4.4-1.867.8-3.467 1.2-4.8.53-1.467.93-2.933 1.2-4.4.27-1.2.8-2.133 1.6-2.8.8-.667 1.67-1.267 2.6-1.8.93-.533 1.87-1 2.8-1.4.93-.533 1.73-1.2 2.4-2 .13-.133.67-.267 1.6-.4.93-.267 2-.533 3.2-.8 1.33-.267 2.6-.467 3.8-.6 1.2-.267 2.13-.4 2.8-.4 1.47 0 2.93.133 4.4.4 1.6.133 3.2.333 4.8.6.67.667 1.47 1 2.4 1h1c.4-.133.8-.2 1.2-.2.93 0 1.67.267 2.2.8.53.4 1 .933 1.4 1.6.4.533.73 1.067 1 1.6.4.4.93.667 1.6.8 2.27 0 3.67 1 4.2 3 .53 1.867.8 3.667.8 5.4 0 1.067-.07 2-.2 2.8v2.4c0 1.6.8 2.6 2.4 3 1.6.4 3 .6 4.2.6.67 0 1.33-.067 2-.2.8-.267 1.53-.4 2.2-.4.67 0 1.27.067 1.8.2h2c1.07 0 2.07-.067 3-.2.93-.267 1.93-.4 3-.4 2.13 0 4.13.467 6 1.4 1.87.933 3.2 1.4 4 1.4.13 0 .47-.133 1-.4 2 .4 3.67 1.2 5 2.4s2.47 2.667 3.4 4.4c0 1.2.4 2.267 1.2 3.2.93.8 1.4 1.8 1.4 3-.27 4.667-1 9.133-2.2 13.4-1.07 4.267-1.6 8.4-1.6 12.4 0 3.733.07 7.467.2 11.2.13 3.733.2 7.467.2 11.2 0 1.733-.33 3.4-1 5-.53 1.467-.8 3.067-.8 4.8 0 1.067.07 2.2.2 3.4.27 1.2.4 2.333.4 3.4 0 2-.53 3.733-1.6 5.2-.4 1.067-.67 2.133-.8 3.2 0 1.067-.33 2.133-1 3.2l-1.8 2.4a19.485 19.485 0 0 1-2.8 3c-1.07 1.067-2.13 2-3.2 2.8-1.07.8-2 1.2-2.8 1.2-.4 0-1.07-.467-2-1.4-.8-.8-1.67-1.8-2.6-3a28.66 28.66 0 0 1-2.2-4c-.67-1.333-1-2.533-1-3.6 0-.533.07-.933.2-1.2 0-.533-.4-1.933-1.2-4.2-.8-2.133-1.2-4-1.2-5.6 0-.4.07-.8.2-1.2.27-.533.4-1 .4-1.4 0-1.467-.13-2.867-.4-4.2a49.82 49.82 0 0 1-.2-4.4c0-5.333.4-10.6 1.2-15.8.8-5.333 1.73-10.6 2.8-15.8.67-3.467 1.13-7 1.4-10.6a57.63 57.63 0 0 1 1.8-10.8c0-1.2-.47-1.933-1.4-2.2-.8-.267-1.93-.4-3.4-.4-.8 0-1.33.067-1.6.2-.93.4-2.47.667-4.6.8-2.13 0-4.27.333-6.4 1-2.13.667-4 1.933-5.6 3.8-1.6 1.733-2.4 4.467-2.4 8.2 0 .933-.2 1.8-.6 2.6-.27.8-.6 1.867-1 3.2-.4 1.333-.87 3.067-1.4 5.2-.4 2.133-.67 4.867-.8 8.2-.13 1.2-.27 2.467-.4 3.8-.13 1.2-.6 2.333-1.4 3.4-.13.133-.2.333-.2.6-.27 3.867-1.13 7.533-2.6 11-1.33 3.333-2.2 6.933-2.6 10.8 0 .267-.07.467-.2.6 0 .267-.47.933-1.4 2-.8 1.067-1.87 2.267-3.2 3.6a17.406 17.406 0 0 1-4.2 3.4c-1.47 1.067-2.93 1.6-4.4 1.6-1.6 0-3-.4-4.2-1.2-1.07-.8-2.07-1.8-3-3-.8-1.2-1.6-2.467-2.4-3.8-.67-1.333-1.47-2.6-2.4-3.8-2.13-2.667-3.67-6.2-4.6-10.6-.93-4.4-1.4-8.467-1.4-12.2 0-1.867.67-3.067 2-3.6a11 11 0 0 1 4.6-1c.93 0 1.93.067 3 .2 1.2.133 2.27.4 3.2.8 1.07.4 1.93 1.067 2.6 2 .8.8 1.2 1.933 1.2 3.4 0 .8-.13 1.6-.4 2.4-.27.8-.4 1.533-.4 2.2 0 .533.07 1.267.2 2.2.13.8.33 1.6.6 2.4.4.8.8 1.467 1.2 2 .4.533.8.8 1.2.8.27 0 .53-.267.8-.8 2.53-6 4.93-12 7.2-18a198.03 198.03 0 0 0 6.2-18.4c.27-1.333.73-2.667 1.4-4 .8-1.333 1.2-2.533 1.2-3.6 0-.8-.33-1.867-1-3.2Zm-11.2-13.2c1.07.267 1.93.4 2.6.4 2.27 0 4.53-.267 6.8-.8 2.4-.533 3.6-1.733 3.6-3.6 0-.8-.27-1.933-.8-3.4-.53-1.467-1.33-2.933-2.4-4.4-.93-1.467-2.13-2.733-3.6-3.8-1.47-1.067-3.07-1.6-4.8-1.6-1.2 0-2.6.2-4.2.6-1.6.4-3.13 1.067-4.6 2a11.09 11.09 0 0 0-3.4 3.2c-.93 1.333-1.4 2.933-1.4 4.8 0 2.133.8 3.8 2.4 5 1.73 1.2 3.73 1.8 6 1.8h1.8c.67-.133 1.33-.2 2-.2Z"/></svg>