<svg width="148" height="24" viewBox="0 0 148 24" fill="none" xmlns="http://www.w3.org/2000/svg">
<g clip-path="url(#clip0_389_22151)">
<path d="M80.3355 4.35632H74.2406L67.1905 17.4261H72.9585L73.9964 15.1907L76.7439 8.70577L76.4638 14.0337L80.5797 15.1907L81.6141 17.4261H87.3857L80.3355 4.35632Z" fill="#F9F3DE"/>
<path d="M102.603 4.33844V11.2626L96.8314 4.33844H89.7812V17.4082H94.9027V9.42351L101.967 17.4082H107.735V4.33844H102.603Z" fill="#F9F3DE"/>
<path d="M120.507 9.39498C118.442 9.29856 116.847 9.22 116.847 8.64508C116.847 7.60592 118.804 7.37381 120.399 7.37381C121.994 7.37381 123.362 7.61663 123.947 8.64508H129.317C128.828 4.56345 125.007 4.04566 120.399 4.01709C119.814 4.01709 119.232 4.03137 118.661 4.06708L111.485 8.5308C111.481 8.57008 111.481 8.60579 111.481 8.64508C111.474 11.9125 116.628 12.1661 120.295 12.3517C122.36 12.4482 123.951 12.5339 123.951 13.1088C123.951 14.1194 121.997 14.3836 120.403 14.3836C118.808 14.3836 117.44 14.1194 116.851 13.1088H111.481C111.973 17.1654 115.795 17.7189 120.403 17.7296C125.018 17.7296 129.32 16.844 129.32 13.1088C129.331 9.83064 124.177 9.58067 120.51 9.39498H120.507Z" fill="#F9F3DE"/>
<path d="M62.2844 4.35635H49.653V17.3904L54.7637 14.2087H62.2844C64.9852 14.248 67.2767 11.9697 67.2407 9.28072C67.2767 6.58464 64.9852 4.32778 62.2844 4.35635ZM61.7852 10.0663C61.5733 10.2806 61.3075 10.3877 61.0058 10.3877H54.7637V6.2811L56.1968 8.16658H61.0058C61.3075 8.16658 61.5733 8.27371 61.7852 8.49511C62.0115 8.70937 62.1192 8.97005 62.1192 9.28072C62.1192 9.5914 62.0115 9.84494 61.7852 10.0663Z" fill="#F9F3DE"/>
<path d="M5.11076 7.69161H15.343L11.9885 4.35632H0V13.9837L3.42633 17.3904H15.343V14.0444H5.11076V12.3767H15.343V9.35926H5.11076V7.69161Z" fill="#F9F3DE"/>
<path d="M148 7.69161V4.35632H132.653V17.3904H143.054L148 14.1229V14.0444H137.768V12.3767H148V9.35926H137.768V7.69161H148Z" fill="#F9F3DE"/>
<path d="M42.355 17.7975H42.3657L40.7711 16.2834L42.6746 14.7621L44.5961 13.2231L44.6715 13.0481V6.5739L44.3375 7.17382L43.5222 8.66292L43.2636 9.13429L43.0158 9.17L41.8342 9.33069L40.0887 9.56995L37.1724 9.97347L47.1569 0.513952L36.2063 5.01695H36.0662L32.6506 8.55222L32.489 8.7272L32.313 8.54865L28.937 5.05266L28.8975 5.03838L28.8759 5.01695H28.8472L17.8427 0.467529L22.641 5.02052H22.6339L23.9807 6.29893L25.5861 5.36691L25.1695 7.42379L27.8811 9.99132L24.7421 9.55567L24.3291 11.6018L23.74 10.2449L22.7919 12.5446L22.3968 13.5016V9.23071L22.052 9.18428L21.6641 9.13072L21.5564 8.93431L20.2634 6.58818V13.0552L20.3353 13.2195L24.0381 16.187L24.1782 16.2977L24.1028 16.3691L22.4543 17.9296L21.481 18.8509L17.8463 22.3005L22.8062 20.2615H22.8098L27.2885 18.2153L25.8267 21.2828L32.4711 23.536L39.4638 21.1649L38.2463 18.2189L42.1826 20.2936L47.1604 22.3505L42.8686 18.2796L42.355 17.7975ZM35.2689 15.7299C35.0282 15.8727 34.7876 16.0191 34.5506 16.1655C34.547 16.1691 34.5398 16.1727 34.5362 16.1763C34.4823 16.212 34.4249 16.2477 34.3638 16.2798L32.4639 16.9547L30.8549 16.3834C30.7399 16.312 30.625 16.2405 30.5065 16.1691C30.4921 16.1584 30.4706 16.1441 30.449 16.1334C30.1868 15.9727 29.9247 15.812 29.6625 15.6549V14.505L31.4762 15.0728L31.5445 15.0978L32.4675 15.3871L33.4695 15.0764L33.4947 15.0693L35.2761 14.5086V15.7335L35.2689 15.7299Z" fill="#F9F3DE"/>
<path d="M43.0302 8.3308C42.8578 8.88431 42.495 9.32711 42.0353 9.6235C41.4571 9.99131 40.7208 10.1163 40.0097 9.9056C40.0061 9.9056 40.0025 9.9056 39.9989 9.90203C39.4818 9.74491 39.0615 9.43424 38.7634 9.04143L39.9953 8.39508C40.1426 8.77361 40.5125 9.04143 40.9543 9.04143C41.5182 9.04143 41.9743 8.59506 41.9743 8.04513C41.9743 7.8273 41.9024 7.62375 41.7803 7.46306L42.9871 6.83099C43.1667 7.29879 43.1918 7.82373 43.0338 8.33795L43.0302 8.3308Z" fill="#EE2759"/>
<path d="M20.558 8.72003V8.73441L20.5508 8.72003H20.558Z" fill="#F9F3DE"/>
</g>
<defs>
<clipPath id="clip0_389_22151">
<rect width="148" height="23.0649" fill="white" transform="translate(0 0.467529)"/>
</clipPath>
</defs>
</svg>
