<svg width="1060" height="86" viewBox="0 0 1060 86" fill="none" xmlns="http://www.w3.org/2000/svg">
<path fill-rule="evenodd" clip-rule="evenodd" d="M89.1453 20.5395C85.1952 14.0227 79.6258 8.97033 72.4372 5.38242C65.2487 1.7945 56.9569 0.000549316 47.562 0.000549316C38.167 0.000549316 29.8752 1.7945 22.6867 5.38242C15.4981 8.97033 9.91096 14.0227 5.92523 20.5395C1.97508 27.0197 0 34.5067 0 43.0005C0 51.4944 1.97508 58.9997 5.92523 65.5165C9.91096 71.9967 15.4981 77.0308 22.6867 80.6187C29.8752 84.2066 38.167 86.0005 47.562 86.0005C56.9569 86.0005 65.2487 84.2066 72.4372 80.6187C79.6258 77.0308 85.1952 71.9967 89.1453 65.5165C93.131 58.9997 95.1239 51.4944 95.1239 43.0005C95.1239 34.5067 93.131 27.0197 89.1453 20.5395ZM8.33601 63.9585C12.0175 69.9407 17.185 74.6173 23.9294 77.9835C30.6682 81.347 38.5222 83.0716 47.562 83.0716C56.6017 83.0716 64.4557 81.347 71.1946 77.9835C77.9401 74.6167 83.0882 69.9404 86.7334 63.9604L86.7357 63.9567C90.4066 57.9545 92.277 51.0013 92.277 43.0005C92.277 34.9995 90.4066 28.0677 86.7395 22.1056L86.7345 22.0975L86.7296 22.0893C83.0834 16.0739 77.9359 11.3823 71.1946 8.01758C64.4557 4.65414 56.6017 2.92946 47.562 2.92946C38.5222 2.92946 30.6682 4.65414 23.9294 8.01758C17.1868 11.3829 12.0188 16.0768 8.33603 22.0974C4.70163 28.0604 2.84696 34.9952 2.84696 43.0005C2.84696 51.0028 4.70028 57.9569 8.33601 63.9585ZM22.9875 56.5676L22.9818 56.5579C20.6386 52.6247 19.5194 48.0685 19.5194 43.0005C19.5194 37.9326 20.6386 33.3764 22.9818 29.4432L22.9875 29.4335L22.9934 29.4238C25.3672 25.508 28.7179 22.5248 32.9489 20.4716L32.9536 20.4693L32.9582 20.4671C37.2168 18.4198 42.1105 17.4458 47.562 17.4458C53.0106 17.4458 57.8895 18.4188 62.1173 20.4695C66.381 22.5203 69.7399 25.5049 72.0831 29.4336C74.4651 33.3675 75.6045 37.9275 75.6045 43.0005C75.6045 48.0736 74.4651 52.6336 72.0831 56.5675C69.7401 60.496 66.3814 63.4805 62.1179 65.5313C57.89 67.5822 53.0109 68.5553 47.562 68.5553C42.1105 68.5553 37.2168 67.5813 32.9582 65.534L32.9536 65.5318L32.9489 65.5295C28.7179 63.4763 25.3672 60.4931 22.9934 56.5773L22.9875 56.5676ZM60.9071 62.8805C64.7149 61.0499 67.633 58.4322 69.6614 55.0274C71.7255 51.6225 72.7575 47.6136 72.7575 43.0005C72.7575 38.3875 71.7255 34.3786 69.6614 30.9737C67.633 27.5689 64.7149 24.9512 60.9071 23.1206C57.1348 21.29 52.6865 20.3748 47.562 20.3748C42.4374 20.3748 37.9713 21.29 34.1635 23.1206C30.3913 24.9512 27.4731 27.5689 25.4091 30.9737C23.3806 34.3786 22.3664 38.3875 22.3664 43.0005C22.3664 47.6136 23.3806 51.6225 25.4091 55.0274C27.4731 58.4322 30.3913 61.0499 34.1635 62.8805C37.9713 64.7111 42.4374 65.6263 47.562 65.6263C52.6865 65.6263 57.1348 64.7111 60.9071 62.8805ZM172.135 4.55866C165.48 1.51992 157.954 0.000549316 149.555 0.000549316C140.338 0.000549316 132.207 1.7945 125.16 5.38242C118.114 8.97033 112.652 14.0227 108.773 20.5395C104.929 27.0197 103.008 34.5067 103.008 43.0005C103.008 51.4944 104.929 58.9997 108.773 65.5165C112.652 71.9967 118.114 77.0308 125.16 80.6187C132.207 84.2066 140.338 86.0005 149.555 86.0005C157.954 86.0005 165.48 84.4995 172.135 81.4974C178.79 78.4586 184.146 74.2117 188.203 68.7566C191.701 64.0207 193.982 58.6449 195.046 52.6293C195.216 51.6693 195.355 50.693 195.462 49.7004H173.203C172.171 55.0823 169.608 59.2011 165.516 62.0567C161.459 64.8758 156.121 66.2854 149.502 66.2854C144.555 66.2854 140.267 65.3518 136.637 63.4846C133.043 61.5808 130.267 58.8899 128.31 55.4118C126.388 51.8971 125.427 47.76 125.427 43.0005C125.427 38.2411 126.388 34.1223 128.31 30.6442C130.267 27.1295 133.043 24.4386 136.637 22.5714C140.267 20.6676 144.555 19.7158 149.502 19.7158C156.05 19.7158 161.37 21.1802 165.463 24.1091C169.555 27.038 172.135 31.1019 173.203 36.3007H195.462C195.355 35.3077 195.216 34.3314 195.046 33.3718C193.982 27.3609 191.701 22.0035 188.203 17.2994C184.146 11.8077 178.79 7.56079 172.135 4.55866ZM192.149 33.3718C191.124 28.0099 189.051 23.2602 185.942 19.0791L185.936 19.0716C182.196 14.0095 177.241 10.0603 170.992 7.24101L170.986 7.23838L170.98 7.23572C164.741 4.38663 157.617 2.92946 149.555 2.92946C140.701 2.92946 133.015 4.6511 126.423 8.00739C119.829 11.365 114.784 16.05 111.202 22.067C107.663 28.0343 105.854 34.9801 105.854 43.0005C105.854 51.0177 107.662 57.9826 111.201 63.9884C114.782 69.9672 119.827 74.635 126.423 77.9937C133.015 81.35 140.701 83.0716 149.555 83.0716C157.618 83.0716 164.744 81.6321 170.985 78.8179C177.239 75.9613 182.197 72.0099 185.936 66.9838C189.05 62.7689 191.125 57.9981 192.149 52.6293H175.435C174.012 57.5984 171.243 61.5994 167.114 64.4807L167.109 64.4839C162.443 67.7268 156.494 69.2143 149.502 69.2143C144.209 69.2143 139.466 68.2145 135.364 66.1043L135.349 66.0965L135.334 66.0886C131.273 63.9376 128.086 60.8603 125.846 56.8793L125.837 56.8636L125.829 56.8477C123.627 52.8216 122.58 48.172 122.58 43.0005C122.58 37.8301 123.627 33.193 125.835 29.1969L125.84 29.1882C128.08 25.1659 131.272 22.0786 135.349 19.9594C139.455 17.8071 144.203 16.7868 149.502 16.7868C156.451 16.7868 162.389 18.3418 167.088 21.7048C171.164 24.6212 173.942 28.5466 175.401 33.3718H192.149ZM291.824 20.5395C287.874 14.0227 282.305 8.97033 275.116 5.38242C267.927 1.7945 259.636 0.000549316 250.241 0.000549316C240.846 0.000549316 232.554 1.7945 225.365 5.38242C218.177 8.97033 212.59 14.0227 208.604 20.5395C204.654 27.0197 202.679 34.5067 202.679 43.0005C202.679 51.4944 204.654 58.9997 208.604 65.5165C212.59 71.9967 218.177 77.0308 225.365 80.6187C232.554 84.2066 240.846 86.0005 250.241 86.0005C259.636 86.0005 267.927 84.2066 275.116 80.6187C282.305 77.0308 287.874 71.9967 291.824 65.5165C295.81 58.9997 297.803 51.4944 297.803 43.0005C297.803 34.5067 295.81 27.0197 291.824 20.5395ZM211.015 63.9595C214.697 69.9412 219.864 74.6175 226.608 77.9835C233.347 81.347 241.201 83.0716 250.241 83.0716C259.28 83.0716 267.134 81.347 273.873 77.9835C280.619 74.6167 285.767 69.9404 289.412 63.9604L289.414 63.9567C293.085 57.9545 294.956 51.0013 294.956 43.0005C294.956 34.9995 293.085 28.0677 289.418 22.1056L289.413 22.0975L289.408 22.0893C285.762 16.0739 280.615 11.3823 273.873 8.01758C267.134 4.65414 259.28 2.92946 250.241 2.92946C241.201 2.92946 233.347 4.65414 226.608 8.01758C219.866 11.3825 214.699 16.0759 211.016 22.0956C207.381 28.059 205.526 34.9944 205.526 43.0005C205.526 51.0032 207.379 57.9577 211.015 63.9595ZM225.666 56.5676L225.661 56.5579C223.317 52.6248 222.198 48.0685 222.198 43.0005C222.198 37.9326 223.317 33.3763 225.661 29.4432L225.666 29.4335L225.672 29.4238C228.046 25.508 231.397 22.5248 235.628 20.4716L235.632 20.4693L235.637 20.4671C239.896 18.4198 244.789 17.4458 250.241 17.4458C255.69 17.4458 260.569 18.419 264.797 20.4701C269.06 22.5208 272.419 25.5049 274.761 29.433C277.144 33.367 278.283 37.9272 278.283 43.0005C278.283 48.0739 277.144 52.634 274.762 56.568C272.419 60.4959 269.061 63.4799 264.798 65.5307C260.57 67.582 255.69 68.5553 250.241 68.5553C244.789 68.5553 239.896 67.5813 235.637 65.534L235.632 65.5318L235.628 65.5295C231.397 63.4763 228.046 60.4931 225.672 56.5773L225.666 56.5676ZM263.586 62.8805C267.394 61.0499 270.312 58.4322 272.34 55.0274C274.404 51.6225 275.436 47.6136 275.436 43.0005C275.436 38.3875 274.404 34.3786 272.34 30.9737C270.312 27.5689 267.394 24.9512 263.586 23.1206C259.814 21.29 255.365 20.3748 250.241 20.3748C245.116 20.3748 240.65 21.29 236.842 23.1206C233.07 24.9512 230.152 27.5689 228.088 30.9737C226.059 34.3786 225.045 38.3875 225.045 43.0005C225.045 47.6136 226.059 51.6225 228.088 55.0274C230.152 58.4322 233.07 61.0499 236.842 62.8805C240.65 64.7111 245.116 65.6263 250.241 65.6263C255.365 65.6263 259.814 64.7111 263.586 62.8805ZM373.158 38.9578L373.15 38.9537C369.221 37.0632 364.182 36.0444 357.915 36.0444H329.449L326.269 16.1828H378.449V4.74172H309.157L314.889 41.3906L309.118 81.2594H357.915C363.724 81.2594 368.584 80.2693 372.579 78.3971C376.587 76.4821 379.537 73.8706 381.558 70.5961C383.584 67.2784 384.641 63.3508 384.641 58.7068C384.641 53.9356 383.648 49.9631 381.776 46.6791L381.773 46.6738L381.77 46.6685C379.93 43.41 377.115 40.8291 373.167 38.9619L373.158 38.9578ZM383.964 72.1615C381.616 75.969 378.217 78.9346 373.769 81.058C369.32 83.1449 364.036 84.1883 357.915 84.1883H305.816L312.008 41.408L305.816 1.81281H381.295V19.1117H329.623L331.865 33.1155H357.915C364.463 33.1155 369.943 34.1772 374.356 36.3007C378.769 38.3875 382.061 41.353 384.231 45.1972C386.402 49.0048 387.488 53.508 387.488 58.7068C387.488 63.8324 386.313 68.3173 383.964 72.1615ZM364.54 67.3364L364.529 67.3468C362.013 69.5864 358.731 70.5323 355.032 70.5323H325.825L329.529 45.7281H354.979C358.686 45.7281 361.974 46.6973 364.487 48.9793C367.089 51.3075 368.288 54.4927 368.288 58.1576C368.288 61.8081 367.117 64.9913 364.552 67.3258L364.54 67.3364ZM331.972 48.657H354.979C358.217 48.657 360.762 49.4991 362.612 51.1832C364.498 52.8673 365.442 55.1921 365.442 58.1576C365.442 61.1232 364.516 63.448 362.666 65.1321C360.815 66.7796 358.271 67.6034 355.032 67.6034H329.143L331.972 48.657ZM421.683 51.293H466.522V34.7081H421.683L419.441 20.2649H469.618V1.81281H395.687L401.772 43.0005L395.687 84.1883H470.152V65.7362H419.441L421.683 51.293ZM467.305 68.6651H416.103L419.254 48.3641H463.675V37.637H419.254L416.103 17.336H466.771V4.74172H398.999L404.652 43.0005L398.999 81.2594H467.305V68.6651ZM505.004 52.3914H545.947V84.1883H568.099V1.81281H545.947V32.2917H505.004V1.81281H482.851V84.1883H505.004V52.3914ZM502.157 81.2594V49.4624H548.794V81.2594H565.252V4.74172H548.794V35.2206H502.157V4.74172H485.698V81.2594H502.157ZM605.092 52.3914H646.035V84.1883H668.188V1.81281H646.035V32.2917H605.092V1.81281H582.939V84.1883H605.092V52.3914ZM602.245 81.2594V49.4624H648.882V81.2594H665.341V4.74172H648.882V35.2206H602.245V4.74172H585.786V81.2594H602.245ZM768.703 20.5395C764.753 14.0227 759.184 8.97033 751.995 5.38242C744.806 1.7945 736.515 0.000549316 727.12 0.000549316C717.725 0.000549316 709.433 1.7945 702.244 5.38242C695.056 8.97033 689.469 14.0227 685.483 20.5395C681.533 27.0197 679.558 34.5067 679.558 43.0005C679.558 51.4944 681.533 58.9997 685.483 65.5165C689.469 71.9967 695.056 77.0308 702.244 80.6187C709.433 84.2066 717.725 86.0005 727.12 86.0005C736.515 86.0005 744.806 84.2066 751.995 80.6187C759.184 77.0308 764.753 71.9967 768.703 65.5165C772.689 58.9997 774.682 51.4944 774.682 43.0005C774.682 34.5067 772.689 27.0197 768.703 20.5395ZM687.893 63.9573C691.575 69.9401 696.742 74.6171 703.487 77.9835C710.226 81.347 718.08 83.0716 727.12 83.0716C736.159 83.0716 744.013 81.347 750.752 77.9835C757.498 74.6167 762.646 69.9404 766.291 63.9604L766.293 63.9567C769.964 57.9545 771.835 51.0013 771.835 43.0005C771.835 34.9995 769.964 28.0677 766.297 22.1056L766.292 22.0975L766.287 22.0893C762.641 16.0739 757.494 11.3823 750.752 8.01758C744.013 4.65414 736.159 2.92946 727.12 2.92946C718.08 2.92946 710.226 4.65414 703.487 8.01758C696.744 11.3832 691.575 16.0778 687.893 22.0993C684.259 28.0619 682.405 34.9961 682.405 43.0005C682.405 51.0022 684.258 57.9559 687.893 63.9573ZM712.511 65.5318L712.507 65.5295C708.276 63.4763 704.925 60.4931 702.551 56.5773L702.545 56.5676L702.539 56.5579C700.196 52.6248 699.077 48.0685 699.077 43.0005C699.077 37.9326 700.196 33.3763 702.539 29.4432L702.545 29.4335L702.551 29.4238C704.925 25.508 708.276 22.5248 712.507 20.4716L712.511 20.4693L712.516 20.4671C716.775 18.4198 721.668 17.4458 727.12 17.4458C732.568 17.4458 737.446 18.4184 741.673 20.4687C745.938 22.5195 749.297 25.504 751.64 29.433C754.023 33.367 755.162 37.9272 755.162 43.0005C755.162 48.0739 754.023 52.634 751.64 56.568C749.297 60.4967 745.939 63.481 741.674 65.5318C737.447 67.5823 732.568 68.5553 727.12 68.5553C721.668 68.5553 716.775 67.5813 712.516 65.534L712.511 65.5318ZM740.465 62.8805C744.273 61.0499 747.191 58.4322 749.219 55.0274C751.283 51.6225 752.315 47.6136 752.315 43.0005C752.315 38.3875 751.283 34.3786 749.219 30.9737C747.191 27.5689 744.273 24.9512 740.465 23.1206C736.692 21.29 732.244 20.3748 727.12 20.3748C721.995 20.3748 717.529 21.29 713.721 23.1206C709.949 24.9512 707.031 27.5689 704.967 30.9737C702.938 34.3786 701.924 38.3875 701.924 43.0005C701.924 47.6136 702.938 51.6225 704.967 55.0274C707.031 58.4322 709.949 61.0499 713.721 62.8805C717.529 64.7111 721.995 65.6263 727.12 65.6263C732.244 65.6263 736.692 64.7111 740.465 62.8805ZM851.693 4.55866C845.038 1.51992 837.512 0.000549316 829.113 0.000549316C819.896 0.000549316 811.764 1.7945 804.718 5.38242C797.672 8.97033 792.209 14.0227 788.33 20.5395C784.487 27.0197 782.565 34.5067 782.565 43.0005C782.565 51.4944 784.487 58.9997 788.33 65.5165C792.209 71.9967 797.672 77.0308 804.718 80.6187C811.764 84.2066 819.896 86.0005 829.113 86.0005C837.512 86.0005 845.038 84.4995 851.693 81.4974C858.348 78.4586 863.703 74.2117 867.76 68.7566C871.259 64.0207 873.54 58.6449 874.604 52.6293C874.774 51.6693 874.912 50.693 875.02 49.7004H852.76C851.729 55.0823 849.166 59.2011 845.074 62.0567C841.017 64.8758 835.679 66.2854 829.06 66.2854C824.113 66.2854 819.825 65.3518 816.195 63.4846C812.601 61.5808 809.825 58.8899 807.868 55.4118C805.946 51.8971 804.985 47.76 804.985 43.0005C804.985 38.2411 805.946 34.1223 807.868 30.6442C809.825 27.1295 812.601 24.4386 816.195 22.5714C819.825 20.6676 824.113 19.7158 829.06 19.7158C835.608 19.7158 840.928 21.1802 845.02 24.1091C849.113 27.038 851.693 31.1019 852.76 36.3007H875.02C874.912 35.3077 874.774 34.3314 874.604 33.3718C873.54 27.3609 871.259 22.0035 867.76 17.2994C863.703 11.8077 858.348 7.56079 851.693 4.55866ZM929.978 22.0772H960.511V1.81281H877.291V22.0772H907.825V84.1883H929.978V22.0772ZM927.131 81.2594V19.1483H957.664V4.74172H880.138V19.1483H910.672V81.2594H927.131ZM871.706 33.3718C870.682 28.0099 868.609 23.2602 865.499 19.0791L865.494 19.0716C861.754 14.0095 856.799 10.0603 850.55 7.24101L850.544 7.23838L850.538 7.23572C844.299 4.38663 837.174 2.92946 829.113 2.92946C820.259 2.92946 812.572 4.6511 805.981 8.00739C799.386 11.3654 794.34 16.051 790.758 22.0691C787.22 28.0358 785.412 34.981 785.412 43.0005C785.412 51.0181 787.22 57.9837 790.76 63.9897C794.341 69.9679 799.385 74.6353 805.981 77.9937C812.572 81.35 820.259 83.0716 829.113 83.0716C837.177 83.0716 844.304 81.6317 850.545 78.8171C856.8 75.9598 861.758 72.007 865.497 66.9796C868.609 62.7657 870.683 57.9963 871.707 52.6293H854.992C853.569 57.5984 850.801 61.5994 846.672 64.4807L846.667 64.4839C842 67.7268 836.051 69.2143 829.06 69.2143C823.766 69.2143 819.024 68.2145 814.922 66.1043L814.907 66.0965L814.892 66.0886C810.831 63.9376 807.644 60.8602 805.404 56.8793L805.395 56.8636L805.386 56.8477C803.185 52.8216 802.138 48.172 802.138 43.0005C802.138 37.8301 803.185 33.193 805.393 29.1969L805.397 29.1882C807.637 25.1667 810.828 22.08 814.904 19.9608C819.011 17.8075 823.76 16.7868 829.06 16.7868C836.008 16.7868 841.947 18.3418 846.646 21.7048C850.721 24.6212 853.499 28.5466 854.959 33.3718H871.706ZM991.833 1.81281H969.947V84.1883H998.079L1038.11 23.2854V84.1883H1060V1.81281H1031.07L991.833 61.5076V1.81281ZM1032.58 4.74172L988.986 71.068V4.74172H972.794V81.2594H996.567L1040.96 13.7262V81.2594H1057.15V4.74172H1032.58Z" fill="#6A6373"/>
</svg>
