<svg xmlns="http://www.w3.org/2000/svg" fill="none" viewBox="0 0 154 226">
  <path fill="#F9F3DE"
    d="M128.148 196.208h.067l-8.27-7.841 9.881-7.882 9.976-7.988.389-.907v-33.566l-1.732 3.108-4.229 7.721-1.342 2.44-1.276.187-6.122.84-9.049 1.254-15.131 2.094 51.77-49.036-56.832 23.351h-.725L77.788 148.32l-.846.906-.913-.92-17.521-18.123-.201-.08-.108-.107h-.148L.938 106.406l24.905 23.59h-.04l6.994 6.642 8.324-4.828-2.161 10.669 14.057 13.309-16.286-2.254-2.148 10.615-3.048-7.028-4.927 11.922-2.04 4.961v-22.137l-1.8-.24-2.027-.28-.55-1.027-6.7-12.162v33.526l.376.853 19.212 15.376.725.574-.39.373-8.551 8.095-5.049 4.774L.951 219.612l25.738-10.562h.013l23.24-10.615-7.586 15.896L76.834 226l36.291-12.282-6.311-15.283 20.435 10.749 25.831 10.668-22.273-21.097-2.659-2.494v-.053ZM91.388 185.5a171.402 171.402 0 0 0-3.732 2.253c-.014.027-.068.04-.08.067a9.652 9.652 0 0 1-.887.533l-9.855 3.508-8.35-2.974c-.605-.374-1.195-.734-1.813-1.107-.08-.067-.188-.12-.296-.187-1.356-.84-2.725-1.653-4.081-2.48v-5.961l9.398 2.947.35.12 4.779 1.494 5.196-1.614.12-.04 9.238-2.907v6.348h.013Z" />
  <path fill="#F9F3DE"
    d="M153.806 42.328c-1.088 20.976-7.881 39.246-20.958 54.636l-39.674 16.309h-1.678l-1.302 1.347-13.252 13.723-13.13-13.563-.631-.653-.161-.067-.766-.787h-1.14L21.09 96.737c-.402-.453-.805-.907-1.195-1.36-9.881-11.775-15.694-25.418-18.245-40.5C-.754 40.753-.324 26.63 1.61 12.508 2.16 8.482 2.79 4.467 3.434.053 13.09 8.321 22.487 16.376 31.51 24.111c-1.745 5.2-3.813 10.028-4.954 15.056-3.424 15.19-2.028 29.805 6.753 43.128 5.062 7.668 20.461 15.789 20.944 16.042L40.424 78.521l21.991-16.563 7.693 26.178 6.431-18.057 7.358 18.083 7.693-26.151 21.844 18.63L99.35 98.484s12.379-5.84 17.118-10.882c7.465-7.935 11.184-17.523 12.312-28.205 1.289-12.255-.994-23.844-6.66-34.953C131.505 16.39 140.903 8.334 150.637 0c.846 5.948 1.772 11.469 2.377 17.03.899 8.401 1.235 16.816.792 25.284v.014Z" />
  <path fill="#EE2759"
    d="M132.928 147.106c-.966 3.067-2.967 5.548-5.545 7.188a13.742 13.742 0 0 1-11.291 1.56c-.027 0-.04 0-.067-.026a13.458 13.458 0 0 1-6.874-4.788l6.86-3.587c.819 2.094 2.887 3.587 5.331 3.587 3.141 0 5.692-2.493 5.692-5.547a5.463 5.463 0 0 0-1.074-3.241l6.726-3.521a12.67 12.67 0 0 1 .256 8.375h-.014Z" />
</svg>
