<svg width="31" height="30" viewBox="0 0 31 30" fill="none" xmlns="http://www.w3.org/2000/svg">
<g clip-path="url(#clip0_1016_3467)">
<path d="M30.2503 26.2183V26.278H30.3073C30.318 26.2781 30.3285 26.2755 30.3379 26.2703C30.3416 26.2678 30.3446 26.2643 30.3466 26.2604C30.3486 26.2564 30.3495 26.2519 30.3493 26.2475C30.3495 26.2432 30.3486 26.2388 30.3465 26.2349C30.3445 26.231 30.3415 26.2277 30.3379 26.2253C30.3286 26.2199 30.318 26.2172 30.3073 26.2177H30.2503V26.2183ZM30.3079 26.176C30.3323 26.1746 30.3565 26.1814 30.3764 26.1954C30.3843 26.2018 30.3906 26.2099 30.3948 26.2191C30.399 26.2282 30.4009 26.2382 30.4004 26.2483C30.4007 26.2569 30.3992 26.2655 30.3959 26.2735C30.3926 26.2815 30.3875 26.2887 30.3811 26.2947C30.3658 26.3077 30.3466 26.3155 30.3264 26.3169L30.4028 26.402H30.344L30.2736 26.3175H30.2509V26.402H30.2016V26.1762H30.3087L30.3079 26.176ZM30.2926 26.4799C30.3184 26.4801 30.344 26.475 30.3677 26.4649C30.3905 26.4554 30.4112 26.4416 30.4288 26.4245C30.4464 26.4074 30.4605 26.3871 30.4702 26.3648C30.4903 26.3175 30.4903 26.2644 30.4702 26.2171C30.4603 26.1948 30.4463 26.1746 30.4288 26.1574C30.4112 26.1403 30.3905 26.1265 30.3677 26.1169C30.3439 26.1074 30.3183 26.1026 30.2926 26.1029C30.2664 26.1027 30.2405 26.1074 30.2162 26.1169C30.1928 26.1263 30.1716 26.1401 30.1536 26.1574C30.1266 26.1845 30.1083 26.2187 30.1011 26.2558C30.0938 26.293 30.0979 26.3314 30.1128 26.3663C30.1221 26.3887 30.136 26.409 30.1536 26.426C30.1716 26.4433 30.1929 26.457 30.2162 26.4664C30.2403 26.4765 30.2663 26.4816 30.2926 26.4814M30.2926 26.0486C30.3598 26.0485 30.4243 26.0742 30.4722 26.1202C30.4953 26.1423 30.5137 26.1686 30.5263 26.1977C30.5394 26.2275 30.5461 26.2596 30.5461 26.2921C30.5461 26.3245 30.5394 26.3566 30.5263 26.3864C30.5134 26.4153 30.4951 26.4416 30.4722 26.4639C30.4488 26.4858 30.4215 26.5035 30.3917 26.5161C30.3603 26.5291 30.3266 26.5357 30.2926 26.5355C30.2582 26.5358 30.2241 26.5292 30.1923 26.5161C30.1621 26.5038 30.1346 26.4861 30.1111 26.4639C30.0883 26.4408 30.0702 26.4136 30.0578 26.3839C30.0447 26.3541 30.038 26.322 30.038 26.2895C30.038 26.2571 30.0447 26.225 30.0578 26.1951C30.0704 26.1661 30.0888 26.1398 30.1119 26.1177C30.1351 26.0951 30.1627 26.0773 30.1931 26.0655C30.2248 26.0524 30.2589 26.0458 30.2934 26.046M6.88508 25.1766C6.88508 24.7461 7.174 24.3924 7.64622 24.3924C8.09749 24.3924 8.40201 24.7309 8.40201 25.1766C8.40201 25.6224 8.09749 25.9608 7.64622 25.9608C7.174 25.9608 6.88508 25.6072 6.88508 25.1766ZM8.91642 25.1766V23.9514H8.37083V24.2499C8.19778 24.0293 7.9353 23.891 7.57835 23.891C6.87514 23.891 6.32328 24.4294 6.32328 25.1772C6.32328 25.925 6.87484 26.4634 7.57835 26.4634C7.93515 26.4634 8.19778 26.325 8.37083 26.1045V26.402H8.91581V25.1766H8.91642ZM27.3514 25.1766C27.3514 24.7461 27.6403 24.3924 28.1127 24.3924C28.5644 24.3924 28.8685 24.7309 28.8685 25.1766C28.8685 25.6224 28.5644 25.9608 28.1127 25.9608C27.6405 25.9608 27.3514 25.6072 27.3514 25.1766ZM29.3833 25.1766V22.968H28.8373V24.2499C28.6642 24.0293 28.4017 23.891 28.0448 23.891C27.3416 23.891 26.7897 24.4294 26.7897 25.1772C26.7897 25.925 27.3413 26.4634 28.0448 26.4634C28.4017 26.4634 28.6642 26.325 28.8373 26.1045V26.402H29.3833V25.1766ZM15.688 24.3672C16.0396 24.3672 16.2654 24.5824 16.323 24.9613H15.0211C15.0794 24.6076 15.2994 24.3672 15.6881 24.3672M15.699 23.8897C14.9637 23.8897 14.4493 24.412 14.4493 25.1759C14.4493 25.9547 14.9843 26.4621 15.7355 26.4621C16.1134 26.4621 16.4595 26.37 16.764 26.1189L16.4967 25.7242C16.2863 25.8883 16.0185 25.9804 15.7667 25.9804C15.4151 25.9804 15.095 25.8215 15.0163 25.3805H16.8793C16.8846 25.3142 16.8901 25.2474 16.8901 25.1757C16.8846 24.4121 16.401 23.8895 15.6987 23.8895M22.2859 25.1757C22.2859 24.7452 22.5748 24.3915 23.047 24.3915C23.4983 24.3915 23.8028 24.73 23.8028 25.1757C23.8028 25.6215 23.4983 25.9599 23.047 25.9599C22.5748 25.9599 22.2857 25.6063 22.2857 25.1757M24.317 25.1757V23.9514H23.7718V24.2499C23.5981 24.0293 23.3362 23.891 22.9793 23.891C22.2761 23.891 21.7242 24.4294 21.7242 25.1772C21.7242 25.925 22.2758 26.4634 22.9793 26.4634C23.3362 26.4634 23.5981 26.325 23.7718 26.1045V26.402H24.3172V25.1766L24.317 25.1757ZM19.2048 25.1757C19.2048 25.9188 19.7346 26.462 20.5433 26.462C20.9212 26.462 21.173 26.3799 21.4452 26.1699L21.1832 25.7394C20.9784 25.8831 20.7633 25.9599 20.5259 25.9599C20.0903 25.9547 19.7701 25.6473 19.7701 25.1757C19.7701 24.7042 20.0903 24.3969 20.5259 24.3915C20.7627 24.3915 20.9777 24.4684 21.1832 24.6121L21.4452 24.1816C21.1725 23.9716 20.9207 23.8895 20.5433 23.8895C19.7346 23.8895 19.2048 24.4326 19.2048 25.1757ZM26.2383 23.8895C25.9236 23.8895 25.7186 24.0332 25.5769 24.2484V23.9514H25.0361V26.4006H25.5824V25.0277C25.5824 24.6224 25.7608 24.3972 26.1174 24.3972C26.2342 24.3956 26.3502 24.4165 26.4586 24.4588L26.6268 23.9568C26.506 23.9104 26.3485 23.89 26.238 23.89M11.6138 24.1462C11.3513 23.9773 10.9896 23.89 10.5907 23.89C9.95502 23.89 9.54579 24.1874 9.54579 24.674C9.54579 25.0734 9.85046 25.3197 10.4115 25.3966L10.6692 25.4324C10.9684 25.4735 11.1097 25.5503 11.1097 25.6886C11.1097 25.878 10.9109 25.9861 10.5378 25.9861C10.1599 25.9861 9.88715 25.8682 9.70325 25.7298L9.44688 26.1451C9.74605 26.3603 10.1239 26.463 10.5332 26.463C11.2578 26.463 11.6777 26.1299 11.6777 25.6636C11.6777 25.233 11.3472 25.0079 10.8012 24.931L10.544 24.8946C10.3078 24.8647 10.1186 24.8183 10.1186 24.6542C10.1186 24.4751 10.297 24.3674 10.5963 24.3674C10.9166 24.3674 11.2266 24.4852 11.3786 24.5773L11.6147 24.1468L11.6138 24.1462ZM18.6537 23.8904C18.3389 23.8904 18.1339 24.0341 17.9928 24.2493V23.9514H17.4521V26.4006H17.9977V25.0277C17.9977 24.6224 18.1761 24.3972 18.5327 24.3972C18.6495 24.3956 18.7655 24.4165 18.8739 24.4588L19.0421 23.9568C18.9213 23.9104 18.7639 23.89 18.6533 23.89M13.9978 23.9514H13.1057V23.2084H12.5541V23.9514H12.0452V24.4382H12.5541V25.5555C12.5541 26.1238 12.7801 26.4623 13.4255 26.4623C13.6623 26.4623 13.935 26.3906 14.1081 26.2729L13.9504 25.8168C13.7876 25.9089 13.6092 25.9553 13.4674 25.9553C13.1947 25.9553 13.1057 25.7912 13.1057 25.5454V24.4387H13.9978V23.9514ZM5.84082 26.4012V24.8641C5.84082 24.2853 5.46292 23.8958 4.85374 23.8906C4.53347 23.8853 4.20312 23.9826 3.97183 24.3263C3.79878 24.0547 3.52606 23.8906 3.14266 23.8906C2.87468 23.8906 2.61281 23.9674 2.40781 24.2542V23.9514H1.86176V26.4006H2.41209V25.0426C2.41209 24.6175 2.65362 24.3915 3.02663 24.3915C3.38893 24.3915 3.57222 24.6221 3.57222 25.0373V26.4003H4.12378V25.0423C4.12378 24.6172 4.37556 24.3912 4.73771 24.3912C5.11025 24.3912 5.28804 24.6218 5.28804 25.037V26.4L5.84082 26.4012Z" fill="white"/>
<path d="M30.5613 18.2539V17.8958H30.4658L30.3552 18.1415L30.2453 17.8958H30.1495V18.2539H30.2174V17.9841L30.3207 18.2169H30.391L30.4944 17.9835V18.2539H30.5616H30.5613ZM29.9552 18.2539V17.9571H30.0775V17.8966H29.765V17.9571H29.8873V18.2539H29.9546H29.9552Z" fill="#F79410"/>
<path d="M19.7017 19.7901H11.4336V5.28491H19.7019L19.7017 19.7901Z" fill="#FF5F00"/>
<path d="M11.9579 12.5375C11.9579 9.59512 13.3692 6.97403 15.5669 5.28489C13.9034 4.00441 11.8459 3.30945 9.72739 3.31251C4.50886 3.31251 0.278625 7.44262 0.278625 12.5375C0.278625 17.6324 4.50886 21.7625 9.72739 21.7625C11.8459 21.7656 13.9035 21.0706 15.567 19.7901C13.3695 18.1013 11.9579 15.48 11.9579 12.5375Z" fill="#EB001B"/>
<path d="M30.8566 12.5375C30.8566 17.6324 26.6264 21.7625 21.4079 21.7625C19.2891 21.7655 17.2313 21.0706 15.5674 19.7901C17.7657 18.101 19.177 15.48 19.177 12.5375C19.177 9.59497 17.7657 6.97403 15.5674 5.28489C17.2313 4.00445 19.289 3.30951 21.4077 3.31251C26.6262 3.31251 30.8565 7.44262 30.8565 12.5375" fill="#F79E1B"/>
</g>
<defs>
<clipPath id="clip0_1016_3467">
<rect width="30.5741" height="29.8461" fill="white" transform="translate(0.278625)"/>
</clipPath>
</defs>
</svg>
