<svg width="55" height="18" viewBox="0 0 55 18" fill="none" xmlns="http://www.w3.org/2000/svg">
<g clip-path="url(#clip0_1016_3473)">
<path d="M24.196 17.4064H19.8323L22.5617 0.494141H26.9252L24.196 17.4064Z" fill="#00579F"/>
<path d="M40.0149 0.907402C39.1542 0.565205 37.789 0.187378 36.101 0.187378C31.7916 0.187378 28.757 2.49021 28.7384 5.78257C28.7026 8.21166 30.9111 9.56083 32.5629 10.3708C34.2511 11.1984 34.825 11.7386 34.825 12.4763C34.8078 13.6093 33.4608 14.1316 32.2044 14.1316C30.4622 14.1316 29.5287 13.8623 28.1101 13.232L27.5355 12.9618L26.9249 16.7582C27.9483 17.2255 29.8339 17.6401 31.7916 17.6583C36.3704 17.6583 39.3513 15.3911 39.3866 11.8826C39.404 9.95732 38.2378 8.48212 35.7237 7.27666C34.1974 6.50283 33.2627 5.98104 33.2627 5.18928C33.2806 4.4695 34.0533 3.73226 35.7762 3.73226C37.1948 3.69615 38.2371 4.03787 39.0267 4.37982L39.4214 4.55941L40.0149 0.907402Z" fill="#00579F"/>
<path d="M45.8144 11.415C46.1738 10.4434 47.5566 6.68309 47.5566 6.68309C47.5385 6.7192 47.9153 5.69357 48.1307 5.06393L48.4357 6.5212C48.4357 6.5212 49.2621 10.5694 49.4415 11.415C48.7595 11.415 46.6763 11.415 45.8144 11.415ZM51.2009 0.494141H47.8255C46.7847 0.494141 45.9939 0.79975 45.5448 1.89736L39.063 17.4062H43.6417C43.6417 17.4062 44.3955 15.3188 44.5576 14.8693C45.0599 14.8693 49.514 14.8693 50.1602 14.8693C50.2855 15.463 50.6809 17.4062 50.6809 17.4062H54.7213L51.2009 0.494141Z" fill="#00579F"/>
<path d="M16.1873 0.494141L11.9137 12.0267L11.4467 9.68777C10.6566 6.98894 8.17876 4.05671 5.41357 2.59873L9.32798 17.3885H13.9425L20.8015 0.494141H16.1873Z" fill="#00579F"/>
<path d="M7.9455 0.494141H0.92467L0.852844 0.835859C6.32953 2.23932 9.95663 5.6223 11.4468 9.68849L9.9206 1.91577C9.66932 0.83562 8.89713 0.529771 7.9455 0.494141Z" fill="#FAA61A"/>
</g>
<defs>
<clipPath id="clip0_1016_3473">
<rect width="53.8686" height="17.4709" fill="white" transform="translate(0.852722 0.187622)"/>
</clipPath>
</defs>
</svg>
